G04 EAGLE Gerber RS-274X export*
G75*
%MOMM*%
%FSLAX34Y34*%
%LPD*%
%INTop Copper*%
%IPPOS*%
%AMOC8*
5,1,8,0,0,1.08239X$1,22.5*%
G01*
%ADD10C,1.524000*%
%ADD11C,0.500000*%

G36*
X11032Y39765D02*
X11032Y39765D01*
X11103Y39771D01*
X11151Y39791D01*
X11202Y39802D01*
X11263Y39839D01*
X11329Y39867D01*
X11385Y39912D01*
X11413Y39928D01*
X11428Y39946D01*
X11460Y39972D01*
X13980Y42491D01*
X21390Y45561D01*
X28733Y45561D01*
X28804Y45572D01*
X28875Y45574D01*
X28924Y45592D01*
X28976Y45600D01*
X29039Y45634D01*
X29106Y45659D01*
X29147Y45691D01*
X29193Y45716D01*
X29243Y45768D01*
X29299Y45812D01*
X29327Y45856D01*
X29363Y45894D01*
X29393Y45959D01*
X29432Y46019D01*
X29444Y46070D01*
X29466Y46117D01*
X29474Y46188D01*
X29492Y46258D01*
X29488Y46310D01*
X29493Y46361D01*
X29478Y46432D01*
X29472Y46503D01*
X29452Y46551D01*
X29441Y46602D01*
X29404Y46663D01*
X29376Y46729D01*
X29331Y46785D01*
X29315Y46813D01*
X29297Y46828D01*
X29271Y46860D01*
X27401Y48731D01*
X25479Y53370D01*
X25479Y73630D01*
X27401Y78269D01*
X30951Y81819D01*
X35590Y83741D01*
X36188Y83741D01*
X36208Y83744D01*
X36227Y83742D01*
X36329Y83764D01*
X36431Y83780D01*
X36448Y83790D01*
X36468Y83794D01*
X36557Y83847D01*
X36648Y83896D01*
X36662Y83910D01*
X36679Y83920D01*
X36746Y83999D01*
X36818Y84074D01*
X36826Y84092D01*
X36839Y84107D01*
X36878Y84203D01*
X36921Y84297D01*
X36923Y84317D01*
X36931Y84335D01*
X36949Y84502D01*
X36949Y191992D01*
X38091Y194749D01*
X65601Y222259D01*
X68358Y223401D01*
X103092Y223401D01*
X105849Y222259D01*
X107959Y220149D01*
X109101Y217392D01*
X109101Y208783D01*
X109115Y208693D01*
X109123Y208602D01*
X109135Y208572D01*
X109140Y208540D01*
X109183Y208460D01*
X109219Y208376D01*
X109245Y208343D01*
X109256Y208323D01*
X109279Y208301D01*
X109324Y208245D01*
X112299Y205269D01*
X113597Y202137D01*
X113635Y202076D01*
X113664Y202011D01*
X113699Y201972D01*
X113726Y201928D01*
X113782Y201882D01*
X113830Y201829D01*
X113876Y201804D01*
X113916Y201771D01*
X113983Y201745D01*
X114046Y201711D01*
X114097Y201702D01*
X114145Y201683D01*
X114217Y201680D01*
X114288Y201667D01*
X114339Y201675D01*
X114391Y201672D01*
X114460Y201692D01*
X114531Y201703D01*
X114577Y201727D01*
X114627Y201741D01*
X114686Y201782D01*
X114750Y201814D01*
X114787Y201852D01*
X114829Y201881D01*
X114872Y201939D01*
X114922Y201990D01*
X114957Y202053D01*
X114976Y202079D01*
X114983Y202101D01*
X115003Y202137D01*
X116301Y205269D01*
X119851Y208819D01*
X124490Y210741D01*
X129510Y210741D01*
X134149Y208819D01*
X137699Y205269D01*
X138997Y202137D01*
X139035Y202076D01*
X139064Y202011D01*
X139099Y201972D01*
X139126Y201928D01*
X139182Y201882D01*
X139230Y201829D01*
X139276Y201804D01*
X139316Y201771D01*
X139383Y201745D01*
X139446Y201711D01*
X139497Y201702D01*
X139545Y201683D01*
X139617Y201680D01*
X139688Y201667D01*
X139739Y201675D01*
X139791Y201672D01*
X139860Y201692D01*
X139931Y201703D01*
X139977Y201727D01*
X140027Y201741D01*
X140086Y201782D01*
X140150Y201814D01*
X140187Y201852D01*
X140229Y201881D01*
X140272Y201939D01*
X140322Y201990D01*
X140357Y202053D01*
X140376Y202079D01*
X140383Y202101D01*
X140403Y202137D01*
X141701Y205269D01*
X145251Y208819D01*
X149890Y210741D01*
X154910Y210741D01*
X159549Y208819D01*
X163099Y205269D01*
X165021Y200630D01*
X165021Y188802D01*
X165035Y188712D01*
X165043Y188621D01*
X165055Y188591D01*
X165060Y188559D01*
X165103Y188479D01*
X165139Y188395D01*
X165165Y188363D01*
X165176Y188342D01*
X165199Y188320D01*
X165244Y188264D01*
X190509Y162999D01*
X191651Y160242D01*
X191651Y84502D01*
X191654Y84482D01*
X191652Y84463D01*
X191674Y84361D01*
X191690Y84259D01*
X191700Y84242D01*
X191704Y84222D01*
X191757Y84133D01*
X191806Y84042D01*
X191820Y84028D01*
X191830Y84011D01*
X191909Y83944D01*
X191984Y83872D01*
X192002Y83864D01*
X192017Y83851D01*
X192113Y83812D01*
X192207Y83769D01*
X192227Y83767D01*
X192245Y83759D01*
X192412Y83741D01*
X193010Y83741D01*
X197649Y81819D01*
X201199Y78269D01*
X203121Y73630D01*
X203121Y53370D01*
X201199Y48731D01*
X199329Y46860D01*
X199287Y46802D01*
X199237Y46750D01*
X199216Y46703D01*
X199185Y46661D01*
X199164Y46592D01*
X199134Y46527D01*
X199128Y46475D01*
X199113Y46425D01*
X199115Y46354D01*
X199107Y46283D01*
X199118Y46232D01*
X199119Y46180D01*
X199144Y46112D01*
X199159Y46042D01*
X199186Y45997D01*
X199204Y45949D01*
X199248Y45893D01*
X199285Y45831D01*
X199325Y45797D01*
X199357Y45757D01*
X199418Y45718D01*
X199472Y45671D01*
X199520Y45652D01*
X199564Y45624D01*
X199634Y45606D01*
X199700Y45579D01*
X199772Y45571D01*
X199803Y45563D01*
X199826Y45565D01*
X199867Y45561D01*
X207210Y45561D01*
X214087Y42712D01*
X214131Y42702D01*
X214173Y42683D01*
X214250Y42674D01*
X214326Y42656D01*
X214372Y42661D01*
X214417Y42655D01*
X214494Y42672D01*
X214571Y42679D01*
X214613Y42698D01*
X214658Y42708D01*
X214725Y42748D01*
X214796Y42779D01*
X214830Y42810D01*
X214869Y42834D01*
X214920Y42893D01*
X214977Y42946D01*
X214999Y42986D01*
X215029Y43021D01*
X215058Y43093D01*
X215095Y43161D01*
X215104Y43206D01*
X215121Y43249D01*
X215136Y43385D01*
X215139Y43403D01*
X215138Y43408D01*
X215139Y43416D01*
X215139Y197884D01*
X215132Y197930D01*
X215134Y197975D01*
X215112Y198050D01*
X215100Y198127D01*
X215078Y198168D01*
X215065Y198212D01*
X215021Y198276D01*
X214984Y198344D01*
X214951Y198376D01*
X214925Y198414D01*
X214862Y198460D01*
X214806Y198514D01*
X214764Y198533D01*
X214728Y198561D01*
X214654Y198585D01*
X214583Y198617D01*
X214537Y198623D01*
X214494Y198637D01*
X214416Y198636D01*
X214339Y198645D01*
X214294Y198635D01*
X214248Y198634D01*
X214116Y198596D01*
X214098Y198592D01*
X214094Y198590D01*
X214087Y198588D01*
X207210Y195739D01*
X199190Y195739D01*
X191780Y198809D01*
X186109Y204480D01*
X183039Y211890D01*
X183039Y219910D01*
X186109Y227320D01*
X188528Y229740D01*
X188570Y229798D01*
X188619Y229850D01*
X188641Y229897D01*
X188672Y229939D01*
X188693Y230008D01*
X188723Y230073D01*
X188729Y230125D01*
X188744Y230175D01*
X188742Y230246D01*
X188750Y230317D01*
X188739Y230368D01*
X188738Y230420D01*
X188713Y230488D01*
X188698Y230558D01*
X188671Y230603D01*
X188653Y230651D01*
X188608Y230707D01*
X188572Y230769D01*
X188532Y230803D01*
X188500Y230843D01*
X188439Y230882D01*
X188385Y230929D01*
X188336Y230948D01*
X188293Y230976D01*
X188223Y230994D01*
X188157Y231021D01*
X188085Y231029D01*
X188054Y231037D01*
X188031Y231035D01*
X187990Y231039D01*
X40610Y231039D01*
X40539Y231028D01*
X40468Y231026D01*
X40419Y231008D01*
X40367Y231000D01*
X40304Y230966D01*
X40237Y230941D01*
X40196Y230909D01*
X40150Y230884D01*
X40101Y230832D01*
X40045Y230788D01*
X40016Y230744D01*
X39981Y230706D01*
X39950Y230641D01*
X39912Y230581D01*
X39899Y230530D01*
X39877Y230483D01*
X39869Y230412D01*
X39852Y230342D01*
X39856Y230290D01*
X39850Y230239D01*
X39865Y230168D01*
X39871Y230097D01*
X39891Y230049D01*
X39902Y229998D01*
X39939Y229937D01*
X39967Y229871D01*
X40012Y229815D01*
X40028Y229787D01*
X40046Y229772D01*
X40072Y229740D01*
X42491Y227320D01*
X45561Y219910D01*
X45561Y211890D01*
X42491Y204480D01*
X36820Y198809D01*
X29410Y195739D01*
X21390Y195739D01*
X13980Y198809D01*
X11460Y201328D01*
X11402Y201370D01*
X11350Y201419D01*
X11303Y201441D01*
X11261Y201472D01*
X11192Y201493D01*
X11127Y201523D01*
X11075Y201529D01*
X11025Y201544D01*
X10954Y201542D01*
X10883Y201550D01*
X10832Y201539D01*
X10780Y201538D01*
X10712Y201513D01*
X10642Y201498D01*
X10597Y201471D01*
X10549Y201453D01*
X10493Y201408D01*
X10431Y201372D01*
X10397Y201332D01*
X10357Y201300D01*
X10318Y201239D01*
X10271Y201185D01*
X10252Y201136D01*
X10224Y201093D01*
X10206Y201023D01*
X10179Y200957D01*
X10171Y200885D01*
X10163Y200854D01*
X10165Y200831D01*
X10161Y200790D01*
X10161Y40510D01*
X10172Y40439D01*
X10174Y40368D01*
X10192Y40319D01*
X10200Y40267D01*
X10234Y40204D01*
X10259Y40137D01*
X10291Y40096D01*
X10316Y40050D01*
X10368Y40001D01*
X10412Y39945D01*
X10456Y39916D01*
X10494Y39881D01*
X10559Y39850D01*
X10619Y39812D01*
X10670Y39799D01*
X10717Y39777D01*
X10788Y39769D01*
X10858Y39752D01*
X10910Y39756D01*
X10961Y39750D01*
X11032Y39765D01*
G37*
G36*
X127039Y74675D02*
X127039Y74675D01*
X127091Y74672D01*
X127160Y74692D01*
X127231Y74703D01*
X127277Y74727D01*
X127327Y74741D01*
X127386Y74782D01*
X127450Y74814D01*
X127487Y74852D01*
X127529Y74881D01*
X127572Y74939D01*
X127622Y74990D01*
X127657Y75053D01*
X127676Y75079D01*
X127683Y75101D01*
X127703Y75137D01*
X129001Y78269D01*
X132551Y81819D01*
X137190Y83741D01*
X142210Y83741D01*
X146849Y81819D01*
X149950Y78719D01*
X150008Y78677D01*
X150060Y78627D01*
X150107Y78606D01*
X150149Y78575D01*
X150218Y78554D01*
X150283Y78524D01*
X150335Y78518D01*
X150385Y78503D01*
X150456Y78505D01*
X150527Y78497D01*
X150578Y78508D01*
X150630Y78509D01*
X150698Y78534D01*
X150768Y78549D01*
X150813Y78576D01*
X150861Y78594D01*
X150917Y78638D01*
X150979Y78675D01*
X151013Y78715D01*
X151053Y78747D01*
X151092Y78808D01*
X151139Y78862D01*
X151158Y78910D01*
X151186Y78954D01*
X151204Y79024D01*
X151231Y79090D01*
X151239Y79162D01*
X151247Y79193D01*
X151245Y79216D01*
X151249Y79257D01*
X151249Y148978D01*
X151235Y149068D01*
X151227Y149159D01*
X151215Y149189D01*
X151210Y149221D01*
X151167Y149301D01*
X151131Y149385D01*
X151105Y149417D01*
X151094Y149438D01*
X151071Y149460D01*
X151026Y149516D01*
X130416Y170126D01*
X130322Y170193D01*
X130228Y170264D01*
X130222Y170266D01*
X130217Y170269D01*
X130105Y170304D01*
X129994Y170340D01*
X129988Y170340D01*
X129982Y170342D01*
X129865Y170339D01*
X129748Y170338D01*
X129741Y170336D01*
X129736Y170335D01*
X129718Y170329D01*
X129587Y170291D01*
X129510Y170259D01*
X124490Y170259D01*
X119851Y172181D01*
X116301Y175731D01*
X115003Y178863D01*
X114965Y178924D01*
X114936Y178989D01*
X114901Y179028D01*
X114874Y179072D01*
X114818Y179118D01*
X114770Y179171D01*
X114724Y179196D01*
X114684Y179229D01*
X114617Y179255D01*
X114554Y179289D01*
X114503Y179298D01*
X114455Y179317D01*
X114383Y179320D01*
X114312Y179333D01*
X114261Y179325D01*
X114209Y179328D01*
X114140Y179308D01*
X114069Y179297D01*
X114023Y179273D01*
X113973Y179259D01*
X113914Y179218D01*
X113850Y179186D01*
X113813Y179148D01*
X113771Y179119D01*
X113728Y179061D01*
X113678Y179010D01*
X113643Y178947D01*
X113624Y178921D01*
X113617Y178899D01*
X113597Y178863D01*
X112299Y175731D01*
X108749Y172181D01*
X104110Y170259D01*
X99090Y170259D01*
X94451Y172181D01*
X91350Y175281D01*
X91292Y175323D01*
X91240Y175373D01*
X91193Y175394D01*
X91151Y175425D01*
X91082Y175446D01*
X91017Y175476D01*
X90965Y175482D01*
X90915Y175497D01*
X90844Y175495D01*
X90773Y175503D01*
X90722Y175492D01*
X90670Y175491D01*
X90602Y175466D01*
X90532Y175451D01*
X90487Y175424D01*
X90439Y175406D01*
X90383Y175362D01*
X90321Y175325D01*
X90287Y175285D01*
X90247Y175253D01*
X90208Y175192D01*
X90161Y175138D01*
X90142Y175090D01*
X90114Y175046D01*
X90096Y174976D01*
X90069Y174910D01*
X90061Y174838D01*
X90053Y174807D01*
X90055Y174784D01*
X90051Y174743D01*
X90051Y84502D01*
X90054Y84482D01*
X90052Y84463D01*
X90074Y84361D01*
X90090Y84259D01*
X90100Y84242D01*
X90104Y84222D01*
X90157Y84133D01*
X90206Y84042D01*
X90220Y84028D01*
X90230Y84011D01*
X90309Y83944D01*
X90384Y83872D01*
X90402Y83864D01*
X90417Y83851D01*
X90513Y83812D01*
X90607Y83769D01*
X90627Y83767D01*
X90645Y83759D01*
X90812Y83741D01*
X91410Y83741D01*
X96049Y81819D01*
X99599Y78269D01*
X100897Y75137D01*
X100935Y75076D01*
X100964Y75011D01*
X100999Y74972D01*
X101026Y74928D01*
X101082Y74882D01*
X101130Y74829D01*
X101176Y74804D01*
X101216Y74771D01*
X101283Y74745D01*
X101346Y74711D01*
X101397Y74702D01*
X101445Y74683D01*
X101517Y74680D01*
X101588Y74667D01*
X101639Y74675D01*
X101691Y74672D01*
X101760Y74692D01*
X101831Y74703D01*
X101877Y74727D01*
X101927Y74741D01*
X101986Y74782D01*
X102050Y74814D01*
X102087Y74852D01*
X102129Y74881D01*
X102172Y74939D01*
X102222Y74990D01*
X102257Y75053D01*
X102276Y75079D01*
X102283Y75101D01*
X102303Y75137D01*
X103601Y78269D01*
X107151Y81819D01*
X111790Y83741D01*
X116810Y83741D01*
X121449Y81819D01*
X124999Y78269D01*
X126297Y75137D01*
X126335Y75076D01*
X126364Y75011D01*
X126399Y74972D01*
X126426Y74928D01*
X126482Y74882D01*
X126530Y74829D01*
X126576Y74804D01*
X126616Y74771D01*
X126683Y74745D01*
X126746Y74711D01*
X126797Y74702D01*
X126845Y74683D01*
X126917Y74680D01*
X126988Y74667D01*
X127039Y74675D01*
G37*
G36*
X188161Y10172D02*
X188161Y10172D01*
X188232Y10174D01*
X188281Y10192D01*
X188333Y10200D01*
X188396Y10234D01*
X188463Y10259D01*
X188504Y10291D01*
X188550Y10316D01*
X188599Y10368D01*
X188655Y10412D01*
X188684Y10456D01*
X188719Y10494D01*
X188750Y10559D01*
X188788Y10619D01*
X188801Y10670D01*
X188823Y10717D01*
X188831Y10788D01*
X188848Y10858D01*
X188844Y10910D01*
X188850Y10961D01*
X188835Y11032D01*
X188829Y11103D01*
X188809Y11151D01*
X188798Y11202D01*
X188761Y11263D01*
X188733Y11329D01*
X188688Y11385D01*
X188672Y11413D01*
X188654Y11428D01*
X188628Y11460D01*
X186109Y13980D01*
X183039Y21390D01*
X183039Y29410D01*
X186109Y36820D01*
X191248Y41960D01*
X191290Y42018D01*
X191339Y42070D01*
X191361Y42117D01*
X191392Y42159D01*
X191413Y42228D01*
X191443Y42293D01*
X191449Y42345D01*
X191464Y42395D01*
X191462Y42466D01*
X191470Y42537D01*
X191459Y42588D01*
X191458Y42640D01*
X191433Y42708D01*
X191418Y42778D01*
X191391Y42823D01*
X191373Y42871D01*
X191328Y42927D01*
X191292Y42989D01*
X191252Y43023D01*
X191220Y43063D01*
X191159Y43102D01*
X191105Y43149D01*
X191056Y43168D01*
X191013Y43196D01*
X190943Y43214D01*
X190877Y43241D01*
X190805Y43249D01*
X190774Y43257D01*
X190751Y43255D01*
X190710Y43259D01*
X187990Y43259D01*
X183351Y45181D01*
X179801Y48731D01*
X178503Y51863D01*
X178465Y51924D01*
X178436Y51989D01*
X178401Y52028D01*
X178374Y52072D01*
X178318Y52118D01*
X178270Y52171D01*
X178224Y52196D01*
X178184Y52229D01*
X178117Y52255D01*
X178054Y52289D01*
X178003Y52298D01*
X177955Y52317D01*
X177883Y52320D01*
X177812Y52333D01*
X177761Y52325D01*
X177709Y52328D01*
X177640Y52308D01*
X177569Y52297D01*
X177523Y52273D01*
X177473Y52259D01*
X177414Y52218D01*
X177350Y52186D01*
X177313Y52148D01*
X177271Y52119D01*
X177228Y52061D01*
X177178Y52010D01*
X177143Y51947D01*
X177124Y51921D01*
X177117Y51899D01*
X177097Y51863D01*
X175799Y48731D01*
X172249Y45181D01*
X167610Y43259D01*
X162590Y43259D01*
X157951Y45181D01*
X154401Y48731D01*
X153103Y51863D01*
X153065Y51924D01*
X153036Y51989D01*
X153001Y52028D01*
X152974Y52072D01*
X152918Y52118D01*
X152870Y52171D01*
X152824Y52196D01*
X152784Y52229D01*
X152717Y52255D01*
X152654Y52289D01*
X152603Y52298D01*
X152555Y52317D01*
X152483Y52320D01*
X152412Y52333D01*
X152361Y52325D01*
X152309Y52328D01*
X152240Y52308D01*
X152169Y52297D01*
X152123Y52273D01*
X152073Y52259D01*
X152014Y52218D01*
X151950Y52186D01*
X151913Y52148D01*
X151871Y52119D01*
X151828Y52061D01*
X151778Y52010D01*
X151743Y51947D01*
X151724Y51921D01*
X151717Y51899D01*
X151697Y51863D01*
X150399Y48731D01*
X146849Y45181D01*
X142210Y43259D01*
X137190Y43259D01*
X132551Y45181D01*
X129001Y48731D01*
X127703Y51863D01*
X127665Y51924D01*
X127636Y51989D01*
X127601Y52028D01*
X127574Y52072D01*
X127518Y52118D01*
X127470Y52171D01*
X127424Y52196D01*
X127384Y52229D01*
X127317Y52255D01*
X127254Y52289D01*
X127203Y52298D01*
X127155Y52317D01*
X127083Y52320D01*
X127012Y52333D01*
X126961Y52325D01*
X126909Y52328D01*
X126840Y52308D01*
X126769Y52297D01*
X126723Y52273D01*
X126673Y52259D01*
X126614Y52218D01*
X126550Y52186D01*
X126513Y52148D01*
X126471Y52119D01*
X126428Y52061D01*
X126378Y52010D01*
X126343Y51947D01*
X126324Y51921D01*
X126317Y51899D01*
X126297Y51863D01*
X124999Y48731D01*
X121449Y45181D01*
X116810Y43259D01*
X111790Y43259D01*
X107151Y45181D01*
X103601Y48731D01*
X102303Y51863D01*
X102265Y51924D01*
X102236Y51989D01*
X102201Y52028D01*
X102174Y52072D01*
X102118Y52118D01*
X102070Y52171D01*
X102024Y52196D01*
X101984Y52229D01*
X101917Y52255D01*
X101854Y52289D01*
X101803Y52298D01*
X101755Y52317D01*
X101683Y52320D01*
X101612Y52333D01*
X101561Y52325D01*
X101509Y52328D01*
X101440Y52308D01*
X101369Y52297D01*
X101323Y52273D01*
X101273Y52259D01*
X101214Y52218D01*
X101150Y52186D01*
X101113Y52148D01*
X101071Y52119D01*
X101028Y52061D01*
X100978Y52010D01*
X100943Y51947D01*
X100924Y51921D01*
X100917Y51899D01*
X100897Y51863D01*
X99599Y48731D01*
X96049Y45181D01*
X91410Y43259D01*
X86390Y43259D01*
X81751Y45181D01*
X78201Y48731D01*
X76903Y51863D01*
X76865Y51924D01*
X76836Y51989D01*
X76801Y52028D01*
X76774Y52072D01*
X76718Y52118D01*
X76670Y52171D01*
X76624Y52196D01*
X76584Y52229D01*
X76517Y52255D01*
X76454Y52289D01*
X76403Y52298D01*
X76355Y52317D01*
X76283Y52320D01*
X76212Y52333D01*
X76161Y52325D01*
X76109Y52328D01*
X76040Y52308D01*
X75969Y52297D01*
X75923Y52273D01*
X75873Y52259D01*
X75814Y52218D01*
X75750Y52186D01*
X75713Y52148D01*
X75671Y52119D01*
X75628Y52061D01*
X75578Y52010D01*
X75543Y51947D01*
X75524Y51921D01*
X75517Y51899D01*
X75497Y51863D01*
X74199Y48731D01*
X70649Y45181D01*
X66010Y43259D01*
X60990Y43259D01*
X56351Y45181D01*
X52801Y48731D01*
X51503Y51863D01*
X51465Y51924D01*
X51436Y51989D01*
X51401Y52028D01*
X51374Y52072D01*
X51318Y52118D01*
X51270Y52171D01*
X51224Y52196D01*
X51184Y52229D01*
X51117Y52255D01*
X51054Y52289D01*
X51003Y52298D01*
X50955Y52317D01*
X50883Y52320D01*
X50812Y52333D01*
X50761Y52325D01*
X50709Y52328D01*
X50640Y52308D01*
X50569Y52297D01*
X50523Y52273D01*
X50473Y52259D01*
X50414Y52218D01*
X50350Y52186D01*
X50313Y52148D01*
X50271Y52119D01*
X50228Y52061D01*
X50178Y52010D01*
X50143Y51947D01*
X50124Y51921D01*
X50117Y51899D01*
X50097Y51863D01*
X48799Y48731D01*
X45249Y45181D01*
X40610Y43259D01*
X37890Y43259D01*
X37819Y43248D01*
X37748Y43246D01*
X37699Y43228D01*
X37647Y43220D01*
X37584Y43186D01*
X37517Y43161D01*
X37476Y43129D01*
X37430Y43104D01*
X37381Y43052D01*
X37325Y43008D01*
X37296Y42964D01*
X37261Y42926D01*
X37230Y42861D01*
X37192Y42801D01*
X37179Y42750D01*
X37157Y42703D01*
X37149Y42632D01*
X37132Y42562D01*
X37136Y42510D01*
X37130Y42459D01*
X37145Y42388D01*
X37151Y42317D01*
X37171Y42269D01*
X37182Y42218D01*
X37219Y42157D01*
X37247Y42091D01*
X37292Y42035D01*
X37308Y42007D01*
X37326Y41992D01*
X37352Y41960D01*
X42491Y36820D01*
X45561Y29410D01*
X45561Y21390D01*
X42491Y13980D01*
X39972Y11460D01*
X39930Y11402D01*
X39881Y11350D01*
X39859Y11303D01*
X39828Y11261D01*
X39807Y11192D01*
X39777Y11127D01*
X39771Y11075D01*
X39756Y11025D01*
X39758Y10954D01*
X39750Y10883D01*
X39761Y10832D01*
X39762Y10780D01*
X39787Y10712D01*
X39802Y10642D01*
X39829Y10597D01*
X39847Y10549D01*
X39892Y10493D01*
X39928Y10431D01*
X39968Y10397D01*
X40000Y10357D01*
X40061Y10318D01*
X40115Y10271D01*
X40164Y10252D01*
X40207Y10224D01*
X40277Y10206D01*
X40343Y10179D01*
X40415Y10171D01*
X40446Y10163D01*
X40469Y10165D01*
X40510Y10161D01*
X188090Y10161D01*
X188161Y10172D01*
G37*
G36*
X74378Y78508D02*
X74378Y78508D01*
X74430Y78509D01*
X74498Y78534D01*
X74568Y78549D01*
X74613Y78576D01*
X74661Y78594D01*
X74717Y78638D01*
X74779Y78675D01*
X74813Y78715D01*
X74853Y78747D01*
X74892Y78808D01*
X74939Y78862D01*
X74958Y78910D01*
X74986Y78954D01*
X75004Y79024D01*
X75031Y79090D01*
X75039Y79162D01*
X75047Y79193D01*
X75045Y79216D01*
X75049Y79257D01*
X75049Y169498D01*
X75046Y169518D01*
X75048Y169537D01*
X75026Y169639D01*
X75010Y169741D01*
X75000Y169758D01*
X74996Y169778D01*
X74943Y169867D01*
X74894Y169958D01*
X74880Y169972D01*
X74870Y169989D01*
X74791Y170056D01*
X74716Y170128D01*
X74698Y170136D01*
X74683Y170149D01*
X74587Y170188D01*
X74493Y170231D01*
X74473Y170233D01*
X74455Y170241D01*
X74288Y170259D01*
X73690Y170259D01*
X69051Y172181D01*
X65501Y175731D01*
X63579Y180370D01*
X63579Y197184D01*
X63568Y197255D01*
X63566Y197326D01*
X63548Y197375D01*
X63540Y197427D01*
X63506Y197490D01*
X63481Y197557D01*
X63449Y197598D01*
X63424Y197644D01*
X63372Y197693D01*
X63328Y197749D01*
X63284Y197777D01*
X63246Y197813D01*
X63181Y197844D01*
X63121Y197882D01*
X63070Y197895D01*
X63023Y197917D01*
X62952Y197925D01*
X62882Y197942D01*
X62830Y197938D01*
X62779Y197944D01*
X62708Y197929D01*
X62637Y197923D01*
X62589Y197903D01*
X62538Y197892D01*
X62477Y197855D01*
X62411Y197827D01*
X62355Y197782D01*
X62327Y197766D01*
X62312Y197748D01*
X62280Y197722D01*
X52174Y187616D01*
X52121Y187542D01*
X52061Y187473D01*
X52049Y187442D01*
X52030Y187416D01*
X52003Y187329D01*
X51969Y187244D01*
X51965Y187204D01*
X51958Y187181D01*
X51959Y187149D01*
X51951Y187078D01*
X51951Y79257D01*
X51962Y79186D01*
X51964Y79115D01*
X51982Y79066D01*
X51990Y79014D01*
X52024Y78951D01*
X52049Y78884D01*
X52081Y78843D01*
X52106Y78797D01*
X52158Y78747D01*
X52202Y78691D01*
X52246Y78663D01*
X52284Y78627D01*
X52349Y78597D01*
X52409Y78558D01*
X52460Y78546D01*
X52507Y78524D01*
X52578Y78516D01*
X52648Y78498D01*
X52700Y78502D01*
X52751Y78497D01*
X52822Y78512D01*
X52893Y78518D01*
X52941Y78538D01*
X52992Y78549D01*
X53053Y78586D01*
X53119Y78614D01*
X53175Y78659D01*
X53203Y78675D01*
X53218Y78693D01*
X53250Y78719D01*
X56351Y81819D01*
X60990Y83741D01*
X66010Y83741D01*
X70649Y81819D01*
X73750Y78719D01*
X73808Y78677D01*
X73860Y78627D01*
X73907Y78606D01*
X73949Y78575D01*
X74018Y78554D01*
X74083Y78524D01*
X74135Y78518D01*
X74185Y78503D01*
X74256Y78505D01*
X74327Y78497D01*
X74378Y78508D01*
G37*
G36*
X175978Y78508D02*
X175978Y78508D01*
X176030Y78509D01*
X176098Y78534D01*
X176168Y78549D01*
X176213Y78576D01*
X176261Y78594D01*
X176317Y78638D01*
X176379Y78675D01*
X176413Y78715D01*
X176453Y78747D01*
X176492Y78808D01*
X176539Y78862D01*
X176558Y78910D01*
X176586Y78954D01*
X176604Y79024D01*
X176631Y79090D01*
X176639Y79162D01*
X176647Y79193D01*
X176645Y79216D01*
X176649Y79257D01*
X176649Y155328D01*
X176635Y155418D01*
X176627Y155509D01*
X176615Y155539D01*
X176610Y155571D01*
X176567Y155651D01*
X176531Y155735D01*
X176505Y155767D01*
X176494Y155788D01*
X176471Y155810D01*
X176426Y155866D01*
X160307Y171986D01*
X160213Y172053D01*
X160118Y172124D01*
X160112Y172126D01*
X160107Y172129D01*
X159996Y172163D01*
X159884Y172200D01*
X159878Y172200D01*
X159872Y172202D01*
X159755Y172199D01*
X159638Y172198D01*
X159631Y172195D01*
X159626Y172195D01*
X159608Y172189D01*
X159477Y172151D01*
X154910Y170259D01*
X153336Y170259D01*
X153265Y170248D01*
X153194Y170246D01*
X153145Y170228D01*
X153093Y170220D01*
X153030Y170186D01*
X152963Y170161D01*
X152922Y170129D01*
X152876Y170104D01*
X152827Y170052D01*
X152771Y170008D01*
X152743Y169964D01*
X152707Y169926D01*
X152676Y169861D01*
X152638Y169801D01*
X152625Y169750D01*
X152603Y169703D01*
X152595Y169632D01*
X152578Y169562D01*
X152582Y169510D01*
X152576Y169459D01*
X152591Y169388D01*
X152597Y169317D01*
X152617Y169269D01*
X152628Y169218D01*
X152665Y169157D01*
X152693Y169091D01*
X152738Y169035D01*
X152754Y169007D01*
X152772Y168992D01*
X152798Y168960D01*
X165109Y156649D01*
X166251Y153892D01*
X166251Y84502D01*
X166254Y84482D01*
X166252Y84463D01*
X166274Y84361D01*
X166290Y84259D01*
X166300Y84242D01*
X166304Y84222D01*
X166357Y84133D01*
X166406Y84042D01*
X166420Y84028D01*
X166430Y84011D01*
X166509Y83944D01*
X166584Y83872D01*
X166602Y83864D01*
X166617Y83851D01*
X166713Y83812D01*
X166807Y83769D01*
X166827Y83767D01*
X166845Y83759D01*
X167012Y83741D01*
X167610Y83741D01*
X172249Y81819D01*
X175350Y78719D01*
X175408Y78677D01*
X175460Y78627D01*
X175507Y78606D01*
X175549Y78575D01*
X175618Y78554D01*
X175683Y78524D01*
X175735Y78518D01*
X175785Y78503D01*
X175856Y78505D01*
X175927Y78497D01*
X175978Y78508D01*
G37*
G36*
X88939Y201675D02*
X88939Y201675D01*
X88991Y201672D01*
X89060Y201692D01*
X89131Y201703D01*
X89177Y201727D01*
X89227Y201741D01*
X89286Y201782D01*
X89350Y201814D01*
X89387Y201852D01*
X89429Y201881D01*
X89472Y201939D01*
X89522Y201990D01*
X89557Y202053D01*
X89576Y202079D01*
X89583Y202101D01*
X89603Y202137D01*
X90901Y205269D01*
X92731Y207100D01*
X92773Y207158D01*
X92823Y207210D01*
X92844Y207257D01*
X92875Y207299D01*
X92896Y207368D01*
X92926Y207433D01*
X92932Y207485D01*
X92947Y207535D01*
X92945Y207606D01*
X92953Y207677D01*
X92942Y207728D01*
X92941Y207780D01*
X92916Y207848D01*
X92901Y207918D01*
X92874Y207963D01*
X92856Y208011D01*
X92812Y208067D01*
X92775Y208129D01*
X92735Y208163D01*
X92703Y208203D01*
X92642Y208242D01*
X92588Y208289D01*
X92540Y208308D01*
X92496Y208336D01*
X92426Y208354D01*
X92360Y208381D01*
X92288Y208389D01*
X92257Y208397D01*
X92234Y208395D01*
X92193Y208399D01*
X85607Y208399D01*
X85536Y208388D01*
X85465Y208386D01*
X85416Y208368D01*
X85364Y208360D01*
X85301Y208326D01*
X85234Y208301D01*
X85193Y208269D01*
X85147Y208244D01*
X85097Y208192D01*
X85041Y208148D01*
X85013Y208104D01*
X84977Y208066D01*
X84947Y208001D01*
X84908Y207941D01*
X84896Y207890D01*
X84874Y207843D01*
X84866Y207772D01*
X84848Y207702D01*
X84852Y207650D01*
X84847Y207599D01*
X84862Y207528D01*
X84868Y207457D01*
X84888Y207409D01*
X84899Y207358D01*
X84936Y207297D01*
X84964Y207231D01*
X85009Y207175D01*
X85025Y207147D01*
X85043Y207132D01*
X85069Y207100D01*
X86899Y205269D01*
X88197Y202137D01*
X88235Y202076D01*
X88264Y202011D01*
X88299Y201972D01*
X88326Y201928D01*
X88382Y201882D01*
X88430Y201829D01*
X88476Y201804D01*
X88516Y201771D01*
X88583Y201745D01*
X88646Y201711D01*
X88697Y201702D01*
X88745Y201683D01*
X88817Y201680D01*
X88888Y201667D01*
X88939Y201675D01*
G37*
D10*
X152400Y198120D02*
X152400Y182880D01*
X127000Y182880D02*
X127000Y198120D01*
X101600Y198120D02*
X101600Y182880D01*
X76200Y182880D02*
X76200Y198120D01*
X38100Y71120D02*
X38100Y55880D01*
X63500Y55880D02*
X63500Y71120D01*
X88900Y71120D02*
X88900Y55880D01*
X114300Y55880D02*
X114300Y71120D01*
X139700Y71120D02*
X139700Y55880D01*
X165100Y55880D02*
X165100Y71120D01*
X190500Y71120D02*
X190500Y55880D01*
D11*
X88900Y63500D02*
X82550Y69850D01*
X82550Y184150D01*
X76200Y190500D01*
X44450Y69850D02*
X38100Y63500D01*
X44450Y69850D02*
X44450Y190500D01*
X69850Y215900D01*
X101600Y215900D01*
X101600Y190500D01*
X158750Y69850D02*
X165100Y63500D01*
X158750Y69850D02*
X158750Y152400D01*
X127000Y184150D01*
X127000Y190500D01*
X184150Y69850D02*
X190500Y63500D01*
X184150Y69850D02*
X184150Y158750D01*
X152400Y190500D01*
M02*
