G04 EAGLE Gerber RS-274X export*
G75*
%MOMM*%
%FSLAX34Y34*%
%LPD*%
%IN*%
%IPPOS*%
%AMOC8*
5,1,8,0,0,1.08239X$1,22.5*%
G01*
%ADD10C,0.254000*%


D10*
X0Y0D02*
X225300Y0D01*
X225300Y241200D01*
X0Y241200D01*
X0Y0D01*
X35400Y24963D02*
X35324Y24094D01*
X35172Y23234D01*
X34946Y22390D01*
X34648Y21570D01*
X34279Y20778D01*
X33842Y20022D01*
X33341Y19307D01*
X32780Y18638D01*
X32162Y18020D01*
X31493Y17459D01*
X30778Y16958D01*
X30022Y16521D01*
X29230Y16152D01*
X28410Y15854D01*
X27566Y15628D01*
X26707Y15476D01*
X25837Y15400D01*
X24963Y15400D01*
X24094Y15476D01*
X23234Y15628D01*
X22390Y15854D01*
X21570Y16152D01*
X20778Y16521D01*
X20022Y16958D01*
X19307Y17459D01*
X18638Y18020D01*
X18020Y18638D01*
X17459Y19307D01*
X16958Y20022D01*
X16521Y20778D01*
X16152Y21570D01*
X15854Y22390D01*
X15628Y23234D01*
X15476Y24094D01*
X15400Y24963D01*
X15400Y25837D01*
X15476Y26707D01*
X15628Y27566D01*
X15854Y28410D01*
X16152Y29230D01*
X16521Y30022D01*
X16958Y30778D01*
X17459Y31493D01*
X18020Y32162D01*
X18638Y32780D01*
X19307Y33341D01*
X20022Y33842D01*
X20778Y34279D01*
X21570Y34648D01*
X22390Y34946D01*
X23234Y35172D01*
X24094Y35324D01*
X24963Y35400D01*
X25837Y35400D01*
X26707Y35324D01*
X27566Y35172D01*
X28410Y34946D01*
X29230Y34648D01*
X30022Y34279D01*
X30778Y33842D01*
X31493Y33341D01*
X32162Y32780D01*
X32780Y32162D01*
X33341Y31493D01*
X33842Y30778D01*
X34279Y30022D01*
X34648Y29230D01*
X34946Y28410D01*
X35172Y27566D01*
X35324Y26707D01*
X35400Y25837D01*
X35400Y24963D01*
X213200Y24963D02*
X213124Y24094D01*
X212972Y23234D01*
X212746Y22390D01*
X212448Y21570D01*
X212079Y20778D01*
X211642Y20022D01*
X211141Y19307D01*
X210580Y18638D01*
X209962Y18020D01*
X209293Y17459D01*
X208578Y16958D01*
X207822Y16521D01*
X207030Y16152D01*
X206210Y15854D01*
X205366Y15628D01*
X204507Y15476D01*
X203637Y15400D01*
X202763Y15400D01*
X201894Y15476D01*
X201034Y15628D01*
X200190Y15854D01*
X199370Y16152D01*
X198578Y16521D01*
X197822Y16958D01*
X197107Y17459D01*
X196438Y18020D01*
X195820Y18638D01*
X195259Y19307D01*
X194758Y20022D01*
X194321Y20778D01*
X193952Y21570D01*
X193654Y22390D01*
X193428Y23234D01*
X193276Y24094D01*
X193200Y24963D01*
X193200Y25837D01*
X193276Y26707D01*
X193428Y27566D01*
X193654Y28410D01*
X193952Y29230D01*
X194321Y30022D01*
X194758Y30778D01*
X195259Y31493D01*
X195820Y32162D01*
X196438Y32780D01*
X197107Y33341D01*
X197822Y33842D01*
X198578Y34279D01*
X199370Y34648D01*
X200190Y34946D01*
X201034Y35172D01*
X201894Y35324D01*
X202763Y35400D01*
X203637Y35400D01*
X204507Y35324D01*
X205366Y35172D01*
X206210Y34946D01*
X207030Y34648D01*
X207822Y34279D01*
X208578Y33842D01*
X209293Y33341D01*
X209962Y32780D01*
X210580Y32162D01*
X211141Y31493D01*
X211642Y30778D01*
X212079Y30022D01*
X212448Y29230D01*
X212746Y28410D01*
X212972Y27566D01*
X213124Y26707D01*
X213200Y25837D01*
X213200Y24963D01*
X213200Y215463D02*
X213124Y214594D01*
X212972Y213734D01*
X212746Y212890D01*
X212448Y212070D01*
X212079Y211278D01*
X211642Y210522D01*
X211141Y209807D01*
X210580Y209138D01*
X209962Y208520D01*
X209293Y207959D01*
X208578Y207458D01*
X207822Y207021D01*
X207030Y206652D01*
X206210Y206354D01*
X205366Y206128D01*
X204507Y205976D01*
X203637Y205900D01*
X202763Y205900D01*
X201894Y205976D01*
X201034Y206128D01*
X200190Y206354D01*
X199370Y206652D01*
X198578Y207021D01*
X197822Y207458D01*
X197107Y207959D01*
X196438Y208520D01*
X195820Y209138D01*
X195259Y209807D01*
X194758Y210522D01*
X194321Y211278D01*
X193952Y212070D01*
X193654Y212890D01*
X193428Y213734D01*
X193276Y214594D01*
X193200Y215463D01*
X193200Y216337D01*
X193276Y217207D01*
X193428Y218066D01*
X193654Y218910D01*
X193952Y219730D01*
X194321Y220522D01*
X194758Y221278D01*
X195259Y221993D01*
X195820Y222662D01*
X196438Y223280D01*
X197107Y223841D01*
X197822Y224342D01*
X198578Y224779D01*
X199370Y225148D01*
X200190Y225446D01*
X201034Y225672D01*
X201894Y225824D01*
X202763Y225900D01*
X203637Y225900D01*
X204507Y225824D01*
X205366Y225672D01*
X206210Y225446D01*
X207030Y225148D01*
X207822Y224779D01*
X208578Y224342D01*
X209293Y223841D01*
X209962Y223280D01*
X210580Y222662D01*
X211141Y221993D01*
X211642Y221278D01*
X212079Y220522D01*
X212448Y219730D01*
X212746Y218910D01*
X212972Y218066D01*
X213124Y217207D01*
X213200Y216337D01*
X213200Y215463D01*
X35400Y215463D02*
X35324Y214594D01*
X35172Y213734D01*
X34946Y212890D01*
X34648Y212070D01*
X34279Y211278D01*
X33842Y210522D01*
X33341Y209807D01*
X32780Y209138D01*
X32162Y208520D01*
X31493Y207959D01*
X30778Y207458D01*
X30022Y207021D01*
X29230Y206652D01*
X28410Y206354D01*
X27566Y206128D01*
X26707Y205976D01*
X25837Y205900D01*
X24963Y205900D01*
X24094Y205976D01*
X23234Y206128D01*
X22390Y206354D01*
X21570Y206652D01*
X20778Y207021D01*
X20022Y207458D01*
X19307Y207959D01*
X18638Y208520D01*
X18020Y209138D01*
X17459Y209807D01*
X16958Y210522D01*
X16521Y211278D01*
X16152Y212070D01*
X15854Y212890D01*
X15628Y213734D01*
X15476Y214594D01*
X15400Y215463D01*
X15400Y216337D01*
X15476Y217207D01*
X15628Y218066D01*
X15854Y218910D01*
X16152Y219730D01*
X16521Y220522D01*
X16958Y221278D01*
X17459Y221993D01*
X18020Y222662D01*
X18638Y223280D01*
X19307Y223841D01*
X20022Y224342D01*
X20778Y224779D01*
X21570Y225148D01*
X22390Y225446D01*
X23234Y225672D01*
X24094Y225824D01*
X24963Y225900D01*
X25837Y225900D01*
X26707Y225824D01*
X27566Y225672D01*
X28410Y225446D01*
X29230Y225148D01*
X30022Y224779D01*
X30778Y224342D01*
X31493Y223841D01*
X32162Y223280D01*
X32780Y222662D01*
X33341Y221993D01*
X33842Y221278D01*
X34279Y220522D01*
X34648Y219730D01*
X34946Y218910D01*
X35172Y218066D01*
X35324Y217207D01*
X35400Y216337D01*
X35400Y215463D01*
M02*
