G04 EAGLE Gerber RS-274X export*
G75*
%MOMM*%
%FSLAX34Y34*%
%LPD*%
%INSilkscreen Top*%
%IPPOS*%
%AMOC8*
5,1,8,0,0,1.08239X$1,22.5*%
G01*
%ADD10C,0.152400*%
%ADD11C,0.127000*%


D10*
X102362Y222984D02*
X113199Y222984D01*
X75099Y222984D02*
X64262Y222984D01*
X69681Y228402D02*
X69681Y217565D01*
X107950Y177800D02*
X114300Y184150D01*
X107950Y177800D02*
X95250Y177800D01*
X88900Y184150D01*
X88900Y196850D01*
X95250Y203200D01*
X107950Y203200D01*
X114300Y196850D01*
X146050Y177800D02*
X158750Y177800D01*
X146050Y177800D02*
X139700Y184150D01*
X139700Y196850D01*
X146050Y203200D01*
X139700Y184150D02*
X133350Y177800D01*
X120650Y177800D01*
X114300Y184150D01*
X114300Y196850D01*
X120650Y203200D01*
X133350Y203200D01*
X139700Y196850D01*
X165100Y196850D02*
X165100Y184150D01*
X158750Y177800D01*
X165100Y196850D02*
X158750Y203200D01*
X146050Y203200D01*
X82550Y177800D02*
X69850Y177800D01*
X63500Y184150D01*
X63500Y196850D01*
X69850Y203200D01*
X88900Y184150D02*
X82550Y177800D01*
X88900Y196850D02*
X82550Y203200D01*
X69850Y203200D01*
D11*
X142785Y171577D02*
X142785Y160147D01*
X141515Y160147D02*
X144055Y160147D01*
X144055Y171577D02*
X141515Y171577D01*
X152247Y171578D02*
X152351Y171576D01*
X152456Y171570D01*
X152560Y171561D01*
X152663Y171548D01*
X152766Y171530D01*
X152868Y171510D01*
X152970Y171485D01*
X153070Y171457D01*
X153170Y171425D01*
X153268Y171389D01*
X153365Y171350D01*
X153460Y171308D01*
X153554Y171262D01*
X153646Y171212D01*
X153736Y171160D01*
X153824Y171104D01*
X153910Y171044D01*
X153994Y170982D01*
X154075Y170917D01*
X154154Y170849D01*
X154231Y170777D01*
X154304Y170704D01*
X154376Y170627D01*
X154444Y170548D01*
X154509Y170467D01*
X154571Y170383D01*
X154631Y170297D01*
X154687Y170209D01*
X154739Y170119D01*
X154789Y170027D01*
X154835Y169933D01*
X154877Y169838D01*
X154916Y169741D01*
X154952Y169643D01*
X154984Y169543D01*
X155012Y169443D01*
X155037Y169341D01*
X155057Y169239D01*
X155075Y169136D01*
X155088Y169033D01*
X155097Y168929D01*
X155103Y168824D01*
X155105Y168720D01*
X152247Y171577D02*
X152129Y171575D01*
X152010Y171569D01*
X151892Y171560D01*
X151775Y171547D01*
X151658Y171529D01*
X151541Y171509D01*
X151425Y171484D01*
X151310Y171456D01*
X151197Y171423D01*
X151084Y171388D01*
X150972Y171348D01*
X150862Y171306D01*
X150753Y171259D01*
X150645Y171209D01*
X150540Y171156D01*
X150436Y171099D01*
X150334Y171039D01*
X150234Y170976D01*
X150136Y170909D01*
X150040Y170840D01*
X149947Y170767D01*
X149856Y170691D01*
X149767Y170613D01*
X149681Y170531D01*
X149598Y170447D01*
X149517Y170361D01*
X149440Y170271D01*
X149365Y170180D01*
X149293Y170086D01*
X149224Y169989D01*
X149159Y169891D01*
X149096Y169790D01*
X149037Y169687D01*
X148981Y169583D01*
X148929Y169477D01*
X148880Y169369D01*
X148835Y169260D01*
X148793Y169149D01*
X148755Y169037D01*
X154152Y166498D02*
X154228Y166573D01*
X154303Y166652D01*
X154374Y166733D01*
X154443Y166817D01*
X154508Y166903D01*
X154570Y166991D01*
X154630Y167081D01*
X154686Y167173D01*
X154739Y167268D01*
X154788Y167364D01*
X154834Y167462D01*
X154877Y167561D01*
X154916Y167662D01*
X154951Y167764D01*
X154983Y167867D01*
X155011Y167971D01*
X155036Y168076D01*
X155057Y168183D01*
X155074Y168289D01*
X155087Y168396D01*
X155096Y168504D01*
X155102Y168612D01*
X155104Y168720D01*
X154152Y166497D02*
X148754Y160147D01*
X155104Y160147D01*
X162687Y160147D02*
X165227Y160147D01*
X162687Y160147D02*
X162587Y160149D01*
X162488Y160155D01*
X162388Y160165D01*
X162290Y160178D01*
X162191Y160196D01*
X162094Y160217D01*
X161998Y160242D01*
X161902Y160271D01*
X161808Y160304D01*
X161715Y160340D01*
X161624Y160380D01*
X161534Y160424D01*
X161446Y160471D01*
X161360Y160521D01*
X161276Y160575D01*
X161194Y160632D01*
X161115Y160692D01*
X161037Y160756D01*
X160963Y160822D01*
X160891Y160891D01*
X160822Y160963D01*
X160756Y161037D01*
X160692Y161115D01*
X160632Y161194D01*
X160575Y161276D01*
X160521Y161360D01*
X160471Y161446D01*
X160424Y161534D01*
X160380Y161624D01*
X160340Y161715D01*
X160304Y161808D01*
X160271Y161902D01*
X160242Y161998D01*
X160217Y162094D01*
X160196Y162191D01*
X160178Y162290D01*
X160165Y162388D01*
X160155Y162488D01*
X160149Y162587D01*
X160147Y162687D01*
X160147Y169037D01*
X160149Y169137D01*
X160155Y169236D01*
X160165Y169336D01*
X160178Y169434D01*
X160196Y169533D01*
X160217Y169630D01*
X160242Y169726D01*
X160271Y169822D01*
X160304Y169916D01*
X160340Y170009D01*
X160380Y170100D01*
X160424Y170190D01*
X160471Y170278D01*
X160521Y170364D01*
X160575Y170448D01*
X160632Y170530D01*
X160692Y170609D01*
X160756Y170687D01*
X160822Y170761D01*
X160891Y170833D01*
X160963Y170902D01*
X161037Y170968D01*
X161115Y171032D01*
X161194Y171092D01*
X161276Y171149D01*
X161360Y171203D01*
X161446Y171253D01*
X161534Y171300D01*
X161624Y171344D01*
X161715Y171384D01*
X161808Y171420D01*
X161902Y171453D01*
X161998Y171482D01*
X162094Y171507D01*
X162191Y171528D01*
X162290Y171546D01*
X162388Y171559D01*
X162488Y171569D01*
X162587Y171575D01*
X162687Y171577D01*
X165227Y171577D01*
D10*
X158750Y76200D02*
X152400Y69850D01*
X158750Y76200D02*
X171450Y76200D01*
X177800Y69850D01*
X177800Y57150D01*
X171450Y50800D01*
X158750Y50800D01*
X152400Y57150D01*
X120650Y76200D02*
X107950Y76200D01*
X120650Y76200D02*
X127000Y69850D01*
X127000Y57150D01*
X120650Y50800D01*
X127000Y69850D02*
X133350Y76200D01*
X146050Y76200D01*
X152400Y69850D01*
X152400Y57150D01*
X146050Y50800D01*
X133350Y50800D01*
X127000Y57150D01*
X82550Y76200D02*
X76200Y69850D01*
X82550Y76200D02*
X95250Y76200D01*
X101600Y69850D01*
X101600Y57150D01*
X95250Y50800D01*
X82550Y50800D01*
X76200Y57150D01*
X101600Y69850D02*
X107950Y76200D01*
X101600Y57150D02*
X107950Y50800D01*
X120650Y50800D01*
X44450Y76200D02*
X31750Y76200D01*
X44450Y76200D02*
X50800Y69850D01*
X50800Y57150D01*
X44450Y50800D01*
X50800Y69850D02*
X57150Y76200D01*
X69850Y76200D01*
X76200Y69850D01*
X76200Y57150D01*
X69850Y50800D01*
X57150Y50800D01*
X50800Y57150D01*
X25400Y57150D02*
X25400Y69850D01*
X31750Y76200D01*
X25400Y57150D02*
X31750Y50800D01*
X44450Y50800D01*
X184150Y76200D02*
X196850Y76200D01*
X203200Y69850D01*
X203200Y57150D01*
X196850Y50800D01*
X177800Y69850D02*
X184150Y76200D01*
X177800Y57150D02*
X184150Y50800D01*
X196850Y50800D01*
D11*
X28448Y82423D02*
X28448Y93853D01*
X25273Y93853D02*
X31623Y93853D01*
X35941Y90678D02*
X35941Y85598D01*
X35941Y90678D02*
X35943Y90789D01*
X35949Y90899D01*
X35958Y91010D01*
X35972Y91120D01*
X35989Y91229D01*
X36010Y91338D01*
X36035Y91446D01*
X36064Y91553D01*
X36096Y91659D01*
X36132Y91764D01*
X36172Y91867D01*
X36215Y91969D01*
X36262Y92070D01*
X36313Y92169D01*
X36366Y92265D01*
X36423Y92360D01*
X36484Y92453D01*
X36547Y92544D01*
X36614Y92633D01*
X36684Y92719D01*
X36757Y92802D01*
X36832Y92884D01*
X36910Y92962D01*
X36992Y93037D01*
X37075Y93110D01*
X37161Y93180D01*
X37250Y93247D01*
X37341Y93310D01*
X37434Y93371D01*
X37528Y93428D01*
X37625Y93481D01*
X37724Y93532D01*
X37825Y93579D01*
X37927Y93622D01*
X38030Y93662D01*
X38135Y93698D01*
X38241Y93730D01*
X38348Y93759D01*
X38456Y93784D01*
X38565Y93805D01*
X38674Y93822D01*
X38784Y93836D01*
X38895Y93845D01*
X39005Y93851D01*
X39116Y93853D01*
X39227Y93851D01*
X39337Y93845D01*
X39448Y93836D01*
X39558Y93822D01*
X39667Y93805D01*
X39776Y93784D01*
X39884Y93759D01*
X39991Y93730D01*
X40097Y93698D01*
X40202Y93662D01*
X40305Y93622D01*
X40407Y93579D01*
X40508Y93532D01*
X40607Y93481D01*
X40704Y93428D01*
X40798Y93371D01*
X40891Y93310D01*
X40982Y93247D01*
X41071Y93180D01*
X41157Y93110D01*
X41240Y93037D01*
X41322Y92962D01*
X41400Y92884D01*
X41475Y92802D01*
X41548Y92719D01*
X41618Y92633D01*
X41685Y92544D01*
X41748Y92453D01*
X41809Y92360D01*
X41866Y92266D01*
X41919Y92169D01*
X41970Y92070D01*
X42017Y91969D01*
X42060Y91867D01*
X42100Y91764D01*
X42136Y91659D01*
X42168Y91553D01*
X42197Y91446D01*
X42222Y91338D01*
X42243Y91229D01*
X42260Y91120D01*
X42274Y91010D01*
X42283Y90899D01*
X42289Y90789D01*
X42291Y90678D01*
X42291Y85598D01*
X42289Y85487D01*
X42283Y85377D01*
X42274Y85266D01*
X42260Y85156D01*
X42243Y85047D01*
X42222Y84938D01*
X42197Y84830D01*
X42168Y84723D01*
X42136Y84617D01*
X42100Y84512D01*
X42060Y84409D01*
X42017Y84307D01*
X41970Y84206D01*
X41919Y84107D01*
X41866Y84010D01*
X41809Y83916D01*
X41748Y83823D01*
X41685Y83732D01*
X41618Y83643D01*
X41548Y83557D01*
X41475Y83474D01*
X41400Y83392D01*
X41322Y83314D01*
X41240Y83239D01*
X41157Y83166D01*
X41071Y83096D01*
X40982Y83029D01*
X40891Y82966D01*
X40798Y82905D01*
X40703Y82848D01*
X40607Y82795D01*
X40508Y82744D01*
X40407Y82697D01*
X40305Y82654D01*
X40202Y82614D01*
X40097Y82578D01*
X39991Y82546D01*
X39884Y82517D01*
X39776Y82492D01*
X39667Y82471D01*
X39558Y82454D01*
X39448Y82440D01*
X39337Y82431D01*
X39227Y82425D01*
X39116Y82423D01*
X39005Y82425D01*
X38895Y82431D01*
X38784Y82440D01*
X38674Y82454D01*
X38565Y82471D01*
X38456Y82492D01*
X38348Y82517D01*
X38241Y82546D01*
X38135Y82578D01*
X38030Y82614D01*
X37927Y82654D01*
X37825Y82697D01*
X37724Y82744D01*
X37625Y82795D01*
X37529Y82848D01*
X37434Y82905D01*
X37341Y82966D01*
X37250Y83029D01*
X37161Y83096D01*
X37075Y83166D01*
X36992Y83239D01*
X36910Y83314D01*
X36832Y83392D01*
X36757Y83474D01*
X36684Y83557D01*
X36614Y83643D01*
X36547Y83732D01*
X36484Y83823D01*
X36423Y83916D01*
X36366Y84011D01*
X36313Y84107D01*
X36262Y84206D01*
X36215Y84307D01*
X36172Y84409D01*
X36132Y84512D01*
X36096Y84617D01*
X36064Y84723D01*
X36035Y84830D01*
X36010Y84938D01*
X35989Y85047D01*
X35972Y85156D01*
X35958Y85266D01*
X35949Y85377D01*
X35943Y85487D01*
X35941Y85598D01*
X47777Y82423D02*
X47777Y93853D01*
X52857Y93853D01*
X52857Y88773D02*
X47777Y88773D01*
X60706Y82423D02*
X60806Y82425D01*
X60905Y82431D01*
X61005Y82441D01*
X61103Y82454D01*
X61202Y82472D01*
X61299Y82493D01*
X61395Y82518D01*
X61491Y82547D01*
X61585Y82580D01*
X61678Y82616D01*
X61769Y82656D01*
X61859Y82700D01*
X61947Y82747D01*
X62033Y82797D01*
X62117Y82851D01*
X62199Y82908D01*
X62278Y82968D01*
X62356Y83032D01*
X62430Y83098D01*
X62502Y83167D01*
X62571Y83239D01*
X62637Y83313D01*
X62701Y83391D01*
X62761Y83470D01*
X62818Y83552D01*
X62872Y83636D01*
X62922Y83722D01*
X62969Y83810D01*
X63013Y83900D01*
X63053Y83991D01*
X63089Y84084D01*
X63122Y84178D01*
X63151Y84274D01*
X63176Y84370D01*
X63197Y84467D01*
X63215Y84566D01*
X63228Y84664D01*
X63238Y84764D01*
X63244Y84863D01*
X63246Y84963D01*
X60706Y82423D02*
X60565Y82425D01*
X60424Y82430D01*
X60283Y82440D01*
X60142Y82453D01*
X60002Y82469D01*
X59862Y82490D01*
X59723Y82514D01*
X59584Y82542D01*
X59447Y82573D01*
X59310Y82608D01*
X59174Y82646D01*
X59039Y82688D01*
X58906Y82734D01*
X58773Y82783D01*
X58642Y82836D01*
X58513Y82892D01*
X58384Y82951D01*
X58258Y83014D01*
X58133Y83080D01*
X58010Y83149D01*
X57889Y83222D01*
X57770Y83298D01*
X57652Y83377D01*
X57537Y83458D01*
X57425Y83543D01*
X57314Y83631D01*
X57206Y83722D01*
X57100Y83815D01*
X56997Y83912D01*
X56896Y84011D01*
X57213Y91313D02*
X57215Y91413D01*
X57221Y91512D01*
X57231Y91612D01*
X57244Y91710D01*
X57262Y91809D01*
X57283Y91906D01*
X57308Y92002D01*
X57337Y92098D01*
X57370Y92192D01*
X57406Y92285D01*
X57446Y92376D01*
X57490Y92466D01*
X57537Y92554D01*
X57587Y92640D01*
X57641Y92724D01*
X57698Y92806D01*
X57758Y92885D01*
X57822Y92963D01*
X57888Y93037D01*
X57957Y93109D01*
X58029Y93178D01*
X58103Y93244D01*
X58181Y93308D01*
X58260Y93368D01*
X58342Y93425D01*
X58426Y93479D01*
X58512Y93529D01*
X58600Y93576D01*
X58690Y93620D01*
X58781Y93660D01*
X58874Y93696D01*
X58968Y93729D01*
X59064Y93758D01*
X59160Y93783D01*
X59257Y93804D01*
X59356Y93822D01*
X59454Y93835D01*
X59554Y93845D01*
X59653Y93851D01*
X59753Y93853D01*
X59753Y93854D02*
X59886Y93852D01*
X60019Y93847D01*
X60152Y93837D01*
X60285Y93824D01*
X60417Y93807D01*
X60549Y93787D01*
X60680Y93763D01*
X60810Y93735D01*
X60940Y93704D01*
X61068Y93669D01*
X61196Y93630D01*
X61322Y93588D01*
X61447Y93542D01*
X61571Y93493D01*
X61694Y93441D01*
X61815Y93385D01*
X61934Y93325D01*
X62052Y93263D01*
X62167Y93197D01*
X62281Y93128D01*
X62393Y93055D01*
X62503Y92980D01*
X62611Y92901D01*
X58483Y89090D02*
X58399Y89142D01*
X58316Y89197D01*
X58236Y89256D01*
X58158Y89317D01*
X58083Y89381D01*
X58010Y89449D01*
X57939Y89519D01*
X57872Y89591D01*
X57807Y89666D01*
X57745Y89744D01*
X57686Y89824D01*
X57630Y89906D01*
X57578Y89990D01*
X57529Y90076D01*
X57483Y90164D01*
X57440Y90254D01*
X57401Y90345D01*
X57366Y90438D01*
X57334Y90532D01*
X57306Y90627D01*
X57281Y90723D01*
X57261Y90820D01*
X57243Y90918D01*
X57230Y91016D01*
X57221Y91115D01*
X57215Y91214D01*
X57213Y91313D01*
X61976Y87186D02*
X62060Y87134D01*
X62143Y87079D01*
X62223Y87020D01*
X62301Y86959D01*
X62376Y86895D01*
X62449Y86827D01*
X62520Y86757D01*
X62587Y86685D01*
X62652Y86610D01*
X62714Y86532D01*
X62773Y86452D01*
X62829Y86370D01*
X62881Y86286D01*
X62930Y86200D01*
X62976Y86112D01*
X63019Y86022D01*
X63058Y85931D01*
X63093Y85838D01*
X63125Y85744D01*
X63153Y85649D01*
X63178Y85553D01*
X63198Y85456D01*
X63216Y85358D01*
X63229Y85260D01*
X63238Y85161D01*
X63244Y85062D01*
X63246Y84963D01*
X61976Y87186D02*
X58483Y89091D01*
X68351Y82423D02*
X73431Y82423D01*
X68351Y82423D02*
X68351Y93853D01*
X73431Y93853D01*
X72161Y88773D02*
X68351Y88773D01*
X78232Y93853D02*
X78232Y82423D01*
X84582Y82423D02*
X78232Y93853D01*
X84582Y93853D02*
X84582Y82423D01*
X93472Y82423D02*
X93572Y82425D01*
X93671Y82431D01*
X93771Y82441D01*
X93869Y82454D01*
X93968Y82472D01*
X94065Y82493D01*
X94161Y82518D01*
X94257Y82547D01*
X94351Y82580D01*
X94444Y82616D01*
X94535Y82656D01*
X94625Y82700D01*
X94713Y82747D01*
X94799Y82797D01*
X94883Y82851D01*
X94965Y82908D01*
X95044Y82968D01*
X95122Y83032D01*
X95196Y83098D01*
X95268Y83167D01*
X95337Y83239D01*
X95403Y83313D01*
X95467Y83391D01*
X95527Y83470D01*
X95584Y83552D01*
X95638Y83636D01*
X95688Y83722D01*
X95735Y83810D01*
X95779Y83900D01*
X95819Y83991D01*
X95855Y84084D01*
X95888Y84178D01*
X95917Y84274D01*
X95942Y84370D01*
X95963Y84467D01*
X95981Y84566D01*
X95994Y84664D01*
X96004Y84764D01*
X96010Y84863D01*
X96012Y84963D01*
X93472Y82423D02*
X93331Y82425D01*
X93190Y82430D01*
X93049Y82440D01*
X92908Y82453D01*
X92768Y82469D01*
X92628Y82490D01*
X92489Y82514D01*
X92350Y82542D01*
X92213Y82573D01*
X92076Y82608D01*
X91940Y82646D01*
X91805Y82688D01*
X91672Y82734D01*
X91539Y82783D01*
X91408Y82836D01*
X91279Y82892D01*
X91150Y82951D01*
X91024Y83014D01*
X90899Y83080D01*
X90776Y83149D01*
X90655Y83222D01*
X90536Y83298D01*
X90418Y83377D01*
X90303Y83458D01*
X90191Y83543D01*
X90080Y83631D01*
X89972Y83722D01*
X89866Y83815D01*
X89763Y83912D01*
X89662Y84011D01*
X89979Y91313D02*
X89981Y91413D01*
X89987Y91512D01*
X89997Y91612D01*
X90010Y91710D01*
X90028Y91809D01*
X90049Y91906D01*
X90074Y92002D01*
X90103Y92098D01*
X90136Y92192D01*
X90172Y92285D01*
X90212Y92376D01*
X90256Y92466D01*
X90303Y92554D01*
X90353Y92640D01*
X90407Y92724D01*
X90464Y92806D01*
X90524Y92885D01*
X90588Y92963D01*
X90654Y93037D01*
X90723Y93109D01*
X90795Y93178D01*
X90869Y93244D01*
X90947Y93308D01*
X91026Y93368D01*
X91108Y93425D01*
X91192Y93479D01*
X91278Y93529D01*
X91366Y93576D01*
X91456Y93620D01*
X91547Y93660D01*
X91640Y93696D01*
X91734Y93729D01*
X91830Y93758D01*
X91926Y93783D01*
X92023Y93804D01*
X92122Y93822D01*
X92220Y93835D01*
X92320Y93845D01*
X92419Y93851D01*
X92519Y93853D01*
X92519Y93854D02*
X92652Y93852D01*
X92785Y93847D01*
X92918Y93837D01*
X93051Y93824D01*
X93183Y93807D01*
X93315Y93787D01*
X93446Y93763D01*
X93576Y93735D01*
X93706Y93704D01*
X93834Y93669D01*
X93962Y93630D01*
X94088Y93588D01*
X94213Y93542D01*
X94337Y93493D01*
X94460Y93441D01*
X94581Y93385D01*
X94700Y93325D01*
X94818Y93263D01*
X94933Y93197D01*
X95047Y93128D01*
X95159Y93055D01*
X95269Y92980D01*
X95377Y92901D01*
X91249Y89090D02*
X91165Y89142D01*
X91082Y89197D01*
X91002Y89256D01*
X90924Y89317D01*
X90849Y89381D01*
X90776Y89449D01*
X90705Y89519D01*
X90638Y89591D01*
X90573Y89666D01*
X90511Y89744D01*
X90452Y89824D01*
X90396Y89906D01*
X90344Y89990D01*
X90295Y90076D01*
X90249Y90164D01*
X90206Y90254D01*
X90167Y90345D01*
X90132Y90438D01*
X90100Y90532D01*
X90072Y90627D01*
X90047Y90723D01*
X90027Y90820D01*
X90009Y90918D01*
X89996Y91016D01*
X89987Y91115D01*
X89981Y91214D01*
X89979Y91313D01*
X94742Y87186D02*
X94826Y87134D01*
X94909Y87079D01*
X94989Y87020D01*
X95067Y86959D01*
X95142Y86895D01*
X95215Y86827D01*
X95286Y86757D01*
X95353Y86685D01*
X95418Y86610D01*
X95480Y86532D01*
X95539Y86452D01*
X95595Y86370D01*
X95647Y86286D01*
X95696Y86200D01*
X95742Y86112D01*
X95785Y86022D01*
X95824Y85931D01*
X95859Y85838D01*
X95891Y85744D01*
X95919Y85649D01*
X95944Y85553D01*
X95964Y85456D01*
X95982Y85358D01*
X95995Y85260D01*
X96004Y85161D01*
X96010Y85062D01*
X96012Y84963D01*
X94742Y87186D02*
X91249Y89091D01*
X100711Y90678D02*
X100711Y85598D01*
X100711Y90678D02*
X100713Y90789D01*
X100719Y90899D01*
X100728Y91010D01*
X100742Y91120D01*
X100759Y91229D01*
X100780Y91338D01*
X100805Y91446D01*
X100834Y91553D01*
X100866Y91659D01*
X100902Y91764D01*
X100942Y91867D01*
X100985Y91969D01*
X101032Y92070D01*
X101083Y92169D01*
X101136Y92265D01*
X101193Y92360D01*
X101254Y92453D01*
X101317Y92544D01*
X101384Y92633D01*
X101454Y92719D01*
X101527Y92802D01*
X101602Y92884D01*
X101680Y92962D01*
X101762Y93037D01*
X101845Y93110D01*
X101931Y93180D01*
X102020Y93247D01*
X102111Y93310D01*
X102204Y93371D01*
X102299Y93428D01*
X102395Y93481D01*
X102494Y93532D01*
X102595Y93579D01*
X102697Y93622D01*
X102800Y93662D01*
X102905Y93698D01*
X103011Y93730D01*
X103118Y93759D01*
X103226Y93784D01*
X103335Y93805D01*
X103444Y93822D01*
X103554Y93836D01*
X103665Y93845D01*
X103775Y93851D01*
X103886Y93853D01*
X103997Y93851D01*
X104107Y93845D01*
X104218Y93836D01*
X104328Y93822D01*
X104437Y93805D01*
X104546Y93784D01*
X104654Y93759D01*
X104761Y93730D01*
X104867Y93698D01*
X104972Y93662D01*
X105075Y93622D01*
X105177Y93579D01*
X105278Y93532D01*
X105377Y93481D01*
X105474Y93428D01*
X105568Y93371D01*
X105661Y93310D01*
X105752Y93247D01*
X105841Y93180D01*
X105927Y93110D01*
X106010Y93037D01*
X106092Y92962D01*
X106170Y92884D01*
X106245Y92802D01*
X106318Y92719D01*
X106388Y92633D01*
X106455Y92544D01*
X106518Y92453D01*
X106579Y92360D01*
X106636Y92266D01*
X106689Y92169D01*
X106740Y92070D01*
X106787Y91969D01*
X106830Y91867D01*
X106870Y91764D01*
X106906Y91659D01*
X106938Y91553D01*
X106967Y91446D01*
X106992Y91338D01*
X107013Y91229D01*
X107030Y91120D01*
X107044Y91010D01*
X107053Y90899D01*
X107059Y90789D01*
X107061Y90678D01*
X107061Y85598D01*
X107059Y85487D01*
X107053Y85377D01*
X107044Y85266D01*
X107030Y85156D01*
X107013Y85047D01*
X106992Y84938D01*
X106967Y84830D01*
X106938Y84723D01*
X106906Y84617D01*
X106870Y84512D01*
X106830Y84409D01*
X106787Y84307D01*
X106740Y84206D01*
X106689Y84107D01*
X106636Y84010D01*
X106579Y83916D01*
X106518Y83823D01*
X106455Y83732D01*
X106388Y83643D01*
X106318Y83557D01*
X106245Y83474D01*
X106170Y83392D01*
X106092Y83314D01*
X106010Y83239D01*
X105927Y83166D01*
X105841Y83096D01*
X105752Y83029D01*
X105661Y82966D01*
X105568Y82905D01*
X105473Y82848D01*
X105377Y82795D01*
X105278Y82744D01*
X105177Y82697D01*
X105075Y82654D01*
X104972Y82614D01*
X104867Y82578D01*
X104761Y82546D01*
X104654Y82517D01*
X104546Y82492D01*
X104437Y82471D01*
X104328Y82454D01*
X104218Y82440D01*
X104107Y82431D01*
X103997Y82425D01*
X103886Y82423D01*
X103775Y82425D01*
X103665Y82431D01*
X103554Y82440D01*
X103444Y82454D01*
X103335Y82471D01*
X103226Y82492D01*
X103118Y82517D01*
X103011Y82546D01*
X102905Y82578D01*
X102800Y82614D01*
X102697Y82654D01*
X102595Y82697D01*
X102494Y82744D01*
X102395Y82795D01*
X102299Y82848D01*
X102204Y82905D01*
X102111Y82966D01*
X102020Y83029D01*
X101931Y83096D01*
X101845Y83166D01*
X101762Y83239D01*
X101680Y83314D01*
X101602Y83392D01*
X101527Y83474D01*
X101454Y83557D01*
X101384Y83643D01*
X101317Y83732D01*
X101254Y83823D01*
X101193Y83916D01*
X101136Y84011D01*
X101083Y84107D01*
X101032Y84206D01*
X100985Y84307D01*
X100942Y84409D01*
X100902Y84512D01*
X100866Y84617D01*
X100834Y84723D01*
X100805Y84830D01*
X100780Y84938D01*
X100759Y85047D01*
X100742Y85156D01*
X100728Y85266D01*
X100719Y85377D01*
X100713Y85487D01*
X100711Y85598D01*
X112605Y82423D02*
X112605Y93853D01*
X115780Y93853D01*
X115891Y93851D01*
X116001Y93845D01*
X116112Y93836D01*
X116222Y93822D01*
X116331Y93805D01*
X116440Y93784D01*
X116548Y93759D01*
X116655Y93730D01*
X116761Y93698D01*
X116866Y93662D01*
X116969Y93622D01*
X117071Y93579D01*
X117172Y93532D01*
X117271Y93481D01*
X117368Y93428D01*
X117462Y93371D01*
X117555Y93310D01*
X117646Y93247D01*
X117735Y93180D01*
X117821Y93110D01*
X117904Y93037D01*
X117986Y92962D01*
X118064Y92884D01*
X118139Y92802D01*
X118212Y92719D01*
X118282Y92633D01*
X118349Y92544D01*
X118412Y92453D01*
X118473Y92360D01*
X118530Y92265D01*
X118583Y92169D01*
X118634Y92070D01*
X118681Y91969D01*
X118724Y91867D01*
X118764Y91764D01*
X118800Y91659D01*
X118832Y91553D01*
X118861Y91446D01*
X118886Y91338D01*
X118907Y91229D01*
X118924Y91120D01*
X118938Y91010D01*
X118947Y90899D01*
X118953Y90789D01*
X118955Y90678D01*
X118953Y90567D01*
X118947Y90457D01*
X118938Y90346D01*
X118924Y90236D01*
X118907Y90127D01*
X118886Y90018D01*
X118861Y89910D01*
X118832Y89803D01*
X118800Y89697D01*
X118764Y89592D01*
X118724Y89489D01*
X118681Y89387D01*
X118634Y89286D01*
X118583Y89187D01*
X118530Y89090D01*
X118473Y88996D01*
X118412Y88903D01*
X118349Y88812D01*
X118282Y88723D01*
X118212Y88637D01*
X118139Y88554D01*
X118064Y88472D01*
X117986Y88394D01*
X117904Y88319D01*
X117821Y88246D01*
X117735Y88176D01*
X117646Y88109D01*
X117555Y88046D01*
X117462Y87985D01*
X117367Y87928D01*
X117271Y87875D01*
X117172Y87824D01*
X117071Y87777D01*
X116969Y87734D01*
X116866Y87694D01*
X116761Y87658D01*
X116655Y87626D01*
X116548Y87597D01*
X116440Y87572D01*
X116331Y87551D01*
X116222Y87534D01*
X116112Y87520D01*
X116001Y87511D01*
X115891Y87505D01*
X115780Y87503D01*
X112605Y87503D01*
X116415Y87503D02*
X118955Y82423D01*
M02*
