G04 EAGLE Gerber RS-274X export*
G75*
%MOMM*%
%FSLAX34Y34*%
%LPD*%
%INTop Copper*%
%IPPOS*%
%AMOC8*
5,1,8,0,0,1.08239X$1,22.5*%
G01*
%ADD10C,1.800000*%
%ADD11C,1.524000*%
%ADD12C,0.500000*%

G36*
X171792Y10168D02*
X171792Y10168D01*
X171838Y10166D01*
X171913Y10188D01*
X171990Y10200D01*
X172030Y10222D01*
X172074Y10235D01*
X172138Y10279D01*
X172207Y10316D01*
X172239Y10349D01*
X172276Y10375D01*
X172323Y10438D01*
X172377Y10494D01*
X172396Y10536D01*
X172423Y10572D01*
X172447Y10646D01*
X172480Y10717D01*
X172485Y10763D01*
X172499Y10806D01*
X172499Y10884D01*
X172507Y10961D01*
X172497Y11006D01*
X172497Y11052D01*
X172459Y11184D01*
X172455Y11202D01*
X172452Y11206D01*
X172450Y11213D01*
X170339Y16310D01*
X170339Y24330D01*
X173409Y31740D01*
X179080Y37411D01*
X186490Y40481D01*
X194510Y40481D01*
X201387Y37632D01*
X201431Y37622D01*
X201473Y37603D01*
X201550Y37594D01*
X201626Y37576D01*
X201672Y37581D01*
X201717Y37575D01*
X201794Y37592D01*
X201871Y37599D01*
X201913Y37618D01*
X201958Y37628D01*
X202025Y37668D01*
X202096Y37699D01*
X202130Y37730D01*
X202169Y37754D01*
X202220Y37813D01*
X202277Y37866D01*
X202299Y37906D01*
X202329Y37941D01*
X202358Y38013D01*
X202395Y38081D01*
X202404Y38126D01*
X202421Y38169D01*
X202436Y38305D01*
X202439Y38323D01*
X202438Y38328D01*
X202439Y38336D01*
X202439Y202964D01*
X202432Y203010D01*
X202434Y203055D01*
X202412Y203130D01*
X202400Y203207D01*
X202378Y203248D01*
X202365Y203292D01*
X202321Y203356D01*
X202284Y203424D01*
X202251Y203456D01*
X202225Y203494D01*
X202162Y203540D01*
X202106Y203594D01*
X202064Y203613D01*
X202028Y203641D01*
X201954Y203665D01*
X201883Y203697D01*
X201837Y203703D01*
X201794Y203717D01*
X201716Y203716D01*
X201639Y203725D01*
X201594Y203715D01*
X201548Y203714D01*
X201416Y203676D01*
X201398Y203672D01*
X201394Y203670D01*
X201387Y203668D01*
X194510Y200819D01*
X186490Y200819D01*
X179080Y203889D01*
X173409Y209560D01*
X170339Y216970D01*
X170339Y224990D01*
X172409Y229987D01*
X172419Y230031D01*
X172439Y230073D01*
X172447Y230150D01*
X172465Y230226D01*
X172461Y230272D01*
X172466Y230317D01*
X172449Y230394D01*
X172442Y230471D01*
X172423Y230513D01*
X172414Y230558D01*
X172374Y230625D01*
X172342Y230696D01*
X172311Y230730D01*
X172287Y230769D01*
X172228Y230820D01*
X172176Y230877D01*
X172135Y230899D01*
X172100Y230929D01*
X172028Y230958D01*
X171960Y230995D01*
X171915Y231004D01*
X171872Y231021D01*
X171736Y231036D01*
X171718Y231039D01*
X171713Y231038D01*
X171706Y231039D01*
X125769Y231039D01*
X125673Y231024D01*
X125576Y231014D01*
X125552Y231004D01*
X125527Y231000D01*
X125441Y230954D01*
X125351Y230914D01*
X125332Y230897D01*
X125309Y230884D01*
X125242Y230814D01*
X125170Y230748D01*
X125158Y230725D01*
X125140Y230706D01*
X125099Y230618D01*
X125052Y230532D01*
X125047Y230507D01*
X125036Y230483D01*
X125025Y230386D01*
X125008Y230290D01*
X125012Y230264D01*
X125009Y230239D01*
X125030Y230143D01*
X125044Y230047D01*
X125056Y230024D01*
X125061Y229998D01*
X125111Y229915D01*
X125155Y229828D01*
X125174Y229809D01*
X125187Y229787D01*
X125262Y229724D01*
X125331Y229656D01*
X125360Y229640D01*
X125374Y229627D01*
X125405Y229615D01*
X125478Y229575D01*
X126529Y229139D01*
X130079Y225589D01*
X132001Y220950D01*
X132001Y209122D01*
X132015Y209032D01*
X132023Y208941D01*
X132035Y208911D01*
X132040Y208879D01*
X132083Y208799D01*
X132119Y208715D01*
X132145Y208683D01*
X132156Y208662D01*
X132179Y208640D01*
X132224Y208584D01*
X138039Y202769D01*
X139181Y200012D01*
X139181Y184276D01*
X139200Y184161D01*
X139217Y184045D01*
X139219Y184039D01*
X139220Y184033D01*
X139275Y183930D01*
X139328Y183826D01*
X139333Y183821D01*
X139336Y183816D01*
X139421Y183735D01*
X139504Y183654D01*
X139510Y183650D01*
X139514Y183647D01*
X139531Y183639D01*
X139599Y183601D01*
X143549Y179651D01*
X145681Y174505D01*
X145681Y168935D01*
X143549Y163789D01*
X139611Y159851D01*
X134465Y157719D01*
X128895Y157719D01*
X123749Y159851D01*
X119811Y163789D01*
X117679Y168935D01*
X117679Y174505D01*
X119811Y179651D01*
X123771Y183611D01*
X123808Y183634D01*
X123909Y183694D01*
X123913Y183699D01*
X123918Y183702D01*
X123992Y183791D01*
X124069Y183881D01*
X124071Y183887D01*
X124075Y183892D01*
X124117Y184000D01*
X124161Y184109D01*
X124162Y184117D01*
X124163Y184121D01*
X124164Y184140D01*
X124179Y184276D01*
X124179Y190388D01*
X124172Y190433D01*
X124174Y190479D01*
X124152Y190554D01*
X124140Y190631D01*
X124118Y190671D01*
X124105Y190715D01*
X124061Y190779D01*
X124024Y190848D01*
X123991Y190880D01*
X123965Y190917D01*
X123902Y190964D01*
X123846Y191018D01*
X123804Y191037D01*
X123768Y191064D01*
X123694Y191088D01*
X123623Y191121D01*
X123577Y191126D01*
X123534Y191140D01*
X123456Y191140D01*
X123379Y191148D01*
X123334Y191139D01*
X123288Y191138D01*
X123156Y191100D01*
X123138Y191096D01*
X123134Y191093D01*
X123127Y191091D01*
X121890Y190579D01*
X116870Y190579D01*
X112231Y192501D01*
X108681Y196051D01*
X107383Y199183D01*
X107345Y199244D01*
X107316Y199309D01*
X107281Y199348D01*
X107254Y199392D01*
X107198Y199438D01*
X107150Y199491D01*
X107104Y199516D01*
X107064Y199549D01*
X106997Y199575D01*
X106934Y199609D01*
X106883Y199618D01*
X106835Y199637D01*
X106763Y199640D01*
X106692Y199653D01*
X106641Y199645D01*
X106589Y199648D01*
X106520Y199628D01*
X106449Y199617D01*
X106403Y199593D01*
X106353Y199579D01*
X106294Y199538D01*
X106230Y199506D01*
X106193Y199468D01*
X106151Y199439D01*
X106108Y199381D01*
X106058Y199330D01*
X106023Y199267D01*
X106004Y199241D01*
X105997Y199219D01*
X105977Y199183D01*
X104679Y196051D01*
X101129Y192501D01*
X96490Y190579D01*
X91470Y190579D01*
X90233Y191091D01*
X90189Y191102D01*
X90147Y191121D01*
X90070Y191130D01*
X89994Y191148D01*
X89948Y191143D01*
X89903Y191148D01*
X89826Y191132D01*
X89749Y191124D01*
X89707Y191106D01*
X89662Y191096D01*
X89595Y191056D01*
X89524Y191024D01*
X89490Y190993D01*
X89451Y190970D01*
X89400Y190911D01*
X89343Y190858D01*
X89321Y190818D01*
X89291Y190783D01*
X89262Y190711D01*
X89225Y190643D01*
X89216Y190597D01*
X89199Y190555D01*
X89184Y190419D01*
X89181Y190400D01*
X89182Y190395D01*
X89181Y190388D01*
X89181Y184276D01*
X89200Y184161D01*
X89217Y184045D01*
X89219Y184039D01*
X89220Y184033D01*
X89275Y183930D01*
X89328Y183826D01*
X89333Y183821D01*
X89336Y183816D01*
X89421Y183735D01*
X89504Y183654D01*
X89510Y183650D01*
X89514Y183647D01*
X89531Y183639D01*
X89599Y183601D01*
X93549Y179651D01*
X95681Y174505D01*
X95681Y168935D01*
X93549Y163789D01*
X89611Y159851D01*
X84465Y157719D01*
X78895Y157719D01*
X73749Y159851D01*
X69811Y163789D01*
X67679Y168935D01*
X67679Y174505D01*
X69811Y179651D01*
X73771Y183611D01*
X73808Y183634D01*
X73909Y183694D01*
X73913Y183699D01*
X73918Y183702D01*
X73992Y183791D01*
X74069Y183881D01*
X74071Y183887D01*
X74075Y183892D01*
X74117Y184000D01*
X74161Y184109D01*
X74162Y184117D01*
X74163Y184121D01*
X74164Y184140D01*
X74179Y184276D01*
X74179Y200012D01*
X75321Y202769D01*
X81136Y208584D01*
X81189Y208658D01*
X81249Y208727D01*
X81261Y208758D01*
X81280Y208784D01*
X81307Y208871D01*
X81341Y208956D01*
X81345Y208996D01*
X81352Y209019D01*
X81351Y209051D01*
X81359Y209122D01*
X81359Y220950D01*
X83281Y225589D01*
X86831Y229139D01*
X87882Y229575D01*
X87965Y229626D01*
X88051Y229672D01*
X88069Y229691D01*
X88091Y229704D01*
X88153Y229779D01*
X88220Y229850D01*
X88231Y229874D01*
X88248Y229894D01*
X88283Y229985D01*
X88324Y230073D01*
X88327Y230099D01*
X88336Y230123D01*
X88340Y230221D01*
X88351Y230317D01*
X88345Y230343D01*
X88347Y230369D01*
X88319Y230463D01*
X88299Y230558D01*
X88285Y230580D01*
X88278Y230605D01*
X88222Y230685D01*
X88173Y230769D01*
X88153Y230786D01*
X88138Y230807D01*
X88060Y230866D01*
X87986Y230929D01*
X87961Y230939D01*
X87940Y230954D01*
X87848Y230984D01*
X87757Y231021D01*
X87725Y231024D01*
X87706Y231030D01*
X87673Y231030D01*
X87591Y231039D01*
X39114Y231039D01*
X39069Y231032D01*
X39023Y231034D01*
X38948Y231012D01*
X38872Y231000D01*
X38831Y230978D01*
X38787Y230965D01*
X38723Y230921D01*
X38654Y230884D01*
X38623Y230851D01*
X38585Y230825D01*
X38538Y230762D01*
X38485Y230706D01*
X38466Y230664D01*
X38438Y230628D01*
X38414Y230554D01*
X38381Y230483D01*
X38376Y230437D01*
X38362Y230394D01*
X38363Y230316D01*
X38354Y230239D01*
X38364Y230194D01*
X38364Y230148D01*
X38402Y230016D01*
X38406Y229998D01*
X38409Y229994D01*
X38411Y229987D01*
X40481Y224990D01*
X40481Y216970D01*
X37411Y209560D01*
X31740Y203889D01*
X24330Y200819D01*
X16310Y200819D01*
X11213Y202930D01*
X11169Y202941D01*
X11127Y202960D01*
X11050Y202969D01*
X10974Y202986D01*
X10928Y202982D01*
X10883Y202987D01*
X10806Y202971D01*
X10729Y202963D01*
X10687Y202945D01*
X10642Y202935D01*
X10575Y202895D01*
X10504Y202863D01*
X10470Y202832D01*
X10431Y202809D01*
X10380Y202750D01*
X10323Y202697D01*
X10301Y202657D01*
X10271Y202622D01*
X10242Y202550D01*
X10205Y202481D01*
X10196Y202436D01*
X10179Y202394D01*
X10164Y202258D01*
X10161Y202239D01*
X10162Y202234D01*
X10161Y202227D01*
X10161Y39073D01*
X10163Y39059D01*
X10162Y39049D01*
X10168Y39021D01*
X10166Y38982D01*
X10188Y38907D01*
X10200Y38830D01*
X10222Y38790D01*
X10235Y38746D01*
X10279Y38682D01*
X10316Y38613D01*
X10349Y38581D01*
X10375Y38544D01*
X10438Y38497D01*
X10494Y38443D01*
X10536Y38424D01*
X10572Y38397D01*
X10646Y38373D01*
X10717Y38340D01*
X10763Y38335D01*
X10806Y38321D01*
X10884Y38321D01*
X10961Y38313D01*
X11006Y38323D01*
X11052Y38323D01*
X11184Y38361D01*
X11202Y38365D01*
X11206Y38368D01*
X11213Y38370D01*
X16310Y40481D01*
X24330Y40481D01*
X31740Y37411D01*
X37411Y31740D01*
X40481Y24330D01*
X40481Y16310D01*
X38370Y11213D01*
X38359Y11169D01*
X38340Y11127D01*
X38331Y11050D01*
X38314Y10974D01*
X38318Y10928D01*
X38313Y10883D01*
X38329Y10806D01*
X38337Y10729D01*
X38355Y10687D01*
X38365Y10642D01*
X38405Y10575D01*
X38437Y10504D01*
X38468Y10470D01*
X38491Y10431D01*
X38550Y10380D01*
X38603Y10323D01*
X38643Y10301D01*
X38678Y10271D01*
X38750Y10242D01*
X38819Y10205D01*
X38864Y10196D01*
X38906Y10179D01*
X39042Y10164D01*
X39061Y10161D01*
X39066Y10162D01*
X39073Y10161D01*
X171747Y10161D01*
X171792Y10168D01*
G37*
%LPC*%
G36*
X128895Y32719D02*
X128895Y32719D01*
X123749Y34851D01*
X119811Y38789D01*
X117679Y43935D01*
X117679Y49505D01*
X119811Y54651D01*
X123749Y58589D01*
X128895Y60721D01*
X134465Y60721D01*
X139611Y58589D01*
X143549Y54651D01*
X145681Y49505D01*
X145681Y43935D01*
X143549Y38789D01*
X139611Y34851D01*
X134465Y32719D01*
X128895Y32719D01*
G37*
%LPD*%
%LPC*%
G36*
X78895Y32719D02*
X78895Y32719D01*
X73749Y34851D01*
X69811Y38789D01*
X67679Y43935D01*
X67679Y49505D01*
X69811Y54651D01*
X73749Y58589D01*
X78895Y60721D01*
X84465Y60721D01*
X89611Y58589D01*
X93549Y54651D01*
X95681Y49505D01*
X95681Y43935D01*
X93549Y38789D01*
X89611Y34851D01*
X84465Y32719D01*
X78895Y32719D01*
G37*
%LPD*%
G36*
X106719Y221995D02*
X106719Y221995D01*
X106771Y221992D01*
X106840Y222012D01*
X106911Y222023D01*
X106957Y222047D01*
X107007Y222061D01*
X107066Y222102D01*
X107130Y222134D01*
X107167Y222172D01*
X107209Y222201D01*
X107252Y222259D01*
X107302Y222310D01*
X107337Y222373D01*
X107356Y222399D01*
X107363Y222421D01*
X107383Y222457D01*
X108681Y225589D01*
X112231Y229139D01*
X113282Y229575D01*
X113365Y229626D01*
X113451Y229672D01*
X113469Y229691D01*
X113491Y229704D01*
X113553Y229779D01*
X113620Y229850D01*
X113631Y229874D01*
X113648Y229894D01*
X113683Y229985D01*
X113724Y230073D01*
X113727Y230099D01*
X113736Y230123D01*
X113740Y230221D01*
X113751Y230317D01*
X113745Y230343D01*
X113747Y230369D01*
X113719Y230463D01*
X113699Y230558D01*
X113685Y230580D01*
X113678Y230605D01*
X113622Y230685D01*
X113573Y230769D01*
X113553Y230786D01*
X113538Y230807D01*
X113460Y230866D01*
X113386Y230929D01*
X113361Y230939D01*
X113340Y230954D01*
X113248Y230984D01*
X113157Y231021D01*
X113125Y231024D01*
X113106Y231030D01*
X113073Y231030D01*
X112991Y231039D01*
X100369Y231039D01*
X100273Y231024D01*
X100176Y231014D01*
X100152Y231004D01*
X100127Y231000D01*
X100041Y230954D01*
X99951Y230914D01*
X99932Y230897D01*
X99909Y230884D01*
X99842Y230814D01*
X99770Y230748D01*
X99758Y230725D01*
X99740Y230706D01*
X99699Y230618D01*
X99652Y230532D01*
X99647Y230507D01*
X99636Y230483D01*
X99625Y230386D01*
X99608Y230290D01*
X99612Y230264D01*
X99609Y230239D01*
X99630Y230143D01*
X99644Y230047D01*
X99656Y230024D01*
X99661Y229998D01*
X99711Y229915D01*
X99755Y229828D01*
X99774Y229809D01*
X99787Y229787D01*
X99862Y229724D01*
X99931Y229656D01*
X99960Y229640D01*
X99974Y229627D01*
X100005Y229615D01*
X100078Y229575D01*
X101129Y229139D01*
X104679Y225589D01*
X105977Y222457D01*
X106015Y222396D01*
X106044Y222331D01*
X106079Y222292D01*
X106106Y222248D01*
X106162Y222202D01*
X106210Y222149D01*
X106256Y222124D01*
X106296Y222091D01*
X106363Y222065D01*
X106426Y222031D01*
X106477Y222022D01*
X106525Y222003D01*
X106597Y222000D01*
X106668Y221987D01*
X106719Y221995D01*
G37*
D10*
X131680Y171720D03*
X131680Y46720D03*
X81680Y46720D03*
X81680Y171720D03*
D11*
X93980Y203200D02*
X93980Y218440D01*
X119380Y218440D02*
X119380Y203200D01*
D12*
X131680Y198520D02*
X131680Y171720D01*
X131680Y198520D02*
X119380Y210820D01*
X81680Y198520D02*
X81680Y171720D01*
X81680Y198520D02*
X93980Y210820D01*
M02*
