G04 EAGLE Gerber RS-274X export*
G75*
%MOMM*%
%FSLAX34Y34*%
%LPD*%
%IN*%
%IPPOS*%
%AMOC8*
5,1,8,0,0,1.08239X$1,22.5*%
G01*
%ADD10C,0.254000*%


D10*
X0Y0D02*
X212600Y0D01*
X212600Y241200D01*
X0Y241200D01*
X0Y0D01*
X30320Y220543D02*
X30244Y219674D01*
X30092Y218814D01*
X29866Y217970D01*
X29568Y217150D01*
X29199Y216358D01*
X28762Y215602D01*
X28261Y214887D01*
X27700Y214218D01*
X27082Y213600D01*
X26413Y213039D01*
X25698Y212538D01*
X24942Y212101D01*
X24150Y211732D01*
X23330Y211434D01*
X22486Y211208D01*
X21627Y211056D01*
X20757Y210980D01*
X19883Y210980D01*
X19014Y211056D01*
X18154Y211208D01*
X17310Y211434D01*
X16490Y211732D01*
X15698Y212101D01*
X14942Y212538D01*
X14227Y213039D01*
X13558Y213600D01*
X12940Y214218D01*
X12379Y214887D01*
X11878Y215602D01*
X11441Y216358D01*
X11072Y217150D01*
X10774Y217970D01*
X10548Y218814D01*
X10396Y219674D01*
X10320Y220543D01*
X10320Y221417D01*
X10396Y222287D01*
X10548Y223146D01*
X10774Y223990D01*
X11072Y224810D01*
X11441Y225602D01*
X11878Y226358D01*
X12379Y227073D01*
X12940Y227742D01*
X13558Y228360D01*
X14227Y228921D01*
X14942Y229422D01*
X15698Y229859D01*
X16490Y230228D01*
X17310Y230526D01*
X18154Y230752D01*
X19014Y230904D01*
X19883Y230980D01*
X20757Y230980D01*
X21627Y230904D01*
X22486Y230752D01*
X23330Y230526D01*
X24150Y230228D01*
X24942Y229859D01*
X25698Y229422D01*
X26413Y228921D01*
X27082Y228360D01*
X27700Y227742D01*
X28261Y227073D01*
X28762Y226358D01*
X29199Y225602D01*
X29568Y224810D01*
X29866Y223990D01*
X30092Y223146D01*
X30244Y222287D01*
X30320Y221417D01*
X30320Y220543D01*
X200500Y220543D02*
X200424Y219674D01*
X200272Y218814D01*
X200046Y217970D01*
X199748Y217150D01*
X199379Y216358D01*
X198942Y215602D01*
X198441Y214887D01*
X197880Y214218D01*
X197262Y213600D01*
X196593Y213039D01*
X195878Y212538D01*
X195122Y212101D01*
X194330Y211732D01*
X193510Y211434D01*
X192666Y211208D01*
X191807Y211056D01*
X190937Y210980D01*
X190063Y210980D01*
X189194Y211056D01*
X188334Y211208D01*
X187490Y211434D01*
X186670Y211732D01*
X185878Y212101D01*
X185122Y212538D01*
X184407Y213039D01*
X183738Y213600D01*
X183120Y214218D01*
X182559Y214887D01*
X182058Y215602D01*
X181621Y216358D01*
X181252Y217150D01*
X180954Y217970D01*
X180728Y218814D01*
X180576Y219674D01*
X180500Y220543D01*
X180500Y221417D01*
X180576Y222287D01*
X180728Y223146D01*
X180954Y223990D01*
X181252Y224810D01*
X181621Y225602D01*
X182058Y226358D01*
X182559Y227073D01*
X183120Y227742D01*
X183738Y228360D01*
X184407Y228921D01*
X185122Y229422D01*
X185878Y229859D01*
X186670Y230228D01*
X187490Y230526D01*
X188334Y230752D01*
X189194Y230904D01*
X190063Y230980D01*
X190937Y230980D01*
X191807Y230904D01*
X192666Y230752D01*
X193510Y230526D01*
X194330Y230228D01*
X195122Y229859D01*
X195878Y229422D01*
X196593Y228921D01*
X197262Y228360D01*
X197880Y227742D01*
X198441Y227073D01*
X198942Y226358D01*
X199379Y225602D01*
X199748Y224810D01*
X200046Y223990D01*
X200272Y223146D01*
X200424Y222287D01*
X200500Y221417D01*
X200500Y220543D01*
X200500Y19883D02*
X200424Y19014D01*
X200272Y18154D01*
X200046Y17310D01*
X199748Y16490D01*
X199379Y15698D01*
X198942Y14942D01*
X198441Y14227D01*
X197880Y13558D01*
X197262Y12940D01*
X196593Y12379D01*
X195878Y11878D01*
X195122Y11441D01*
X194330Y11072D01*
X193510Y10774D01*
X192666Y10548D01*
X191807Y10396D01*
X190937Y10320D01*
X190063Y10320D01*
X189194Y10396D01*
X188334Y10548D01*
X187490Y10774D01*
X186670Y11072D01*
X185878Y11441D01*
X185122Y11878D01*
X184407Y12379D01*
X183738Y12940D01*
X183120Y13558D01*
X182559Y14227D01*
X182058Y14942D01*
X181621Y15698D01*
X181252Y16490D01*
X180954Y17310D01*
X180728Y18154D01*
X180576Y19014D01*
X180500Y19883D01*
X180500Y20757D01*
X180576Y21627D01*
X180728Y22486D01*
X180954Y23330D01*
X181252Y24150D01*
X181621Y24942D01*
X182058Y25698D01*
X182559Y26413D01*
X183120Y27082D01*
X183738Y27700D01*
X184407Y28261D01*
X185122Y28762D01*
X185878Y29199D01*
X186670Y29568D01*
X187490Y29866D01*
X188334Y30092D01*
X189194Y30244D01*
X190063Y30320D01*
X190937Y30320D01*
X191807Y30244D01*
X192666Y30092D01*
X193510Y29866D01*
X194330Y29568D01*
X195122Y29199D01*
X195878Y28762D01*
X196593Y28261D01*
X197262Y27700D01*
X197880Y27082D01*
X198441Y26413D01*
X198942Y25698D01*
X199379Y24942D01*
X199748Y24150D01*
X200046Y23330D01*
X200272Y22486D01*
X200424Y21627D01*
X200500Y20757D01*
X200500Y19883D01*
X30320Y19883D02*
X30244Y19014D01*
X30092Y18154D01*
X29866Y17310D01*
X29568Y16490D01*
X29199Y15698D01*
X28762Y14942D01*
X28261Y14227D01*
X27700Y13558D01*
X27082Y12940D01*
X26413Y12379D01*
X25698Y11878D01*
X24942Y11441D01*
X24150Y11072D01*
X23330Y10774D01*
X22486Y10548D01*
X21627Y10396D01*
X20757Y10320D01*
X19883Y10320D01*
X19014Y10396D01*
X18154Y10548D01*
X17310Y10774D01*
X16490Y11072D01*
X15698Y11441D01*
X14942Y11878D01*
X14227Y12379D01*
X13558Y12940D01*
X12940Y13558D01*
X12379Y14227D01*
X11878Y14942D01*
X11441Y15698D01*
X11072Y16490D01*
X10774Y17310D01*
X10548Y18154D01*
X10396Y19014D01*
X10320Y19883D01*
X10320Y20757D01*
X10396Y21627D01*
X10548Y22486D01*
X10774Y23330D01*
X11072Y24150D01*
X11441Y24942D01*
X11878Y25698D01*
X12379Y26413D01*
X12940Y27082D01*
X13558Y27700D01*
X14227Y28261D01*
X14942Y28762D01*
X15698Y29199D01*
X16490Y29568D01*
X17310Y29866D01*
X18154Y30092D01*
X19014Y30244D01*
X19883Y30320D01*
X20757Y30320D01*
X21627Y30244D01*
X22486Y30092D01*
X23330Y29866D01*
X24150Y29568D01*
X24942Y29199D01*
X25698Y28762D01*
X26413Y28261D01*
X27082Y27700D01*
X27700Y27082D01*
X28261Y26413D01*
X28762Y25698D01*
X29199Y24942D01*
X29568Y24150D01*
X29866Y23330D01*
X30092Y22486D01*
X30244Y21627D01*
X30320Y20757D01*
X30320Y19883D01*
M02*
