G04 EAGLE Gerber RS-274X export*
G75*
%MOMM*%
%FSLAX34Y34*%
%LPD*%
%INSilkscreen Top*%
%IPPOS*%
%AMOC8*
5,1,8,0,0,1.08239X$1,22.5*%
G01*
%ADD10C,0.127000*%
%ADD11C,0.101600*%
%ADD12C,0.152400*%


D10*
X46680Y49220D02*
X46680Y169220D01*
X166680Y169220D02*
X166680Y49220D01*
X166680Y169220D02*
X142680Y169220D01*
X119680Y169220D02*
X92680Y169220D01*
X93680Y49220D02*
X120680Y49220D01*
X142680Y49220D02*
X166680Y49220D01*
X70680Y169220D02*
X46680Y169220D01*
X46680Y49220D02*
X70680Y49220D01*
D11*
X186353Y115103D02*
X186452Y115101D01*
X186552Y115095D01*
X186651Y115086D01*
X186749Y115073D01*
X186847Y115056D01*
X186945Y115035D01*
X187041Y115010D01*
X187136Y114982D01*
X187230Y114950D01*
X187323Y114915D01*
X187415Y114876D01*
X187505Y114833D01*
X187593Y114788D01*
X187680Y114738D01*
X187764Y114686D01*
X187847Y114630D01*
X187927Y114572D01*
X188005Y114510D01*
X188080Y114445D01*
X188153Y114377D01*
X188223Y114307D01*
X188291Y114234D01*
X188356Y114159D01*
X188418Y114081D01*
X188476Y114001D01*
X188532Y113918D01*
X188584Y113834D01*
X188634Y113747D01*
X188679Y113659D01*
X188722Y113569D01*
X188761Y113477D01*
X188796Y113384D01*
X188828Y113290D01*
X188856Y113195D01*
X188881Y113099D01*
X188902Y113001D01*
X188919Y112903D01*
X188932Y112805D01*
X188941Y112706D01*
X188947Y112606D01*
X188949Y112507D01*
X188947Y112363D01*
X188941Y112218D01*
X188932Y112074D01*
X188919Y111931D01*
X188902Y111787D01*
X188881Y111644D01*
X188856Y111502D01*
X188828Y111361D01*
X188796Y111220D01*
X188760Y111080D01*
X188721Y110941D01*
X188678Y110803D01*
X188631Y110667D01*
X188581Y110531D01*
X188527Y110397D01*
X188470Y110265D01*
X188409Y110134D01*
X188345Y110005D01*
X188277Y109877D01*
X188207Y109751D01*
X188132Y109627D01*
X188055Y109506D01*
X187974Y109386D01*
X187891Y109268D01*
X187804Y109153D01*
X187714Y109040D01*
X187621Y108929D01*
X187526Y108821D01*
X187427Y108715D01*
X187326Y108612D01*
X179861Y108937D02*
X179762Y108939D01*
X179662Y108945D01*
X179563Y108954D01*
X179465Y108967D01*
X179367Y108984D01*
X179269Y109005D01*
X179173Y109030D01*
X179078Y109058D01*
X178984Y109090D01*
X178891Y109125D01*
X178799Y109164D01*
X178709Y109207D01*
X178621Y109252D01*
X178534Y109302D01*
X178450Y109354D01*
X178367Y109410D01*
X178287Y109468D01*
X178209Y109530D01*
X178134Y109595D01*
X178061Y109663D01*
X177991Y109733D01*
X177923Y109806D01*
X177858Y109881D01*
X177796Y109959D01*
X177738Y110039D01*
X177682Y110122D01*
X177630Y110206D01*
X177580Y110293D01*
X177535Y110381D01*
X177492Y110471D01*
X177453Y110563D01*
X177418Y110656D01*
X177386Y110750D01*
X177358Y110845D01*
X177333Y110941D01*
X177312Y111039D01*
X177295Y111137D01*
X177282Y111235D01*
X177273Y111334D01*
X177267Y111434D01*
X177265Y111533D01*
X177267Y111669D01*
X177273Y111805D01*
X177282Y111941D01*
X177295Y112077D01*
X177313Y112212D01*
X177333Y112346D01*
X177358Y112480D01*
X177386Y112614D01*
X177419Y112746D01*
X177454Y112877D01*
X177494Y113008D01*
X177537Y113137D01*
X177583Y113265D01*
X177634Y113391D01*
X177687Y113517D01*
X177745Y113640D01*
X177805Y113762D01*
X177869Y113882D01*
X177937Y114001D01*
X178007Y114117D01*
X178081Y114231D01*
X178158Y114344D01*
X178239Y114454D01*
X182133Y110234D02*
X182080Y110148D01*
X182023Y110064D01*
X181964Y109982D01*
X181901Y109902D01*
X181835Y109825D01*
X181767Y109750D01*
X181695Y109678D01*
X181621Y109609D01*
X181544Y109543D01*
X181465Y109480D01*
X181383Y109420D01*
X181299Y109363D01*
X181213Y109309D01*
X181125Y109259D01*
X181035Y109212D01*
X180944Y109168D01*
X180850Y109129D01*
X180756Y109092D01*
X180660Y109060D01*
X180562Y109031D01*
X180464Y109006D01*
X180365Y108985D01*
X180265Y108967D01*
X180165Y108954D01*
X180064Y108944D01*
X179962Y108938D01*
X179861Y108936D01*
X184081Y113805D02*
X184134Y113891D01*
X184191Y113975D01*
X184250Y114057D01*
X184313Y114137D01*
X184379Y114214D01*
X184447Y114289D01*
X184519Y114361D01*
X184593Y114430D01*
X184670Y114496D01*
X184749Y114559D01*
X184831Y114619D01*
X184915Y114676D01*
X185001Y114730D01*
X185089Y114780D01*
X185179Y114827D01*
X185270Y114871D01*
X185364Y114910D01*
X185458Y114947D01*
X185554Y114979D01*
X185652Y115008D01*
X185750Y115033D01*
X185849Y115054D01*
X185949Y115072D01*
X186049Y115085D01*
X186150Y115095D01*
X186252Y115101D01*
X186353Y115103D01*
X184081Y113805D02*
X182133Y110235D01*
X179861Y119661D02*
X177265Y122906D01*
X188949Y122906D01*
X188949Y119661D02*
X188949Y126152D01*
D12*
X100330Y223520D02*
X87630Y223520D01*
X100330Y223520D02*
X106680Y217170D01*
X106680Y204470D01*
X100330Y198120D01*
X81280Y204470D02*
X81280Y217170D01*
X87630Y223520D01*
X81280Y204470D02*
X87630Y198120D01*
X100330Y198120D01*
X106680Y217170D02*
X113030Y223520D01*
X125730Y223520D01*
X132080Y217170D01*
X132080Y204470D01*
X125730Y198120D01*
X113030Y198120D01*
X106680Y204470D01*
D10*
X71628Y190373D02*
X71628Y178943D01*
X68453Y190373D02*
X74803Y190373D01*
X79585Y190373D02*
X79585Y178943D01*
X79585Y190373D02*
X82760Y190373D01*
X82871Y190371D01*
X82981Y190365D01*
X83092Y190356D01*
X83202Y190342D01*
X83311Y190325D01*
X83420Y190304D01*
X83528Y190279D01*
X83635Y190250D01*
X83741Y190218D01*
X83846Y190182D01*
X83949Y190142D01*
X84051Y190099D01*
X84152Y190052D01*
X84251Y190001D01*
X84348Y189948D01*
X84442Y189891D01*
X84535Y189830D01*
X84626Y189767D01*
X84715Y189700D01*
X84801Y189630D01*
X84884Y189557D01*
X84966Y189482D01*
X85044Y189404D01*
X85119Y189322D01*
X85192Y189239D01*
X85262Y189153D01*
X85329Y189064D01*
X85392Y188973D01*
X85453Y188880D01*
X85510Y188785D01*
X85563Y188689D01*
X85614Y188590D01*
X85661Y188489D01*
X85704Y188387D01*
X85744Y188284D01*
X85780Y188179D01*
X85812Y188073D01*
X85841Y187966D01*
X85866Y187858D01*
X85887Y187749D01*
X85904Y187640D01*
X85918Y187530D01*
X85927Y187419D01*
X85933Y187309D01*
X85935Y187198D01*
X85933Y187087D01*
X85927Y186977D01*
X85918Y186866D01*
X85904Y186756D01*
X85887Y186647D01*
X85866Y186538D01*
X85841Y186430D01*
X85812Y186323D01*
X85780Y186217D01*
X85744Y186112D01*
X85704Y186009D01*
X85661Y185907D01*
X85614Y185806D01*
X85563Y185707D01*
X85510Y185610D01*
X85453Y185516D01*
X85392Y185423D01*
X85329Y185332D01*
X85262Y185243D01*
X85192Y185157D01*
X85119Y185074D01*
X85044Y184992D01*
X84966Y184914D01*
X84884Y184839D01*
X84801Y184766D01*
X84715Y184696D01*
X84626Y184629D01*
X84535Y184566D01*
X84442Y184505D01*
X84347Y184448D01*
X84251Y184395D01*
X84152Y184344D01*
X84051Y184297D01*
X83949Y184254D01*
X83846Y184214D01*
X83741Y184178D01*
X83635Y184146D01*
X83528Y184117D01*
X83420Y184092D01*
X83311Y184071D01*
X83202Y184054D01*
X83092Y184040D01*
X82981Y184031D01*
X82871Y184025D01*
X82760Y184023D01*
X79585Y184023D01*
X83395Y184023D02*
X85935Y178943D01*
X91821Y178943D02*
X91821Y190373D01*
X90551Y178943D02*
X93091Y178943D01*
X93091Y190373D02*
X90551Y190373D01*
X102616Y185293D02*
X104521Y185293D01*
X104521Y178943D01*
X100711Y178943D01*
X100611Y178945D01*
X100512Y178951D01*
X100412Y178961D01*
X100314Y178974D01*
X100215Y178992D01*
X100118Y179013D01*
X100022Y179038D01*
X99926Y179067D01*
X99832Y179100D01*
X99739Y179136D01*
X99648Y179176D01*
X99558Y179220D01*
X99470Y179267D01*
X99384Y179317D01*
X99300Y179371D01*
X99218Y179428D01*
X99139Y179488D01*
X99061Y179552D01*
X98987Y179618D01*
X98915Y179687D01*
X98846Y179759D01*
X98780Y179833D01*
X98716Y179911D01*
X98656Y179990D01*
X98599Y180072D01*
X98545Y180156D01*
X98495Y180242D01*
X98448Y180330D01*
X98404Y180420D01*
X98364Y180511D01*
X98328Y180604D01*
X98295Y180698D01*
X98266Y180794D01*
X98241Y180890D01*
X98220Y180987D01*
X98202Y181086D01*
X98189Y181184D01*
X98179Y181284D01*
X98173Y181383D01*
X98171Y181483D01*
X98171Y187833D01*
X98173Y187933D01*
X98179Y188032D01*
X98189Y188132D01*
X98202Y188230D01*
X98220Y188329D01*
X98241Y188426D01*
X98266Y188522D01*
X98295Y188618D01*
X98328Y188712D01*
X98364Y188805D01*
X98404Y188896D01*
X98448Y188986D01*
X98495Y189074D01*
X98545Y189160D01*
X98599Y189244D01*
X98656Y189326D01*
X98716Y189405D01*
X98780Y189483D01*
X98846Y189557D01*
X98915Y189629D01*
X98987Y189698D01*
X99061Y189764D01*
X99139Y189828D01*
X99218Y189888D01*
X99300Y189945D01*
X99384Y189999D01*
X99470Y190049D01*
X99558Y190096D01*
X99648Y190140D01*
X99739Y190180D01*
X99832Y190216D01*
X99926Y190249D01*
X100022Y190278D01*
X100118Y190303D01*
X100215Y190324D01*
X100314Y190342D01*
X100412Y190355D01*
X100512Y190365D01*
X100611Y190371D01*
X100711Y190373D01*
X104521Y190373D01*
X114808Y185293D02*
X116713Y185293D01*
X116713Y178943D01*
X112903Y178943D01*
X112803Y178945D01*
X112704Y178951D01*
X112604Y178961D01*
X112506Y178974D01*
X112407Y178992D01*
X112310Y179013D01*
X112214Y179038D01*
X112118Y179067D01*
X112024Y179100D01*
X111931Y179136D01*
X111840Y179176D01*
X111750Y179220D01*
X111662Y179267D01*
X111576Y179317D01*
X111492Y179371D01*
X111410Y179428D01*
X111331Y179488D01*
X111253Y179552D01*
X111179Y179618D01*
X111107Y179687D01*
X111038Y179759D01*
X110972Y179833D01*
X110908Y179911D01*
X110848Y179990D01*
X110791Y180072D01*
X110737Y180156D01*
X110687Y180242D01*
X110640Y180330D01*
X110596Y180420D01*
X110556Y180511D01*
X110520Y180604D01*
X110487Y180698D01*
X110458Y180794D01*
X110433Y180890D01*
X110412Y180987D01*
X110394Y181086D01*
X110381Y181184D01*
X110371Y181284D01*
X110365Y181383D01*
X110363Y181483D01*
X110363Y187833D01*
X110365Y187933D01*
X110371Y188032D01*
X110381Y188132D01*
X110394Y188230D01*
X110412Y188329D01*
X110433Y188426D01*
X110458Y188522D01*
X110487Y188618D01*
X110520Y188712D01*
X110556Y188805D01*
X110596Y188896D01*
X110640Y188986D01*
X110687Y189074D01*
X110737Y189160D01*
X110791Y189244D01*
X110848Y189326D01*
X110908Y189405D01*
X110972Y189483D01*
X111038Y189557D01*
X111107Y189629D01*
X111179Y189698D01*
X111253Y189764D01*
X111331Y189828D01*
X111410Y189888D01*
X111492Y189945D01*
X111576Y189999D01*
X111662Y190049D01*
X111750Y190096D01*
X111840Y190140D01*
X111931Y190180D01*
X112024Y190216D01*
X112118Y190249D01*
X112214Y190278D01*
X112310Y190303D01*
X112407Y190324D01*
X112506Y190342D01*
X112604Y190355D01*
X112704Y190365D01*
X112803Y190371D01*
X112903Y190373D01*
X116713Y190373D01*
X122580Y178943D02*
X127660Y178943D01*
X122580Y178943D02*
X122580Y190373D01*
X127660Y190373D01*
X126390Y185293D02*
X122580Y185293D01*
X132544Y190373D02*
X132544Y178943D01*
X132544Y190373D02*
X135719Y190373D01*
X135830Y190371D01*
X135940Y190365D01*
X136051Y190356D01*
X136161Y190342D01*
X136270Y190325D01*
X136379Y190304D01*
X136487Y190279D01*
X136594Y190250D01*
X136700Y190218D01*
X136805Y190182D01*
X136908Y190142D01*
X137010Y190099D01*
X137111Y190052D01*
X137210Y190001D01*
X137307Y189948D01*
X137401Y189891D01*
X137494Y189830D01*
X137585Y189767D01*
X137674Y189700D01*
X137760Y189630D01*
X137843Y189557D01*
X137925Y189482D01*
X138003Y189404D01*
X138078Y189322D01*
X138151Y189239D01*
X138221Y189153D01*
X138288Y189064D01*
X138351Y188973D01*
X138412Y188880D01*
X138469Y188785D01*
X138522Y188689D01*
X138573Y188590D01*
X138620Y188489D01*
X138663Y188387D01*
X138703Y188284D01*
X138739Y188179D01*
X138771Y188073D01*
X138800Y187966D01*
X138825Y187858D01*
X138846Y187749D01*
X138863Y187640D01*
X138877Y187530D01*
X138886Y187419D01*
X138892Y187309D01*
X138894Y187198D01*
X138892Y187087D01*
X138886Y186977D01*
X138877Y186866D01*
X138863Y186756D01*
X138846Y186647D01*
X138825Y186538D01*
X138800Y186430D01*
X138771Y186323D01*
X138739Y186217D01*
X138703Y186112D01*
X138663Y186009D01*
X138620Y185907D01*
X138573Y185806D01*
X138522Y185707D01*
X138469Y185610D01*
X138412Y185516D01*
X138351Y185423D01*
X138288Y185332D01*
X138221Y185243D01*
X138151Y185157D01*
X138078Y185074D01*
X138003Y184992D01*
X137925Y184914D01*
X137843Y184839D01*
X137760Y184766D01*
X137674Y184696D01*
X137585Y184629D01*
X137494Y184566D01*
X137401Y184505D01*
X137306Y184448D01*
X137210Y184395D01*
X137111Y184344D01*
X137010Y184297D01*
X136908Y184254D01*
X136805Y184214D01*
X136700Y184178D01*
X136594Y184146D01*
X136487Y184117D01*
X136379Y184092D01*
X136270Y184071D01*
X136161Y184054D01*
X136051Y184040D01*
X135940Y184031D01*
X135830Y184025D01*
X135719Y184023D01*
X132544Y184023D01*
X136354Y184023D02*
X138894Y178943D01*
M02*
