<?xml version="1.0" encoding="UTF-8"?>
<svg xmlns="http://www.w3.org/2000/svg" width="800.000" height="600.000" viewBox="0.0 0.0 800.000 600.000" version="1.1">
  <title>Produce by Acme CAD Converter</title>
  <desc>Produce by Acme CAD Converter</desc>
<path d="M176.27 598.3L623.73 598.3M623.73 598.3L623.73 1.7M623.73 1.7L176.27 1.7M176.27 1.7L176.27 598.3"
fill="none" stroke="black" stroke-width="0.5"/>
<path d="M429.83 539.94L429.6 542.54M429.6 542.54L429.15 545.1M429.15 545.1L428.48 547.62M428.48 547.62L427.59 550.07M427.59 550.07L426.48 552.43M426.48 552.43L425.18 554.68M425.18 554.68L423.69 556.82M423.69 556.82L422.01 558.81M422.01 558.81L420.17 560.66M420.17 560.66L418.18 562.33M418.18 562.33L416.04 563.82M416.04 563.82L413.79 565.13M413.79 565.13L411.43 566.23M411.43 566.23L408.98 567.12M408.98 567.12L406.46 567.79M406.46 567.79L403.9 568.25M403.9 568.25L401.3 568.47M401.3 568.47L398.7 568.47M398.7 568.47L396.1 568.25M396.1 568.25L393.54 567.79M393.54 567.79L391.02 567.12M391.02 567.12L388.57 566.23M388.57 566.23L386.21 565.13M386.21 565.13L383.96 563.82M383.96 563.82L381.82 562.33M381.82 562.33L379.83 560.66M379.83 560.66L377.99 558.81M377.99 558.81L376.31 556.82M376.31 556.82L374.82 554.68M374.82 554.68L373.52 552.43M373.52 552.43L372.41 550.07M372.41 550.07L371.52 547.62M371.52 547.62L370.85 545.1M370.85 545.1L370.4 542.54M370.4 542.54L370.17 539.94M370.17 539.94L370.17 537.34M370.17 537.34L370.4 534.74M370.4 534.74L370.85 532.18M370.85 532.18L371.52 529.66M371.52 529.66L372.41 527.22M372.41 527.22L373.52 524.85M373.52 524.85L374.82 522.6M374.82 522.6L376.31 520.47M376.31 520.47L377.99 518.47M377.99 518.47L379.83 516.63M379.83 516.63L381.82 514.95M381.82 514.95L383.96 513.46M383.96 513.46L386.21 512.16M386.21 512.16L388.57 511.06M388.57 511.06L391.02 510.17M391.02 510.17L393.54 509.49M393.54 509.49L396.1 509.04M396.1 509.04L398.7 508.81M398.7 508.81L401.3 508.81M401.3 508.81L403.9 509.04M403.9 509.04L406.46 509.49M406.46 509.49L408.98 510.17M408.98 510.17L411.43 511.06M411.43 511.06L413.79 512.16M413.79 512.16L416.04 513.46M416.04 513.46L418.18 514.95M418.18 514.95L420.17 516.63M420.17 516.63L422.01 518.47M422.01 518.47L423.69 520.47M423.69 520.47L425.18 522.6M425.18 522.6L426.48 524.85M426.48 524.85L427.59 527.22M427.59 527.22L428.48 529.66M428.48 529.66L429.15 532.18M429.15 532.18L429.6 534.74M429.6 534.74L429.83 537.34M429.83 537.34L429.83 539.94"
fill="none" stroke="black" stroke-width="0.5"/>
<path d="M312.69 332.25L315.09 331.65M315.09 331.65L317.37 330.71M317.37 330.71L319.49 329.43M319.49 329.43L321.4 327.85M321.4 327.85L323.04 326.01M323.04 326.01L324.4 323.94M324.4 323.94L325.43 321.69M325.43 321.69L326.12 319.31M326.12 319.31L326.44 316.86M326.44 316.86L326.44 291.36M326.44 291.36L331.13 285.79M331.13 285.79L331.13 285.79M331.13 285.79L331.88 284.72M331.88 284.72L332.43 283.54M332.43 283.54L332.77 282.28M332.77 282.28L332.88 280.98M332.88 280.98L332.88 139.02M332.88 139.02L348.68 123.23M348.68 123.23L348.68 123.23M348.68 123.23L351.11 124.73M351.11 124.73L353.71 125.92M353.71 125.92L356.44 126.77M356.44 126.77L359.25 127.27M359.25 127.27L362.11 127.41M362.11 127.41L364.96 127.2M364.96 127.2L367.76 126.63M367.76 126.63L370.47 125.71M370.47 125.71L373.04 124.46M373.04 124.46L375.43 122.9M375.43 122.9L377.61 121.05M377.61 121.05L379.54 118.94M379.54 118.94L381.19 116.6M381.19 116.6L382.54 114.08M382.54 114.08L383.55 111.41M383.55 111.41L384.23 108.63M384.23 108.63L384.55 105.79M384.55 105.79L384.55 58.09M384.55 58.09L384.55 58.09M384.55 58.09L384.2 55.1M384.2 55.1L383.46 52.19M383.46 52.19L382.35 49.39M382.35 49.39L380.87 46.77M380.87 46.77L379.07 44.36M379.07 44.36L376.96 42.22M376.96 42.22L374.58 40.37M374.58 40.37L371.98 38.85M371.98 38.85L369.21 37.69M369.21 37.69L366.3 36.9M366.3 36.9L363.32 36.5M363.32 36.5L360.31 36.5M360.31 36.5L357.33 36.9M357.33 36.9L354.43 37.69M354.43 37.69L351.65 38.85M351.65 38.85L349.05 40.37M349.05 40.37L346.68 42.22M346.68 42.22L344.57 44.36M344.57 44.36L342.76 46.77M342.76 46.77L341.29 49.39M341.29 49.39L340.17 52.19M340.17 52.19L339.43 55.1M339.43 55.1L339.09 58.09M339.09 58.09L339.09 105.79M339.09 105.79L339.09 105.79M339.09 105.79L339.37 108.35M339.37 108.35L339.94 110.87M339.94 110.87L320.15 130.66M320.15 130.66L320.15 130.66M320.15 130.66L319.22 131.79M319.22 131.79L318.53 133.08M318.53 133.08L318.11 134.48M318.11 134.48L317.97 135.93M317.97 135.93L317.97 268.42M317.97 268.42L317.97 268.42M317.97 268.42L315.8 267.41M315.8 267.41L313.51 266.72M313.51 266.72L311.15 266.37M311.15 266.37L308.76 266.37M308.76 266.37L306.39 266.71M306.39 266.71L304.1 267.38M304.1 267.38L301.93 268.38M301.93 268.38L299.93 269.68M299.93 269.68L298.13 271.25M298.13 271.25L296.58 273.07M296.58 273.07L295.31 275.09M295.31 275.09L294.34 277.28M294.34 277.28L293.69 279.58M293.69 279.58L293.39 281.95M293.39 281.95L293.39 316.86M293.39 316.86L293.59 318.7M293.59 318.7L294.01 320.51M294.01 320.51L294.62 322.26M294.62 322.26L295.43 323.94M295.43 323.94L296.41 325.51M296.41 325.51L297.57 326.96M297.57 326.96L298.88 328.27M298.88 328.27L300.33 329.43M300.33 329.43L301.91 330.42M301.91 330.42L303.58 331.22M303.58 331.22L305.33 331.83M305.33 331.83L307.14 332.25M307.14 332.25L308.98 332.46M308.98 332.46L310.84 332.46M310.84 332.46L312.69 332.25"
fill="none" stroke="black" stroke-width="0.5"/>
<path d="M365.16 127.18L367.94 126.59M367.94 126.59L370.62 125.66M370.62 125.66L373.17 124.4M373.17 124.4L375.54 122.83M375.54 122.83L377.69 120.98M377.69 120.98L379.6 118.87M379.6 118.87L381.23 116.55M381.23 116.55L382.56 114.03M382.56 114.03L383.57 111.38M383.57 111.38L384.23 108.61M384.23 108.61L384.55 105.79M384.55 105.79L384.55 58.09M384.55 58.09L384.55 58.09M384.55 58.09L384.2 55.1M384.2 55.1L383.46 52.19M383.46 52.19L382.35 49.39M382.35 49.39L380.87 46.77M380.87 46.77L379.07 44.36M379.07 44.36L376.96 42.22M376.96 42.22L374.58 40.37M374.58 40.37L371.98 38.85M371.98 38.85L369.21 37.69M369.21 37.69L366.3 36.9M366.3 36.9L363.32 36.5M363.32 36.5L360.31 36.5M360.31 36.5L357.33 36.9M357.33 36.9L354.43 37.69M354.43 37.69L351.65 38.85M351.65 38.85L349.05 40.37M349.05 40.37L346.68 42.22M346.68 42.22L344.57 44.36M344.57 44.36L342.76 46.77M342.76 46.77L341.29 49.39M341.29 49.39L340.17 52.19M340.17 52.19L339.43 55.1M339.43 55.1L339.09 58.09M339.09 58.09L339.09 105.79M339.09 105.79L339.31 108.01M339.31 108.01L339.74 110.2M339.74 110.2L340.39 112.34M340.39 112.34L341.24 114.4M341.24 114.4L342.3 116.37M342.3 116.37L343.54 118.23M343.54 118.23L344.95 119.96M344.95 119.96L346.53 121.53M346.53 121.53L348.26 122.95M348.26 122.95L350.12 124.19M350.12 124.19L352.09 125.24M352.09 125.24L354.15 126.1M354.15 126.1L356.29 126.75M356.29 126.75L358.48 127.18M358.48 127.18L360.7 127.4M360.7 127.4L362.93 127.4M362.93 127.4L365.16 127.18"
fill="none" stroke="black" stroke-width="0.5"/>
<path d="M312.69 332.25L315.09 331.65M315.09 331.65L317.37 330.71M317.37 330.71L319.49 329.43M319.49 329.43L321.4 327.85M321.4 327.85L323.04 326.01M323.04 326.01L324.4 323.94M324.4 323.94L325.43 321.69M325.43 321.69L326.12 319.31M326.12 319.31L326.44 316.86M326.44 316.86L326.44 281.95M326.44 281.95L326.44 281.95M326.44 281.95L326.11 279.47M326.11 279.47L325.41 277.06M325.41 277.06L324.35 274.79M324.35 274.79L322.97 272.7M322.97 272.7L321.28 270.85M321.28 270.85L319.34 269.27M319.34 269.27L317.18 268.01M317.18 268.01L314.85 267.08M314.85 267.08L312.41 266.51M312.41 266.51L309.91 266.33M309.91 266.33L307.42 266.51M307.42 266.51L304.97 267.08M304.97 267.08L302.65 268.01M302.65 268.01L300.49 269.27M300.49 269.27L298.54 270.85M298.54 270.85L296.86 272.7M296.86 272.7L295.47 274.79M295.47 274.79L294.42 277.06M294.42 277.06L293.72 279.47M293.72 279.47L293.39 281.95M293.39 281.95L293.39 316.86M293.39 316.86L293.59 318.7M293.59 318.7L294.01 320.51M294.01 320.51L294.62 322.26M294.62 322.26L295.43 323.94M295.43 323.94L296.41 325.51M296.41 325.51L297.57 326.96M297.57 326.96L298.88 328.27M298.88 328.27L300.33 329.43M300.33 329.43L301.91 330.42M301.91 330.42L303.58 331.22M303.58 331.22L305.33 331.83M305.33 331.83L307.14 332.25M307.14 332.25L308.98 332.46M308.98 332.46L310.84 332.46M310.84 332.46L312.69 332.25"
fill="none" stroke="black" stroke-width="0.5"/>
<path d="M491.67 332.25L494.07 331.65M494.07 331.65L496.35 330.71M496.35 330.71L498.47 329.43M498.47 329.43L500.38 327.85M500.38 327.85L502.03 326.01M502.03 326.01L503.38 323.94M503.38 323.94L504.41 321.69M504.41 321.69L505.1 319.31M505.1 319.31L505.42 316.86M505.42 316.86L505.42 281.95M505.42 281.95L505.42 281.95M505.42 281.95L505.12 279.59M505.12 279.59L504.48 277.3M504.48 277.3L503.52 275.13M503.52 275.13L502.26 273.11M502.26 273.11L500.72 271.3M500.72 271.3L498.94 269.72M498.94 269.72L496.95 268.42M496.95 268.42L496.95 150.85M496.95 150.85L496.95 150.85M496.95 150.85L496.8 149.39M496.8 149.39L496.38 147.99M496.38 147.99L495.69 146.71M495.69 146.71L494.76 145.58M494.76 145.58L459.6 110.41M459.6 110.41L459.6 110.41M459.6 110.41L460.08 108.12M460.08 108.12L460.32 105.79M460.32 105.79L460.32 58.09M460.32 58.09L460.32 58.09M460.32 58.09L459.97 55.1M459.97 55.1L459.23 52.19M459.23 52.19L458.12 49.39M458.12 49.39L456.64 46.77M456.64 46.77L454.83 44.36M454.83 44.36L452.72 42.22M452.72 42.22L450.35 40.37M450.35 40.37L447.75 38.85M447.75 38.85L444.98 37.69M444.98 37.69L442.07 36.9M442.07 36.9L439.09 36.5M439.09 36.5L436.08 36.5M436.08 36.5L433.1 36.9M433.1 36.9L430.19 37.69M430.19 37.69L427.42 38.85M427.42 38.85L424.82 40.37M424.82 40.37L422.45 42.22M422.45 42.22L420.34 44.36M420.34 44.36L418.53 46.77M418.53 46.77L417.05 49.39M417.05 49.39L415.94 52.19M415.94 52.19L415.2 55.1M415.2 55.1L414.86 58.09M414.86 58.09L414.86 105.79M414.86 105.79L414.86 105.79M414.86 105.79L415.18 108.66M415.18 108.66L415.86 111.46M415.86 111.46L416.9 114.15M416.9 114.15L418.26 116.69M418.26 116.69L419.94 119.04M419.94 119.04L421.9 121.16M421.9 121.16L424.11 123.01M424.11 123.01L426.54 124.57M426.54 124.57L429.15 125.81M429.15 125.81L431.89 126.7M431.89 126.7L434.72 127.25M434.72 127.25L437.6 127.43M437.6 127.43L440.48 127.24M440.48 127.24L443.31 126.69M443.31 126.69L446.05 125.79M446.05 125.79L448.66 124.55M448.66 124.55L451.09 122.99M451.09 122.99L482.03 153.94M482.03 153.94L482.03 267.84M482.03 267.84L482.03 267.84M482.03 267.84L479.79 269.08M479.79 269.08L477.76 270.65M477.76 270.65L476 272.52M476 272.52L474.55 274.63M474.55 274.63L473.45 276.95M473.45 276.95L472.71 279.41M472.71 279.41L472.37 281.95M472.37 281.95L472.37 316.86M472.37 316.86L472.58 318.7M472.58 318.7L472.99 320.51M472.99 320.51L473.6 322.26M473.6 322.26L474.41 323.94M474.41 323.94L475.39 325.51M475.39 325.51L476.55 326.96M476.55 326.96L477.86 328.27M477.86 328.27L479.32 329.43M479.32 329.43L480.89 330.42M480.89 330.42L482.56 331.22M482.56 331.22L484.31 331.83M484.31 331.83L486.12 332.25M486.12 332.25L487.97 332.46M487.97 332.46L489.82 332.46M489.82 332.46L491.67 332.25"
fill="none" stroke="black" stroke-width="0.5"/>
<path d="M440.93 127.18L443.7 126.59M443.7 126.59L446.39 125.66M446.39 125.66L448.94 124.4M448.94 124.4L451.31 122.83M451.31 122.83L453.46 120.98M453.46 120.98L455.37 118.87M455.37 118.87L457 116.55M457 116.55L458.33 114.03M458.33 114.03L459.33 111.38M459.33 111.38L460 108.61M460 108.61L460.32 105.79M460.32 105.79L460.32 58.09M460.32 58.09L460.32 58.09M460.32 58.09L459.97 55.1M459.97 55.1L459.23 52.19M459.23 52.19L458.12 49.39M458.12 49.39L456.64 46.77M456.64 46.77L454.83 44.36M454.83 44.36L452.72 42.22M452.72 42.22L450.35 40.37M450.35 40.37L447.75 38.85M447.75 38.85L444.98 37.69M444.98 37.69L442.07 36.9M442.07 36.9L439.09 36.5M439.09 36.5L436.08 36.5M436.08 36.5L433.1 36.9M433.1 36.9L430.19 37.69M430.19 37.69L427.42 38.85M427.42 38.85L424.82 40.37M424.82 40.37L422.45 42.22M422.45 42.22L420.34 44.36M420.34 44.36L418.53 46.77M418.53 46.77L417.05 49.39M417.05 49.39L415.94 52.19M415.94 52.19L415.2 55.1M415.2 55.1L414.86 58.09M414.86 58.09L414.86 105.79M414.86 105.79L415.07 108.01M415.07 108.01L415.51 110.2M415.51 110.2L416.16 112.34M416.16 112.34L417.01 114.4M417.01 114.4L418.07 116.37M418.07 116.37L419.31 118.23M419.31 118.23L420.72 119.96M420.72 119.96L422.3 121.53M422.3 121.53L424.03 122.95M424.03 122.95L425.89 124.19M425.89 124.19L427.86 125.24M427.86 125.24L429.92 126.1M429.92 126.1L432.06 126.75M432.06 126.75L434.25 127.18M434.25 127.18L436.47 127.4M436.47 127.4L438.7 127.4M438.7 127.4L440.93 127.18"
fill="none" stroke="black" stroke-width="0.5"/>
<path d="M491.67 332.25L494.07 331.65M494.07 331.65L496.35 330.71M496.35 330.71L498.47 329.43M498.47 329.43L500.38 327.85M500.38 327.85L502.03 326.01M502.03 326.01L503.38 323.94M503.38 323.94L504.41 321.69M504.41 321.69L505.1 319.31M505.1 319.31L505.42 316.86M505.42 316.86L505.42 281.95M505.42 281.95L505.42 281.95M505.42 281.95L505.09 279.47M505.09 279.47L504.39 277.06M504.39 277.06L503.34 274.79M503.34 274.79L501.95 272.7M501.95 272.7L500.27 270.85M500.27 270.85L498.32 269.27M498.32 269.27L496.16 268.01M496.16 268.01L493.83 267.08M493.83 267.08L491.39 266.51M491.39 266.51L488.89 266.33M488.89 266.33L486.4 266.51M486.4 266.51L483.96 267.08M483.96 267.08L481.63 268.01M481.63 268.01L479.47 269.27M479.47 269.27L477.52 270.85M477.52 270.85L475.84 272.7M475.84 272.7L474.45 274.79M474.45 274.79L473.4 277.06M473.4 277.06L472.7 279.47M472.7 279.47L472.37 281.95M472.37 281.95L472.37 316.86M472.37 316.86L472.58 318.7M472.58 318.7L472.99 320.51M472.99 320.51L473.6 322.26M473.6 322.26L474.41 323.94M474.41 323.94L475.39 325.51M475.39 325.51L476.55 326.96M476.55 326.96L477.86 328.27M477.86 328.27L479.32 329.43M479.32 329.43L480.89 330.42M480.89 330.42L482.56 331.22M482.56 331.22L484.31 331.83M484.31 331.83L486.12 332.25M486.12 332.25L487.97 332.46M487.97 332.46L489.82 332.46M489.82 332.46L491.67 332.25"
fill="none" stroke="black" stroke-width="0.5"/>
<path d="M399.71 48.62L400.58 48.45M400.58 48.45L401.31 47.96M401.31 47.96L401.8 47.23M401.8 47.23L405.67 37.89M405.67 37.89L407.67 35.89M407.67 35.89L407.67 35.89M407.67 35.89L408.16 35.15M408.16 35.15L408.34 34.28M408.34 34.28L408.16 33.41M408.16 33.41L407.67 32.67M407.67 32.67L406.93 32.18M406.93 32.18L406.06 32.01M406.06 32.01L393.34 32.01M393.34 32.01L393.34 32.01M393.34 32.01L392.47 32.18M392.47 32.18L391.73 32.67M391.73 32.67L391.24 33.41M391.24 33.41L391.07 34.28M391.07 34.28L391.24 35.15M391.24 35.15L391.73 35.89M391.73 35.89L393.73 37.89M393.73 37.89L397.6 47.23M397.6 47.23L397.64 47.3M397.64 47.3L397.67 47.38M397.67 47.38L397.81 47.58M397.81 47.58L397.93 47.79M397.93 47.79L398 47.85M398 47.85L398.04 47.91M398.04 47.91L398.23 48.06M398.23 48.06L398.41 48.23M398.41 48.23L398.49 48.27M398.49 48.27L398.55 48.32M398.55 48.32L398.77 48.41M398.77 48.41L398.99 48.52M398.99 48.52L399.07 48.53M399.07 48.53L399.15 48.56M399.15 48.56L399.39 48.59M399.39 48.59L399.63 48.63M399.63 48.63L399.71 48.62"
fill="none" stroke="black" stroke-width="0.5"/>
<path d="M343.95 567.95L344.74 567.7M344.74 567.7L345.38 567.19M345.38 567.19L345.8 566.48M345.8 566.48L345.93 565.66M345.93 565.66L345.76 564.85M345.76 564.85L339.86 550.6M339.86 550.6L339.86 526.68M339.86 526.68L349.02 504.58M349.02 504.58L365.93 487.66M365.93 487.66L388.04 478.5M388.04 478.5L411.96 478.5M411.96 478.5L434.07 487.66M434.07 487.66L450.98 504.58M450.98 504.58L460.14 526.68M460.14 526.68L460.14 550.6M460.14 550.6L454.24 564.85M454.24 564.85L454.24 564.85M454.24 564.85L454.06 565.72M454.06 565.72L454.24 566.59M454.24 566.59L454.73 567.33M454.73 567.33L455.47 567.82M455.47 567.82L456.34 567.99M456.34 567.99L591.15 567.99M591.15 567.99L591.15 567.99M591.15 567.99L592.02 567.82M592.02 567.82L592.75 567.33M592.75 567.33L593.25 566.59M593.25 566.59L593.42 565.72M593.42 565.72L593.42 34.28M593.42 34.28L593.42 34.28M593.42 34.28L593.25 33.41M593.25 33.41L592.75 32.67M592.75 32.67L592.02 32.18M592.02 32.18L591.15 32.01M591.15 32.01L469.11 32.01M469.11 32.01L469.11 32.01M469.11 32.01L468.24 32.18M468.24 32.18L467.5 32.67M467.5 32.67L467.01 33.41M467.01 33.41L466.83 34.28M466.83 34.28L467.01 35.15M467.01 35.15L467.5 35.89M467.5 35.89L469.5 37.89M469.5 37.89L475.23 51.72M475.23 51.72L475.23 104.01M475.23 104.01L475.23 104.01M475.23 104.01L475.4 104.88M475.4 104.88L475.9 105.62M475.9 105.62L508.46 138.18M508.46 138.18L511.86 146.4M511.86 146.4L511.86 260.44M511.86 260.44L511.86 260.44M511.86 260.44L512.04 261.31M512.04 261.31L512.53 262.05M512.53 262.05L515.55 265.07M515.55 265.07L520.34 276.62M520.34 276.62L520.34 322.18M520.34 322.18L515.55 333.74M515.55 333.74L506.7 342.58M506.7 342.58L495.15 347.37M495.15 347.37L482.64 347.37M482.64 347.37L471.08 342.58M471.08 342.58L462.24 333.74M462.24 333.74L457.45 322.18M457.45 322.18L457.45 276.62M457.45 276.62L462.24 265.07M462.24 265.07L466.45 260.86M466.45 260.86L466.45 260.86M466.45 260.86L466.94 260.12M466.94 260.12L467.12 259.25M467.12 259.25L467.12 161.06M467.12 161.06L467.12 161.06M467.12 161.06L466.94 160.19M466.94 160.19L466.45 159.45M466.45 159.45L449.15 142.15M449.15 142.15L449.15 142.15M449.15 142.15L448.41 141.66M448.41 141.66L447.54 141.48M447.54 141.48L446.67 141.66M446.67 141.66L445.07 142.32M445.07 142.32L430.1 142.32M430.1 142.32L416.26 136.59M416.26 136.59L405.67 126M405.67 126L401.8 116.65M401.8 116.65L401.8 116.65M401.8 116.65L401.31 115.92M401.31 115.92L400.57 115.42M400.57 115.42L399.7 115.25M399.7 115.25L398.83 115.42M398.83 115.42L398.09 115.92M398.09 115.92L397.6 116.65M397.6 116.65L393.73 126M393.73 126L383.14 136.59M383.14 136.59L369.31 142.32M369.31 142.32L354.33 142.32M354.33 142.32L354.33 142.32M354.33 142.32L353.69 141.8M353.69 141.8L352.91 141.53M352.91 141.53L352.09 141.53M352.09 141.53L351.32 141.81M351.32 141.81L350.68 142.32M350.68 142.32L348.46 144.54M348.46 144.54L348.46 144.54M348.46 144.54L347.97 145.27M347.97 145.27L347.8 146.14M347.8 146.14L347.8 279.93M347.8 279.93L347.8 279.93M347.8 279.93L347.81 280.12M347.81 280.12L348.1 283.51M348.1 283.51L347.9 284.11M347.9 284.11L347.9 284.11M347.9 284.11L347.77 284.77M347.77 284.77L347.8 285.43M347.8 285.43L346.5 288.57M346.5 288.57L346.5 288.57M346.5 288.57L346.43 288.75M346.43 288.75L345.4 291.99M345.4 291.99L345 292.48M345 292.48L345 292.48M345 292.48L344.62 293.03M344.62 293.03L344.39 293.66M344.39 293.66L342.02 296.03M342.02 296.03L342.02 296.03M342.02 296.03L341.53 296.77M341.53 296.77L341.35 297.64M341.35 297.64L341.35 322.18M341.35 322.18L336.57 333.74M336.57 333.74L327.72 342.58M327.72 342.58L316.17 347.37M316.17 347.37L303.66 347.37M303.66 347.37L292.1 342.58M292.1 342.58L283.26 333.74M283.26 333.74L278.47 322.18M278.47 322.18L278.47 276.62M278.47 276.62L283.26 265.07M283.26 265.07L292.1 256.22M292.1 256.22L301.65 252.27M301.65 252.27L301.65 252.27M301.65 252.27L302.39 251.78M302.39 251.78L302.88 251.04M302.88 251.04L303.05 250.17M303.05 250.17L303.05 131.48M303.05 131.48L306.46 123.26M306.46 123.26L323.51 106.21M323.51 106.21L323.51 106.21M323.51 106.21L324 105.48M324 105.48L324.17 104.61M324.17 104.61L324.17 51.72M324.17 51.72L329.9 37.89M329.9 37.89L331.9 35.89M331.9 35.89L331.9 35.89M331.9 35.89L332.4 35.15M332.4 35.15L332.57 34.28M332.57 34.28L332.4 33.41M332.4 33.41L331.9 32.67M331.9 32.67L331.17 32.18M331.17 32.18L330.3 32.01M330.3 32.01L208.85 32.01M208.85 32.01L208.85 32.01M208.85 32.01L207.98 32.18M207.98 32.18L207.25 32.67M207.25 32.67L206.75 33.41M206.75 33.41L206.58 34.28M206.58 34.28L206.58 565.72M206.58 565.72L206.58 565.72M206.58 565.72L206.75 566.59M206.75 566.59L207.25 567.33M207.25 567.33L207.98 567.82M207.98 567.82L208.85 567.99M208.85 567.99L343.66 567.99M343.66 567.99L343.95 567.95"
fill="none" stroke="black" stroke-width="0.5"/>
<path d="M370.17 538.64L370.36 535.24M370.36 535.24L370.95 531.89M370.95 531.89L371.9 528.62M371.9 528.62L373.23 525.48M373.23 525.48L374.91 522.51M374.91 522.51L376.91 519.76M376.91 519.76L379.21 517.25M379.21 517.25L381.78 515.02M381.78 515.02L384.6 513.1M384.6 513.1L387.61 511.51M387.61 511.51L390.78 510.27M390.78 510.27L394.08 509.41M394.08 509.41L397.45 508.92M397.45 508.92L400.85 508.82M400.85 508.82L404.25 509.12M404.25 509.12L407.58 509.79M407.58 509.79L410.82 510.84M410.82 510.84L413.92 512.26M413.92 512.26L416.84 514.02M416.84 514.02L419.53 516.1M419.53 516.1L421.98 518.47M421.98 518.47L424.13 521.11M424.13 521.11L425.97 523.97M425.97 523.97L427.48 527.03M427.48 527.03L428.62 530.24M428.62 530.24L429.39 533.56M429.39 533.56L429.78 536.94M429.78 536.94L429.78 540.34M429.78 540.34L429.39 543.73M429.39 543.73L428.62 547.05M428.62 547.05L427.48 550.25M427.48 550.25L425.97 553.31M425.97 553.31L424.13 556.18M424.13 556.18L421.98 558.81M421.98 558.81L419.53 561.19M419.53 561.19L416.84 563.27M416.84 563.27L413.92 565.02M413.92 565.02L410.82 566.44M410.82 566.44L407.58 567.49M407.58 567.49L404.25 568.17M404.25 568.17L400.85 568.46M400.85 568.46L397.45 568.36M397.45 568.36L394.08 567.88M394.08 567.88L390.78 567.01M390.78 567.01L387.61 565.78M387.61 565.78L384.6 564.19M384.6 564.19L381.78 562.26M381.78 562.26L379.21 560.03M379.21 560.03L376.91 557.52M376.91 557.52L374.91 554.77M374.91 554.77L373.23 551.8M373.23 551.8L371.9 548.67M371.9 548.67L370.95 545.4M370.95 545.4L370.36 542.04M370.36 542.04L370.17 538.64"
fill="none" stroke="black" stroke-width="0.5"/>
<path d="M346.66 81.94L346.86 79.51M346.86 79.51L347.44 77.14M347.44 77.14L348.4 74.9M348.4 74.9L349.7 72.84M349.7 72.84L351.32 71.01M351.32 71.01L353.21 69.47M353.21 69.47L355.32 68.25M355.32 68.25L357.6 67.39M357.6 67.39L359.99 66.9M359.99 66.9L362.43 66.8M362.43 66.8L364.85 67.09M364.85 67.09L367.19 67.77M367.19 67.77L369.39 68.82M369.39 68.82L371.4 70.2M371.4 70.2L373.16 71.89M373.16 71.89L374.63 73.84M374.63 73.84L375.76 76M375.76 76L376.53 78.31M376.53 78.31L376.92 80.72M376.92 80.72L376.92 83.16M376.92 83.16L376.53 85.57M376.53 85.57L375.76 87.88M375.76 87.88L374.63 90.04M374.63 90.04L373.16 91.99M373.16 91.99L371.4 93.68M371.4 93.68L369.39 95.06M369.39 95.06L367.19 96.11M367.19 96.11L364.85 96.79M364.85 96.79L362.43 97.08M362.43 97.08L359.99 96.98M359.99 96.98L357.6 96.5M357.6 96.5L355.32 95.63M355.32 95.63L353.21 94.41M353.21 94.41L351.32 92.87M351.32 92.87L349.7 91.04M349.7 91.04L348.4 88.98M348.4 88.98L347.44 86.74M347.44 86.74L346.86 84.37M346.86 84.37L346.66 81.94"
fill="none" stroke="black" stroke-width="0.5"/>
<path d="M422.43 81.94L422.63 79.51M422.63 79.51L423.21 77.14M423.21 77.14L424.17 74.9M424.17 74.9L425.47 72.84M425.47 72.84L427.09 71.01M427.09 71.01L428.98 69.47M428.98 69.47L431.09 68.25M431.09 68.25L433.37 67.39M433.37 67.39L435.76 66.9M435.76 66.9L438.2 66.8M438.2 66.8L440.62 67.09M440.62 67.09L442.96 67.77M442.96 67.77L445.16 68.82M445.16 68.82L447.17 70.2M447.17 70.2L448.93 71.89M448.93 71.89L450.39 73.84M450.39 73.84L451.53 76M451.53 76L452.3 78.31M452.3 78.31L452.69 80.72M452.69 80.72L452.69 83.16M452.69 83.16L452.3 85.57M452.3 85.57L451.53 87.88M451.53 87.88L450.39 90.04M450.39 90.04L448.93 91.99M448.93 91.99L447.17 93.68M447.17 93.68L445.16 95.06M445.16 95.06L442.96 96.11M442.96 96.11L440.62 96.79M440.62 96.79L438.2 97.08M438.2 97.08L435.76 96.98M435.76 96.98L433.37 96.5M433.37 96.5L431.09 95.63M431.09 95.63L428.98 94.41M428.98 94.41L427.09 92.87M427.09 92.87L425.47 91.04M425.47 91.04L424.17 88.98M424.17 88.98L423.21 86.74M423.21 86.74L422.63 84.37M422.63 84.37L422.43 81.94"
fill="none" stroke="black" stroke-width="0.5"/>
<path d="M300.96 299.4L301.16 297.54M301.16 297.54L301.74 295.76M301.74 295.76L302.67 294.14M302.67 294.14L303.92 292.75M303.92 292.75L305.44 291.65M305.44 291.65L307.15 290.89M307.15 290.89L308.98 290.5M308.98 290.5L310.85 290.5M310.85 290.5L312.68 290.89M312.68 290.89L314.39 291.65M314.39 291.65L315.9 292.75M315.9 292.75L317.15 294.14M317.15 294.14L318.09 295.76M318.09 295.76L318.67 297.54M318.67 297.54L318.86 299.4M318.86 299.4L318.67 301.26M318.67 301.26L318.09 303.04M318.09 303.04L317.15 304.66M317.15 304.66L315.9 306.05M315.9 306.05L314.39 307.15M314.39 307.15L312.68 307.91M312.68 307.91L310.85 308.3M310.85 308.3L308.98 308.3M308.98 308.3L307.15 307.91M307.15 307.91L305.44 307.15M305.44 307.15L303.92 306.05M303.92 306.05L302.67 304.66M302.67 304.66L301.74 303.04M301.74 303.04L301.16 301.26M301.16 301.26L300.96 299.4"
fill="none" stroke="black" stroke-width="0.5"/>
<path d="M479.95 299.4L480.14 297.54M480.14 297.54L480.72 295.76M480.72 295.76L481.65 294.14M481.65 294.14L482.91 292.75M482.91 292.75L484.42 291.65M484.42 291.65L486.13 290.89M486.13 290.89L487.96 290.5M487.96 290.5L489.83 290.5M489.83 290.5L491.66 290.89M491.66 290.89L493.37 291.65M493.37 291.65L494.88 292.75M494.88 292.75L496.13 294.14M496.13 294.14L497.07 295.76M497.07 295.76L497.65 297.54M497.65 297.54L497.84 299.4M497.84 299.4L497.65 301.26M497.65 301.26L497.07 303.04M497.07 303.04L496.13 304.66M496.13 304.66L494.88 306.05M494.88 306.05L493.37 307.15M493.37 307.15L491.66 307.91M491.66 307.91L489.83 308.3M489.83 308.3L487.96 308.3M487.96 308.3L486.13 307.91M486.13 307.91L484.42 307.15M484.42 307.15L482.91 306.05M482.91 306.05L481.65 304.66M481.65 304.66L480.72 303.04M480.72 303.04L480.14 301.26M480.14 301.26L479.95 299.4"
fill="none" stroke="black" stroke-width="0.5"/>
</svg>
