0
SECTION
2
HEADER
9
$ANGDIR
70
1
9
$AUNITS
70
0
9
$PROJECTNAME
1
DETCTERB
9
$TDCREATE
40
2459274.93543924
9
$INSUNITS
70
4
0
ENDSEC
0
SECTION
2
ENTITIES
0
POLYLINE
66
1
8
outline
10
0.0
20
0.0
30
0.0
70
1
0
VERTEX
8
0
10
0
20
0
30
0
0
VERTEX
8
0
10
15
20
0
30
0
0
VERTEX
8
0
10
15
20
20
30
0
0
VERTEX
8
0
10
0
20
20
30
0
0
VERTEX
8
0
10
0
20
0
30
0
0
SEQEND
0
POLYLINE
66
1
8
holes
10
0.0
20
0.0
30
0.0
70
1
0
VERTEX
8
0
10
8.5
20
1.9563375
30
0
0
VERTEX
8
0
10
8.492390625
20
1.86935
30
0
0
VERTEX
8
0
10
8.477225
20
1.783353125
30
0
0
VERTEX
8
0
10
8.454625
20
1.69900625
30
0
0
VERTEX
8
0
10
8.424759375
20
1.616953125
30
0
0
VERTEX
8
0
10
8.38785625
20
1.5378125
30
0
0
VERTEX
8
0
10
8.34419375
20
1.4621875
30
0
0
VERTEX
8
0
10
8.294109375
20
1.390659375
30
0
0
VERTEX
8
0
10
8.23798125
20
1.323765625
30
0
0
VERTEX
8
0
10
8.176234375
20
1.26201875
30
0
0
VERTEX
8
0
10
8.109340625
20
1.205890625
30
0
0
VERTEX
8
0
10
8.037812500000001
20
1.1558062500000001
30
0
0
VERTEX
8
0
10
7.962187500000001
20
1.11214375
30
0
0
VERTEX
8
0
10
7.883046875000001
20
1.075240625
30
0
0
VERTEX
8
0
10
7.80099375
20
1.045375
30
0
0
VERTEX
8
0
10
7.716646875
20
1.022775
30
0
0
VERTEX
8
0
10
7.63065
20
1.0076093750000001
30
0
0
VERTEX
8
0
10
7.5436625
20
1
30
0
0
VERTEX
8
0
10
7.4563375
20
1
30
0
0
VERTEX
8
0
10
7.369350000000001
20
1.0076093750000001
30
0
0
VERTEX
8
0
10
7.2833531250000005
20
1.022775
30
0
0
VERTEX
8
0
10
7.19900625
20
1.045375
30
0
0
VERTEX
8
0
10
7.116953125
20
1.075240625
30
0
0
VERTEX
8
0
10
7.0378125
20
1.11214375
30
0
0
VERTEX
8
0
10
6.962187500000001
20
1.1558062500000001
30
0
0
VERTEX
8
0
10
6.890659375
20
1.205890625
30
0
0
VERTEX
8
0
10
6.823765625
20
1.26201875
30
0
0
VERTEX
8
0
10
6.76201875
20
1.323765625
30
0
0
VERTEX
8
0
10
6.705890625
20
1.390659375
30
0
0
VERTEX
8
0
10
6.65580625
20
1.4621875
30
0
0
VERTEX
8
0
10
6.61214375
20
1.5378125
30
0
0
VERTEX
8
0
10
6.575240625
20
1.616953125
30
0
0
VERTEX
8
0
10
6.545375
20
1.69900625
30
0
0
VERTEX
8
0
10
6.522775
20
1.783353125
30
0
0
VERTEX
8
0
10
6.507609375
20
1.86935
30
0
0
VERTEX
8
0
10
6.5
20
1.9563375
30
0
0
VERTEX
8
0
10
6.5
20
2.0436625
30
0
0
VERTEX
8
0
10
6.507609375
20
2.13065
30
0
0
VERTEX
8
0
10
6.522775
20
2.216646875
30
0
0
VERTEX
8
0
10
6.545375
20
2.30099375
30
0
0
VERTEX
8
0
10
6.575240625
20
2.3830468750000002
30
0
0
VERTEX
8
0
10
6.61214375
20
2.4621875
30
0
0
VERTEX
8
0
10
6.65580625
20
2.5378125000000002
30
0
0
VERTEX
8
0
10
6.705890625
20
2.609340625
30
0
0
VERTEX
8
0
10
6.76201875
20
2.676234375
30
0
0
VERTEX
8
0
10
6.823765625
20
2.7379812500000003
30
0
0
VERTEX
8
0
10
6.890659375
20
2.794109375
30
0
0
VERTEX
8
0
10
6.962187500000001
20
2.84419375
30
0
0
VERTEX
8
0
10
7.0378125
20
2.88785625
30
0
0
VERTEX
8
0
10
7.116953125
20
2.9247593750000003
30
0
0
VERTEX
8
0
10
7.19900625
20
2.954625
30
0
0
VERTEX
8
0
10
7.2833531250000005
20
2.9772250000000002
30
0
0
VERTEX
8
0
10
7.369350000000001
20
2.992390625
30
0
0
VERTEX
8
0
10
7.4563375
20
3
30
0
0
VERTEX
8
0
10
7.5436625
20
3
30
0
0
VERTEX
8
0
10
7.63065
20
2.992390625
30
0
0
VERTEX
8
0
10
7.716646875
20
2.9772250000000002
30
0
0
VERTEX
8
0
10
7.80099375
20
2.954625
30
0
0
VERTEX
8
0
10
7.883046875000001
20
2.9247593750000003
30
0
0
VERTEX
8
0
10
7.962187500000001
20
2.88785625
30
0
0
VERTEX
8
0
10
8.037812500000001
20
2.84419375
30
0
0
VERTEX
8
0
10
8.109340625
20
2.794109375
30
0
0
VERTEX
8
0
10
8.176234375
20
2.7379812500000003
30
0
0
VERTEX
8
0
10
8.23798125
20
2.676234375
30
0
0
VERTEX
8
0
10
8.294109375
20
2.609340625
30
0
0
VERTEX
8
0
10
8.34419375
20
2.5378125000000002
30
0
0
VERTEX
8
0
10
8.38785625
20
2.4621875
30
0
0
VERTEX
8
0
10
8.424759375
20
2.3830468750000002
30
0
0
VERTEX
8
0
10
8.454625
20
2.30099375
30
0
0
VERTEX
8
0
10
8.477225
20
2.216646875
30
0
0
VERTEX
8
0
10
8.492390625
20
2.13065
30
0
0
VERTEX
8
0
10
8.5
20
2.0436625
30
0
0
VERTEX
8
0
10
8.5
20
1.9563375
30
0
0
SEQEND
0
POLYLINE
66
1
8
1_copper
10
0.0
20
0.0
30
0.0
70
1
0
VERTEX
8
0
10
4.57294375
20
8.918965625
30
0
42
0.3499154303906411
0
VERTEX
8
0
10
5.034
20
9.4348875
30
0
0
VERTEX
8
0
10
5.034
20
10.28975625
30
0
0
VERTEX
8
0
10
5.191228125
20
10.476465625000001
30
0
42
0.17678112717073435
0
VERTEX
8
0
10
5.25
20
10.637500000000001
30
0
0
VERTEX
8
0
10
5.25
20
15.396443750000001
30
0
0
VERTEX
8
0
10
5.779465625
20
15.925909375000002
30
0
42
0.5919390949856216
0
VERTEX
8
0
10
6.982
20
16.510565625
30
0
0
VERTEX
8
0
10
6.982
20
18.109434375
30
0
42
0.9520795017710562
0
VERTEX
8
0
10
5.458
20
18.109434375
30
0
0
VERTEX
8
0
10
5.458
20
16.510565625
30
0
42
0.05680076329415573
0
VERTEX
8
0
10
5.486721875000001
20
16.340278125
30
0
0
VERTEX
8
0
10
4.823221875000001
20
15.676778125
30
0
42
0.198912367379658
0
VERTEX
8
0
10
4.75
20
15.5
30
0
0
VERTEX
8
0
10
4.75
20
11.058634375
30
0
42
0.5537887274995832
0
VERTEX
8
0
10
3.926
20
10.6051125
30
0
0
VERTEX
8
0
10
3.926
20
9.4348875
30
0
0
VERTEX
8
0
10
3.932965625
20
9.373056250000001
30
0
0
VERTEX
8
0
10
3.9468125
20
9.312390625
30
0
0
VERTEX
8
0
10
3.9673656250000002
20
9.253659375
30
0
0
VERTEX
8
0
10
3.9943625000000003
20
9.197596875
30
0
0
VERTEX
8
0
10
4.027468750000001
20
9.1449125
30
0
0
VERTEX
8
0
10
4.066262500000001
20
9.0962625
30
0
0
VERTEX
8
0
10
4.1102625
20
9.052262500000001
30
0
0
VERTEX
8
0
10
4.1589125000000005
20
9.013468750000001
30
0
0
VERTEX
8
0
10
4.211596875000001
20
8.9803625
30
0
0
VERTEX
8
0
10
4.267659375
20
8.953365625
30
0
0
VERTEX
8
0
10
4.326390625
20
8.9328125
30
0
0
VERTEX
8
0
10
4.3870562500000005
20
8.918965625
30
0
0
VERTEX
8
0
10
4.4488875000000005
20
8.912
30
0
0
VERTEX
8
0
10
4.5111125
20
8.912
30
0
0
SEQEND
0
POLYLINE
66
1
8
16_copper
10
0.0
20
0.0
30
0.0
70
1
0
VERTEX
8
0
10
6.331943750000001
20
15.793337500000002
30
0
42
0.3578057741447831
0
VERTEX
8
0
10
6.982
20
16.510565625
30
0
0
VERTEX
8
0
10
6.982
20
18.109434375
30
0
42
0.9520795017710562
0
VERTEX
8
0
10
5.458
20
18.109434375
30
0
0
VERTEX
8
0
10
5.458
20
16.510565625
30
0
0
VERTEX
8
0
10
5.4653375
20
16.43605625
30
0
0
VERTEX
8
0
10
5.47994375
20
16.362625
30
0
0
VERTEX
8
0
10
5.501678125000001
20
16.29098125
30
0
0
VERTEX
8
0
10
5.5303281250000005
20
16.221809375
30
0
0
VERTEX
8
0
10
5.565621875000001
20
16.15578125
30
0
0
VERTEX
8
0
10
5.60721875
20
16.09353125
30
0
0
VERTEX
8
0
10
5.654715625000001
20
16.035656250000002
30
0
0
VERTEX
8
0
10
5.70765625
20
15.982715625
30
0
0
VERTEX
8
0
10
5.76553125
20
15.93521875
30
0
0
VERTEX
8
0
10
5.82778125
20
15.893621875000001
30
0
0
VERTEX
8
0
10
5.893809375
20
15.858328125
30
0
0
VERTEX
8
0
10
5.96298125
20
15.829678125000001
30
0
0
VERTEX
8
0
10
6.034625
20
15.807943750000002
30
0
0
VERTEX
8
0
10
6.108056250000001
20
15.793337500000002
30
0
0
VERTEX
8
0
10
6.1825656250000005
20
15.786000000000001
30
0
0
VERTEX
8
0
10
6.257434375
20
15.786000000000001
30
0
0
SEQEND
0
POLYLINE
66
1
8
16_copper
10
0.0
20
0.0
30
0.0
70
1
0
VERTEX
8
0
10
4.57294375
20
8.918965625
30
0
42
0.3499154303906411
0
VERTEX
8
0
10
5.034
20
9.4348875
30
0
0
VERTEX
8
0
10
5.034
20
10.6051125
30
0
42
0.9454159698732624
0
VERTEX
8
0
10
3.926
20
10.6051125
30
0
0
VERTEX
8
0
10
3.926
20
9.4348875
30
0
0
VERTEX
8
0
10
3.932965625
20
9.373056250000001
30
0
0
VERTEX
8
0
10
3.9468125
20
9.312390625
30
0
0
VERTEX
8
0
10
3.9673656250000002
20
9.253659375
30
0
0
VERTEX
8
0
10
3.9943625000000003
20
9.197596875
30
0
0
VERTEX
8
0
10
4.027468750000001
20
9.1449125
30
0
0
VERTEX
8
0
10
4.066262500000001
20
9.0962625
30
0
0
VERTEX
8
0
10
4.1102625
20
9.052262500000001
30
0
0
VERTEX
8
0
10
4.1589125000000005
20
9.013468750000001
30
0
0
VERTEX
8
0
10
4.211596875000001
20
8.9803625
30
0
0
VERTEX
8
0
10
4.267659375
20
8.953365625
30
0
0
VERTEX
8
0
10
4.326390625
20
8.9328125
30
0
0
VERTEX
8
0
10
4.3870562500000005
20
8.918965625
30
0
0
VERTEX
8
0
10
4.4488875000000005
20
8.912
30
0
0
VERTEX
8
0
10
4.5111125
20
8.912
30
0
0
SEQEND
0
POLYLINE
66
1
8
1_copper
10
0.0
20
0.0
30
0.0
70
1
0
VERTEX
8
0
10
10.57294375
20
8.918965625
30
0
42
0.3499154303906411
0
VERTEX
8
0
10
11.034
20
9.4348875
30
0
0
VERTEX
8
0
10
11.034
20
10.6051125
30
0
42
0.25704735006388646
0
VERTEX
8
0
10
10.75
20
11.058634375
30
0
0
VERTEX
8
0
10
10.75
20
15
30
0
42
0.198912367379658
0
VERTEX
8
0
10
10.676778125
20
15.176778125
30
0
0
VERTEX
8
0
10
9.49793125
20
16.355625
30
0
42
0.05152851962521169
0
VERTEX
8
0
10
9.522
20
16.510565625
30
0
0
VERTEX
8
0
10
9.522
20
18.109434375
30
0
42
0.9520795017710562
0
VERTEX
8
0
10
7.998
20
18.109434375
30
0
0
VERTEX
8
0
10
7.998
20
16.510565625
30
0
42
0.5983367738528845
0
VERTEX
8
0
10
9.212525000000001
20
15.93391875
30
0
0
VERTEX
8
0
10
10.25
20
14.896443750000001
30
0
0
VERTEX
8
0
10
10.25
20
11.07813125
30
0
42
0.278554856329356
0
VERTEX
8
0
10
9.926
20
10.6051125
30
0
0
VERTEX
8
0
10
9.926
20
9.4348875
30
0
0
VERTEX
8
0
10
9.932965625000001
20
9.373056250000001
30
0
0
VERTEX
8
0
10
9.9468125
20
9.312390625
30
0
0
VERTEX
8
0
10
9.967365625000001
20
9.253659375
30
0
0
VERTEX
8
0
10
9.994362500000001
20
9.197596875
30
0
0
VERTEX
8
0
10
10.02746875
20
9.1449125
30
0
0
VERTEX
8
0
10
10.0662625
20
9.0962625
30
0
0
VERTEX
8
0
10
10.110262500000001
20
9.052262500000001
30
0
0
VERTEX
8
0
10
10.158912500000001
20
9.013468750000001
30
0
0
VERTEX
8
0
10
10.211596875
20
8.9803625
30
0
0
VERTEX
8
0
10
10.267659375000001
20
8.953365625
30
0
0
VERTEX
8
0
10
10.326390625
20
8.9328125
30
0
0
VERTEX
8
0
10
10.38705625
20
8.918965625
30
0
0
VERTEX
8
0
10
10.4488875
20
8.912
30
0
0
VERTEX
8
0
10
10.511112500000001
20
8.912
30
0
0
SEQEND
0
POLYLINE
66
1
8
16_copper
10
0.0
20
0.0
30
0.0
70
1
0
VERTEX
8
0
10
8.87194375
20
15.793337500000002
30
0
42
0.3578057741447831
0
VERTEX
8
0
10
9.522
20
16.510565625
30
0
0
VERTEX
8
0
10
9.522
20
18.109434375
30
0
42
0.9520795017710562
0
VERTEX
8
0
10
7.998
20
18.109434375
30
0
0
VERTEX
8
0
10
7.998
20
16.510565625
30
0
0
VERTEX
8
0
10
8.0053375
20
16.43605625
30
0
0
VERTEX
8
0
10
8.019943750000001
20
16.362625
30
0
0
VERTEX
8
0
10
8.041678125
20
16.29098125
30
0
0
VERTEX
8
0
10
8.070328125
20
16.221809375
30
0
0
VERTEX
8
0
10
8.105621875
20
16.15578125
30
0
0
VERTEX
8
0
10
8.14721875
20
16.09353125
30
0
0
VERTEX
8
0
10
8.194715625
20
16.035656250000002
30
0
0
VERTEX
8
0
10
8.24765625
20
15.982715625
30
0
0
VERTEX
8
0
10
8.30553125
20
15.93521875
30
0
0
VERTEX
8
0
10
8.36778125
20
15.893621875000001
30
0
0
VERTEX
8
0
10
8.433809375000001
20
15.858328125
30
0
0
VERTEX
8
0
10
8.502981250000001
20
15.829678125000001
30
0
0
VERTEX
8
0
10
8.574625000000001
20
15.807943750000002
30
0
0
VERTEX
8
0
10
8.64805625
20
15.793337500000002
30
0
0
VERTEX
8
0
10
8.722565625
20
15.786000000000001
30
0
0
VERTEX
8
0
10
8.797434375
20
15.786000000000001
30
0
0
SEQEND
0
POLYLINE
66
1
8
16_copper
10
0.0
20
0.0
30
0.0
70
1
0
VERTEX
8
0
10
10.57294375
20
8.918965625
30
0
42
0.3499154303906411
0
VERTEX
8
0
10
11.034
20
9.4348875
30
0
0
VERTEX
8
0
10
11.034
20
10.6051125
30
0
42
0.9454159698732624
0
VERTEX
8
0
10
9.926
20
10.6051125
30
0
0
VERTEX
8
0
10
9.926
20
9.4348875
30
0
0
VERTEX
8
0
10
9.932965625000001
20
9.373056250000001
30
0
0
VERTEX
8
0
10
9.9468125
20
9.312390625
30
0
0
VERTEX
8
0
10
9.967365625000001
20
9.253659375
30
0
0
VERTEX
8
0
10
9.994362500000001
20
9.197596875
30
0
0
VERTEX
8
0
10
10.02746875
20
9.1449125
30
0
0
VERTEX
8
0
10
10.0662625
20
9.0962625
30
0
0
VERTEX
8
0
10
10.110262500000001
20
9.052262500000001
30
0
0
VERTEX
8
0
10
10.158912500000001
20
9.013468750000001
30
0
0
VERTEX
8
0
10
10.211596875
20
8.9803625
30
0
0
VERTEX
8
0
10
10.267659375000001
20
8.953365625
30
0
0
VERTEX
8
0
10
10.326390625
20
8.9328125
30
0
0
VERTEX
8
0
10
10.38705625
20
8.918965625
30
0
0
VERTEX
8
0
10
10.4488875
20
8.912
30
0
0
VERTEX
8
0
10
10.511112500000001
20
8.912
30
0
0
SEQEND
0
POLYLINE
66
1
8
1_copper
10
0.0
20
0.0
30
0.0
70
1
0
VERTEX
8
0
10
7.4904375000000005
20
18.42698125
30
0
42
0.3017655050456294
0
VERTEX
8
0
10
7.560396875
20
18.473665625000002
30
0
0
VERTEX
8
0
10
7.690128125
20
18.786865625
30
0
0
VERTEX
8
0
10
7.7571843750000005
20
18.853918750000002
30
0
42
0.6681786379192989
0
VERTEX
8
0
10
7.703303125000001
20
18.984
30
0
0
VERTEX
8
0
10
7.276693750000001
20
18.984
30
0
42
0.6681786379192989
0
VERTEX
8
0
10
7.222812500000001
20
18.853918750000002
30
0
0
VERTEX
8
0
10
7.28986875
20
18.786865625
30
0
0
VERTEX
8
0
10
7.419596875000001
20
18.473665625000002
30
0
0
VERTEX
8
0
10
7.421053125
20
18.471215625
30
0
0
VERTEX
8
0
10
7.4219625
20
18.468503125
30
0
0
VERTEX
8
0
10
7.426590625
20
18.461890625000002
30
0
0
VERTEX
8
0
10
7.4307125
20
18.45495
30
0
0
VERTEX
8
0
10
7.432809375000001
20
18.453003125000002
30
0
0
VERTEX
8
0
10
7.434443750000001
20
18.450668750000002
30
0
0
VERTEX
8
0
10
7.4407531250000005
20
18.445634375
30
0
0
VERTEX
8
0
10
7.446668750000001
20
18.44014375
30
0
0
VERTEX
8
0
10
7.449221875
20
18.438871875
30
0
0
VERTEX
8
0
10
7.451456250000001
20
18.437090625
30
0
0
VERTEX
8
0
10
7.45893125
20
18.43404375
30
0
0
VERTEX
8
0
10
7.46615625
20
18.43045
30
0
0
VERTEX
8
0
10
7.468965625
20
18.429953125
30
0
0
VERTEX
8
0
10
7.4716125
20
18.428875
30
0
0
VERTEX
8
0
10
7.479640625
20
18.42806875
30
0
0
VERTEX
8
0
10
7.48759375
20
18.426662500000003
30
0
0
SEQEND
0
POLYLINE
66
1
8
1_copper
10
0.0
20
0.0
30
0.0
70
1
0
VERTEX
8
0
10
5.621025
20
1.017378125
30
0
42
0.494263907354337
0
VERTEX
8
0
10
5.681846875000001
20
1.1213593750000002
30
0
0
VERTEX
8
0
10
5.484
20
1.59899375
30
0
0
VERTEX
8
0
10
5.484
20
2.40100625
30
0
0
VERTEX
8
0
10
5.79091875
20
3.1419718750000003
30
0
0
VERTEX
8
0
10
6.3580250000000005
20
3.709078125
30
0
0
VERTEX
8
0
10
7.098990625000001
20
4.015996875
30
0
0
VERTEX
8
0
10
7.90100625
20
4.015996875
30
0
0
VERTEX
8
0
10
8.641971875000001
20
3.709078125
30
0
0
VERTEX
8
0
10
9.209078125
20
3.1419718750000003
30
0
0
VERTEX
8
0
10
9.515996875
20
2.40100625
30
0
0
VERTEX
8
0
10
9.515996875
20
1.59899375
30
0
0
VERTEX
8
0
10
9.318150000000001
20
1.1213593750000002
30
0
42
0.534518404757901
0
VERTEX
8
0
10
9.38855
20
1.0159968750000001
30
0
0
VERTEX
8
0
10
13.9078
20
1.0159968750000001
30
0
42
0.41421356237309503
0
VERTEX
8
0
10
13.984
20
1.092196875
30
0
0
VERTEX
8
0
10
13.984
20
18.9078
30
0
42
0.41421356237309503
0
VERTEX
8
0
10
13.9078
20
18.984
30
0
0
VERTEX
8
0
10
9.81669375
20
18.984
30
0
42
0.6681786379192989
0
VERTEX
8
0
10
9.7628125
20
18.853918750000002
30
0
0
VERTEX
8
0
10
9.829868750000001
20
18.786865625
30
0
0
VERTEX
8
0
10
10.021996875000001
20
18.323028125
30
0
0
VERTEX
8
0
10
10.021996875000001
20
16.570221875
30
0
42
0.198912367379658
0
VERTEX
8
0
10
10.044315625000001
20
16.516340625
30
0
0
VERTEX
8
0
10
11.135815625000001
20
15.424840625
30
0
0
VERTEX
8
0
10
11.249996875
20
15.149184375
30
0
0
VERTEX
8
0
10
11.249996875
20
11.326140625
30
0
42
0.198912367379658
0
VERTEX
8
0
10
11.272315625000001
20
11.272259375
30
0
0
VERTEX
8
0
10
11.373534375
20
11.17104375
30
0
0
VERTEX
8
0
10
11.533996875
20
10.783653125
30
0
0
VERTEX
8
0
10
11.533996875
20
9.256343750000001
30
0
0
VERTEX
8
0
10
11.373534375
20
8.868953125
30
0
0
VERTEX
8
0
10
11.077043750000001
20
8.5724625
30
0
0
VERTEX
8
0
10
10.689653125000001
20
8.412
30
0
0
VERTEX
8
0
10
10.27034375
20
8.412
30
0
0
VERTEX
8
0
10
9.882953125
20
8.5724625
30
0
0
VERTEX
8
0
10
9.5864625
20
8.868953125
30
0
0
VERTEX
8
0
10
9.426
20
9.256343750000001
30
0
0
VERTEX
8
0
10
9.426
20
10.783653125
30
0
0
VERTEX
8
0
10
9.5864625
20
11.17104375
30
0
0
VERTEX
8
0
10
9.72768125
20
11.312259375
30
0
42
0.198912367379658
0
VERTEX
8
0
10
9.75
20
11.366140625
30
0
0
VERTEX
8
0
10
9.75
20
14.657775
30
0
42
0.198912367379658
0
VERTEX
8
0
10
9.72768125
20
14.71165625
30
0
0
VERTEX
8
0
10
9.147659375
20
15.29168125
30
0
42
0.3033528574063046
0
VERTEX
8
0
10
9.064615625
20
15.308200000000001
30
0
0
VERTEX
8
0
10
9.011021875
20
15.286000000000001
30
0
0
VERTEX
8
0
10
8.508968750000001
20
15.286000000000001
30
0
0
VERTEX
8
0
10
8.04513125
20
15.478128125000001
30
0
0
VERTEX
8
0
10
7.690128125
20
15.833131250000001
30
0
0
VERTEX
8
0
10
7.560396875
20
16.14633125
30
0
42
0.668189684777048
0
VERTEX
8
0
10
7.419596875000001
20
16.14633125
30
0
0
VERTEX
8
0
10
7.28986875
20
15.833131250000001
30
0
0
VERTEX
8
0
10
6.9348656250000005
20
15.478128125000001
30
0
0
VERTEX
8
0
10
6.471028125
20
15.286000000000001
30
0
0
VERTEX
8
0
10
5.968971875
20
15.286000000000001
30
0
42
0.449230964668731
0
VERTEX
8
0
10
5.84648125
20
15.285821875
30
0
0
VERTEX
8
0
10
5.772315625
20
15.21165625
30
0
42
0.198912367379658
0
VERTEX
8
0
10
5.749996875
20
15.157775
30
0
0
VERTEX
8
0
10
5.749996875
20
10.6728375
30
0
42
0.02137520004369808
0
VERTEX
8
0
10
5.750275
20
10.66633125
30
0
0
VERTEX
8
0
10
5.759996875000001
20
10.552909375
30
0
0
VERTEX
8
0
10
5.753565625
20
10.5326375
30
0
42
0.12307839610185559
0
VERTEX
8
0
10
5.749996875
20
10.488312500000001
30
0
0
VERTEX
8
0
10
5.7064312500000005
20
10.3831375
30
0
42
0.02138083508118911
0
VERTEX
8
0
10
5.704196875
20
10.377018750000001
30
0
0
VERTEX
8
0
10
5.669771875
20
10.268503125
30
0
0
VERTEX
8
0
10
5.656071875
20
10.252234375
30
0
42
0.12306196788967126
0
VERTEX
8
0
10
5.635815625
20
10.21265625
30
0
0
VERTEX
8
0
10
5.556315625
20
10.13315625
30
0
42
0.198912367379658
0
VERTEX
8
0
10
5.533996875000001
20
10.079275
30
0
0
VERTEX
8
0
10
5.533996875000001
20
9.256343750000001
30
0
0
VERTEX
8
0
10
5.373534375
20
8.868953125
30
0
0
VERTEX
8
0
10
5.0770437500000005
20
8.5724625
30
0
0
VERTEX
8
0
10
4.689653125
20
8.412
30
0
0
VERTEX
8
0
10
4.27034375
20
8.412
30
0
0
VERTEX
8
0
10
3.8829531250000002
20
8.5724625
30
0
0
VERTEX
8
0
10
3.5864625
20
8.868953125
30
0
0
VERTEX
8
0
10
3.426
20
9.256343750000001
30
0
0
VERTEX
8
0
10
3.426
20
10.783653125
30
0
0
VERTEX
8
0
10
3.5864625
20
11.17104375
30
0
0
VERTEX
8
0
10
3.8829531250000002
20
11.467534375000001
30
0
0
VERTEX
8
0
10
4.202959375
20
11.600084375
30
0
42
0.30335085355011276
0
VERTEX
8
0
10
4.25
20
11.670484375000001
30
0
0
VERTEX
8
0
10
4.25
20
15.649184375
30
0
0
VERTEX
8
0
10
4.364181250000001
20
15.924840625000002
30
0
0
VERTEX
8
0
10
4.93568125
20
16.496340625000002
30
0
42
0.198912367379658
0
VERTEX
8
0
10
4.958
20
16.550221875000002
30
0
0
VERTEX
8
0
10
4.958
20
18.323028125
30
0
0
VERTEX
8
0
10
5.150128125
20
18.786865625
30
0
0
VERTEX
8
0
10
5.217184375
20
18.853918750000002
30
0
42
0.6681786379192989
0
VERTEX
8
0
10
5.1633031250000005
20
18.984
30
0
0
VERTEX
8
0
10
1.092196875
20
18.984
30
0
42
0.41421356237309503
0
VERTEX
8
0
10
1.0159968750000001
20
18.9078
30
0
0
VERTEX
8
0
10
1.0159968750000001
20
1.092196875
30
0
42
0.41421356237309503
0
VERTEX
8
0
10
1.092196875
20
1.0159968750000001
30
0
0
VERTEX
8
0
10
5.611446875
20
1.0159968750000001
30
0
0
SEQEND
0
CIRCLE
8
drills_NPTH
10
7.5
20
2
30
0
40
1
0
CIRCLE
8
drills_PTH
10
6.220000000000001
20
17.310000000000002
30
0
40
0.508
0
CIRCLE
8
drills_PTH
10
8.76
20
17.310000000000002
30
0
40
0.508
0
CIRCLE
8
drills_PTH
10
4.48
20
10.020000000000001
30
0
40
0.3
0
CIRCLE
8
drills_PTH
10
10.48
20
10.020000000000001
30
0
40
0.3
0
ENDSEC
0
EOF