0
SECTION
2
HEADER
9
$ANGDIR
70
1
9
$AUNITS
70
0
9
$PROJECTNAME
1
led_det_B
9
$TDCREATE
40
2459274.93503099
9
$INSUNITS
70
4
0
ENDSEC
0
SECTION
2
ENTITIES
0
POLYLINE
66
1
8
outline
10
0.0
20
0.0
30
0.0
70
1
0
VERTEX
8
0
10
3
20
-0.5
30
0
0
VERTEX
8
0
10
32.85
20
-0.5
30
0
0
VERTEX
8
0
10
32.85
20
19.310000000000002
30
0
0
VERTEX
8
0
10
3
20
19.310000000000002
30
0
0
VERTEX
8
0
10
3
20
-0.5
30
0
0
SEQEND
0
POLYLINE
66
1
8
holes
10
0.0
20
0.0
30
0.0
70
1
0
VERTEX
8
0
10
6.5
20
1.4563375
30
0
0
VERTEX
8
0
10
6.4923906250000005
20
1.36935
30
0
0
VERTEX
8
0
10
6.477225000000001
20
1.283353125
30
0
0
VERTEX
8
0
10
6.454625
20
1.19900625
30
0
0
VERTEX
8
0
10
6.424759375000001
20
1.116953125
30
0
0
VERTEX
8
0
10
6.3878562500000005
20
1.0378125
30
0
0
VERTEX
8
0
10
6.3441937500000005
20
0.9621875000000001
30
0
0
VERTEX
8
0
10
6.294109375000001
20
0.890659375
30
0
0
VERTEX
8
0
10
6.237981250000001
20
0.8237656250000001
30
0
0
VERTEX
8
0
10
6.176234375
20
0.7620187500000001
30
0
0
VERTEX
8
0
10
6.109340625000001
20
0.705890625
30
0
0
VERTEX
8
0
10
6.0378125
20
0.65580625
30
0
0
VERTEX
8
0
10
5.962187500000001
20
0.61214375
30
0
0
VERTEX
8
0
10
5.883046875000001
20
0.5752406250000001
30
0
0
VERTEX
8
0
10
5.80099375
20
0.545375
30
0
0
VERTEX
8
0
10
5.716646875
20
0.522775
30
0
0
VERTEX
8
0
10
5.63065
20
0.507609375
30
0
0
VERTEX
8
0
10
5.5436625
20
0.5
30
0
0
VERTEX
8
0
10
5.4563375
20
0.5
30
0
0
VERTEX
8
0
10
5.36935
20
0.507609375
30
0
0
VERTEX
8
0
10
5.2833531250000005
20
0.522775
30
0
0
VERTEX
8
0
10
5.19900625
20
0.545375
30
0
0
VERTEX
8
0
10
5.116953125
20
0.5752406250000001
30
0
0
VERTEX
8
0
10
5.0378125
20
0.61214375
30
0
0
VERTEX
8
0
10
4.962187500000001
20
0.65580625
30
0
0
VERTEX
8
0
10
4.890659375
20
0.705890625
30
0
0
VERTEX
8
0
10
4.823765625
20
0.7620187500000001
30
0
0
VERTEX
8
0
10
4.76201875
20
0.8237656250000001
30
0
0
VERTEX
8
0
10
4.705890625
20
0.890659375
30
0
0
VERTEX
8
0
10
4.65580625
20
0.9621875000000001
30
0
0
VERTEX
8
0
10
4.61214375
20
1.0378125
30
0
0
VERTEX
8
0
10
4.575240625
20
1.116953125
30
0
0
VERTEX
8
0
10
4.545375
20
1.19900625
30
0
0
VERTEX
8
0
10
4.522775
20
1.283353125
30
0
0
VERTEX
8
0
10
4.507609375
20
1.36935
30
0
0
VERTEX
8
0
10
4.5
20
1.4563375
30
0
0
VERTEX
8
0
10
4.5
20
1.5436625000000002
30
0
0
VERTEX
8
0
10
4.507609375
20
1.6306500000000002
30
0
0
VERTEX
8
0
10
4.522775
20
1.7166468750000001
30
0
0
VERTEX
8
0
10
4.545375
20
1.8009937500000002
30
0
0
VERTEX
8
0
10
4.575240625
20
1.883046875
30
0
0
VERTEX
8
0
10
4.61214375
20
1.9621875000000002
30
0
0
VERTEX
8
0
10
4.65580625
20
2.0378125000000002
30
0
0
VERTEX
8
0
10
4.705890625
20
2.109340625
30
0
0
VERTEX
8
0
10
4.76201875
20
2.176234375
30
0
0
VERTEX
8
0
10
4.823765625
20
2.2379812500000003
30
0
0
VERTEX
8
0
10
4.890659375
20
2.294109375
30
0
0
VERTEX
8
0
10
4.962187500000001
20
2.34419375
30
0
0
VERTEX
8
0
10
5.0378125
20
2.38785625
30
0
0
VERTEX
8
0
10
5.116953125
20
2.4247593750000003
30
0
0
VERTEX
8
0
10
5.19900625
20
2.454625
30
0
0
VERTEX
8
0
10
5.2833531250000005
20
2.4772250000000002
30
0
0
VERTEX
8
0
10
5.36935
20
2.492390625
30
0
0
VERTEX
8
0
10
5.4563375
20
2.5
30
0
0
VERTEX
8
0
10
5.5436625
20
2.5
30
0
0
VERTEX
8
0
10
5.63065
20
2.492390625
30
0
0
VERTEX
8
0
10
5.716646875
20
2.4772250000000002
30
0
0
VERTEX
8
0
10
5.80099375
20
2.454625
30
0
0
VERTEX
8
0
10
5.883046875000001
20
2.4247593750000003
30
0
0
VERTEX
8
0
10
5.962187500000001
20
2.38785625
30
0
0
VERTEX
8
0
10
6.0378125
20
2.34419375
30
0
0
VERTEX
8
0
10
6.109340625000001
20
2.294109375
30
0
0
VERTEX
8
0
10
6.176234375
20
2.2379812500000003
30
0
0
VERTEX
8
0
10
6.237981250000001
20
2.176234375
30
0
0
VERTEX
8
0
10
6.294109375000001
20
2.109340625
30
0
0
VERTEX
8
0
10
6.3441937500000005
20
2.0378125000000002
30
0
0
VERTEX
8
0
10
6.3878562500000005
20
1.9621875000000002
30
0
0
VERTEX
8
0
10
6.424759375000001
20
1.883046875
30
0
0
VERTEX
8
0
10
6.454625
20
1.8009937500000002
30
0
0
VERTEX
8
0
10
6.477225000000001
20
1.7166468750000001
30
0
0
VERTEX
8
0
10
6.4923906250000005
20
1.6306500000000002
30
0
0
VERTEX
8
0
10
6.5
20
1.5436625000000002
30
0
0
VERTEX
8
0
10
6.5
20
1.4563375
30
0
0
SEQEND
0
POLYLINE
66
1
8
holes
10
0.0
20
0.0
30
0.0
70
1
0
VERTEX
8
0
10
31.5
20
1.4563375
30
0
0
VERTEX
8
0
10
31.492390625000002
20
1.36935
30
0
0
VERTEX
8
0
10
31.477225
20
1.283353125
30
0
0
VERTEX
8
0
10
31.454625
20
1.19900625
30
0
0
VERTEX
8
0
10
31.424759375
20
1.116953125
30
0
0
VERTEX
8
0
10
31.387856250000002
20
1.0378125
30
0
0
VERTEX
8
0
10
31.344193750000002
20
0.9621875000000001
30
0
0
VERTEX
8
0
10
31.294109375
20
0.890659375
30
0
0
VERTEX
8
0
10
31.23798125
20
0.8237656250000001
30
0
0
VERTEX
8
0
10
31.176234375
20
0.7620187500000001
30
0
0
VERTEX
8
0
10
31.109340625
20
0.705890625
30
0
0
VERTEX
8
0
10
31.0378125
20
0.65580625
30
0
0
VERTEX
8
0
10
30.962187500000002
20
0.61214375
30
0
0
VERTEX
8
0
10
30.883046875
20
0.5752406250000001
30
0
0
VERTEX
8
0
10
30.80099375
20
0.545375
30
0
0
VERTEX
8
0
10
30.716646875000002
20
0.522775
30
0
0
VERTEX
8
0
10
30.630650000000003
20
0.507609375
30
0
0
VERTEX
8
0
10
30.5436625
20
0.5
30
0
0
VERTEX
8
0
10
30.4563375
20
0.5
30
0
0
VERTEX
8
0
10
30.36935
20
0.507609375
30
0
0
VERTEX
8
0
10
30.283353125
20
0.522775
30
0
0
VERTEX
8
0
10
30.19900625
20
0.545375
30
0
0
VERTEX
8
0
10
30.116953125000002
20
0.5752406250000001
30
0
0
VERTEX
8
0
10
30.0378125
20
0.61214375
30
0
0
VERTEX
8
0
10
29.962187500000002
20
0.65580625
30
0
0
VERTEX
8
0
10
29.890659375000002
20
0.705890625
30
0
0
VERTEX
8
0
10
29.823765625
20
0.7620187500000001
30
0
0
VERTEX
8
0
10
29.762018750000003
20
0.8237656250000001
30
0
0
VERTEX
8
0
10
29.705890625000002
20
0.890659375
30
0
0
VERTEX
8
0
10
29.65580625
20
0.9621875000000001
30
0
0
VERTEX
8
0
10
29.61214375
20
1.0378125
30
0
0
VERTEX
8
0
10
29.575240625000003
20
1.116953125
30
0
0
VERTEX
8
0
10
29.545375
20
1.19900625
30
0
0
VERTEX
8
0
10
29.522775000000003
20
1.283353125
30
0
0
VERTEX
8
0
10
29.507609375
20
1.36935
30
0
0
VERTEX
8
0
10
29.5
20
1.4563375
30
0
0
VERTEX
8
0
10
29.5
20
1.5436625000000002
30
0
0
VERTEX
8
0
10
29.507609375
20
1.6306500000000002
30
0
0
VERTEX
8
0
10
29.522775000000003
20
1.7166468750000001
30
0
0
VERTEX
8
0
10
29.545375
20
1.8009937500000002
30
0
0
VERTEX
8
0
10
29.575240625000003
20
1.883046875
30
0
0
VERTEX
8
0
10
29.61214375
20
1.9621875000000002
30
0
0
VERTEX
8
0
10
29.65580625
20
2.0378125000000002
30
0
0
VERTEX
8
0
10
29.705890625000002
20
2.109340625
30
0
0
VERTEX
8
0
10
29.762018750000003
20
2.176234375
30
0
0
VERTEX
8
0
10
29.823765625
20
2.2379812500000003
30
0
0
VERTEX
8
0
10
29.890659375000002
20
2.294109375
30
0
0
VERTEX
8
0
10
29.962187500000002
20
2.34419375
30
0
0
VERTEX
8
0
10
30.0378125
20
2.38785625
30
0
0
VERTEX
8
0
10
30.116953125000002
20
2.4247593750000003
30
0
0
VERTEX
8
0
10
30.19900625
20
2.454625
30
0
0
VERTEX
8
0
10
30.283353125
20
2.4772250000000002
30
0
0
VERTEX
8
0
10
30.36935
20
2.492390625
30
0
0
VERTEX
8
0
10
30.4563375
20
2.5
30
0
0
VERTEX
8
0
10
30.5436625
20
2.5
30
0
0
VERTEX
8
0
10
30.630650000000003
20
2.492390625
30
0
0
VERTEX
8
0
10
30.716646875000002
20
2.4772250000000002
30
0
0
VERTEX
8
0
10
30.80099375
20
2.454625
30
0
0
VERTEX
8
0
10
30.883046875
20
2.4247593750000003
30
0
0
VERTEX
8
0
10
30.962187500000002
20
2.38785625
30
0
0
VERTEX
8
0
10
31.0378125
20
2.34419375
30
0
0
VERTEX
8
0
10
31.109340625
20
2.294109375
30
0
0
VERTEX
8
0
10
31.176234375
20
2.2379812500000003
30
0
0
VERTEX
8
0
10
31.23798125
20
2.176234375
30
0
0
VERTEX
8
0
10
31.294109375
20
2.109340625
30
0
0
VERTEX
8
0
10
31.344193750000002
20
2.0378125000000002
30
0
0
VERTEX
8
0
10
31.387856250000002
20
1.9621875000000002
30
0
0
VERTEX
8
0
10
31.424759375
20
1.883046875
30
0
0
VERTEX
8
0
10
31.454625
20
1.8009937500000002
30
0
0
VERTEX
8
0
10
31.477225
20
1.7166468750000001
30
0
0
VERTEX
8
0
10
31.492390625000002
20
1.6306500000000002
30
0
0
VERTEX
8
0
10
31.5
20
1.5436625000000002
30
0
0
VERTEX
8
0
10
31.5
20
1.4563375
30
0
0
SEQEND
0
POLYLINE
66
1
8
holes
10
0.0
20
0.0
30
0.0
70
1
0
VERTEX
8
0
10
19
20
15.9563375
30
0
0
VERTEX
8
0
10
18.992390625000002
20
15.86935
30
0
0
VERTEX
8
0
10
18.977225
20
15.783353125000001
30
0
0
VERTEX
8
0
10
18.954625
20
15.69900625
30
0
0
VERTEX
8
0
10
18.924759375
20
15.616953125
30
0
0
VERTEX
8
0
10
18.887856250000002
20
15.537812500000001
30
0
0
VERTEX
8
0
10
18.844193750000002
20
15.4621875
30
0
0
VERTEX
8
0
10
18.794109375
20
15.390659375
30
0
0
VERTEX
8
0
10
18.73798125
20
15.323765625
30
0
0
VERTEX
8
0
10
18.676234375
20
15.262018750000001
30
0
0
VERTEX
8
0
10
18.609340625
20
15.205890625
30
0
0
VERTEX
8
0
10
18.5378125
20
15.155806250000001
30
0
0
VERTEX
8
0
10
18.462187500000002
20
15.112143750000001
30
0
0
VERTEX
8
0
10
18.383046875
20
15.075240625000001
30
0
0
VERTEX
8
0
10
18.30099375
20
15.045375
30
0
0
VERTEX
8
0
10
18.216646875000002
20
15.022775000000001
30
0
0
VERTEX
8
0
10
18.13065
20
15.007609375000001
30
0
0
VERTEX
8
0
10
18.0436625
20
15
30
0
0
VERTEX
8
0
10
17.9563375
20
15
30
0
0
VERTEX
8
0
10
17.86935
20
15.007609375000001
30
0
0
VERTEX
8
0
10
17.783353125
20
15.022775000000001
30
0
0
VERTEX
8
0
10
17.69900625
20
15.045375
30
0
0
VERTEX
8
0
10
17.616953125000002
20
15.075240625000001
30
0
0
VERTEX
8
0
10
17.5378125
20
15.112143750000001
30
0
0
VERTEX
8
0
10
17.462187500000002
20
15.155806250000001
30
0
0
VERTEX
8
0
10
17.390659375000002
20
15.205890625
30
0
0
VERTEX
8
0
10
17.323765625
20
15.262018750000001
30
0
0
VERTEX
8
0
10
17.26201875
20
15.323765625
30
0
0
VERTEX
8
0
10
17.205890625000002
20
15.390659375
30
0
0
VERTEX
8
0
10
17.15580625
20
15.4621875
30
0
0
VERTEX
8
0
10
17.11214375
20
15.537812500000001
30
0
0
VERTEX
8
0
10
17.075240625
20
15.616953125
30
0
0
VERTEX
8
0
10
17.045375
20
15.69900625
30
0
0
VERTEX
8
0
10
17.022775
20
15.783353125000001
30
0
0
VERTEX
8
0
10
17.007609375
20
15.86935
30
0
0
VERTEX
8
0
10
17
20
15.9563375
30
0
0
VERTEX
8
0
10
17
20
16.0436625
30
0
0
VERTEX
8
0
10
17.007609375
20
16.13065
30
0
0
VERTEX
8
0
10
17.022775
20
16.216646875000002
30
0
0
VERTEX
8
0
10
17.045375
20
16.30099375
30
0
0
VERTEX
8
0
10
17.075240625
20
16.383046875
30
0
0
VERTEX
8
0
10
17.11214375
20
16.462187500000002
30
0
0
VERTEX
8
0
10
17.15580625
20
16.5378125
30
0
0
VERTEX
8
0
10
17.205890625000002
20
16.609340625
30
0
0
VERTEX
8
0
10
17.26201875
20
16.676234375
30
0
0
VERTEX
8
0
10
17.323765625
20
16.73798125
30
0
0
VERTEX
8
0
10
17.390659375000002
20
16.794109375
30
0
0
VERTEX
8
0
10
17.462187500000002
20
16.844193750000002
30
0
0
VERTEX
8
0
10
17.5378125
20
16.887856250000002
30
0
0
VERTEX
8
0
10
17.616953125000002
20
16.924759375
30
0
0
VERTEX
8
0
10
17.69900625
20
16.954625
30
0
0
VERTEX
8
0
10
17.783353125
20
16.977225
30
0
0
VERTEX
8
0
10
17.86935
20
16.992390625000002
30
0
0
VERTEX
8
0
10
17.9563375
20
17
30
0
0
VERTEX
8
0
10
18.0436625
20
17
30
0
0
VERTEX
8
0
10
18.13065
20
16.992390625000002
30
0
0
VERTEX
8
0
10
18.216646875000002
20
16.977225
30
0
0
VERTEX
8
0
10
18.30099375
20
16.954625
30
0
0
VERTEX
8
0
10
18.383046875
20
16.924759375
30
0
0
VERTEX
8
0
10
18.462187500000002
20
16.887856250000002
30
0
0
VERTEX
8
0
10
18.5378125
20
16.844193750000002
30
0
0
VERTEX
8
0
10
18.609340625
20
16.794109375
30
0
0
VERTEX
8
0
10
18.676234375
20
16.73798125
30
0
0
VERTEX
8
0
10
18.73798125
20
16.676234375
30
0
0
VERTEX
8
0
10
18.794109375
20
16.609340625
30
0
0
VERTEX
8
0
10
18.844193750000002
20
16.5378125
30
0
0
VERTEX
8
0
10
18.887856250000002
20
16.462187500000002
30
0
0
VERTEX
8
0
10
18.924759375
20
16.383046875
30
0
0
VERTEX
8
0
10
18.954625
20
16.30099375
30
0
0
VERTEX
8
0
10
18.977225
20
16.216646875000002
30
0
0
VERTEX
8
0
10
18.992390625000002
20
16.13065
30
0
0
VERTEX
8
0
10
19
20
16.0436625
30
0
0
VERTEX
8
0
10
19
20
15.9563375
30
0
0
SEQEND
0
POLYLINE
66
1
8
1_copper
10
0.0
20
0.0
30
0.0
70
1
0
VERTEX
8
0
10
7.092943750000001
20
7.898965625000001
30
0
42
0.3499154303906411
0
VERTEX
8
0
10
7.554
20
8.4148875
30
0
0
VERTEX
8
0
10
7.554
20
9.585112500000001
30
0
42
0.26779146078962257
0
VERTEX
8
0
10
7.25
20
10.0485
30
0
0
VERTEX
8
0
10
7.25
20
16.25
30
0
0
VERTEX
8
0
10
7.8580000000000005
20
16.25
30
0
0
VERTEX
8
0
10
7.8580000000000005
20
15.900565625
30
0
42
0.9520795017710562
0
VERTEX
8
0
10
9.382
20
15.900565625
30
0
0
VERTEX
8
0
10
9.382
20
17.499434375
30
0
42
0.9520795017710562
0
VERTEX
8
0
10
7.8580000000000005
20
17.499434375
30
0
0
VERTEX
8
0
10
7.8580000000000005
20
16.75
30
0
0
VERTEX
8
0
10
7
20
16.75
30
0
42
0.41421356237309503
0
VERTEX
8
0
10
6.75
20
16.5
30
0
0
VERTEX
8
0
10
6.75
20
10.0485
30
0
42
0.26779146078962257
0
VERTEX
8
0
10
6.446000000000001
20
9.585112500000001
30
0
0
VERTEX
8
0
10
6.446000000000001
20
8.4148875
30
0
0
VERTEX
8
0
10
6.452965625
20
8.35305625
30
0
0
VERTEX
8
0
10
6.4668125000000005
20
8.292390625000001
30
0
0
VERTEX
8
0
10
6.487365625000001
20
8.233659375
30
0
0
VERTEX
8
0
10
6.514362500000001
20
8.177596875
30
0
0
VERTEX
8
0
10
6.54746875
20
8.1249125
30
0
0
VERTEX
8
0
10
6.5862625
20
8.0762625
30
0
0
VERTEX
8
0
10
6.630262500000001
20
8.0322625
30
0
0
VERTEX
8
0
10
6.6789125
20
7.993468750000001
30
0
0
VERTEX
8
0
10
6.731596875
20
7.9603625000000005
30
0
0
VERTEX
8
0
10
6.7876593750000005
20
7.933365625
30
0
0
VERTEX
8
0
10
6.846390625000001
20
7.9128125
30
0
0
VERTEX
8
0
10
6.90705625
20
7.898965625000001
30
0
0
VERTEX
8
0
10
6.9688875
20
7.892
30
0
0
VERTEX
8
0
10
7.031112500000001
20
7.892
30
0
0
SEQEND
0
POLYLINE
66
1
8
16_copper
10
0.0
20
0.0
30
0.0
70
1
0
VERTEX
8
0
10
8.731943750000001
20
15.1833375
30
0
42
0.3578057741447831
0
VERTEX
8
0
10
9.382
20
15.900565625
30
0
0
VERTEX
8
0
10
9.382
20
17.499434375
30
0
42
0.9520795017710562
0
VERTEX
8
0
10
7.8580000000000005
20
17.499434375
30
0
0
VERTEX
8
0
10
7.8580000000000005
20
15.900565625
30
0
0
VERTEX
8
0
10
7.865337500000001
20
15.82605625
30
0
0
VERTEX
8
0
10
7.879943750000001
20
15.752625
30
0
0
VERTEX
8
0
10
7.901678125
20
15.68098125
30
0
0
VERTEX
8
0
10
7.930328125
20
15.611809375
30
0
0
VERTEX
8
0
10
7.965621875
20
15.545781250000001
30
0
0
VERTEX
8
0
10
8.00721875
20
15.48353125
30
0
0
VERTEX
8
0
10
8.054715625
20
15.425656250000001
30
0
0
VERTEX
8
0
10
8.10765625
20
15.372715625000001
30
0
0
VERTEX
8
0
10
8.16553125
20
15.325218750000001
30
0
0
VERTEX
8
0
10
8.22778125
20
15.283621875000001
30
0
0
VERTEX
8
0
10
8.293809375
20
15.248328125
30
0
0
VERTEX
8
0
10
8.36298125
20
15.219678125000002
30
0
0
VERTEX
8
0
10
8.434625
20
15.19794375
30
0
0
VERTEX
8
0
10
8.508056250000001
20
15.1833375
30
0
0
VERTEX
8
0
10
8.582565625
20
15.176
30
0
0
VERTEX
8
0
10
8.657434375000001
20
15.176
30
0
0
SEQEND
0
POLYLINE
66
1
8
16_copper
10
0.0
20
0.0
30
0.0
70
1
0
VERTEX
8
0
10
7.092943750000001
20
7.898965625000001
30
0
42
0.3499154303906411
0
VERTEX
8
0
10
7.554
20
8.4148875
30
0
0
VERTEX
8
0
10
7.554
20
9.585112500000001
30
0
42
0.9454159698732624
0
VERTEX
8
0
10
6.446000000000001
20
9.585112500000001
30
0
0
VERTEX
8
0
10
6.446000000000001
20
8.4148875
30
0
0
VERTEX
8
0
10
6.452965625
20
8.35305625
30
0
0
VERTEX
8
0
10
6.4668125000000005
20
8.292390625000001
30
0
0
VERTEX
8
0
10
6.487365625000001
20
8.233659375
30
0
0
VERTEX
8
0
10
6.514362500000001
20
8.177596875
30
0
0
VERTEX
8
0
10
6.54746875
20
8.1249125
30
0
0
VERTEX
8
0
10
6.5862625
20
8.0762625
30
0
0
VERTEX
8
0
10
6.630262500000001
20
8.0322625
30
0
0
VERTEX
8
0
10
6.6789125
20
7.993468750000001
30
0
0
VERTEX
8
0
10
6.731596875
20
7.9603625000000005
30
0
0
VERTEX
8
0
10
6.7876593750000005
20
7.933365625
30
0
0
VERTEX
8
0
10
6.846390625000001
20
7.9128125
30
0
0
VERTEX
8
0
10
6.90705625
20
7.898965625000001
30
0
0
VERTEX
8
0
10
6.9688875
20
7.892
30
0
0
VERTEX
8
0
10
7.031112500000001
20
7.892
30
0
0
SEQEND
0
POLYLINE
66
1
8
1_copper
10
0.0
20
0.0
30
0.0
70
1
0
VERTEX
8
0
10
13.09294375
20
7.898965625000001
30
0
42
0.3499154303906411
0
VERTEX
8
0
10
13.554
20
8.4148875
30
0
0
VERTEX
8
0
10
13.554
20
9.585112500000001
30
0
42
0.26779146078962257
0
VERTEX
8
0
10
13.25
20
10.0485
30
0
0
VERTEX
8
0
10
13.25
20
16.5
30
0
42
0.41421356237309503
0
VERTEX
8
0
10
13
20
16.75
30
0
0
VERTEX
8
0
10
11.922
20
16.75
30
0
0
VERTEX
8
0
10
11.922
20
17.499434375
30
0
42
0.9520795017710562
0
VERTEX
8
0
10
10.398
20
17.499434375
30
0
0
VERTEX
8
0
10
10.398
20
15.900565625
30
0
42
0.9520795017710562
0
VERTEX
8
0
10
11.922
20
15.900565625
30
0
0
VERTEX
8
0
10
11.922
20
16.25
30
0
0
VERTEX
8
0
10
12.75
20
16.25
30
0
0
VERTEX
8
0
10
12.75
20
10.0485
30
0
42
0.26779146078962257
0
VERTEX
8
0
10
12.446
20
9.585112500000001
30
0
0
VERTEX
8
0
10
12.446
20
8.4148875
30
0
0
VERTEX
8
0
10
12.452965625000001
20
8.35305625
30
0
0
VERTEX
8
0
10
12.466812500000001
20
8.292390625000001
30
0
0
VERTEX
8
0
10
12.487365625
20
8.233659375
30
0
0
VERTEX
8
0
10
12.5143625
20
8.177596875
30
0
0
VERTEX
8
0
10
12.54746875
20
8.1249125
30
0
0
VERTEX
8
0
10
12.5862625
20
8.0762625
30
0
0
VERTEX
8
0
10
12.6302625
20
8.0322625
30
0
0
VERTEX
8
0
10
12.678912500000001
20
7.993468750000001
30
0
0
VERTEX
8
0
10
12.731596875000001
20
7.9603625000000005
30
0
0
VERTEX
8
0
10
12.787659375
20
7.933365625
30
0
0
VERTEX
8
0
10
12.846390625
20
7.9128125
30
0
0
VERTEX
8
0
10
12.90705625
20
7.898965625000001
30
0
0
VERTEX
8
0
10
12.968887500000001
20
7.892
30
0
0
VERTEX
8
0
10
13.0311125
20
7.892
30
0
0
SEQEND
0
POLYLINE
66
1
8
16_copper
10
0.0
20
0.0
30
0.0
70
1
0
VERTEX
8
0
10
11.27194375
20
15.1833375
30
0
42
0.3578057741447831
0
VERTEX
8
0
10
11.922
20
15.900565625
30
0
0
VERTEX
8
0
10
11.922
20
17.499434375
30
0
42
0.9520795017710562
0
VERTEX
8
0
10
10.398
20
17.499434375
30
0
0
VERTEX
8
0
10
10.398
20
15.900565625
30
0
0
VERTEX
8
0
10
10.4053375
20
15.82605625
30
0
0
VERTEX
8
0
10
10.41994375
20
15.752625
30
0
0
VERTEX
8
0
10
10.441678125000001
20
15.68098125
30
0
0
VERTEX
8
0
10
10.470328125
20
15.611809375
30
0
0
VERTEX
8
0
10
10.505621875000001
20
15.545781250000001
30
0
0
VERTEX
8
0
10
10.54721875
20
15.48353125
30
0
0
VERTEX
8
0
10
10.594715625000001
20
15.425656250000001
30
0
0
VERTEX
8
0
10
10.64765625
20
15.372715625000001
30
0
0
VERTEX
8
0
10
10.70553125
20
15.325218750000001
30
0
0
VERTEX
8
0
10
10.76778125
20
15.283621875000001
30
0
0
VERTEX
8
0
10
10.833809375000001
20
15.248328125
30
0
0
VERTEX
8
0
10
10.90298125
20
15.219678125000002
30
0
0
VERTEX
8
0
10
10.974625000000001
20
15.19794375
30
0
0
VERTEX
8
0
10
11.04805625
20
15.1833375
30
0
0
VERTEX
8
0
10
11.122565625
20
15.176
30
0
0
VERTEX
8
0
10
11.197434375
20
15.176
30
0
0
SEQEND
0
POLYLINE
66
1
8
16_copper
10
0.0
20
0.0
30
0.0
70
1
0
VERTEX
8
0
10
13.09294375
20
7.898965625000001
30
0
42
0.3499154303906411
0
VERTEX
8
0
10
13.554
20
8.4148875
30
0
0
VERTEX
8
0
10
13.554
20
9.585112500000001
30
0
42
0.9454159698732624
0
VERTEX
8
0
10
12.446
20
9.585112500000001
30
0
0
VERTEX
8
0
10
12.446
20
8.4148875
30
0
0
VERTEX
8
0
10
12.452965625000001
20
8.35305625
30
0
0
VERTEX
8
0
10
12.466812500000001
20
8.292390625000001
30
0
0
VERTEX
8
0
10
12.487365625
20
8.233659375
30
0
0
VERTEX
8
0
10
12.5143625
20
8.177596875
30
0
0
VERTEX
8
0
10
12.54746875
20
8.1249125
30
0
0
VERTEX
8
0
10
12.5862625
20
8.0762625
30
0
0
VERTEX
8
0
10
12.6302625
20
8.0322625
30
0
0
VERTEX
8
0
10
12.678912500000001
20
7.993468750000001
30
0
0
VERTEX
8
0
10
12.731596875000001
20
7.9603625000000005
30
0
0
VERTEX
8
0
10
12.787659375
20
7.933365625
30
0
0
VERTEX
8
0
10
12.846390625
20
7.9128125
30
0
0
VERTEX
8
0
10
12.90705625
20
7.898965625000001
30
0
0
VERTEX
8
0
10
12.968887500000001
20
7.892
30
0
0
VERTEX
8
0
10
13.0311125
20
7.892
30
0
0
SEQEND
0
POLYLINE
66
1
8
1_copper
10
0.0
20
0.0
30
0.0
70
1
0
VERTEX
8
0
10
31.810000000000002
20
10.46
30
0
0
VERTEX
8
0
10
30.560000000000002
20
10.46
30
0
0
VERTEX
8
0
10
30.560000000000002
20
10.99
30
0
42
0.198912367379658
0
VERTEX
8
0
10
30.486778125
20
11.166778125
30
0
0
VERTEX
8
0
10
27.040000000000003
20
14.61355625
30
0
0
VERTEX
8
0
10
27.040000000000003
20
15.027550000000002
30
0
42
0.3059715170880054
0
VERTEX
8
0
10
27.552
20
15.710565625000001
30
0
0
VERTEX
8
0
10
27.552
20
17.309434375000002
30
0
42
0.9520795017710562
0
VERTEX
8
0
10
26.028000000000002
20
17.309434375000002
30
0
0
VERTEX
8
0
10
26.028000000000002
20
15.710565625000001
30
0
42
0.3059715170880054
0
VERTEX
8
0
10
26.540000000000003
20
15.027550000000002
30
0
0
VERTEX
8
0
10
26.540000000000003
20
14.510000000000002
30
0
42
0.198912367379658
0
VERTEX
8
0
10
26.613221875
20
14.333221875000001
30
0
0
VERTEX
8
0
10
30.060000000000002
20
10.88644375
30
0
0
VERTEX
8
0
10
30.060000000000002
20
10.46
30
0
0
VERTEX
8
0
10
28.810000000000002
20
10.46
30
0
0
VERTEX
8
0
10
28.810000000000002
20
7.46
30
0
0
VERTEX
8
0
10
31.810000000000002
20
7.46
30
0
0
SEQEND
0
POLYLINE
66
1
8
16_copper
10
0.0
20
0.0
30
0.0
70
1
0
VERTEX
8
0
10
26.90194375
20
14.9933375
30
0
42
0.3578057741447831
0
VERTEX
8
0
10
27.552
20
15.710565625000001
30
0
0
VERTEX
8
0
10
27.552
20
17.309434375000002
30
0
42
0.9520795017710562
0
VERTEX
8
0
10
26.028000000000002
20
17.309434375000002
30
0
0
VERTEX
8
0
10
26.028000000000002
20
15.710565625000001
30
0
0
VERTEX
8
0
10
26.0353375
20
15.636056250000001
30
0
0
VERTEX
8
0
10
26.04994375
20
15.562625
30
0
0
VERTEX
8
0
10
26.071678125000002
20
15.49098125
30
0
0
VERTEX
8
0
10
26.100328125
20
15.421809375
30
0
0
VERTEX
8
0
10
26.135621875000002
20
15.355781250000001
30
0
0
VERTEX
8
0
10
26.17721875
20
15.293531250000001
30
0
0
VERTEX
8
0
10
26.224715625
20
15.23565625
30
0
0
VERTEX
8
0
10
26.27765625
20
15.182715625
30
0
0
VERTEX
8
0
10
26.335531250000003
20
15.13521875
30
0
0
VERTEX
8
0
10
26.39778125
20
15.093621875
30
0
0
VERTEX
8
0
10
26.463809375
20
15.058328125000001
30
0
0
VERTEX
8
0
10
26.532981250000002
20
15.029678125
30
0
0
VERTEX
8
0
10
26.604625000000002
20
15.00794375
30
0
0
VERTEX
8
0
10
26.67805625
20
14.9933375
30
0
0
VERTEX
8
0
10
26.752565625000003
20
14.986
30
0
0
VERTEX
8
0
10
26.827434375000003
20
14.986
30
0
0
SEQEND
0
POLYLINE
66
1
8
1_copper
10
0.0
20
0.0
30
0.0
70
1
0
VERTEX
8
0
10
22.19
20
10.540000000000001
30
0
0
VERTEX
8
0
10
21.44
20
10.540000000000001
30
0
0
VERTEX
8
0
10
21.44
20
10.84644375
30
0
0
VERTEX
8
0
10
24.426778125000002
20
13.833221875000001
30
0
42
0.198912367379658
0
VERTEX
8
0
10
24.5
20
14.01
30
0
0
VERTEX
8
0
10
24.5
20
15.027550000000002
30
0
42
0.3059715170880054
0
VERTEX
8
0
10
25.012
20
15.710565625000001
30
0
0
VERTEX
8
0
10
25.012
20
17.309434375000002
30
0
42
0.9520795017710562
0
VERTEX
8
0
10
23.488
20
17.309434375000002
30
0
0
VERTEX
8
0
10
23.488
20
15.710565625000001
30
0
42
0.3059715170880054
0
VERTEX
8
0
10
24
20
15.027550000000002
30
0
0
VERTEX
8
0
10
24
20
14.11355625
30
0
0
VERTEX
8
0
10
21.013221875
20
11.126778125000001
30
0
42
0.198912367379658
0
VERTEX
8
0
10
20.94
20
10.950000000000001
30
0
0
VERTEX
8
0
10
20.94
20
10.540000000000001
30
0
0
VERTEX
8
0
10
19.19
20
10.540000000000001
30
0
0
VERTEX
8
0
10
19.19
20
7.54
30
0
0
VERTEX
8
0
10
22.19
20
7.54
30
0
0
SEQEND
0
POLYLINE
66
1
8
16_copper
10
0.0
20
0.0
30
0.0
70
1
0
VERTEX
8
0
10
24.361943750000002
20
14.9933375
30
0
42
0.3578057741447831
0
VERTEX
8
0
10
25.012
20
15.710565625000001
30
0
0
VERTEX
8
0
10
25.012
20
17.309434375000002
30
0
42
0.9520795017710562
0
VERTEX
8
0
10
23.488
20
17.309434375000002
30
0
0
VERTEX
8
0
10
23.488
20
15.710565625000001
30
0
0
VERTEX
8
0
10
23.4953375
20
15.636056250000001
30
0
0
VERTEX
8
0
10
23.50994375
20
15.562625
30
0
0
VERTEX
8
0
10
23.531678125000003
20
15.49098125
30
0
0
VERTEX
8
0
10
23.560328125
20
15.421809375
30
0
0
VERTEX
8
0
10
23.595621875000003
20
15.355781250000001
30
0
0
VERTEX
8
0
10
23.637218750000002
20
15.293531250000001
30
0
0
VERTEX
8
0
10
23.684715625000003
20
15.23565625
30
0
0
VERTEX
8
0
10
23.73765625
20
15.182715625
30
0
0
VERTEX
8
0
10
23.79553125
20
15.13521875
30
0
0
VERTEX
8
0
10
23.857781250000002
20
15.093621875
30
0
0
VERTEX
8
0
10
23.923809375
20
15.058328125000001
30
0
0
VERTEX
8
0
10
23.99298125
20
15.029678125
30
0
0
VERTEX
8
0
10
24.064625
20
15.00794375
30
0
0
VERTEX
8
0
10
24.13805625
20
14.9933375
30
0
0
VERTEX
8
0
10
24.212565625
20
14.986
30
0
0
VERTEX
8
0
10
24.287434375
20
14.986
30
0
0
SEQEND
0
POLYLINE
66
1
8
1_copper
10
0.0
20
0.0
30
0.0
70
1
0
VERTEX
8
0
10
31.763418750000003
20
10.960809375
30
0
42
0.39258815634569955
0
VERTEX
8
0
10
31.834000000000003
20
11.036196875
30
0
0
VERTEX
8
0
10
31.834000000000003
20
18.2178
30
0
42
0.41421356237309503
0
VERTEX
8
0
10
31.757800000000003
20
18.294
30
0
0
VERTEX
8
0
10
27.73669375
20
18.294
30
0
42
0.6681786379192989
0
VERTEX
8
0
10
27.6828125
20
18.16391875
30
0
0
VERTEX
8
0
10
27.85986875
20
17.986865625
30
0
0
VERTEX
8
0
10
28.051996875
20
17.523028125
30
0
0
VERTEX
8
0
10
28.051996875
20
15.49696875
30
0
0
VERTEX
8
0
10
27.85986875
20
15.03313125
30
0
0
VERTEX
8
0
10
27.647575
20
14.820840625
30
0
42
0.41421356237309503
0
VERTEX
8
0
10
27.647575
20
14.713078125000001
30
0
0
VERTEX
8
0
10
30.945815625
20
11.414840625
30
0
0
VERTEX
8
0
10
31.059996875000003
20
11.139184375000001
30
0
0
VERTEX
8
0
10
31.059996875000003
20
11.036196875
30
0
42
0.41421356237309503
0
VERTEX
8
0
10
31.136196875000003
20
10.959996875
30
0
0
VERTEX
8
0
10
31.757800000000003
20
10.959996875
30
0
0
SEQEND
0
POLYLINE
66
1
8
1_copper
10
0.0
20
0.0
30
0.0
70
1
0
VERTEX
8
0
10
28.621025000000003
20
0.517378125
30
0
42
0.494263907354337
0
VERTEX
8
0
10
28.681846875
20
0.621359375
30
0
0
VERTEX
8
0
10
28.484
20
1.09899375
30
0
0
VERTEX
8
0
10
28.484
20
1.90100625
30
0
0
VERTEX
8
0
10
28.790918750000003
20
2.6419718750000003
30
0
0
VERTEX
8
0
10
29.358025
20
3.209078125
30
0
0
VERTEX
8
0
10
30.098990625000003
20
3.5159968750000004
30
0
0
VERTEX
8
0
10
30.901006250000002
20
3.5159968750000004
30
0
0
VERTEX
8
0
10
31.641971875000003
20
3.209078125
30
0
0
VERTEX
8
0
10
31.703918750000003
20
3.147128125
30
0
42
0.6681786379192989
0
VERTEX
8
0
10
31.834000000000003
20
3.201009375
30
0
0
VERTEX
8
0
10
31.834000000000003
20
6.8838
30
0
42
0.41421356237309503
0
VERTEX
8
0
10
31.757800000000003
20
6.96
30
0
0
VERTEX
8
0
10
28.602890625
20
6.96
30
0
0
VERTEX
8
0
10
28.310000000000002
20
7.252890625
30
0
0
VERTEX
8
0
10
28.310000000000002
20
10.66710625
30
0
0
VERTEX
8
0
10
28.602890625
20
10.959996875
30
0
0
VERTEX
8
0
10
29.095381250000003
20
10.959996875
30
0
42
0.6681786379192989
0
VERTEX
8
0
10
29.149262500000003
20
11.090078125
30
0
0
VERTEX
8
0
10
26.375875
20
13.8634625
30
0
0
VERTEX
8
0
10
26.15418125
20
14.08515625
30
0
0
VERTEX
8
0
10
26.040000000000003
20
14.360812500000002
30
0
0
VERTEX
8
0
10
26.040000000000003
20
14.681700000000001
30
0
42
0.198912367379658
0
VERTEX
8
0
10
26.017681250000003
20
14.735581250000001
30
0
0
VERTEX
8
0
10
25.720128125000002
20
15.03313125
30
0
0
VERTEX
8
0
10
25.590396875
20
15.34633125
30
0
42
0.668189684777048
0
VERTEX
8
0
10
25.449596875
20
15.34633125
30
0
0
VERTEX
8
0
10
25.31986875
20
15.03313125
30
0
0
VERTEX
8
0
10
25.022315625
20
14.735581250000001
30
0
42
0.198912367379658
0
VERTEX
8
0
10
24.999996875
20
14.681700000000001
30
0
0
VERTEX
8
0
10
24.999996875
20
13.860812500000002
30
0
0
VERTEX
8
0
10
24.885815625000003
20
13.58515625
30
0
0
VERTEX
8
0
10
22.422759375000002
20
11.122103125
30
0
42
0.41421356237309503
0
VERTEX
8
0
10
22.422759375000002
20
11.014340625
30
0
0
VERTEX
8
0
10
22.689996875000002
20
10.74710625
30
0
0
VERTEX
8
0
10
22.689996875000002
20
7.332890625
30
0
0
VERTEX
8
0
10
22.39710625
20
7.04
30
0
0
VERTEX
8
0
10
18.982890625
20
7.04
30
0
0
VERTEX
8
0
10
18.69
20
7.332890625
30
0
0
VERTEX
8
0
10
18.69
20
10.74710625
30
0
0
VERTEX
8
0
10
18.982890625
20
11.039996875
30
0
0
VERTEX
8
0
10
20.36456875
20
11.039996875
30
0
42
0.30335085355011276
0
VERTEX
8
0
10
20.43496875
20
11.087037500000001
30
0
0
VERTEX
8
0
10
20.554181250000003
20
11.374840625000001
30
0
0
VERTEX
8
0
10
23.47768125
20
14.298340625
30
0
42
0.198912367379658
0
VERTEX
8
0
10
23.5
20
14.352221875000001
30
0
0
VERTEX
8
0
10
23.5
20
14.681700000000001
30
0
42
0.198912367379658
0
VERTEX
8
0
10
23.47768125
20
14.735581250000001
30
0
0
VERTEX
8
0
10
23.180128125
20
15.03313125
30
0
0
VERTEX
8
0
10
22.988
20
15.49696875
30
0
0
VERTEX
8
0
10
22.988
20
17.523028125
30
0
0
VERTEX
8
0
10
23.180128125
20
17.986865625
30
0
0
VERTEX
8
0
10
23.357184375000003
20
18.16391875
30
0
42
0.6681786379192989
0
VERTEX
8
0
10
23.303303125
20
18.294
30
0
0
VERTEX
8
0
10
12.295390625000001
20
18.294
30
0
42
0.5345062264334504
0
VERTEX
8
0
10
12.224990625
20
18.188640625
30
0
0
VERTEX
8
0
10
12.421996875000001
20
17.713028125
30
0
0
VERTEX
8
0
10
12.421996875000001
20
17.326196875
30
0
42
0.41421356237309503
0
VERTEX
8
0
10
12.498196875000001
20
17.249996875
30
0
0
VERTEX
8
0
10
13.149184375
20
17.249996875
30
0
0
VERTEX
8
0
10
13.424840625
20
17.135815625
30
0
0
VERTEX
8
0
10
13.635815625000001
20
16.924840625
30
0
0
VERTEX
8
0
10
13.749996875
20
16.649184375
30
0
0
VERTEX
8
0
10
13.749996875
20
10.32614375
30
0
42
0.198912367379658
0
VERTEX
8
0
10
13.772315625000001
20
10.2722625
30
0
0
VERTEX
8
0
10
13.893534375000002
20
10.151043750000001
30
0
0
VERTEX
8
0
10
14.053996875000001
20
9.763653125000001
30
0
0
VERTEX
8
0
10
14.053996875000001
20
8.23634375
30
0
0
VERTEX
8
0
10
13.893534375000002
20
7.848953125
30
0
0
VERTEX
8
0
10
13.597043750000001
20
7.552462500000001
30
0
0
VERTEX
8
0
10
13.209653125
20
7.392
30
0
0
VERTEX
8
0
10
12.79034375
20
7.392
30
0
0
VERTEX
8
0
10
12.402953125
20
7.552462500000001
30
0
0
VERTEX
8
0
10
12.106462500000001
20
7.848953125
30
0
0
VERTEX
8
0
10
11.946
20
8.23634375
30
0
0
VERTEX
8
0
10
11.946
20
9.763653125000001
30
0
0
VERTEX
8
0
10
12.106462500000001
20
10.151043750000001
30
0
0
VERTEX
8
0
10
12.22768125
20
10.2722625
30
0
42
0.198912367379658
0
VERTEX
8
0
10
12.25
20
10.32614375
30
0
0
VERTEX
8
0
10
12.25
20
15.059303125000001
30
0
42
0.6681786379192989
0
VERTEX
8
0
10
12.11991875
20
15.113184375000001
30
0
0
VERTEX
8
0
10
11.874865625
20
14.868128125
30
0
0
VERTEX
8
0
10
11.411028125000001
20
14.676
30
0
0
VERTEX
8
0
10
10.90896875
20
14.676
30
0
0
VERTEX
8
0
10
10.445131250000001
20
14.868128125
30
0
0
VERTEX
8
0
10
10.090128125
20
15.223131250000002
30
0
0
VERTEX
8
0
10
9.9604
20
15.53633125
30
0
42
0.668189684777048
0
VERTEX
8
0
10
9.819600000000001
20
15.53633125
30
0
0
VERTEX
8
0
10
9.68986875
20
15.223131250000002
30
0
0
VERTEX
8
0
10
9.334865625
20
14.868128125
30
0
0
VERTEX
8
0
10
8.871028125
20
14.676
30
0
0
VERTEX
8
0
10
8.36896875
20
14.676
30
0
0
VERTEX
8
0
10
7.905134375
20
14.868128125
30
0
42
0.8386514579506932
0
VERTEX
8
0
10
7.749996875000001
20
14.839303125
30
0
0
VERTEX
8
0
10
7.749996875000001
20
10.32614375
30
0
42
0.198912367379658
0
VERTEX
8
0
10
7.772315625
20
10.2722625
30
0
0
VERTEX
8
0
10
7.893534375000001
20
10.151043750000001
30
0
0
VERTEX
8
0
10
8.053996875000001
20
9.763653125000001
30
0
0
VERTEX
8
0
10
8.053996875000001
20
8.23634375
30
0
0
VERTEX
8
0
10
7.893534375000001
20
7.848953125
30
0
0
VERTEX
8
0
10
7.59704375
20
7.552462500000001
30
0
0
VERTEX
8
0
10
7.209653125
20
7.392
30
0
0
VERTEX
8
0
10
6.79034375
20
7.392
30
0
0
VERTEX
8
0
10
6.402953125000001
20
7.552462500000001
30
0
0
VERTEX
8
0
10
6.1064625
20
7.848953125
30
0
0
VERTEX
8
0
10
5.946000000000001
20
8.23634375
30
0
0
VERTEX
8
0
10
5.946000000000001
20
9.763653125000001
30
0
0
VERTEX
8
0
10
6.1064625
20
10.151043750000001
30
0
0
VERTEX
8
0
10
6.227681250000001
20
10.2722625
30
0
42
0.198912367379658
0
VERTEX
8
0
10
6.25
20
10.32614375
30
0
0
VERTEX
8
0
10
6.25
20
16.649184375
30
0
0
VERTEX
8
0
10
6.364181250000001
20
16.924840625
30
0
0
VERTEX
8
0
10
6.57515625
20
17.135815625
30
0
0
VERTEX
8
0
10
6.8508125
20
17.249996875
30
0
0
VERTEX
8
0
10
7.2818000000000005
20
17.249996875
30
0
42
0.41421356237309503
0
VERTEX
8
0
10
7.3580000000000005
20
17.326196875
30
0
0
VERTEX
8
0
10
7.3580000000000005
20
17.713028125
30
0
0
VERTEX
8
0
10
7.55500625
20
18.188640625
30
0
42
0.5345062264334504
0
VERTEX
8
0
10
7.484606250000001
20
18.294
30
0
0
VERTEX
8
0
10
4.092196875
20
18.294
30
0
42
0.41421356237309503
0
VERTEX
8
0
10
4.015996875
20
18.2178
30
0
0
VERTEX
8
0
10
4.015996875
20
3.051009375
30
0
42
0.6681786379192989
0
VERTEX
8
0
10
4.146078125
20
2.997128125
30
0
0
VERTEX
8
0
10
4.3580250000000005
20
3.209078125
30
0
0
VERTEX
8
0
10
5.098990625
20
3.5159968750000004
30
0
0
VERTEX
8
0
10
5.90100625
20
3.5159968750000004
30
0
0
VERTEX
8
0
10
6.641971875
20
3.209078125
30
0
0
VERTEX
8
0
10
7.2090781250000004
20
2.6419718750000003
30
0
0
VERTEX
8
0
10
7.515996875000001
20
1.90100625
30
0
0
VERTEX
8
0
10
7.515996875000001
20
1.09899375
30
0
0
VERTEX
8
0
10
7.31815
20
0.621359375
30
0
42
0.534518404757901
0
VERTEX
8
0
10
7.38855
20
0.515996875
30
0
0
VERTEX
8
0
10
28.611446875000002
20
0.515996875
30
0
0
SEQEND
0
POLYLINE
66
1
8
1_copper
10
0.0
20
0.0
30
0.0
70
1
0
VERTEX
8
0
10
9.890440625
20
17.81698125
30
0
42
0.3017655050456294
0
VERTEX
8
0
10
9.9604
20
17.863665625
30
0
0
VERTEX
8
0
10
10.09500625
20
18.188640625
30
0
42
0.5345062264334504
0
VERTEX
8
0
10
10.02460625
20
18.294
30
0
0
VERTEX
8
0
10
9.755390625
20
18.294
30
0
42
0.5345062264334504
0
VERTEX
8
0
10
9.684990625000001
20
18.188640625
30
0
0
VERTEX
8
0
10
9.819600000000001
20
17.863665625
30
0
0
VERTEX
8
0
10
9.82105625
20
17.861215625
30
0
0
VERTEX
8
0
10
9.821965625
20
17.858503125000002
30
0
0
VERTEX
8
0
10
9.826606250000001
20
17.851871875
30
0
0
VERTEX
8
0
10
9.83071875
20
17.84495
30
0
0
VERTEX
8
0
10
9.83280625
20
17.8430125
30
0
0
VERTEX
8
0
10
9.834446875000001
20
17.840668750000003
30
0
0
VERTEX
8
0
10
9.840765625000001
20
17.835628125
30
0
0
VERTEX
8
0
10
9.846671875
20
17.83014375
30
0
0
VERTEX
8
0
10
9.849225
20
17.828875
30
0
0
VERTEX
8
0
10
9.851459375000001
20
17.827090625
30
0
0
VERTEX
8
0
10
9.858946875
20
17.8240375
30
0
0
VERTEX
8
0
10
9.8661625
20
17.82045
30
0
0
VERTEX
8
0
10
9.86896875
20
17.819953125
30
0
0
VERTEX
8
0
10
9.871615625
20
17.818875000000002
30
0
0
VERTEX
8
0
10
9.879646875
20
17.818068750000002
30
0
0
VERTEX
8
0
10
9.887596875
20
17.8166625
30
0
0
SEQEND
0
POLYLINE
66
1
8
1_copper
10
0.0
20
0.0
30
0.0
70
1
0
VERTEX
8
0
10
25.5204375
20
17.62698125
30
0
42
0.3017655050456294
0
VERTEX
8
0
10
25.590396875
20
17.673665625
30
0
0
VERTEX
8
0
10
25.720128125000002
20
17.986865625
30
0
0
VERTEX
8
0
10
25.897184375000002
20
18.16391875
30
0
42
0.6681786379192989
0
VERTEX
8
0
10
25.843303125000002
20
18.294
30
0
0
VERTEX
8
0
10
25.19669375
20
18.294
30
0
42
0.6681786379192989
0
VERTEX
8
0
10
25.1428125
20
18.16391875
30
0
0
VERTEX
8
0
10
25.31986875
20
17.986865625
30
0
0
VERTEX
8
0
10
25.449596875
20
17.673665625
30
0
0
VERTEX
8
0
10
25.451053125
20
17.671215625000002
30
0
0
VERTEX
8
0
10
25.4519625
20
17.668503125
30
0
0
VERTEX
8
0
10
25.456590625
20
17.661890625
30
0
0
VERTEX
8
0
10
25.4607125
20
17.65495
30
0
0
VERTEX
8
0
10
25.462809375000003
20
17.653003125
30
0
0
VERTEX
8
0
10
25.46444375
20
17.65066875
30
0
0
VERTEX
8
0
10
25.470753125
20
17.645634375
30
0
0
VERTEX
8
0
10
25.47666875
20
17.64014375
30
0
0
VERTEX
8
0
10
25.479221875
20
17.638871875
30
0
0
VERTEX
8
0
10
25.48145625
20
17.637090625000003
30
0
0
VERTEX
8
0
10
25.48893125
20
17.63404375
30
0
0
VERTEX
8
0
10
25.496156250000002
20
17.63045
30
0
0
VERTEX
8
0
10
25.498965625
20
17.629953125
30
0
0
VERTEX
8
0
10
25.5016125
20
17.628875
30
0
0
VERTEX
8
0
10
25.509640625000003
20
17.62806875
30
0
0
VERTEX
8
0
10
25.51759375
20
17.626662500000002
30
0
0
SEQEND
0
POLYLINE
66
1
8
1_copper
10
0.0
20
0.0
30
0.0
70
1
0
VERTEX
8
0
10
17.598990625000003
20
13.984
30
0
0
VERTEX
8
0
10
16.858025
20
14.290918750000001
30
0
0
VERTEX
8
0
10
16.29091875
20
14.858025000000001
30
0
0
VERTEX
8
0
10
15.984
20
15.598990625
30
0
0
VERTEX
8
0
10
15.984
20
16.401006250000002
30
0
0
VERTEX
8
0
10
16.29091875
20
17.141971875
30
0
0
VERTEX
8
0
10
16.858025
20
17.709078125
30
0
0
VERTEX
8
0
10
17.598990625000003
20
18.015996875000003
30
0
0
VERTEX
8
0
10
18.401006250000002
20
18.015996875000003
30
0
0
VERTEX
8
0
10
19.141971875
20
17.709078125
30
0
0
VERTEX
8
0
10
19.709078125
20
17.141971875
30
0
0
VERTEX
8
0
10
20.015996875000003
20
16.401006250000002
30
0
0
VERTEX
8
0
10
20.015996875000003
20
15.598990625
30
0
0
VERTEX
8
0
10
19.709078125
20
14.858025000000001
30
0
0
VERTEX
8
0
10
19.141971875
20
14.290918750000001
30
0
0
VERTEX
8
0
10
18.401006250000002
20
13.984
30
0
0
SEQEND
0
CIRCLE
8
drills_NPTH
10
5.5
20
1.5
30
0
40
1
0
CIRCLE
8
drills_NPTH
10
30.5
20
1.5
30
0
40
1
0
CIRCLE
8
drills_NPTH
10
18
20
16
30
0
40
1
0
CIRCLE
8
drills_PTH
10
11.16
20
16.7
30
0
40
0.508
0
CIRCLE
8
drills_PTH
10
8.620000000000001
20
16.7
30
0
40
0.508
0
CIRCLE
8
drills_PTH
10
24.25
20
16.51
30
0
40
0.508
0
CIRCLE
8
drills_PTH
10
26.790000000000003
20
16.51
30
0
40
0.508
0
CIRCLE
8
drills_PTH
10
7
20
9
30
0
40
0.3
0
CIRCLE
8
drills_PTH
10
13
20
9
30
0
40
0.3
0
ENDSEC
0
EOF