0
SECTION
2
HEADER
9
$ANGDIR
70
1
9
$AUNITS
70
0
9
$PROJECTNAME
1
led_B
9
$TDCREATE
40
2459274.93524173
9
$INSUNITS
70
4
0
ENDSEC
0
SECTION
2
ENTITIES
0
POLYLINE
66
1
8
outline
10
0.0
20
0.0
30
0.0
70
1
0
VERTEX
8
0
10
0
20
0
30
0
0
VERTEX
8
0
10
15
20
0
30
0
0
VERTEX
8
0
10
15
20
20
30
0
0
VERTEX
8
0
10
0
20
20
30
0
0
VERTEX
8
0
10
0
20
0
30
0
0
SEQEND
0
POLYLINE
66
1
8
holes
10
0.0
20
0.0
30
0.0
70
1
0
VERTEX
8
0
10
8.56
20
3.5263375000000003
30
0
0
VERTEX
8
0
10
8.552390625000001
20
3.43935
30
0
0
VERTEX
8
0
10
8.537225000000001
20
3.3533531250000004
30
0
0
VERTEX
8
0
10
8.514625
20
3.2690062500000003
30
0
0
VERTEX
8
0
10
8.484759375000001
20
3.186953125
30
0
0
VERTEX
8
0
10
8.447856250000001
20
3.1078125
30
0
0
VERTEX
8
0
10
8.404193750000001
20
3.0321875
30
0
0
VERTEX
8
0
10
8.354109375
20
2.960659375
30
0
0
VERTEX
8
0
10
8.297981250000001
20
2.8937656250000003
30
0
0
VERTEX
8
0
10
8.236234375
20
2.83201875
30
0
0
VERTEX
8
0
10
8.169340625
20
2.775890625
30
0
0
VERTEX
8
0
10
8.0978125
20
2.72580625
30
0
0
VERTEX
8
0
10
8.022187500000001
20
2.6821437500000003
30
0
0
VERTEX
8
0
10
7.943046875
20
2.645240625
30
0
0
VERTEX
8
0
10
7.8609937500000004
20
2.6153750000000002
30
0
0
VERTEX
8
0
10
7.776646875
20
2.592775
30
0
0
VERTEX
8
0
10
7.690650000000001
20
2.577609375
30
0
0
VERTEX
8
0
10
7.6036625
20
2.5700000000000003
30
0
0
VERTEX
8
0
10
7.516337500000001
20
2.5700000000000003
30
0
0
VERTEX
8
0
10
7.42935
20
2.577609375
30
0
0
VERTEX
8
0
10
7.343353125
20
2.592775
30
0
0
VERTEX
8
0
10
7.2590062500000005
20
2.6153750000000002
30
0
0
VERTEX
8
0
10
7.176953125000001
20
2.645240625
30
0
0
VERTEX
8
0
10
7.097812500000001
20
2.6821437500000003
30
0
0
VERTEX
8
0
10
7.0221875
20
2.72580625
30
0
0
VERTEX
8
0
10
6.950659375000001
20
2.775890625
30
0
0
VERTEX
8
0
10
6.8837656250000006
20
2.83201875
30
0
0
VERTEX
8
0
10
6.822018750000001
20
2.8937656250000003
30
0
0
VERTEX
8
0
10
6.765890625
20
2.960659375
30
0
0
VERTEX
8
0
10
6.71580625
20
3.0321875
30
0
0
VERTEX
8
0
10
6.67214375
20
3.1078125
30
0
0
VERTEX
8
0
10
6.635240625000001
20
3.186953125
30
0
0
VERTEX
8
0
10
6.605375
20
3.2690062500000003
30
0
0
VERTEX
8
0
10
6.582775000000001
20
3.3533531250000004
30
0
0
VERTEX
8
0
10
6.567609375
20
3.43935
30
0
0
VERTEX
8
0
10
6.5600000000000005
20
3.5263375000000003
30
0
0
VERTEX
8
0
10
6.5600000000000005
20
3.6136625
30
0
0
VERTEX
8
0
10
6.567609375
20
3.70065
30
0
0
VERTEX
8
0
10
6.582775000000001
20
3.786646875
30
0
0
VERTEX
8
0
10
6.605375
20
3.8709937500000002
30
0
0
VERTEX
8
0
10
6.635240625000001
20
3.953046875
30
0
0
VERTEX
8
0
10
6.67214375
20
4.0321875
30
0
0
VERTEX
8
0
10
6.71580625
20
4.1078125000000005
30
0
0
VERTEX
8
0
10
6.765890625
20
4.179340625
30
0
0
VERTEX
8
0
10
6.822018750000001
20
4.246234375
30
0
0
VERTEX
8
0
10
6.8837656250000006
20
4.30798125
30
0
0
VERTEX
8
0
10
6.950659375000001
20
4.364109375
30
0
0
VERTEX
8
0
10
7.0221875
20
4.41419375
30
0
0
VERTEX
8
0
10
7.097812500000001
20
4.45785625
30
0
0
VERTEX
8
0
10
7.176953125000001
20
4.494759375
30
0
0
VERTEX
8
0
10
7.2590062500000005
20
4.524625
30
0
0
VERTEX
8
0
10
7.343353125
20
4.547225
30
0
0
VERTEX
8
0
10
7.42935
20
4.562390625
30
0
0
VERTEX
8
0
10
7.516337500000001
20
4.57
30
0
0
VERTEX
8
0
10
7.6036625
20
4.57
30
0
0
VERTEX
8
0
10
7.690650000000001
20
4.562390625
30
0
0
VERTEX
8
0
10
7.776646875
20
4.547225
30
0
0
VERTEX
8
0
10
7.8609937500000004
20
4.524625
30
0
0
VERTEX
8
0
10
7.943046875
20
4.494759375
30
0
0
VERTEX
8
0
10
8.022187500000001
20
4.45785625
30
0
0
VERTEX
8
0
10
8.0978125
20
4.41419375
30
0
0
VERTEX
8
0
10
8.169340625
20
4.364109375
30
0
0
VERTEX
8
0
10
8.236234375
20
4.30798125
30
0
0
VERTEX
8
0
10
8.297981250000001
20
4.246234375
30
0
0
VERTEX
8
0
10
8.354109375
20
4.179340625
30
0
0
VERTEX
8
0
10
8.404193750000001
20
4.1078125000000005
30
0
0
VERTEX
8
0
10
8.447856250000001
20
4.0321875
30
0
0
VERTEX
8
0
10
8.484759375000001
20
3.953046875
30
0
0
VERTEX
8
0
10
8.514625
20
3.8709937500000002
30
0
0
VERTEX
8
0
10
8.537225000000001
20
3.786646875
30
0
0
VERTEX
8
0
10
8.552390625000001
20
3.70065
30
0
0
VERTEX
8
0
10
8.56
20
3.6136625
30
0
0
VERTEX
8
0
10
8.56
20
3.5263375000000003
30
0
0
SEQEND
0
POLYLINE
66
1
8
1_copper
10
0.0
20
0.0
30
0.0
70
1
0
VERTEX
8
0
10
6.28
20
11.23
30
0
0
VERTEX
8
0
10
5.28
20
11.23
30
0
0
VERTEX
8
0
10
5.28
20
10.530000000000001
30
0
0
VERTEX
8
0
10
6.28
20
10.530000000000001
30
0
0
SEQEND
0
POLYLINE
66
1
8
1_copper
10
0.0
20
0.0
30
0.0
70
1
0
VERTEX
8
0
10
9.88
20
11.23
30
0
0
VERTEX
8
0
10
8.88
20
11.23
30
0
0
VERTEX
8
0
10
8.88
20
10.530000000000001
30
0
0
VERTEX
8
0
10
9.88
20
10.530000000000001
30
0
0
SEQEND
0
POLYLINE
66
1
8
1_copper
10
0.0
20
0.0
30
0.0
70
1
0
VERTEX
8
0
10
6.28
20
9.43
30
0
0
VERTEX
8
0
10
5.78355625
20
9.43
30
0
0
VERTEX
8
0
10
5.256778125
20
9.956778125
30
0
42
0.16362418262828266
0
VERTEX
8
0
10
5.11405625
20
10.02766875
30
0
0
VERTEX
8
0
10
5.08
20
10.030000000000001
30
0
0
VERTEX
8
0
10
5.07289375
20
10.030000000000001
30
0
0
VERTEX
8
0
10
4.78
20
10.32289375
30
0
0
VERTEX
8
0
10
4.78
20
14.11644375
30
0
0
VERTEX
8
0
10
5.657159375
20
14.993603125
30
0
42
0.7987204587585028
0
VERTEX
8
0
10
7.122000000000001
20
15.250565625
30
0
0
VERTEX
8
0
10
7.122000000000001
20
16.849434375
30
0
42
0.9520795017710562
0
VERTEX
8
0
10
5.598
20
16.849434375
30
0
0
VERTEX
8
0
10
5.598
20
15.64155625
30
0
0
VERTEX
8
0
10
4.353221875
20
14.396778125
30
0
42
0.198912367379658
0
VERTEX
8
0
10
4.28
20
14.22
30
0
0
VERTEX
8
0
10
4.28
20
10.2193375
30
0
42
0.198912367379658
0
VERTEX
8
0
10
4.353221875
20
10.042559375
30
0
0
VERTEX
8
0
10
4.792559375000001
20
9.603221875000001
30
0
42
0.20630837154715992
0
VERTEX
8
0
10
4.9764437500000005
20
9.530000000000001
30
0
0
VERTEX
8
0
10
5.28
20
9.22644375
30
0
0
VERTEX
8
0
10
5.28
20
8.73
30
0
0
VERTEX
8
0
10
6.28
20
8.73
30
0
0
SEQEND
0
POLYLINE
66
1
8
16_copper
10
0.0
20
0.0
30
0.0
70
1
0
VERTEX
8
0
10
6.47194375
20
14.5333375
30
0
42
0.3578057741447831
0
VERTEX
8
0
10
7.122000000000001
20
15.250565625
30
0
0
VERTEX
8
0
10
7.122000000000001
20
16.849434375
30
0
42
0.9520795017710562
0
VERTEX
8
0
10
5.598
20
16.849434375
30
0
0
VERTEX
8
0
10
5.598
20
15.250565625
30
0
0
VERTEX
8
0
10
5.6053375
20
15.17605625
30
0
0
VERTEX
8
0
10
5.61994375
20
15.102625000000002
30
0
0
VERTEX
8
0
10
5.641678125
20
15.03098125
30
0
0
VERTEX
8
0
10
5.670328125
20
14.961809375000001
30
0
0
VERTEX
8
0
10
5.705621875
20
14.89578125
30
0
0
VERTEX
8
0
10
5.74721875
20
14.83353125
30
0
0
VERTEX
8
0
10
5.794715625
20
14.77565625
30
0
0
VERTEX
8
0
10
5.84765625
20
14.722715625000001
30
0
0
VERTEX
8
0
10
5.90553125
20
14.67521875
30
0
0
VERTEX
8
0
10
5.967781250000001
20
14.633621875000001
30
0
0
VERTEX
8
0
10
6.033809375000001
20
14.598328125
30
0
0
VERTEX
8
0
10
6.10298125
20
14.569678125000001
30
0
0
VERTEX
8
0
10
6.174625000000001
20
14.54794375
30
0
0
VERTEX
8
0
10
6.24805625
20
14.5333375
30
0
0
VERTEX
8
0
10
6.322565625
20
14.526000000000002
30
0
0
VERTEX
8
0
10
6.3974343750000005
20
14.526000000000002
30
0
0
SEQEND
0
POLYLINE
66
1
8
1_copper
10
0.0
20
0.0
30
0.0
70
1
0
VERTEX
8
0
10
9.88
20
9.22644375
30
0
0
VERTEX
8
0
10
10.18355625
20
9.530000000000001
30
0
42
0.0077364542932052095
0
VERTEX
8
0
10
10.192668750000001
20
9.530159375
30
0
0
VERTEX
8
0
10
10.19469375
20
9.53003125
30
0
42
0.19472479112465452
0
VERTEX
8
0
10
10.367440625
20
9.603221875000001
30
0
0
VERTEX
8
0
10
11.096778125
20
10.332559375
30
0
42
0.198912367379658
0
VERTEX
8
0
10
11.17
20
10.5093375
30
0
0
VERTEX
8
0
10
11.17
20
14.030000000000001
30
0
42
0.198912367379658
0
VERTEX
8
0
10
11.096778125
20
14.206778125000001
30
0
0
VERTEX
8
0
10
9.662
20
15.64155625
30
0
0
VERTEX
8
0
10
9.662
20
16.849434375
30
0
42
0.9520795017710562
0
VERTEX
8
0
10
8.138
20
16.849434375
30
0
0
VERTEX
8
0
10
8.138
20
15.250565625
30
0
42
0.7987204587585028
0
VERTEX
8
0
10
9.602840625
20
14.993603125
30
0
0
VERTEX
8
0
10
10.67
20
13.92644375
30
0
0
VERTEX
8
0
10
10.67
20
10.612893750000001
30
0
0
VERTEX
8
0
10
10.08710625
20
10.030000000000001
30
0
42
0.20630837154715992
0
VERTEX
8
0
10
9.903221875
20
9.956778125
30
0
0
VERTEX
8
0
10
9.37644375
20
9.43
30
0
0
VERTEX
8
0
10
8.88
20
9.43
30
0
0
VERTEX
8
0
10
8.88
20
8.73
30
0
0
VERTEX
8
0
10
9.88
20
8.73
30
0
0
SEQEND
0
POLYLINE
66
1
8
16_copper
10
0.0
20
0.0
30
0.0
70
1
0
VERTEX
8
0
10
9.01194375
20
14.5333375
30
0
42
0.3578057741447831
0
VERTEX
8
0
10
9.662
20
15.250565625
30
0
0
VERTEX
8
0
10
9.662
20
16.849434375
30
0
42
0.9520795017710562
0
VERTEX
8
0
10
8.138
20
16.849434375
30
0
0
VERTEX
8
0
10
8.138
20
15.250565625
30
0
0
VERTEX
8
0
10
8.1453375
20
15.17605625
30
0
0
VERTEX
8
0
10
8.15994375
20
15.102625000000002
30
0
0
VERTEX
8
0
10
8.181678125000001
20
15.03098125
30
0
0
VERTEX
8
0
10
8.210328125
20
14.961809375000001
30
0
0
VERTEX
8
0
10
8.245621875000001
20
14.89578125
30
0
0
VERTEX
8
0
10
8.287218750000001
20
14.83353125
30
0
0
VERTEX
8
0
10
8.334715625000001
20
14.77565625
30
0
0
VERTEX
8
0
10
8.387656250000001
20
14.722715625000001
30
0
0
VERTEX
8
0
10
8.44553125
20
14.67521875
30
0
0
VERTEX
8
0
10
8.50778125
20
14.633621875000001
30
0
0
VERTEX
8
0
10
8.573809375
20
14.598328125
30
0
0
VERTEX
8
0
10
8.64298125
20
14.569678125000001
30
0
0
VERTEX
8
0
10
8.714625
20
14.54794375
30
0
0
VERTEX
8
0
10
8.78805625
20
14.5333375
30
0
0
VERTEX
8
0
10
8.862565625
20
14.526000000000002
30
0
0
VERTEX
8
0
10
8.937434375
20
14.526000000000002
30
0
0
SEQEND
0
POLYLINE
66
1
8
1_copper
10
0.0
20
0.0
30
0.0
70
1
0
VERTEX
8
0
10
13.735353125000001
20
1.016103125
30
0
42
0.4126285070906998
0
VERTEX
8
0
10
13.984
20
1.2659968750000001
30
0
0
VERTEX
8
0
10
13.984
20
18.734
30
0
42
0.41421356237309503
0
VERTEX
8
0
10
13.734
20
18.984
30
0
0
VERTEX
8
0
10
1.2659968750000001
20
18.984
30
0
42
0.41421356237309503
0
VERTEX
8
0
10
1.0159968750000001
20
18.734
30
0
0
VERTEX
8
0
10
1.0159968750000001
20
1.2659968750000001
30
0
42
0.41421356237309503
0
VERTEX
8
0
10
1.2659968750000001
20
1.0159968750000001
30
0
0
VERTEX
8
0
10
13.734
20
1.0159968750000001
30
0
0
SEQEND
0
POLYLINE
66
1
8
1_copper
10
0.0
20
0.0
30
0.0
70
1
0
VERTEX
8
0
10
5.180540625
20
8.23
30
0
0
VERTEX
8
0
10
4.996775
20
8.30611875
30
0
0
VERTEX
8
0
10
4.85611875
20
8.446775
30
0
0
VERTEX
8
0
10
4.78
20
8.630540625
30
0
0
VERTEX
8
0
10
4.78
20
8.879587500000001
30
0
42
0.30334964283731575
0
VERTEX
8
0
10
4.62566875
20
9.110559375000001
30
0
0
VERTEX
8
0
10
4.544496875
20
9.14418125
30
0
0
VERTEX
8
0
10
3.8941781250000003
20
9.794500000000001
30
0
0
VERTEX
8
0
10
3.7800000000000002
20
10.070146875
30
0
0
VERTEX
8
0
10
3.7800000000000002
20
14.3691875
30
0
0
VERTEX
8
0
10
3.8941781250000003
20
14.644834375
30
0
0
VERTEX
8
0
10
5.024778125
20
15.775434375000001
30
0
42
0.198912367379658
0
VERTEX
8
0
10
5.098
20
15.9522125
30
0
0
VERTEX
8
0
10
5.098
20
17.06303125
30
0
0
VERTEX
8
0
10
5.290125000000001
20
17.526859375
30
0
0
VERTEX
8
0
10
5.645137500000001
20
17.881871875
30
0
0
VERTEX
8
0
10
6.108965625000001
20
18.073996875000002
30
0
0
VERTEX
8
0
10
6.61103125
20
18.073996875000002
30
0
0
VERTEX
8
0
10
7.074859375
20
17.881871875
30
0
0
VERTEX
8
0
10
7.4532218750000006
20
17.503509375
30
0
42
0.41421615121217414
0
VERTEX
8
0
10
7.806778125
20
17.5035125
30
0
0
VERTEX
8
0
10
8.185134375
20
17.881871875
30
0
0
VERTEX
8
0
10
8.648965625
20
18.073996875000002
30
0
0
VERTEX
8
0
10
9.15103125
20
18.073996875000002
30
0
0
VERTEX
8
0
10
9.614859375
20
17.881871875
30
0
0
VERTEX
8
0
10
9.969871875
20
17.526859375
30
0
0
VERTEX
8
0
10
10.161996875
20
17.06303125
30
0
0
VERTEX
8
0
10
10.161996875
20
15.9522125
30
0
42
0.198912367379658
0
VERTEX
8
0
10
10.235218750000001
20
15.775434375000001
30
0
0
VERTEX
8
0
10
11.55581875
20
14.454834375
30
0
0
VERTEX
8
0
10
11.669996875
20
14.179187500000001
30
0
0
VERTEX
8
0
10
11.669996875
20
10.360146875
30
0
0
VERTEX
8
0
10
11.55581875
20
10.0845
30
0
0
VERTEX
8
0
10
10.6155
20
9.14418125
30
0
42
0.39827157427704624
0
VERTEX
8
0
10
10.379996875
20
8.879587500000001
30
0
0
VERTEX
8
0
10
10.379996875
20
8.630540625
30
0
0
VERTEX
8
0
10
10.303878125
20
8.446775
30
0
0
VERTEX
8
0
10
10.163221875
20
8.30611875
30
0
0
VERTEX
8
0
10
9.97945625
20
8.23
30
0
0
VERTEX
8
0
10
8.780540625
20
8.23
30
0
0
VERTEX
8
0
10
8.596775000000001
20
8.30611875
30
0
0
VERTEX
8
0
10
8.45611875
20
8.446775
30
0
0
VERTEX
8
0
10
8.38
20
8.630540625
30
0
0
VERTEX
8
0
10
8.38
20
9.52945625
30
0
0
VERTEX
8
0
10
8.45611875
20
9.713221875
30
0
0
VERTEX
8
0
10
8.54611875
20
9.803221875
30
0
42
0.41421615121217414
0
VERTEX
8
0
10
8.546115625
20
10.156778125
30
0
0
VERTEX
8
0
10
8.45611875
20
10.246771875
30
0
0
VERTEX
8
0
10
8.38
20
10.430540625
30
0
0
VERTEX
8
0
10
8.38
20
11.32945625
30
0
0
VERTEX
8
0
10
8.45611875
20
11.513221875000001
30
0
0
VERTEX
8
0
10
8.596775000000001
20
11.653878125
30
0
0
VERTEX
8
0
10
8.780540625
20
11.729996875000001
30
0
0
VERTEX
8
0
10
9.92
20
11.729996875000001
30
0
42
0.41421356237309503
0
VERTEX
8
0
10
10.17
20
11.979996875000001
30
0
0
VERTEX
8
0
10
10.17
20
13.615784375
30
0
42
0.1989100702406298
0
VERTEX
8
0
10
10.096778125
20
13.792559375000002
30
0
0
VERTEX
8
0
10
9.772828125
20
14.1165125
30
0
42
0.3033505961464722
0
VERTEX
8
0
10
9.500378125000001
20
14.17070625
30
0
0
VERTEX
8
0
10
9.151028125
20
14.026
30
0
0
VERTEX
8
0
10
8.648965625
20
14.026
30
0
0
VERTEX
8
0
10
8.185134375
20
14.218125
30
0
0
VERTEX
8
0
10
7.806778125
20
14.596484375000001
30
0
42
0.41421615121217414
0
VERTEX
8
0
10
7.4532218750000006
20
14.5964875
30
0
0
VERTEX
8
0
10
7.074859375
20
14.218125
30
0
0
VERTEX
8
0
10
6.61103125
20
14.026
30
0
0
VERTEX
8
0
10
6.108968750000001
20
14.026
30
0
0
VERTEX
8
0
10
5.7596187500000005
20
14.17070625
30
0
42
0.3033505961464722
0
VERTEX
8
0
10
5.48716875
20
14.1165125
30
0
0
VERTEX
8
0
10
5.35321875
20
13.982559375000001
30
0
42
0.1989100702406298
0
VERTEX
8
0
10
5.279996875
20
13.805784375
30
0
0
VERTEX
8
0
10
5.279996875
20
11.979996875000001
30
0
42
0.41421356237309503
0
VERTEX
8
0
10
5.529996875
20
11.729996875000001
30
0
0
VERTEX
8
0
10
6.3794562500000005
20
11.729996875000001
30
0
0
VERTEX
8
0
10
6.563221875
20
11.653878125
30
0
0
VERTEX
8
0
10
6.703878125
20
11.513221875000001
30
0
0
VERTEX
8
0
10
6.779996875
20
11.32945625
30
0
0
VERTEX
8
0
10
6.779996875
20
10.430540625
30
0
0
VERTEX
8
0
10
6.703878125
20
10.246775000000001
30
0
0
VERTEX
8
0
10
6.613878125
20
10.156775
30
0
42
0.41421615121217414
0
VERTEX
8
0
10
6.61388125
20
9.803218750000001
30
0
0
VERTEX
8
0
10
6.703878125
20
9.713225000000001
30
0
0
VERTEX
8
0
10
6.779996875
20
9.52945625
30
0
0
VERTEX
8
0
10
6.779996875
20
8.630540625
30
0
0
VERTEX
8
0
10
6.703878125
20
8.446775
30
0
0
VERTEX
8
0
10
6.563221875
20
8.30611875
30
0
0
VERTEX
8
0
10
6.3794562500000005
20
8.23
30
0
0
SEQEND
0
POLYLINE
66
1
8
1_copper
10
0.0
20
0.0
30
0.0
70
1
0
VERTEX
8
0
10
7.1589875
20
1.554
30
0
0
VERTEX
8
0
10
6.41803125
20
1.860915625
30
0
0
VERTEX
8
0
10
5.850915625
20
2.42803125
30
0
0
VERTEX
8
0
10
5.5440000000000005
20
3.1689875
30
0
0
VERTEX
8
0
10
5.5440000000000005
20
3.9710093750000004
30
0
0
VERTEX
8
0
10
5.850915625
20
4.711965625
30
0
0
VERTEX
8
0
10
6.41803125
20
5.27908125
30
0
0
VERTEX
8
0
10
7.1589875
20
5.585996875
30
0
0
VERTEX
8
0
10
7.961009375000001
20
5.585996875
30
0
0
VERTEX
8
0
10
8.701965625
20
5.27908125
30
0
0
VERTEX
8
0
10
9.269081250000001
20
4.711965625
30
0
0
VERTEX
8
0
10
9.575996875000001
20
3.9710093750000004
30
0
0
VERTEX
8
0
10
9.575996875000001
20
3.1689875
30
0
0
VERTEX
8
0
10
9.269081250000001
20
2.42803125
30
0
0
VERTEX
8
0
10
8.701965625
20
1.860915625
30
0
0
VERTEX
8
0
10
7.961009375000001
20
1.554
30
0
0
SEQEND
0
CIRCLE
8
drills_NPTH
10
7.5600000000000005
20
3.5700000000000003
30
0
40
1
0
CIRCLE
8
drills_PTH
10
8.9
20
16.05
30
0
40
0.508
0
CIRCLE
8
drills_PTH
10
6.36
20
16.05
30
0
40
0.508
0
ENDSEC
0
EOF