0
SECTION
2
HEADER
9
$ANGDIR
70
1
9
$AUNITS
70
0
9
$PROJECTNAME
1
TCB-1_b
9
$TDCREATE
40
2459274.93472310
9
$INSUNITS
70
4
0
ENDSEC
0
SECTION
2
ENTITIES
0
POLYLINE
66
1
8
outline
10
0.0
20
0.0
30
0.0
70
1
0
VERTEX
8
0
10
0
20
0
30
0
0
VERTEX
8
0
10
21.26
20
0
30
0
0
VERTEX
8
0
10
21.26
20
24.12
30
0
0
VERTEX
8
0
10
0
20
24.12
30
0
0
VERTEX
8
0
10
0
20
0
30
0
0
SEQEND
0
POLYLINE
66
1
8
holes
10
0.0
20
0.0
30
0.0
70
1
0
VERTEX
8
0
10
3.032
20
22.054337500000003
30
0
0
VERTEX
8
0
10
3.024390625
20
21.96735
30
0
0
VERTEX
8
0
10
3.0092250000000003
20
21.881353125
30
0
0
VERTEX
8
0
10
2.986625
20
21.797006250000003
30
0
0
VERTEX
8
0
10
2.9567593750000003
20
21.714953125
30
0
0
VERTEX
8
0
10
2.91985625
20
21.6358125
30
0
0
VERTEX
8
0
10
2.87619375
20
21.5601875
30
0
0
VERTEX
8
0
10
2.826109375
20
21.488659375
30
0
0
VERTEX
8
0
10
2.7699812500000003
20
21.421765625000003
30
0
0
VERTEX
8
0
10
2.708234375
20
21.360018750000002
30
0
0
VERTEX
8
0
10
2.641340625
20
21.303890625
30
0
0
VERTEX
8
0
10
2.5698125000000003
20
21.25380625
30
0
0
VERTEX
8
0
10
2.4941875000000002
20
21.21014375
30
0
0
VERTEX
8
0
10
2.4150468750000003
20
21.173240625000002
30
0
0
VERTEX
8
0
10
2.33299375
20
21.143375000000002
30
0
0
VERTEX
8
0
10
2.248646875
20
21.120775000000002
30
0
0
VERTEX
8
0
10
2.16265
20
21.105609375
30
0
0
VERTEX
8
0
10
2.0756625
20
21.098000000000003
30
0
0
VERTEX
8
0
10
1.9883375
20
21.098000000000003
30
0
0
VERTEX
8
0
10
1.90135
20
21.105609375
30
0
0
VERTEX
8
0
10
1.8153531250000001
20
21.120775000000002
30
0
0
VERTEX
8
0
10
1.73100625
20
21.143375000000002
30
0
0
VERTEX
8
0
10
1.648953125
20
21.173240625000002
30
0
0
VERTEX
8
0
10
1.5698125
20
21.21014375
30
0
0
VERTEX
8
0
10
1.4941875
20
21.25380625
30
0
0
VERTEX
8
0
10
1.422659375
20
21.303890625
30
0
0
VERTEX
8
0
10
1.355765625
20
21.360018750000002
30
0
0
VERTEX
8
0
10
1.29401875
20
21.421765625000003
30
0
0
VERTEX
8
0
10
1.2378906250000001
20
21.488659375
30
0
0
VERTEX
8
0
10
1.18780625
20
21.5601875
30
0
0
VERTEX
8
0
10
1.14414375
20
21.6358125
30
0
0
VERTEX
8
0
10
1.107240625
20
21.714953125
30
0
0
VERTEX
8
0
10
1.077375
20
21.797006250000003
30
0
0
VERTEX
8
0
10
1.054775
20
21.881353125
30
0
0
VERTEX
8
0
10
1.039609375
20
21.96735
30
0
0
VERTEX
8
0
10
1.032
20
22.054337500000003
30
0
0
VERTEX
8
0
10
1.032
20
22.141662500000002
30
0
0
VERTEX
8
0
10
1.039609375
20
22.228650000000002
30
0
0
VERTEX
8
0
10
1.054775
20
22.314646875
30
0
0
VERTEX
8
0
10
1.077375
20
22.398993750000002
30
0
0
VERTEX
8
0
10
1.107240625
20
22.481046875
30
0
0
VERTEX
8
0
10
1.14414375
20
22.5601875
30
0
0
VERTEX
8
0
10
1.18780625
20
22.6358125
30
0
0
VERTEX
8
0
10
1.2378906250000001
20
22.707340625
30
0
0
VERTEX
8
0
10
1.29401875
20
22.774234375000002
30
0
0
VERTEX
8
0
10
1.355765625
20
22.83598125
30
0
0
VERTEX
8
0
10
1.422659375
20
22.892109375
30
0
0
VERTEX
8
0
10
1.4941875
20
22.94219375
30
0
0
VERTEX
8
0
10
1.5698125
20
22.98585625
30
0
0
VERTEX
8
0
10
1.648953125
20
23.022759375
30
0
0
VERTEX
8
0
10
1.73100625
20
23.052625000000003
30
0
0
VERTEX
8
0
10
1.8153531250000001
20
23.075225
30
0
0
VERTEX
8
0
10
1.90135
20
23.090390625
30
0
0
VERTEX
8
0
10
1.9883375
20
23.098000000000003
30
0
0
VERTEX
8
0
10
2.0756625
20
23.098000000000003
30
0
0
VERTEX
8
0
10
2.16265
20
23.090390625
30
0
0
VERTEX
8
0
10
2.248646875
20
23.075225
30
0
0
VERTEX
8
0
10
2.33299375
20
23.052625000000003
30
0
0
VERTEX
8
0
10
2.4150468750000003
20
23.022759375
30
0
0
VERTEX
8
0
10
2.4941875000000002
20
22.98585625
30
0
0
VERTEX
8
0
10
2.5698125000000003
20
22.94219375
30
0
0
VERTEX
8
0
10
2.641340625
20
22.892109375
30
0
0
VERTEX
8
0
10
2.708234375
20
22.83598125
30
0
0
VERTEX
8
0
10
2.7699812500000003
20
22.774234375000002
30
0
0
VERTEX
8
0
10
2.826109375
20
22.707340625
30
0
0
VERTEX
8
0
10
2.87619375
20
22.6358125
30
0
0
VERTEX
8
0
10
2.91985625
20
22.5601875
30
0
0
VERTEX
8
0
10
2.9567593750000003
20
22.481046875
30
0
0
VERTEX
8
0
10
2.986625
20
22.398993750000002
30
0
0
VERTEX
8
0
10
3.0092250000000003
20
22.314646875
30
0
0
VERTEX
8
0
10
3.024390625
20
22.228650000000002
30
0
0
VERTEX
8
0
10
3.032
20
22.141662500000002
30
0
0
VERTEX
8
0
10
3.032
20
22.054337500000003
30
0
0
SEQEND
0
POLYLINE
66
1
8
holes
10
0.0
20
0.0
30
0.0
70
1
0
VERTEX
8
0
10
20.05
20
22.054337500000003
30
0
0
VERTEX
8
0
10
20.042390625
20
21.96735
30
0
0
VERTEX
8
0
10
20.027225
20
21.881353125
30
0
0
VERTEX
8
0
10
20.004625
20
21.797006250000003
30
0
0
VERTEX
8
0
10
19.974759375
20
21.714953125
30
0
0
VERTEX
8
0
10
19.93785625
20
21.6358125
30
0
0
VERTEX
8
0
10
19.89419375
20
21.5601875
30
0
0
VERTEX
8
0
10
19.844109375000002
20
21.488659375
30
0
0
VERTEX
8
0
10
19.78798125
20
21.421765625000003
30
0
0
VERTEX
8
0
10
19.726234375
20
21.360018750000002
30
0
0
VERTEX
8
0
10
19.659340625000002
20
21.303890625
30
0
0
VERTEX
8
0
10
19.587812500000002
20
21.25380625
30
0
0
VERTEX
8
0
10
19.5121875
20
21.21014375
30
0
0
VERTEX
8
0
10
19.433046875000002
20
21.173240625000002
30
0
0
VERTEX
8
0
10
19.35099375
20
21.143375000000002
30
0
0
VERTEX
8
0
10
19.266646875
20
21.120775000000002
30
0
0
VERTEX
8
0
10
19.18065
20
21.105609375
30
0
0
VERTEX
8
0
10
19.0936625
20
21.098000000000003
30
0
0
VERTEX
8
0
10
19.0063375
20
21.098000000000003
30
0
0
VERTEX
8
0
10
18.91935
20
21.105609375
30
0
0
VERTEX
8
0
10
18.833353125000002
20
21.120775000000002
30
0
0
VERTEX
8
0
10
18.74900625
20
21.143375000000002
30
0
0
VERTEX
8
0
10
18.666953125
20
21.173240625000002
30
0
0
VERTEX
8
0
10
18.587812500000002
20
21.21014375
30
0
0
VERTEX
8
0
10
18.5121875
20
21.25380625
30
0
0
VERTEX
8
0
10
18.440659375
20
21.303890625
30
0
0
VERTEX
8
0
10
18.373765625
20
21.360018750000002
30
0
0
VERTEX
8
0
10
18.31201875
20
21.421765625000003
30
0
0
VERTEX
8
0
10
18.255890625
20
21.488659375
30
0
0
VERTEX
8
0
10
18.205806250000002
20
21.5601875
30
0
0
VERTEX
8
0
10
18.162143750000002
20
21.6358125
30
0
0
VERTEX
8
0
10
18.125240625
20
21.714953125
30
0
0
VERTEX
8
0
10
18.095375
20
21.797006250000003
30
0
0
VERTEX
8
0
10
18.072775
20
21.881353125
30
0
0
VERTEX
8
0
10
18.057609375000002
20
21.96735
30
0
0
VERTEX
8
0
10
18.05
20
22.054337500000003
30
0
0
VERTEX
8
0
10
18.05
20
22.141662500000002
30
0
0
VERTEX
8
0
10
18.057609375000002
20
22.228650000000002
30
0
0
VERTEX
8
0
10
18.072775
20
22.314646875
30
0
0
VERTEX
8
0
10
18.095375
20
22.398993750000002
30
0
0
VERTEX
8
0
10
18.125240625
20
22.481046875
30
0
0
VERTEX
8
0
10
18.162143750000002
20
22.5601875
30
0
0
VERTEX
8
0
10
18.205806250000002
20
22.6358125
30
0
0
VERTEX
8
0
10
18.255890625
20
22.707340625
30
0
0
VERTEX
8
0
10
18.31201875
20
22.774234375000002
30
0
0
VERTEX
8
0
10
18.373765625
20
22.83598125
30
0
0
VERTEX
8
0
10
18.440659375
20
22.892109375
30
0
0
VERTEX
8
0
10
18.5121875
20
22.94219375
30
0
0
VERTEX
8
0
10
18.587812500000002
20
22.98585625
30
0
0
VERTEX
8
0
10
18.666953125
20
23.022759375
30
0
0
VERTEX
8
0
10
18.74900625
20
23.052625000000003
30
0
0
VERTEX
8
0
10
18.833353125000002
20
23.075225
30
0
0
VERTEX
8
0
10
18.91935
20
23.090390625
30
0
0
VERTEX
8
0
10
19.0063375
20
23.098000000000003
30
0
0
VERTEX
8
0
10
19.0936625
20
23.098000000000003
30
0
0
VERTEX
8
0
10
19.18065
20
23.090390625
30
0
0
VERTEX
8
0
10
19.266646875
20
23.075225
30
0
0
VERTEX
8
0
10
19.35099375
20
23.052625000000003
30
0
0
VERTEX
8
0
10
19.433046875000002
20
23.022759375
30
0
0
VERTEX
8
0
10
19.5121875
20
22.98585625
30
0
0
VERTEX
8
0
10
19.587812500000002
20
22.94219375
30
0
0
VERTEX
8
0
10
19.659340625000002
20
22.892109375
30
0
0
VERTEX
8
0
10
19.726234375
20
22.83598125
30
0
0
VERTEX
8
0
10
19.78798125
20
22.774234375000002
30
0
0
VERTEX
8
0
10
19.844109375000002
20
22.707340625
30
0
0
VERTEX
8
0
10
19.89419375
20
22.6358125
30
0
0
VERTEX
8
0
10
19.93785625
20
22.5601875
30
0
0
VERTEX
8
0
10
19.974759375
20
22.481046875
30
0
0
VERTEX
8
0
10
20.004625
20
22.398993750000002
30
0
0
VERTEX
8
0
10
20.027225
20
22.314646875
30
0
0
VERTEX
8
0
10
20.042390625
20
22.228650000000002
30
0
0
VERTEX
8
0
10
20.05
20
22.141662500000002
30
0
0
VERTEX
8
0
10
20.05
20
22.054337500000003
30
0
0
SEQEND
0
POLYLINE
66
1
8
holes
10
0.0
20
0.0
30
0.0
70
1
0
VERTEX
8
0
10
20.05
20
1.9883375
30
0
0
VERTEX
8
0
10
20.042390625
20
1.90135
30
0
0
VERTEX
8
0
10
20.027225
20
1.8153531250000001
30
0
0
VERTEX
8
0
10
20.004625
20
1.73100625
30
0
0
VERTEX
8
0
10
19.974759375
20
1.648953125
30
0
0
VERTEX
8
0
10
19.93785625
20
1.5698125
30
0
0
VERTEX
8
0
10
19.89419375
20
1.4941875
30
0
0
VERTEX
8
0
10
19.844109375000002
20
1.422659375
30
0
0
VERTEX
8
0
10
19.78798125
20
1.355765625
30
0
0
VERTEX
8
0
10
19.726234375
20
1.29401875
30
0
0
VERTEX
8
0
10
19.659340625000002
20
1.2378906250000001
30
0
0
VERTEX
8
0
10
19.587812500000002
20
1.18780625
30
0
0
VERTEX
8
0
10
19.5121875
20
1.14414375
30
0
0
VERTEX
8
0
10
19.433046875000002
20
1.107240625
30
0
0
VERTEX
8
0
10
19.35099375
20
1.077375
30
0
0
VERTEX
8
0
10
19.266646875
20
1.054775
30
0
0
VERTEX
8
0
10
19.18065
20
1.039609375
30
0
0
VERTEX
8
0
10
19.0936625
20
1.032
30
0
0
VERTEX
8
0
10
19.0063375
20
1.032
30
0
0
VERTEX
8
0
10
18.91935
20
1.039609375
30
0
0
VERTEX
8
0
10
18.833353125000002
20
1.054775
30
0
0
VERTEX
8
0
10
18.74900625
20
1.077375
30
0
0
VERTEX
8
0
10
18.666953125
20
1.107240625
30
0
0
VERTEX
8
0
10
18.587812500000002
20
1.14414375
30
0
0
VERTEX
8
0
10
18.5121875
20
1.18780625
30
0
0
VERTEX
8
0
10
18.440659375
20
1.2378906250000001
30
0
0
VERTEX
8
0
10
18.373765625
20
1.29401875
30
0
0
VERTEX
8
0
10
18.31201875
20
1.355765625
30
0
0
VERTEX
8
0
10
18.255890625
20
1.422659375
30
0
0
VERTEX
8
0
10
18.205806250000002
20
1.4941875
30
0
0
VERTEX
8
0
10
18.162143750000002
20
1.5698125
30
0
0
VERTEX
8
0
10
18.125240625
20
1.648953125
30
0
0
VERTEX
8
0
10
18.095375
20
1.73100625
30
0
0
VERTEX
8
0
10
18.072775
20
1.8153531250000001
30
0
0
VERTEX
8
0
10
18.057609375000002
20
1.90135
30
0
0
VERTEX
8
0
10
18.05
20
1.9883375
30
0
0
VERTEX
8
0
10
18.05
20
2.0756625
30
0
0
VERTEX
8
0
10
18.057609375000002
20
2.16265
30
0
0
VERTEX
8
0
10
18.072775
20
2.248646875
30
0
0
VERTEX
8
0
10
18.095375
20
2.33299375
30
0
0
VERTEX
8
0
10
18.125240625
20
2.4150468750000003
30
0
0
VERTEX
8
0
10
18.162143750000002
20
2.4941875000000002
30
0
0
VERTEX
8
0
10
18.205806250000002
20
2.5698125000000003
30
0
0
VERTEX
8
0
10
18.255890625
20
2.641340625
30
0
0
VERTEX
8
0
10
18.31201875
20
2.708234375
30
0
0
VERTEX
8
0
10
18.373765625
20
2.7699812500000003
30
0
0
VERTEX
8
0
10
18.440659375
20
2.826109375
30
0
0
VERTEX
8
0
10
18.5121875
20
2.87619375
30
0
0
VERTEX
8
0
10
18.587812500000002
20
2.91985625
30
0
0
VERTEX
8
0
10
18.666953125
20
2.9567593750000003
30
0
0
VERTEX
8
0
10
18.74900625
20
2.986625
30
0
0
VERTEX
8
0
10
18.833353125000002
20
3.0092250000000003
30
0
0
VERTEX
8
0
10
18.91935
20
3.024390625
30
0
0
VERTEX
8
0
10
19.0063375
20
3.032
30
0
0
VERTEX
8
0
10
19.0936625
20
3.032
30
0
0
VERTEX
8
0
10
19.18065
20
3.024390625
30
0
0
VERTEX
8
0
10
19.266646875
20
3.0092250000000003
30
0
0
VERTEX
8
0
10
19.35099375
20
2.986625
30
0
0
VERTEX
8
0
10
19.433046875000002
20
2.9567593750000003
30
0
0
VERTEX
8
0
10
19.5121875
20
2.91985625
30
0
0
VERTEX
8
0
10
19.587812500000002
20
2.87619375
30
0
0
VERTEX
8
0
10
19.659340625000002
20
2.826109375
30
0
0
VERTEX
8
0
10
19.726234375
20
2.7699812500000003
30
0
0
VERTEX
8
0
10
19.78798125
20
2.708234375
30
0
0
VERTEX
8
0
10
19.844109375000002
20
2.641340625
30
0
0
VERTEX
8
0
10
19.89419375
20
2.5698125000000003
30
0
0
VERTEX
8
0
10
19.93785625
20
2.4941875000000002
30
0
0
VERTEX
8
0
10
19.974759375
20
2.4150468750000003
30
0
0
VERTEX
8
0
10
20.004625
20
2.33299375
30
0
0
VERTEX
8
0
10
20.027225
20
2.248646875
30
0
0
VERTEX
8
0
10
20.042390625
20
2.16265
30
0
0
VERTEX
8
0
10
20.05
20
2.0756625
30
0
0
VERTEX
8
0
10
20.05
20
1.9883375
30
0
0
SEQEND
0
POLYLINE
66
1
8
holes
10
0.0
20
0.0
30
0.0
70
1
0
VERTEX
8
0
10
3.032
20
1.9883375
30
0
0
VERTEX
8
0
10
3.024390625
20
1.90135
30
0
0
VERTEX
8
0
10
3.0092250000000003
20
1.8153531250000001
30
0
0
VERTEX
8
0
10
2.986625
20
1.73100625
30
0
0
VERTEX
8
0
10
2.9567593750000003
20
1.648953125
30
0
0
VERTEX
8
0
10
2.91985625
20
1.5698125
30
0
0
VERTEX
8
0
10
2.87619375
20
1.4941875
30
0
0
VERTEX
8
0
10
2.826109375
20
1.422659375
30
0
0
VERTEX
8
0
10
2.7699812500000003
20
1.355765625
30
0
0
VERTEX
8
0
10
2.708234375
20
1.29401875
30
0
0
VERTEX
8
0
10
2.641340625
20
1.2378906250000001
30
0
0
VERTEX
8
0
10
2.5698125000000003
20
1.18780625
30
0
0
VERTEX
8
0
10
2.4941875000000002
20
1.14414375
30
0
0
VERTEX
8
0
10
2.4150468750000003
20
1.107240625
30
0
0
VERTEX
8
0
10
2.33299375
20
1.077375
30
0
0
VERTEX
8
0
10
2.248646875
20
1.054775
30
0
0
VERTEX
8
0
10
2.16265
20
1.039609375
30
0
0
VERTEX
8
0
10
2.0756625
20
1.032
30
0
0
VERTEX
8
0
10
1.9883375
20
1.032
30
0
0
VERTEX
8
0
10
1.90135
20
1.039609375
30
0
0
VERTEX
8
0
10
1.8153531250000001
20
1.054775
30
0
0
VERTEX
8
0
10
1.73100625
20
1.077375
30
0
0
VERTEX
8
0
10
1.648953125
20
1.107240625
30
0
0
VERTEX
8
0
10
1.5698125
20
1.14414375
30
0
0
VERTEX
8
0
10
1.4941875
20
1.18780625
30
0
0
VERTEX
8
0
10
1.422659375
20
1.2378906250000001
30
0
0
VERTEX
8
0
10
1.355765625
20
1.29401875
30
0
0
VERTEX
8
0
10
1.29401875
20
1.355765625
30
0
0
VERTEX
8
0
10
1.2378906250000001
20
1.422659375
30
0
0
VERTEX
8
0
10
1.18780625
20
1.4941875
30
0
0
VERTEX
8
0
10
1.14414375
20
1.5698125
30
0
0
VERTEX
8
0
10
1.107240625
20
1.648953125
30
0
0
VERTEX
8
0
10
1.077375
20
1.73100625
30
0
0
VERTEX
8
0
10
1.054775
20
1.8153531250000001
30
0
0
VERTEX
8
0
10
1.039609375
20
1.90135
30
0
0
VERTEX
8
0
10
1.032
20
1.9883375
30
0
0
VERTEX
8
0
10
1.032
20
2.0756625
30
0
0
VERTEX
8
0
10
1.039609375
20
2.16265
30
0
0
VERTEX
8
0
10
1.054775
20
2.248646875
30
0
0
VERTEX
8
0
10
1.077375
20
2.33299375
30
0
0
VERTEX
8
0
10
1.107240625
20
2.4150468750000003
30
0
0
VERTEX
8
0
10
1.14414375
20
2.4941875000000002
30
0
0
VERTEX
8
0
10
1.18780625
20
2.5698125000000003
30
0
0
VERTEX
8
0
10
1.2378906250000001
20
2.641340625
30
0
0
VERTEX
8
0
10
1.29401875
20
2.708234375
30
0
0
VERTEX
8
0
10
1.355765625
20
2.7699812500000003
30
0
0
VERTEX
8
0
10
1.422659375
20
2.826109375
30
0
0
VERTEX
8
0
10
1.4941875
20
2.87619375
30
0
0
VERTEX
8
0
10
1.5698125
20
2.91985625
30
0
0
VERTEX
8
0
10
1.648953125
20
2.9567593750000003
30
0
0
VERTEX
8
0
10
1.73100625
20
2.986625
30
0
0
VERTEX
8
0
10
1.8153531250000001
20
3.0092250000000003
30
0
0
VERTEX
8
0
10
1.90135
20
3.024390625
30
0
0
VERTEX
8
0
10
1.9883375
20
3.032
30
0
0
VERTEX
8
0
10
2.0756625
20
3.032
30
0
0
VERTEX
8
0
10
2.16265
20
3.024390625
30
0
0
VERTEX
8
0
10
2.248646875
20
3.0092250000000003
30
0
0
VERTEX
8
0
10
2.33299375
20
2.986625
30
0
0
VERTEX
8
0
10
2.4150468750000003
20
2.9567593750000003
30
0
0
VERTEX
8
0
10
2.4941875000000002
20
2.91985625
30
0
0
VERTEX
8
0
10
2.5698125000000003
20
2.87619375
30
0
0
VERTEX
8
0
10
2.641340625
20
2.826109375
30
0
0
VERTEX
8
0
10
2.708234375
20
2.7699812500000003
30
0
0
VERTEX
8
0
10
2.7699812500000003
20
2.708234375
30
0
0
VERTEX
8
0
10
2.826109375
20
2.641340625
30
0
0
VERTEX
8
0
10
2.87619375
20
2.5698125000000003
30
0
0
VERTEX
8
0
10
2.91985625
20
2.4941875000000002
30
0
0
VERTEX
8
0
10
2.9567593750000003
20
2.4150468750000003
30
0
0
VERTEX
8
0
10
2.986625
20
2.33299375
30
0
0
VERTEX
8
0
10
3.0092250000000003
20
2.248646875
30
0
0
VERTEX
8
0
10
3.024390625
20
2.16265
30
0
0
VERTEX
8
0
10
3.032
20
2.0756625
30
0
0
VERTEX
8
0
10
3.032
20
1.9883375
30
0
0
SEQEND
0
POLYLINE
66
1
8
1_copper
10
0.0
20
0.0
30
0.0
70
1
0
VERTEX
8
0
10
13.210028125000001
20
16.925559375000002
30
0
42
0.3655614467190337
0
VERTEX
8
0
10
13.418000000000001
20
17.172
30
0
0
VERTEX
8
0
10
13.418000000000001
20
19.852
30
0
42
0.198912367379658
0
VERTEX
8
0
10
13.344778125000001
20
20.028778125000002
30
0
0
VERTEX
8
0
10
12.700000000000001
20
20.67355625
30
0
0
VERTEX
8
0
10
12.700000000000001
20
21.881434375
30
0
42
0.9520795017710562
0
VERTEX
8
0
10
11.176
20
21.881434375
30
0
0
VERTEX
8
0
10
11.176
20
20.282565625
30
0
42
0.7987204587585028
0
VERTEX
8
0
10
12.640840625000001
20
20.025603125
30
0
0
VERTEX
8
0
10
12.918000000000001
20
19.74844375
30
0
0
VERTEX
8
0
10
12.918000000000001
20
17.172
30
0
0
VERTEX
8
0
10
12.92111875
20
17.132625
30
0
0
VERTEX
8
0
10
12.930403125
20
17.094234375
30
0
0
VERTEX
8
0
10
12.945615625
20
17.057784375
30
0
0
VERTEX
8
0
10
12.966381250000001
20
17.024184375
30
0
0
VERTEX
8
0
10
12.992175000000001
20
16.994275000000002
30
0
0
VERTEX
8
0
10
13.0223625
20
16.968803125
30
0
0
VERTEX
8
0
10
13.05618125
20
16.9484
30
0
0
VERTEX
8
0
10
13.09279375
20
16.93358125
30
0
0
VERTEX
8
0
10
13.131284375
20
16.924712500000002
30
0
0
VERTEX
8
0
10
13.170687500000001
20
16.922015625
30
0
0
SEQEND
0
POLYLINE
66
1
8
16_copper
10
0.0
20
0.0
30
0.0
70
1
0
VERTEX
8
0
10
12.04994375
20
19.565337500000002
30
0
42
0.3578057741447831
0
VERTEX
8
0
10
12.700000000000001
20
20.282565625
30
0
0
VERTEX
8
0
10
12.700000000000001
20
21.881434375
30
0
42
0.9520795017710562
0
VERTEX
8
0
10
11.176
20
21.881434375
30
0
0
VERTEX
8
0
10
11.176
20
20.282565625
30
0
0
VERTEX
8
0
10
11.1833375
20
20.208056250000002
30
0
0
VERTEX
8
0
10
11.19794375
20
20.134625
30
0
0
VERTEX
8
0
10
11.219678125
20
20.06298125
30
0
0
VERTEX
8
0
10
11.248328125
20
19.993809375
30
0
0
VERTEX
8
0
10
11.283621875
20
19.927781250000002
30
0
0
VERTEX
8
0
10
11.325218750000001
20
19.86553125
30
0
0
VERTEX
8
0
10
11.372715625
20
19.80765625
30
0
0
VERTEX
8
0
10
11.425656250000001
20
19.754715625
30
0
0
VERTEX
8
0
10
11.48353125
20
19.707218750000003
30
0
0
VERTEX
8
0
10
11.545781250000001
20
19.665621875
30
0
0
VERTEX
8
0
10
11.611809375
20
19.630328125000002
30
0
0
VERTEX
8
0
10
11.68098125
20
19.601678125
30
0
0
VERTEX
8
0
10
11.752625
20
19.57994375
30
0
0
VERTEX
8
0
10
11.82605625
20
19.565337500000002
30
0
0
VERTEX
8
0
10
11.900565625
20
19.558
30
0
0
VERTEX
8
0
10
11.975434375
20
19.558
30
0
0
SEQEND
0
POLYLINE
66
1
8
1_copper
10
0.0
20
0.0
30
0.0
70
1
0
VERTEX
8
0
10
8.210028125000001
20
16.925559375000002
30
0
42
0.3655614467190337
0
VERTEX
8
0
10
8.418000000000001
20
17.172
30
0
0
VERTEX
8
0
10
8.418000000000001
20
19.74844375
30
0
0
VERTEX
8
0
10
8.695159375000001
20
20.025603125
30
0
42
0.7987204587585028
0
VERTEX
8
0
10
10.16
20
20.282565625
30
0
0
VERTEX
8
0
10
10.16
20
21.881434375
30
0
42
0.9520795017710562
0
VERTEX
8
0
10
8.636000000000001
20
21.881434375
30
0
0
VERTEX
8
0
10
8.636000000000001
20
20.67355625
30
0
0
VERTEX
8
0
10
7.991221875000001
20
20.028778125000002
30
0
42
0.198912367379658
0
VERTEX
8
0
10
7.918
20
19.852
30
0
0
VERTEX
8
0
10
7.918
20
17.172
30
0
0
VERTEX
8
0
10
7.921118750000001
20
17.132625
30
0
0
VERTEX
8
0
10
7.930403125000001
20
17.094234375
30
0
0
VERTEX
8
0
10
7.945615625
20
17.057784375
30
0
0
VERTEX
8
0
10
7.96638125
20
17.024184375
30
0
0
VERTEX
8
0
10
7.9921750000000005
20
16.994275000000002
30
0
0
VERTEX
8
0
10
8.0223625
20
16.968803125
30
0
0
VERTEX
8
0
10
8.05618125
20
16.9484
30
0
0
VERTEX
8
0
10
8.09279375
20
16.93358125
30
0
0
VERTEX
8
0
10
8.131284375
20
16.924712500000002
30
0
0
VERTEX
8
0
10
8.1706875
20
16.922015625
30
0
0
SEQEND
0
POLYLINE
66
1
8
16_copper
10
0.0
20
0.0
30
0.0
70
1
0
VERTEX
8
0
10
9.50994375
20
19.565337500000002
30
0
42
0.3578057741447831
0
VERTEX
8
0
10
10.16
20
20.282565625
30
0
0
VERTEX
8
0
10
10.16
20
21.881434375
30
0
42
0.9520795017710562
0
VERTEX
8
0
10
8.636000000000001
20
21.881434375
30
0
0
VERTEX
8
0
10
8.636000000000001
20
20.282565625
30
0
0
VERTEX
8
0
10
8.643337500000001
20
20.208056250000002
30
0
0
VERTEX
8
0
10
8.657943750000001
20
20.134625
30
0
0
VERTEX
8
0
10
8.679678125
20
20.06298125
30
0
0
VERTEX
8
0
10
8.708328125
20
19.993809375
30
0
0
VERTEX
8
0
10
8.743621875
20
19.927781250000002
30
0
0
VERTEX
8
0
10
8.78521875
20
19.86553125
30
0
0
VERTEX
8
0
10
8.832715625
20
19.80765625
30
0
0
VERTEX
8
0
10
8.88565625
20
19.754715625
30
0
0
VERTEX
8
0
10
8.943531250000001
20
19.707218750000003
30
0
0
VERTEX
8
0
10
9.00578125
20
19.665621875
30
0
0
VERTEX
8
0
10
9.071809375
20
19.630328125000002
30
0
0
VERTEX
8
0
10
9.140981250000001
20
19.601678125
30
0
0
VERTEX
8
0
10
9.212625000000001
20
19.57994375
30
0
0
VERTEX
8
0
10
9.28605625
20
19.565337500000002
30
0
0
VERTEX
8
0
10
9.360565625000001
20
19.558
30
0
0
VERTEX
8
0
10
9.435434375
20
19.558
30
0
0
SEQEND
0
POLYLINE
66
1
8
1_copper
10
0.0
20
0.0
30
0.0
70
1
0
VERTEX
8
0
10
17.184278125000002
20
1.017378125
30
0
42
0.4942521212929948
0
VERTEX
8
0
10
17.2451
20
1.12135625
30
0
0
VERTEX
8
0
10
17.034000000000002
20
1.6309906250000001
30
0
0
VERTEX
8
0
10
17.034000000000002
20
2.43300625
30
0
0
VERTEX
8
0
10
17.34091875
20
3.1739718750000003
30
0
0
VERTEX
8
0
10
17.908025000000002
20
3.741078125
30
0
0
VERTEX
8
0
10
18.648990625
20
4.047996875
30
0
0
VERTEX
8
0
10
19.451006250000002
20
4.047996875
30
0
0
VERTEX
8
0
10
20.138640625
20
3.763165625
30
0
42
0.5345062264334504
0
VERTEX
8
0
10
20.244
20
3.8335656250000003
30
0
0
VERTEX
8
0
10
20.244
20
20.29643125
30
0
42
0.5345062264334504
0
VERTEX
8
0
10
20.138640625
20
20.36683125
30
0
0
VERTEX
8
0
10
19.451006250000002
20
20.082
30
0
0
VERTEX
8
0
10
18.648990625
20
20.082
30
0
0
VERTEX
8
0
10
17.908025000000002
20
20.388918750000002
30
0
0
VERTEX
8
0
10
17.34091875
20
20.956025
30
0
0
VERTEX
8
0
10
17.034000000000002
20
21.696990625
30
0
0
VERTEX
8
0
10
17.034000000000002
20
22.49900625
30
0
0
VERTEX
8
0
10
17.240959375
20
22.998640625
30
0
42
0.5345062264334504
0
VERTEX
8
0
10
17.170559375
20
23.104000000000003
30
0
0
VERTEX
8
0
10
12.576925000000001
20
23.104000000000003
30
0
42
0.8206851812565762
0
VERTEX
8
0
10
12.547765625
20
22.9574
30
0
0
VERTEX
8
0
10
12.652865625
20
22.913868750000002
30
0
0
VERTEX
8
0
10
13.00786875
20
22.558865625000003
30
0
0
VERTEX
8
0
10
13.199996875
20
22.095028125000002
30
0
0
VERTEX
8
0
10
13.199996875
20
20.912221875
30
0
42
0.198912367379658
0
VERTEX
8
0
10
13.222315625
20
20.858340625
30
0
0
VERTEX
8
0
10
13.803815625
20
20.276840625000002
30
0
0
VERTEX
8
0
10
13.917996875
20
20.001184375
30
0
0
VERTEX
8
0
10
13.917996875
20
18.4276
30
0
42
0.25745111589362574
0
VERTEX
8
0
10
13.959815625000001
20
18.360078125
30
0
0
VERTEX
8
0
10
14.354859375
20
17.965034375000002
30
0
0
VERTEX
8
0
10
14.567996875
20
17.450478125
30
0
0
VERTEX
8
0
10
14.567996875
20
16.893518750000002
30
0
0
VERTEX
8
0
10
14.354859375
20
16.3789625
30
0
0
VERTEX
8
0
10
13.961034375
20
15.9851375
30
0
0
VERTEX
8
0
10
13.446478125
20
15.772
30
0
0
VERTEX
8
0
10
12.88951875
20
15.772
30
0
0
VERTEX
8
0
10
12.3749625
20
15.9851375
30
0
0
VERTEX
8
0
10
11.9811375
20
16.3789625
30
0
0
VERTEX
8
0
10
11.768
20
16.893518750000002
30
0
0
VERTEX
8
0
10
11.768
20
17.450478125
30
0
0
VERTEX
8
0
10
11.9811375
20
17.965034375000002
30
0
0
VERTEX
8
0
10
12.375871875000001
20
18.35976875
30
0
42
0.2835816865405177
0
VERTEX
8
0
10
12.418000000000001
20
18.4276
30
0
0
VERTEX
8
0
10
12.418000000000001
20
19.038803125
30
0
42
0.5345062264334504
0
VERTEX
8
0
10
12.312640625
20
19.109203125
30
0
0
VERTEX
8
0
10
12.189028125
20
19.058
30
0
0
VERTEX
8
0
10
11.68696875
20
19.058
30
0
0
VERTEX
8
0
10
11.22313125
20
19.250128125
30
0
0
VERTEX
8
0
10
10.868128125
20
19.60513125
30
0
0
VERTEX
8
0
10
10.738396875000001
20
19.91833125
30
0
42
0.668189684777048
0
VERTEX
8
0
10
10.597596875
20
19.91833125
30
0
0
VERTEX
8
0
10
10.467868750000001
20
19.60513125
30
0
0
VERTEX
8
0
10
10.112865625000001
20
19.250128125
30
0
0
VERTEX
8
0
10
9.649028125000001
20
19.058
30
0
0
VERTEX
8
0
10
9.146968750000001
20
19.058
30
0
0
VERTEX
8
0
10
9.02335625
20
19.109203125
30
0
42
0.5345062264334504
0
VERTEX
8
0
10
8.917996875
20
19.038803125
30
0
0
VERTEX
8
0
10
8.917996875
20
18.4276
30
0
42
0.25745111589362574
0
VERTEX
8
0
10
8.959815625000001
20
18.360078125
30
0
0
VERTEX
8
0
10
9.354859375
20
17.965034375000002
30
0
0
VERTEX
8
0
10
9.567996875
20
17.450478125
30
0
0
VERTEX
8
0
10
9.567996875
20
16.893518750000002
30
0
0
VERTEX
8
0
10
9.354859375
20
16.3789625
30
0
0
VERTEX
8
0
10
8.961034375
20
15.9851375
30
0
0
VERTEX
8
0
10
8.446478125
20
15.772
30
0
0
VERTEX
8
0
10
7.889518750000001
20
15.772
30
0
0
VERTEX
8
0
10
7.3749625000000005
20
15.9851375
30
0
0
VERTEX
8
0
10
6.9811375
20
16.3789625
30
0
0
VERTEX
8
0
10
6.768000000000001
20
16.893518750000002
30
0
0
VERTEX
8
0
10
6.768000000000001
20
17.450478125
30
0
0
VERTEX
8
0
10
6.9811375
20
17.965034375000002
30
0
0
VERTEX
8
0
10
7.3758718750000005
20
18.35976875
30
0
42
0.2835816865405177
0
VERTEX
8
0
10
7.418
20
18.4276
30
0
0
VERTEX
8
0
10
7.418
20
20.001184375
30
0
0
VERTEX
8
0
10
7.532181250000001
20
20.276840625000002
30
0
0
VERTEX
8
0
10
8.11368125
20
20.858340625
30
0
42
0.198912367379658
0
VERTEX
8
0
10
8.136000000000001
20
20.912221875
30
0
0
VERTEX
8
0
10
8.136000000000001
20
22.095028125000002
30
0
0
VERTEX
8
0
10
8.328128125000001
20
22.558865625000003
30
0
0
VERTEX
8
0
10
8.68313125
20
22.913868750000002
30
0
0
VERTEX
8
0
10
8.78823125
20
22.9574
30
0
42
0.8206851812565762
0
VERTEX
8
0
10
8.759071875
20
23.104000000000003
30
0
0
VERTEX
8
0
10
3.9114375000000003
20
23.104000000000003
30
0
42
0.5345062264334504
0
VERTEX
8
0
10
3.8410375
20
22.998640625
30
0
0
VERTEX
8
0
10
4.047996875
20
22.49900625
30
0
0
VERTEX
8
0
10
4.047996875
20
21.696990625
30
0
0
VERTEX
8
0
10
3.741078125
20
20.956025
30
0
0
VERTEX
8
0
10
3.1739718750000003
20
20.388918750000002
30
0
0
VERTEX
8
0
10
2.43300625
20
20.082
30
0
0
VERTEX
8
0
10
1.6309906250000001
20
20.082
30
0
0
VERTEX
8
0
10
1.12135625
20
20.293100000000003
30
0
42
0.5345062264334504
0
VERTEX
8
0
10
1.0159968750000001
20
20.2227
30
0
0
VERTEX
8
0
10
1.0159968750000001
20
3.907296875
30
0
42
0.5345062264334504
0
VERTEX
8
0
10
1.12135625
20
3.8368968750000003
30
0
0
VERTEX
8
0
10
1.6309906250000001
20
4.047996875
30
0
0
VERTEX
8
0
10
2.43300625
20
4.047996875
30
0
0
VERTEX
8
0
10
3.1739718750000003
20
3.741078125
30
0
0
VERTEX
8
0
10
3.741078125
20
3.1739718750000003
30
0
0
VERTEX
8
0
10
4.047996875
20
2.43300625
30
0
0
VERTEX
8
0
10
4.047996875
20
1.6309906250000001
30
0
0
VERTEX
8
0
10
3.8368968750000003
20
1.12135625
30
0
42
0.5345062264334504
0
VERTEX
8
0
10
3.907296875
20
1.0159968750000001
30
0
0
VERTEX
8
0
10
17.1747
20
1.0159968750000001
30
0
0
SEQEND
0
POLYLINE
66
1
8
1_copper
10
0.0
20
0.0
30
0.0
70
1
0
VERTEX
8
0
10
10.668437500000001
20
22.198981250000003
30
0
42
0.3017655050456294
0
VERTEX
8
0
10
10.738396875000001
20
22.245665625
30
0
0
VERTEX
8
0
10
10.868128125
20
22.558865625000003
30
0
0
VERTEX
8
0
10
11.22313125
20
22.913868750000002
30
0
0
VERTEX
8
0
10
11.32823125
20
22.9574
30
0
42
0.8206851812565762
0
VERTEX
8
0
10
11.299071875000001
20
23.104000000000003
30
0
0
VERTEX
8
0
10
10.036925
20
23.104000000000003
30
0
42
0.8206851812565762
0
VERTEX
8
0
10
10.007765625000001
20
22.9574
30
0
0
VERTEX
8
0
10
10.112865625000001
20
22.913868750000002
30
0
0
VERTEX
8
0
10
10.467868750000001
20
22.558865625000003
30
0
0
VERTEX
8
0
10
10.597596875
20
22.245665625
30
0
0
VERTEX
8
0
10
10.598221875
20
22.244612500000002
30
0
0
VERTEX
8
0
10
10.598515625000001
20
22.243637500000002
30
0
0
VERTEX
8
0
10
10.599328125000001
20
22.242396875
30
0
0
VERTEX
8
0
10
10.5999625
20
22.240503125
30
0
0
VERTEX
8
0
10
10.604590625
20
22.233890625
30
0
0
VERTEX
8
0
10
10.608712500000001
20
22.226950000000002
30
0
0
VERTEX
8
0
10
10.610809375
20
22.225003125
30
0
0
VERTEX
8
0
10
10.61244375
20
22.22266875
30
0
0
VERTEX
8
0
10
10.618753125000001
20
22.217634375
30
0
0
VERTEX
8
0
10
10.62466875
20
22.212143750000003
30
0
0
VERTEX
8
0
10
10.627221875
20
22.210871875000002
30
0
0
VERTEX
8
0
10
10.62945625
20
22.209090625
30
0
0
VERTEX
8
0
10
10.63693125
20
22.206043750000003
30
0
0
VERTEX
8
0
10
10.64415625
20
22.202450000000002
30
0
0
VERTEX
8
0
10
10.646965625
20
22.201953125
30
0
0
VERTEX
8
0
10
10.6496125
20
22.200875
30
0
0
VERTEX
8
0
10
10.657640625
20
22.20006875
30
0
0
VERTEX
8
0
10
10.665593750000001
20
22.1986625
30
0
0
SEQEND
0
POLYLINE
66
1
8
1_copper
10
0.0
20
0.0
30
0.0
70
1
0
VERTEX
8
0
10
12.88951875
20
3.2720000000000002
30
0
0
VERTEX
8
0
10
12.3749625
20
3.4851375
30
0
0
VERTEX
8
0
10
11.9811375
20
3.8789625
30
0
0
VERTEX
8
0
10
11.768
20
4.39351875
30
0
0
VERTEX
8
0
10
11.768
20
4.950478125
30
0
0
VERTEX
8
0
10
11.9811375
20
5.465034375
30
0
0
VERTEX
8
0
10
12.3749625
20
5.858859375000001
30
0
0
VERTEX
8
0
10
12.88951875
20
6.071996875
30
0
0
VERTEX
8
0
10
13.446478125
20
6.071996875
30
0
0
VERTEX
8
0
10
13.961034375
20
5.858859375000001
30
0
0
VERTEX
8
0
10
14.354859375
20
5.465034375
30
0
0
VERTEX
8
0
10
14.567996875
20
4.950478125
30
0
0
VERTEX
8
0
10
14.567996875
20
4.39351875
30
0
0
VERTEX
8
0
10
14.354859375
20
3.8789625
30
0
0
VERTEX
8
0
10
13.961034375
20
3.4851375
30
0
0
VERTEX
8
0
10
13.446478125
20
3.2720000000000002
30
0
0
SEQEND
0
POLYLINE
66
1
8
1_copper
10
0.0
20
0.0
30
0.0
70
1
0
VERTEX
8
0
10
7.889518750000001
20
3.2720000000000002
30
0
0
VERTEX
8
0
10
7.3749625000000005
20
3.4851375
30
0
0
VERTEX
8
0
10
6.9811375
20
3.8789625
30
0
0
VERTEX
8
0
10
6.768000000000001
20
4.39351875
30
0
0
VERTEX
8
0
10
6.768000000000001
20
4.950478125
30
0
0
VERTEX
8
0
10
6.9811375
20
5.465034375
30
0
0
VERTEX
8
0
10
7.3749625000000005
20
5.858859375000001
30
0
0
VERTEX
8
0
10
7.889518750000001
20
6.071996875
30
0
0
VERTEX
8
0
10
8.446478125
20
6.071996875
30
0
0
VERTEX
8
0
10
8.961034375
20
5.858859375000001
30
0
0
VERTEX
8
0
10
9.354859375
20
5.465034375
30
0
0
VERTEX
8
0
10
9.567996875
20
4.950478125
30
0
0
VERTEX
8
0
10
9.567996875
20
4.39351875
30
0
0
VERTEX
8
0
10
9.354859375
20
3.8789625
30
0
0
VERTEX
8
0
10
8.961034375
20
3.4851375
30
0
0
VERTEX
8
0
10
8.446478125
20
3.2720000000000002
30
0
0
SEQEND
0
CIRCLE
8
drills_NPTH
10
2.032
20
22.098000000000003
30
0
40
1
0
CIRCLE
8
drills_NPTH
10
19.05
20
22.098000000000003
30
0
40
1
0
CIRCLE
8
drills_NPTH
10
19.05
20
2.032
30
0
40
1
0
CIRCLE
8
drills_NPTH
10
2.032
20
2.032
30
0
40
1
0
CIRCLE
8
drills_PTH
10
13.168000000000001
20
17.172
30
0
40
0.6
0
CIRCLE
8
drills_PTH
10
13.168000000000001
20
4.672000000000001
30
0
40
0.6
0
CIRCLE
8
drills_PTH
10
8.168000000000001
20
4.672000000000001
30
0
40
0.6
0
CIRCLE
8
drills_PTH
10
8.168000000000001
20
17.172
30
0
40
0.6
0
CIRCLE
8
drills_PTH
10
9.398
20
21.082
30
0
40
0.508
0
CIRCLE
8
drills_PTH
10
11.938
20
21.082
30
0
40
0.508
0
ENDSEC
0
EOF