0
SECTION
2
HEADER
9
$ANGDIR
70
1
9
$AUNITS
70
0
9
$PROJECTNAME
1
tcb_main
9
$TDCREATE
40
2459274.93429031
9
$INSUNITS
70
4
0
ENDSEC
0
SECTION
2
ENTITIES
0
POLYLINE
66
1
8
outline
10
0.0
20
0.0
30
0.0
70
1
0
VERTEX
8
0
10
0
20
0
30
0
0
VERTEX
8
0
10
47.5
20
0
30
0
0
VERTEX
8
0
10
47.5
20
60
30
0
0
VERTEX
8
0
10
0
20
60
30
0
0
VERTEX
8
0
10
0
20
0
30
0
0
SEQEND
0
POLYLINE
66
1
8
holes
10
0.0
20
0.0
30
0.0
70
1
0
VERTEX
8
0
10
4
20
2.9563375
30
0
0
VERTEX
8
0
10
3.992390625
20
2.8693500000000003
30
0
0
VERTEX
8
0
10
3.9772250000000002
20
2.783353125
30
0
0
VERTEX
8
0
10
3.954625
20
2.69900625
30
0
0
VERTEX
8
0
10
3.9247593750000003
20
2.616953125
30
0
0
VERTEX
8
0
10
3.88785625
20
2.5378125000000002
30
0
0
VERTEX
8
0
10
3.84419375
20
2.4621875
30
0
0
VERTEX
8
0
10
3.794109375
20
2.3906593750000003
30
0
0
VERTEX
8
0
10
3.7379812500000003
20
2.323765625
30
0
0
VERTEX
8
0
10
3.6762343750000004
20
2.26201875
30
0
0
VERTEX
8
0
10
3.609340625
20
2.2058906250000003
30
0
0
VERTEX
8
0
10
3.5378125000000002
20
2.15580625
30
0
0
VERTEX
8
0
10
3.4621875
20
2.11214375
30
0
0
VERTEX
8
0
10
3.3830468750000002
20
2.075240625
30
0
0
VERTEX
8
0
10
3.30099375
20
2.045375
30
0
0
VERTEX
8
0
10
3.2166468750000003
20
2.022775
30
0
0
VERTEX
8
0
10
3.13065
20
2.007609375
30
0
0
VERTEX
8
0
10
3.0436625
20
2
30
0
0
VERTEX
8
0
10
2.9563375
20
2
30
0
0
VERTEX
8
0
10
2.8693500000000003
20
2.007609375
30
0
0
VERTEX
8
0
10
2.783353125
20
2.022775
30
0
0
VERTEX
8
0
10
2.69900625
20
2.045375
30
0
0
VERTEX
8
0
10
2.616953125
20
2.075240625
30
0
0
VERTEX
8
0
10
2.5378125000000002
20
2.11214375
30
0
0
VERTEX
8
0
10
2.4621875
20
2.15580625
30
0
0
VERTEX
8
0
10
2.3906593750000003
20
2.2058906250000003
30
0
0
VERTEX
8
0
10
2.323765625
20
2.26201875
30
0
0
VERTEX
8
0
10
2.26201875
20
2.323765625
30
0
0
VERTEX
8
0
10
2.2058906250000003
20
2.3906593750000003
30
0
0
VERTEX
8
0
10
2.15580625
20
2.4621875
30
0
0
VERTEX
8
0
10
2.11214375
20
2.5378125000000002
30
0
0
VERTEX
8
0
10
2.075240625
20
2.616953125
30
0
0
VERTEX
8
0
10
2.045375
20
2.69900625
30
0
0
VERTEX
8
0
10
2.022775
20
2.783353125
30
0
0
VERTEX
8
0
10
2.007609375
20
2.8693500000000003
30
0
0
VERTEX
8
0
10
2
20
2.9563375
30
0
0
VERTEX
8
0
10
2
20
3.0436625
30
0
0
VERTEX
8
0
10
2.007609375
20
3.13065
30
0
0
VERTEX
8
0
10
2.022775
20
3.2166468750000003
30
0
0
VERTEX
8
0
10
2.045375
20
3.30099375
30
0
0
VERTEX
8
0
10
2.075240625
20
3.3830468750000002
30
0
0
VERTEX
8
0
10
2.11214375
20
3.4621875
30
0
0
VERTEX
8
0
10
2.15580625
20
3.5378125000000002
30
0
0
VERTEX
8
0
10
2.2058906250000003
20
3.609340625
30
0
0
VERTEX
8
0
10
2.26201875
20
3.6762343750000004
30
0
0
VERTEX
8
0
10
2.323765625
20
3.7379812500000003
30
0
0
VERTEX
8
0
10
2.3906593750000003
20
3.794109375
30
0
0
VERTEX
8
0
10
2.4621875
20
3.84419375
30
0
0
VERTEX
8
0
10
2.5378125000000002
20
3.88785625
30
0
0
VERTEX
8
0
10
2.616953125
20
3.9247593750000003
30
0
0
VERTEX
8
0
10
2.69900625
20
3.954625
30
0
0
VERTEX
8
0
10
2.783353125
20
3.9772250000000002
30
0
0
VERTEX
8
0
10
2.8693500000000003
20
3.992390625
30
0
0
VERTEX
8
0
10
2.9563375
20
4
30
0
0
VERTEX
8
0
10
3.0436625
20
4
30
0
0
VERTEX
8
0
10
3.13065
20
3.992390625
30
0
0
VERTEX
8
0
10
3.2166468750000003
20
3.9772250000000002
30
0
0
VERTEX
8
0
10
3.30099375
20
3.954625
30
0
0
VERTEX
8
0
10
3.3830468750000002
20
3.9247593750000003
30
0
0
VERTEX
8
0
10
3.4621875
20
3.88785625
30
0
0
VERTEX
8
0
10
3.5378125000000002
20
3.84419375
30
0
0
VERTEX
8
0
10
3.609340625
20
3.794109375
30
0
0
VERTEX
8
0
10
3.6762343750000004
20
3.7379812500000003
30
0
0
VERTEX
8
0
10
3.7379812500000003
20
3.6762343750000004
30
0
0
VERTEX
8
0
10
3.794109375
20
3.609340625
30
0
0
VERTEX
8
0
10
3.84419375
20
3.5378125000000002
30
0
0
VERTEX
8
0
10
3.88785625
20
3.4621875
30
0
0
VERTEX
8
0
10
3.9247593750000003
20
3.3830468750000002
30
0
0
VERTEX
8
0
10
3.954625
20
3.30099375
30
0
0
VERTEX
8
0
10
3.9772250000000002
20
3.2166468750000003
30
0
0
VERTEX
8
0
10
3.992390625
20
3.13065
30
0
0
VERTEX
8
0
10
4
20
3.0436625
30
0
0
VERTEX
8
0
10
4
20
2.9563375
30
0
0
SEQEND
0
POLYLINE
66
1
8
holes
10
0.0
20
0.0
30
0.0
70
1
0
VERTEX
8
0
10
45.5
20
2.9563375
30
0
0
VERTEX
8
0
10
45.492390625
20
2.8693500000000003
30
0
0
VERTEX
8
0
10
45.477225000000004
20
2.783353125
30
0
0
VERTEX
8
0
10
45.454625
20
2.69900625
30
0
0
VERTEX
8
0
10
45.424759375
20
2.616953125
30
0
0
VERTEX
8
0
10
45.38785625
20
2.5378125000000002
30
0
0
VERTEX
8
0
10
45.34419375
20
2.4621875
30
0
0
VERTEX
8
0
10
45.294109375000005
20
2.3906593750000003
30
0
0
VERTEX
8
0
10
45.237981250000004
20
2.323765625
30
0
0
VERTEX
8
0
10
45.176234375
20
2.26201875
30
0
0
VERTEX
8
0
10
45.109340625
20
2.2058906250000003
30
0
0
VERTEX
8
0
10
45.0378125
20
2.15580625
30
0
0
VERTEX
8
0
10
44.9621875
20
2.11214375
30
0
0
VERTEX
8
0
10
44.883046875000005
20
2.075240625
30
0
0
VERTEX
8
0
10
44.80099375
20
2.045375
30
0
0
VERTEX
8
0
10
44.716646875
20
2.022775
30
0
0
VERTEX
8
0
10
44.63065
20
2.007609375
30
0
0
VERTEX
8
0
10
44.5436625
20
2
30
0
0
VERTEX
8
0
10
44.456337500000004
20
2
30
0
0
VERTEX
8
0
10
44.369350000000004
20
2.007609375
30
0
0
VERTEX
8
0
10
44.283353125000005
20
2.022775
30
0
0
VERTEX
8
0
10
44.199006250000004
20
2.045375
30
0
0
VERTEX
8
0
10
44.116953125
20
2.075240625
30
0
0
VERTEX
8
0
10
44.0378125
20
2.11214375
30
0
0
VERTEX
8
0
10
43.9621875
20
2.15580625
30
0
0
VERTEX
8
0
10
43.890659375000006
20
2.2058906250000003
30
0
0
VERTEX
8
0
10
43.823765625
20
2.26201875
30
0
0
VERTEX
8
0
10
43.76201875
20
2.323765625
30
0
0
VERTEX
8
0
10
43.705890625
20
2.3906593750000003
30
0
0
VERTEX
8
0
10
43.655806250000005
20
2.4621875
30
0
0
VERTEX
8
0
10
43.61214375
20
2.5378125000000002
30
0
0
VERTEX
8
0
10
43.575240625
20
2.616953125
30
0
0
VERTEX
8
0
10
43.545375
20
2.69900625
30
0
0
VERTEX
8
0
10
43.522775
20
2.783353125
30
0
0
VERTEX
8
0
10
43.507609375
20
2.8693500000000003
30
0
0
VERTEX
8
0
10
43.5
20
2.9563375
30
0
0
VERTEX
8
0
10
43.5
20
3.0436625
30
0
0
VERTEX
8
0
10
43.507609375
20
3.13065
30
0
0
VERTEX
8
0
10
43.522775
20
3.2166468750000003
30
0
0
VERTEX
8
0
10
43.545375
20
3.30099375
30
0
0
VERTEX
8
0
10
43.575240625
20
3.3830468750000002
30
0
0
VERTEX
8
0
10
43.61214375
20
3.4621875
30
0
0
VERTEX
8
0
10
43.655806250000005
20
3.5378125000000002
30
0
0
VERTEX
8
0
10
43.705890625
20
3.609340625
30
0
0
VERTEX
8
0
10
43.76201875
20
3.6762343750000004
30
0
0
VERTEX
8
0
10
43.823765625
20
3.7379812500000003
30
0
0
VERTEX
8
0
10
43.890659375000006
20
3.794109375
30
0
0
VERTEX
8
0
10
43.9621875
20
3.84419375
30
0
0
VERTEX
8
0
10
44.0378125
20
3.88785625
30
0
0
VERTEX
8
0
10
44.116953125
20
3.9247593750000003
30
0
0
VERTEX
8
0
10
44.199006250000004
20
3.954625
30
0
0
VERTEX
8
0
10
44.283353125000005
20
3.9772250000000002
30
0
0
VERTEX
8
0
10
44.369350000000004
20
3.992390625
30
0
0
VERTEX
8
0
10
44.456337500000004
20
4
30
0
0
VERTEX
8
0
10
44.5436625
20
4
30
0
0
VERTEX
8
0
10
44.63065
20
3.992390625
30
0
0
VERTEX
8
0
10
44.716646875
20
3.9772250000000002
30
0
0
VERTEX
8
0
10
44.80099375
20
3.954625
30
0
0
VERTEX
8
0
10
44.883046875000005
20
3.9247593750000003
30
0
0
VERTEX
8
0
10
44.9621875
20
3.88785625
30
0
0
VERTEX
8
0
10
45.0378125
20
3.84419375
30
0
0
VERTEX
8
0
10
45.109340625
20
3.794109375
30
0
0
VERTEX
8
0
10
45.176234375
20
3.7379812500000003
30
0
0
VERTEX
8
0
10
45.237981250000004
20
3.6762343750000004
30
0
0
VERTEX
8
0
10
45.294109375000005
20
3.609340625
30
0
0
VERTEX
8
0
10
45.34419375
20
3.5378125000000002
30
0
0
VERTEX
8
0
10
45.38785625
20
3.4621875
30
0
0
VERTEX
8
0
10
45.424759375
20
3.3830468750000002
30
0
0
VERTEX
8
0
10
45.454625
20
3.30099375
30
0
0
VERTEX
8
0
10
45.477225000000004
20
3.2166468750000003
30
0
0
VERTEX
8
0
10
45.492390625
20
3.13065
30
0
0
VERTEX
8
0
10
45.5
20
3.0436625
30
0
0
VERTEX
8
0
10
45.5
20
2.9563375
30
0
0
SEQEND
0
POLYLINE
66
1
8
holes
10
0.0
20
0.0
30
0.0
70
1
0
VERTEX
8
0
10
45.5
20
56.956337500000004
30
0
0
VERTEX
8
0
10
45.492390625
20
56.869350000000004
30
0
0
VERTEX
8
0
10
45.477225000000004
20
56.783353125000005
30
0
0
VERTEX
8
0
10
45.454625
20
56.699006250000004
30
0
0
VERTEX
8
0
10
45.424759375
20
56.616953125
30
0
0
VERTEX
8
0
10
45.38785625
20
56.5378125
30
0
0
VERTEX
8
0
10
45.34419375
20
56.462187500000006
30
0
0
VERTEX
8
0
10
45.294109375000005
20
56.390659375000006
30
0
0
VERTEX
8
0
10
45.237981250000004
20
56.323765625
30
0
0
VERTEX
8
0
10
45.176234375
20
56.26201875
30
0
0
VERTEX
8
0
10
45.109340625
20
56.205890625
30
0
0
VERTEX
8
0
10
45.0378125
20
56.155806250000005
30
0
0
VERTEX
8
0
10
44.9621875
20
56.11214375
30
0
0
VERTEX
8
0
10
44.883046875000005
20
56.075240625
30
0
0
VERTEX
8
0
10
44.80099375
20
56.045375
30
0
0
VERTEX
8
0
10
44.716646875
20
56.022775
30
0
0
VERTEX
8
0
10
44.63065
20
56.007609375
30
0
0
VERTEX
8
0
10
44.5436625
20
56
30
0
0
VERTEX
8
0
10
44.456337500000004
20
56
30
0
0
VERTEX
8
0
10
44.369350000000004
20
56.007609375
30
0
0
VERTEX
8
0
10
44.283353125000005
20
56.022775
30
0
0
VERTEX
8
0
10
44.199006250000004
20
56.045375
30
0
0
VERTEX
8
0
10
44.116953125
20
56.075240625
30
0
0
VERTEX
8
0
10
44.0378125
20
56.11214375
30
0
0
VERTEX
8
0
10
43.9621875
20
56.155806250000005
30
0
0
VERTEX
8
0
10
43.890659375000006
20
56.205890625
30
0
0
VERTEX
8
0
10
43.823765625
20
56.26201875
30
0
0
VERTEX
8
0
10
43.76201875
20
56.323765625
30
0
0
VERTEX
8
0
10
43.705890625
20
56.390659375000006
30
0
0
VERTEX
8
0
10
43.655806250000005
20
56.462187500000006
30
0
0
VERTEX
8
0
10
43.61214375
20
56.5378125
30
0
0
VERTEX
8
0
10
43.575240625
20
56.616953125
30
0
0
VERTEX
8
0
10
43.545375
20
56.699006250000004
30
0
0
VERTEX
8
0
10
43.522775
20
56.783353125000005
30
0
0
VERTEX
8
0
10
43.507609375
20
56.869350000000004
30
0
0
VERTEX
8
0
10
43.5
20
56.956337500000004
30
0
0
VERTEX
8
0
10
43.5
20
57.0436625
30
0
0
VERTEX
8
0
10
43.507609375
20
57.13065
30
0
0
VERTEX
8
0
10
43.522775
20
57.216646875
30
0
0
VERTEX
8
0
10
43.545375
20
57.30099375
30
0
0
VERTEX
8
0
10
43.575240625
20
57.383046875000005
30
0
0
VERTEX
8
0
10
43.61214375
20
57.462187500000006
30
0
0
VERTEX
8
0
10
43.655806250000005
20
57.5378125
30
0
0
VERTEX
8
0
10
43.705890625
20
57.609340625
30
0
0
VERTEX
8
0
10
43.76201875
20
57.676234375
30
0
0
VERTEX
8
0
10
43.823765625
20
57.737981250000004
30
0
0
VERTEX
8
0
10
43.890659375000006
20
57.794109375000005
30
0
0
VERTEX
8
0
10
43.9621875
20
57.84419375
30
0
0
VERTEX
8
0
10
44.0378125
20
57.887856250000006
30
0
0
VERTEX
8
0
10
44.116953125
20
57.924759375
30
0
0
VERTEX
8
0
10
44.199006250000004
20
57.954625
30
0
0
VERTEX
8
0
10
44.283353125000005
20
57.977225000000004
30
0
0
VERTEX
8
0
10
44.369350000000004
20
57.992390625000006
30
0
0
VERTEX
8
0
10
44.456337500000004
20
58
30
0
0
VERTEX
8
0
10
44.5436625
20
58
30
0
0
VERTEX
8
0
10
44.63065
20
57.992390625000006
30
0
0
VERTEX
8
0
10
44.716646875
20
57.977225000000004
30
0
0
VERTEX
8
0
10
44.80099375
20
57.954625
30
0
0
VERTEX
8
0
10
44.883046875000005
20
57.924759375
30
0
0
VERTEX
8
0
10
44.9621875
20
57.887856250000006
30
0
0
VERTEX
8
0
10
45.0378125
20
57.84419375
30
0
0
VERTEX
8
0
10
45.109340625
20
57.794109375000005
30
0
0
VERTEX
8
0
10
45.176234375
20
57.737981250000004
30
0
0
VERTEX
8
0
10
45.237981250000004
20
57.676234375
30
0
0
VERTEX
8
0
10
45.294109375000005
20
57.609340625
30
0
0
VERTEX
8
0
10
45.34419375
20
57.5378125
30
0
0
VERTEX
8
0
10
45.38785625
20
57.462187500000006
30
0
0
VERTEX
8
0
10
45.424759375
20
57.383046875000005
30
0
0
VERTEX
8
0
10
45.454625
20
57.30099375
30
0
0
VERTEX
8
0
10
45.477225000000004
20
57.216646875
30
0
0
VERTEX
8
0
10
45.492390625
20
57.13065
30
0
0
VERTEX
8
0
10
45.5
20
57.0436625
30
0
0
VERTEX
8
0
10
45.5
20
56.956337500000004
30
0
0
SEQEND
0
POLYLINE
66
1
8
holes
10
0.0
20
0.0
30
0.0
70
1
0
VERTEX
8
0
10
4
20
56.956337500000004
30
0
0
VERTEX
8
0
10
3.992390625
20
56.869350000000004
30
0
0
VERTEX
8
0
10
3.9772250000000002
20
56.783353125000005
30
0
0
VERTEX
8
0
10
3.954625
20
56.699006250000004
30
0
0
VERTEX
8
0
10
3.9247593750000003
20
56.616953125
30
0
0
VERTEX
8
0
10
3.88785625
20
56.5378125
30
0
0
VERTEX
8
0
10
3.84419375
20
56.462187500000006
30
0
0
VERTEX
8
0
10
3.794109375
20
56.390659375000006
30
0
0
VERTEX
8
0
10
3.7379812500000003
20
56.323765625
30
0
0
VERTEX
8
0
10
3.6762343750000004
20
56.26201875
30
0
0
VERTEX
8
0
10
3.609340625
20
56.205890625
30
0
0
VERTEX
8
0
10
3.5378125000000002
20
56.155806250000005
30
0
0
VERTEX
8
0
10
3.4621875
20
56.11214375
30
0
0
VERTEX
8
0
10
3.3830468750000002
20
56.075240625
30
0
0
VERTEX
8
0
10
3.30099375
20
56.045375
30
0
0
VERTEX
8
0
10
3.2166468750000003
20
56.022775
30
0
0
VERTEX
8
0
10
3.13065
20
56.007609375
30
0
0
VERTEX
8
0
10
3.0436625
20
56
30
0
0
VERTEX
8
0
10
2.9563375
20
56
30
0
0
VERTEX
8
0
10
2.8693500000000003
20
56.007609375
30
0
0
VERTEX
8
0
10
2.783353125
20
56.022775
30
0
0
VERTEX
8
0
10
2.69900625
20
56.045375
30
0
0
VERTEX
8
0
10
2.616953125
20
56.075240625
30
0
0
VERTEX
8
0
10
2.5378125000000002
20
56.11214375
30
0
0
VERTEX
8
0
10
2.4621875
20
56.155806250000005
30
0
0
VERTEX
8
0
10
2.3906593750000003
20
56.205890625
30
0
0
VERTEX
8
0
10
2.323765625
20
56.26201875
30
0
0
VERTEX
8
0
10
2.26201875
20
56.323765625
30
0
0
VERTEX
8
0
10
2.2058906250000003
20
56.390659375000006
30
0
0
VERTEX
8
0
10
2.15580625
20
56.462187500000006
30
0
0
VERTEX
8
0
10
2.11214375
20
56.5378125
30
0
0
VERTEX
8
0
10
2.075240625
20
56.616953125
30
0
0
VERTEX
8
0
10
2.045375
20
56.699006250000004
30
0
0
VERTEX
8
0
10
2.022775
20
56.783353125000005
30
0
0
VERTEX
8
0
10
2.007609375
20
56.869350000000004
30
0
0
VERTEX
8
0
10
2
20
56.956337500000004
30
0
0
VERTEX
8
0
10
2
20
57.0436625
30
0
0
VERTEX
8
0
10
2.007609375
20
57.13065
30
0
0
VERTEX
8
0
10
2.022775
20
57.216646875
30
0
0
VERTEX
8
0
10
2.045375
20
57.30099375
30
0
0
VERTEX
8
0
10
2.075240625
20
57.383046875000005
30
0
0
VERTEX
8
0
10
2.11214375
20
57.462187500000006
30
0
0
VERTEX
8
0
10
2.15580625
20
57.5378125
30
0
0
VERTEX
8
0
10
2.2058906250000003
20
57.609340625
30
0
0
VERTEX
8
0
10
2.26201875
20
57.676234375
30
0
0
VERTEX
8
0
10
2.323765625
20
57.737981250000004
30
0
0
VERTEX
8
0
10
2.3906593750000003
20
57.794109375000005
30
0
0
VERTEX
8
0
10
2.4621875
20
57.84419375
30
0
0
VERTEX
8
0
10
2.5378125000000002
20
57.887856250000006
30
0
0
VERTEX
8
0
10
2.616953125
20
57.924759375
30
0
0
VERTEX
8
0
10
2.69900625
20
57.954625
30
0
0
VERTEX
8
0
10
2.783353125
20
57.977225000000004
30
0
0
VERTEX
8
0
10
2.8693500000000003
20
57.992390625000006
30
0
0
VERTEX
8
0
10
2.9563375
20
58
30
0
0
VERTEX
8
0
10
3.0436625
20
58
30
0
0
VERTEX
8
0
10
3.13065
20
57.992390625000006
30
0
0
VERTEX
8
0
10
3.2166468750000003
20
57.977225000000004
30
0
0
VERTEX
8
0
10
3.30099375
20
57.954625
30
0
0
VERTEX
8
0
10
3.3830468750000002
20
57.924759375
30
0
0
VERTEX
8
0
10
3.4621875
20
57.887856250000006
30
0
0
VERTEX
8
0
10
3.5378125000000002
20
57.84419375
30
0
0
VERTEX
8
0
10
3.609340625
20
57.794109375000005
30
0
0
VERTEX
8
0
10
3.6762343750000004
20
57.737981250000004
30
0
0
VERTEX
8
0
10
3.7379812500000003
20
57.676234375
30
0
0
VERTEX
8
0
10
3.794109375
20
57.609340625
30
0
0
VERTEX
8
0
10
3.84419375
20
57.5378125
30
0
0
VERTEX
8
0
10
3.88785625
20
57.462187500000006
30
0
0
VERTEX
8
0
10
3.9247593750000003
20
57.383046875000005
30
0
0
VERTEX
8
0
10
3.954625
20
57.30099375
30
0
0
VERTEX
8
0
10
3.9772250000000002
20
57.216646875
30
0
0
VERTEX
8
0
10
3.992390625
20
57.13065
30
0
0
VERTEX
8
0
10
4
20
57.0436625
30
0
0
VERTEX
8
0
10
4
20
56.956337500000004
30
0
0
SEQEND
0
POLYLINE
66
1
8
holes
10
0.0
20
0.0
30
0.0
70
1
0
VERTEX
8
0
10
17.260553125
20
3.4455
30
0
0
VERTEX
8
0
10
17.341271875
20
3.4375500000000003
30
0
0
VERTEX
8
0
10
17.420821875
20
3.4217250000000003
30
0
0
VERTEX
8
0
10
17.4984375
20
3.3981812500000004
30
0
0
VERTEX
8
0
10
17.573371875
20
3.3671437500000003
30
0
0
VERTEX
8
0
10
17.644903125000003
20
3.3289093750000003
30
0
0
VERTEX
8
0
10
17.712343750000002
20
3.283846875
30
0
0
VERTEX
8
0
10
17.775040625000003
20
3.23239375
30
0
0
VERTEX
8
0
10
17.83239375
20
3.1750406250000003
30
0
0
VERTEX
8
0
10
17.883846875
20
3.11234375
30
0
0
VERTEX
8
0
10
17.928909375
20
3.0449031250000003
30
0
0
VERTEX
8
0
10
17.96714375
20
2.973371875
30
0
0
VERTEX
8
0
10
17.998181250000002
20
2.8984375
30
0
0
VERTEX
8
0
10
18.021725
20
2.820821875
30
0
0
VERTEX
8
0
10
18.03755
20
2.7412718750000002
30
0
0
VERTEX
8
0
10
18.0455
20
2.6605531250000003
30
0
0
VERTEX
8
0
10
18.0455
20
2.579446875
30
0
0
VERTEX
8
0
10
18.03755
20
2.498728125
30
0
0
VERTEX
8
0
10
18.021725
20
2.419178125
30
0
0
VERTEX
8
0
10
17.998181250000002
20
2.3415625
30
0
0
VERTEX
8
0
10
17.96714375
20
2.266628125
30
0
0
VERTEX
8
0
10
17.928909375
20
2.195096875
30
0
0
VERTEX
8
0
10
17.883846875
20
2.1276562500000002
30
0
0
VERTEX
8
0
10
17.83239375
20
2.064959375
30
0
0
VERTEX
8
0
10
17.775040625000003
20
2.0076062500000003
30
0
0
VERTEX
8
0
10
17.712343750000002
20
1.9561531250000002
30
0
0
VERTEX
8
0
10
17.644903125000003
20
1.9110906250000002
30
0
0
VERTEX
8
0
10
17.573371875
20
1.8728562500000001
30
0
0
VERTEX
8
0
10
17.4984375
20
1.84181875
30
0
0
VERTEX
8
0
10
17.420821875
20
1.818275
30
0
0
VERTEX
8
0
10
17.341271875
20
1.80245
30
0
0
VERTEX
8
0
10
17.260553125
20
1.7945
30
0
0
VERTEX
8
0
10
17.179446875
20
1.7945
30
0
0
VERTEX
8
0
10
17.098728125
20
1.80245
30
0
0
VERTEX
8
0
10
17.019178125
20
1.818275
30
0
0
VERTEX
8
0
10
16.9415625
20
1.84181875
30
0
0
VERTEX
8
0
10
16.866628125000002
20
1.8728562500000001
30
0
0
VERTEX
8
0
10
16.795096875000002
20
1.9110906250000002
30
0
0
VERTEX
8
0
10
16.727656250000003
20
1.9561531250000002
30
0
0
VERTEX
8
0
10
16.664959375000002
20
2.0076062500000003
30
0
0
VERTEX
8
0
10
16.60760625
20
2.064959375
30
0
0
VERTEX
8
0
10
16.556153125
20
2.1276562500000002
30
0
0
VERTEX
8
0
10
16.511090625
20
2.195096875
30
0
0
VERTEX
8
0
10
16.47285625
20
2.266628125
30
0
0
VERTEX
8
0
10
16.44181875
20
2.3415625
30
0
0
VERTEX
8
0
10
16.418275
20
2.419178125
30
0
0
VERTEX
8
0
10
16.40245
20
2.498728125
30
0
0
VERTEX
8
0
10
16.3945
20
2.579446875
30
0
0
VERTEX
8
0
10
16.3945
20
2.6605531250000003
30
0
0
VERTEX
8
0
10
16.40245
20
2.7412718750000002
30
0
0
VERTEX
8
0
10
16.418275
20
2.820821875
30
0
0
VERTEX
8
0
10
16.44181875
20
2.8984375
30
0
0
VERTEX
8
0
10
16.47285625
20
2.973371875
30
0
0
VERTEX
8
0
10
16.511090625
20
3.0449031250000003
30
0
0
VERTEX
8
0
10
16.556153125
20
3.11234375
30
0
0
VERTEX
8
0
10
16.60760625
20
3.1750406250000003
30
0
0
VERTEX
8
0
10
16.664959375000002
20
3.23239375
30
0
0
VERTEX
8
0
10
16.727656250000003
20
3.283846875
30
0
0
VERTEX
8
0
10
16.795096875000002
20
3.3289093750000003
30
0
0
VERTEX
8
0
10
16.866628125000002
20
3.3671437500000003
30
0
0
VERTEX
8
0
10
16.9415625
20
3.3981812500000004
30
0
0
VERTEX
8
0
10
17.019178125
20
3.4217250000000003
30
0
0
VERTEX
8
0
10
17.098728125
20
3.4375500000000003
30
0
0
VERTEX
8
0
10
17.179446875
20
3.4455
30
0
0
VERTEX
8
0
10
17.260553125
20
3.4455
30
0
0
SEQEND
0
POLYLINE
66
1
8
holes
10
0.0
20
0.0
30
0.0
70
1
0
VERTEX
8
0
10
32.500553125
20
3.4455
30
0
0
VERTEX
8
0
10
32.581271875
20
3.4375500000000003
30
0
0
VERTEX
8
0
10
32.660821875
20
3.4217250000000003
30
0
0
VERTEX
8
0
10
32.7384375
20
3.3981812500000004
30
0
0
VERTEX
8
0
10
32.813371875
20
3.3671437500000003
30
0
0
VERTEX
8
0
10
32.884903125
20
3.3289093750000003
30
0
0
VERTEX
8
0
10
32.952343750000004
20
3.283846875
30
0
0
VERTEX
8
0
10
33.015040625000005
20
3.23239375
30
0
0
VERTEX
8
0
10
33.07239375
20
3.1750406250000003
30
0
0
VERTEX
8
0
10
33.123846875
20
3.11234375
30
0
0
VERTEX
8
0
10
33.168909375
20
3.0449031250000003
30
0
0
VERTEX
8
0
10
33.20714375
20
2.973371875
30
0
0
VERTEX
8
0
10
33.238181250000004
20
2.8984375
30
0
0
VERTEX
8
0
10
33.261725
20
2.820821875
30
0
0
VERTEX
8
0
10
33.277550000000005
20
2.7412718750000002
30
0
0
VERTEX
8
0
10
33.2855
20
2.6605531250000003
30
0
0
VERTEX
8
0
10
33.2855
20
2.579446875
30
0
0
VERTEX
8
0
10
33.277550000000005
20
2.498728125
30
0
0
VERTEX
8
0
10
33.261725
20
2.419178125
30
0
0
VERTEX
8
0
10
33.238181250000004
20
2.3415625
30
0
0
VERTEX
8
0
10
33.20714375
20
2.266628125
30
0
0
VERTEX
8
0
10
33.168909375
20
2.195096875
30
0
0
VERTEX
8
0
10
33.123846875
20
2.1276562500000002
30
0
0
VERTEX
8
0
10
33.07239375
20
2.064959375
30
0
0
VERTEX
8
0
10
33.015040625000005
20
2.0076062500000003
30
0
0
VERTEX
8
0
10
32.952343750000004
20
1.9561531250000002
30
0
0
VERTEX
8
0
10
32.884903125
20
1.9110906250000002
30
0
0
VERTEX
8
0
10
32.813371875
20
1.8728562500000001
30
0
0
VERTEX
8
0
10
32.7384375
20
1.84181875
30
0
0
VERTEX
8
0
10
32.660821875
20
1.818275
30
0
0
VERTEX
8
0
10
32.581271875
20
1.80245
30
0
0
VERTEX
8
0
10
32.500553125
20
1.7945
30
0
0
VERTEX
8
0
10
32.419446875
20
1.7945
30
0
0
VERTEX
8
0
10
32.338728125
20
1.80245
30
0
0
VERTEX
8
0
10
32.259178125
20
1.818275
30
0
0
VERTEX
8
0
10
32.1815625
20
1.84181875
30
0
0
VERTEX
8
0
10
32.106628125
20
1.8728562500000001
30
0
0
VERTEX
8
0
10
32.035096875
20
1.9110906250000002
30
0
0
VERTEX
8
0
10
31.96765625
20
1.9561531250000002
30
0
0
VERTEX
8
0
10
31.904959375
20
2.0076062500000003
30
0
0
VERTEX
8
0
10
31.847606250000002
20
2.064959375
30
0
0
VERTEX
8
0
10
31.796153125
20
2.1276562500000002
30
0
0
VERTEX
8
0
10
31.751090625
20
2.195096875
30
0
0
VERTEX
8
0
10
31.71285625
20
2.266628125
30
0
0
VERTEX
8
0
10
31.68181875
20
2.3415625
30
0
0
VERTEX
8
0
10
31.658275000000003
20
2.419178125
30
0
0
VERTEX
8
0
10
31.64245
20
2.498728125
30
0
0
VERTEX
8
0
10
31.634500000000003
20
2.579446875
30
0
0
VERTEX
8
0
10
31.634500000000003
20
2.6605531250000003
30
0
0
VERTEX
8
0
10
31.64245
20
2.7412718750000002
30
0
0
VERTEX
8
0
10
31.658275000000003
20
2.820821875
30
0
0
VERTEX
8
0
10
31.68181875
20
2.8984375
30
0
0
VERTEX
8
0
10
31.71285625
20
2.973371875
30
0
0
VERTEX
8
0
10
31.751090625
20
3.0449031250000003
30
0
0
VERTEX
8
0
10
31.796153125
20
3.11234375
30
0
0
VERTEX
8
0
10
31.847606250000002
20
3.1750406250000003
30
0
0
VERTEX
8
0
10
31.904959375
20
3.23239375
30
0
0
VERTEX
8
0
10
31.96765625
20
3.283846875
30
0
0
VERTEX
8
0
10
32.035096875
20
3.3289093750000003
30
0
0
VERTEX
8
0
10
32.106628125
20
3.3671437500000003
30
0
0
VERTEX
8
0
10
32.1815625
20
3.3981812500000004
30
0
0
VERTEX
8
0
10
32.259178125
20
3.4217250000000003
30
0
0
VERTEX
8
0
10
32.338728125
20
3.4375500000000003
30
0
0
VERTEX
8
0
10
32.419446875
20
3.4455
30
0
0
VERTEX
8
0
10
32.500553125
20
3.4455
30
0
0
SEQEND
0
POLYLINE
66
1
8
holes
10
0.0
20
0.0
30
0.0
70
1
0
VERTEX
8
0
10
32.500553125
20
44.0855
30
0
0
VERTEX
8
0
10
32.581271875
20
44.07755
30
0
0
VERTEX
8
0
10
32.660821875
20
44.061725
30
0
0
VERTEX
8
0
10
32.7384375
20
44.03818125
30
0
0
VERTEX
8
0
10
32.813371875
20
44.007143750000004
30
0
0
VERTEX
8
0
10
32.884903125
20
43.968909375
30
0
0
VERTEX
8
0
10
32.952343750000004
20
43.923846875
30
0
0
VERTEX
8
0
10
33.015040625000005
20
43.87239375
30
0
0
VERTEX
8
0
10
33.07239375
20
43.815040625
30
0
0
VERTEX
8
0
10
33.123846875
20
43.75234375
30
0
0
VERTEX
8
0
10
33.168909375
20
43.684903125000005
30
0
0
VERTEX
8
0
10
33.20714375
20
43.613371875
30
0
0
VERTEX
8
0
10
33.238181250000004
20
43.5384375
30
0
0
VERTEX
8
0
10
33.261725
20
43.460821875
30
0
0
VERTEX
8
0
10
33.277550000000005
20
43.381271875
30
0
0
VERTEX
8
0
10
33.2855
20
43.300553125
30
0
0
VERTEX
8
0
10
33.2855
20
43.219446875
30
0
0
VERTEX
8
0
10
33.277550000000005
20
43.138728125
30
0
0
VERTEX
8
0
10
33.261725
20
43.059178125
30
0
0
VERTEX
8
0
10
33.238181250000004
20
42.9815625
30
0
0
VERTEX
8
0
10
33.20714375
20
42.906628125000005
30
0
0
VERTEX
8
0
10
33.168909375
20
42.835096875000005
30
0
0
VERTEX
8
0
10
33.123846875
20
42.76765625
30
0
0
VERTEX
8
0
10
33.07239375
20
42.704959375
30
0
0
VERTEX
8
0
10
33.015040625000005
20
42.64760625
30
0
0
VERTEX
8
0
10
32.952343750000004
20
42.596153125
30
0
0
VERTEX
8
0
10
32.884903125
20
42.551090625
30
0
0
VERTEX
8
0
10
32.813371875
20
42.51285625
30
0
0
VERTEX
8
0
10
32.7384375
20
42.48181875
30
0
0
VERTEX
8
0
10
32.660821875
20
42.458275
30
0
0
VERTEX
8
0
10
32.581271875
20
42.44245
30
0
0
VERTEX
8
0
10
32.500553125
20
42.4345
30
0
0
VERTEX
8
0
10
32.419446875
20
42.4345
30
0
0
VERTEX
8
0
10
32.338728125
20
42.44245
30
0
0
VERTEX
8
0
10
32.259178125
20
42.458275
30
0
0
VERTEX
8
0
10
32.1815625
20
42.48181875
30
0
0
VERTEX
8
0
10
32.106628125
20
42.51285625
30
0
0
VERTEX
8
0
10
32.035096875
20
42.551090625
30
0
0
VERTEX
8
0
10
31.96765625
20
42.596153125
30
0
0
VERTEX
8
0
10
31.904959375
20
42.64760625
30
0
0
VERTEX
8
0
10
31.847606250000002
20
42.704959375
30
0
0
VERTEX
8
0
10
31.796153125
20
42.76765625
30
0
0
VERTEX
8
0
10
31.751090625
20
42.835096875000005
30
0
0
VERTEX
8
0
10
31.71285625
20
42.906628125000005
30
0
0
VERTEX
8
0
10
31.68181875
20
42.9815625
30
0
0
VERTEX
8
0
10
31.658275000000003
20
43.059178125
30
0
0
VERTEX
8
0
10
31.64245
20
43.138728125
30
0
0
VERTEX
8
0
10
31.634500000000003
20
43.219446875
30
0
0
VERTEX
8
0
10
31.634500000000003
20
43.300553125
30
0
0
VERTEX
8
0
10
31.64245
20
43.381271875
30
0
0
VERTEX
8
0
10
31.658275000000003
20
43.460821875
30
0
0
VERTEX
8
0
10
31.68181875
20
43.5384375
30
0
0
VERTEX
8
0
10
31.71285625
20
43.613371875
30
0
0
VERTEX
8
0
10
31.751090625
20
43.684903125000005
30
0
0
VERTEX
8
0
10
31.796153125
20
43.75234375
30
0
0
VERTEX
8
0
10
31.847606250000002
20
43.815040625
30
0
0
VERTEX
8
0
10
31.904959375
20
43.87239375
30
0
0
VERTEX
8
0
10
31.96765625
20
43.923846875
30
0
0
VERTEX
8
0
10
32.035096875
20
43.968909375
30
0
0
VERTEX
8
0
10
32.106628125
20
44.007143750000004
30
0
0
VERTEX
8
0
10
32.1815625
20
44.03818125
30
0
0
VERTEX
8
0
10
32.259178125
20
44.061725
30
0
0
VERTEX
8
0
10
32.338728125
20
44.07755
30
0
0
VERTEX
8
0
10
32.419446875
20
44.0855
30
0
0
VERTEX
8
0
10
32.500553125
20
44.0855
30
0
0
SEQEND
0
POLYLINE
66
1
8
holes
10
0.0
20
0.0
30
0.0
70
1
0
VERTEX
8
0
10
17.260553125
20
44.0855
30
0
0
VERTEX
8
0
10
17.341271875
20
44.07755
30
0
0
VERTEX
8
0
10
17.420821875
20
44.061725
30
0
0
VERTEX
8
0
10
17.4984375
20
44.03818125
30
0
0
VERTEX
8
0
10
17.573371875
20
44.007143750000004
30
0
0
VERTEX
8
0
10
17.644903125000003
20
43.968909375
30
0
0
VERTEX
8
0
10
17.712343750000002
20
43.923846875
30
0
0
VERTEX
8
0
10
17.775040625000003
20
43.87239375
30
0
0
VERTEX
8
0
10
17.83239375
20
43.815040625
30
0
0
VERTEX
8
0
10
17.883846875
20
43.75234375
30
0
0
VERTEX
8
0
10
17.928909375
20
43.684903125000005
30
0
0
VERTEX
8
0
10
17.96714375
20
43.613371875
30
0
0
VERTEX
8
0
10
17.998181250000002
20
43.5384375
30
0
0
VERTEX
8
0
10
18.021725
20
43.460821875
30
0
0
VERTEX
8
0
10
18.03755
20
43.381271875
30
0
0
VERTEX
8
0
10
18.0455
20
43.300553125
30
0
0
VERTEX
8
0
10
18.0455
20
43.219446875
30
0
0
VERTEX
8
0
10
18.03755
20
43.138728125
30
0
0
VERTEX
8
0
10
18.021725
20
43.059178125
30
0
0
VERTEX
8
0
10
17.998181250000002
20
42.9815625
30
0
0
VERTEX
8
0
10
17.96714375
20
42.906628125000005
30
0
0
VERTEX
8
0
10
17.928909375
20
42.835096875000005
30
0
0
VERTEX
8
0
10
17.883846875
20
42.76765625
30
0
0
VERTEX
8
0
10
17.83239375
20
42.704959375
30
0
0
VERTEX
8
0
10
17.775040625000003
20
42.64760625
30
0
0
VERTEX
8
0
10
17.712343750000002
20
42.596153125
30
0
0
VERTEX
8
0
10
17.644903125000003
20
42.551090625
30
0
0
VERTEX
8
0
10
17.573371875
20
42.51285625
30
0
0
VERTEX
8
0
10
17.4984375
20
42.48181875
30
0
0
VERTEX
8
0
10
17.420821875
20
42.458275
30
0
0
VERTEX
8
0
10
17.341271875
20
42.44245
30
0
0
VERTEX
8
0
10
17.260553125
20
42.4345
30
0
0
VERTEX
8
0
10
17.179446875
20
42.4345
30
0
0
VERTEX
8
0
10
17.098728125
20
42.44245
30
0
0
VERTEX
8
0
10
17.019178125
20
42.458275
30
0
0
VERTEX
8
0
10
16.9415625
20
42.48181875
30
0
0
VERTEX
8
0
10
16.866628125000002
20
42.51285625
30
0
0
VERTEX
8
0
10
16.795096875000002
20
42.551090625
30
0
0
VERTEX
8
0
10
16.727656250000003
20
42.596153125
30
0
0
VERTEX
8
0
10
16.664959375000002
20
42.64760625
30
0
0
VERTEX
8
0
10
16.60760625
20
42.704959375
30
0
0
VERTEX
8
0
10
16.556153125
20
42.76765625
30
0
0
VERTEX
8
0
10
16.511090625
20
42.835096875000005
30
0
0
VERTEX
8
0
10
16.47285625
20
42.906628125000005
30
0
0
VERTEX
8
0
10
16.44181875
20
42.9815625
30
0
0
VERTEX
8
0
10
16.418275
20
43.059178125
30
0
0
VERTEX
8
0
10
16.40245
20
43.138728125
30
0
0
VERTEX
8
0
10
16.3945
20
43.219446875
30
0
0
VERTEX
8
0
10
16.3945
20
43.300553125
30
0
0
VERTEX
8
0
10
16.40245
20
43.381271875
30
0
0
VERTEX
8
0
10
16.418275
20
43.460821875
30
0
0
VERTEX
8
0
10
16.44181875
20
43.5384375
30
0
0
VERTEX
8
0
10
16.47285625
20
43.613371875
30
0
0
VERTEX
8
0
10
16.511090625
20
43.684903125000005
30
0
0
VERTEX
8
0
10
16.556153125
20
43.75234375
30
0
0
VERTEX
8
0
10
16.60760625
20
43.815040625
30
0
0
VERTEX
8
0
10
16.664959375000002
20
43.87239375
30
0
0
VERTEX
8
0
10
16.727656250000003
20
43.923846875
30
0
0
VERTEX
8
0
10
16.795096875000002
20
43.968909375
30
0
0
VERTEX
8
0
10
16.866628125000002
20
44.007143750000004
30
0
0
VERTEX
8
0
10
16.9415625
20
44.03818125
30
0
0
VERTEX
8
0
10
17.019178125
20
44.061725
30
0
0
VERTEX
8
0
10
17.098728125
20
44.07755
30
0
0
VERTEX
8
0
10
17.179446875
20
44.0855
30
0
0
VERTEX
8
0
10
17.260553125
20
44.0855
30
0
0
SEQEND
0
POLYLINE
66
1
8
1_copper
10
0.0
20
0.0
30
0.0
70
1
0
VERTEX
8
0
10
28.134
20
44.014
30
0
0
VERTEX
8
0
10
26.626
20
44.014
30
0
0
VERTEX
8
0
10
26.626
20
42.506
30
0
0
VERTEX
8
0
10
28.134
20
42.506
30
0
0
SEQEND
0
POLYLINE
66
1
8
1_copper
10
0.0
20
0.0
30
0.0
70
1
0
VERTEX
8
0
10
17.974
20
41.474000000000004
30
0
0
VERTEX
8
0
10
16.466
20
41.474000000000004
30
0
0
VERTEX
8
0
10
16.466
20
39.966
30
0
0
VERTEX
8
0
10
17.974
20
39.966
30
0
0
SEQEND
0
POLYLINE
66
1
8
16_copper
10
0.0
20
0.0
30
0.0
70
1
0
VERTEX
8
0
10
28.134
20
44.014
30
0
0
VERTEX
8
0
10
26.626
20
44.014
30
0
0
VERTEX
8
0
10
26.626
20
42.506
30
0
0
VERTEX
8
0
10
28.134
20
42.506
30
0
0
SEQEND
0
POLYLINE
66
1
8
16_copper
10
0.0
20
0.0
30
0.0
70
1
0
VERTEX
8
0
10
17.974
20
41.474000000000004
30
0
0
VERTEX
8
0
10
16.466
20
41.474000000000004
30
0
0
VERTEX
8
0
10
16.466
20
39.966
30
0
0
VERTEX
8
0
10
17.974
20
39.966
30
0
0
SEQEND
0
POLYLINE
66
1
8
1_copper
10
0.0
20
0.0
30
0.0
70
1
0
VERTEX
8
0
10
13.8804
20
25.136456250000002
30
0
0
VERTEX
8
0
10
13.8804
20
25.683543750000002
30
0
0
VERTEX
8
0
10
13.49354375
20
26.070400000000003
30
0
0
VERTEX
8
0
10
12.94645625
20
26.070400000000003
30
0
0
VERTEX
8
0
10
12.86480625
20
25.98875
30
0
0
VERTEX
8
0
10
11.176778125
20
27.676778125000002
30
0
42
0.198912367379658
0
VERTEX
8
0
10
11
20
27.75
30
0
0
VERTEX
8
0
10
8.376853125
20
27.75
30
0
42
0.3585270805167009
0
VERTEX
8
0
10
7.659434375
20
28.402
30
0
0
VERTEX
8
0
10
6.060565625000001
20
28.402
30
0
42
0.9520795017710562
0
VERTEX
8
0
10
6.060565625000001
20
26.878
30
0
0
VERTEX
8
0
10
7.659434375
20
26.878
30
0
42
0.25136285018746646
0
VERTEX
8
0
10
8.277565625000001
20
27.25
30
0
0
VERTEX
8
0
10
10.896443750000001
20
27.25
30
0
0
VERTEX
8
0
10
12.559600000000001
20
25.58684375
30
0
0
VERTEX
8
0
10
12.559600000000001
20
25.136456250000002
30
0
0
VERTEX
8
0
10
12.94645625
20
24.7496
30
0
0
VERTEX
8
0
10
13.49354375
20
24.7496
30
0
0
SEQEND
0
POLYLINE
66
1
8
16_copper
10
0.0
20
0.0
30
0.0
70
1
0
VERTEX
8
0
10
7.733943750000001
20
26.885337500000002
30
0
42
0.9063472543261978
0
VERTEX
8
0
10
7.659434375
20
28.402
30
0
0
VERTEX
8
0
10
6.060565625000001
20
28.402
30
0
42
0.9520795017710562
0
VERTEX
8
0
10
6.060565625000001
20
26.878
30
0
0
VERTEX
8
0
10
7.659434375
20
26.878
30
0
0
SEQEND
0
POLYLINE
66
1
8
16_copper
10
0.0
20
0.0
30
0.0
70
1
0
VERTEX
8
0
10
20.50200625
20
0.7501593750000001
30
0
42
0.19682628245095668
0
VERTEX
8
0
10
20.676778125000002
20
0.823221875
30
0
0
VERTEX
8
0
10
32.367853125
20
12.514296875000001
30
0
0
VERTEX
8
0
10
32.49535625
20
12.532512500000001
30
0
42
0.9999999999999999
0
VERTEX
8
0
10
32.42464375
20
13.027487500000001
30
0
0
VERTEX
8
0
10
32.21464375
20
12.9974875
30
0
42
0.1622767530097332
0
VERTEX
8
0
10
32.073221875
20
12.926778125
30
0
0
VERTEX
8
0
10
20.39644375
20
1.25
30
0
0
VERTEX
8
0
10
13.5
20
1.25
30
0
0
VERTEX
8
0
10
13.5
20
24.75605625
30
0
0
VERTEX
8
0
10
13.8804
20
25.136456250000002
30
0
0
VERTEX
8
0
10
13.8804
20
25.683543750000002
30
0
0
VERTEX
8
0
10
13.49354375
20
26.070400000000003
30
0
0
VERTEX
8
0
10
12.94645625
20
26.070400000000003
30
0
0
VERTEX
8
0
10
12.559600000000001
20
25.683543750000002
30
0
0
VERTEX
8
0
10
12.559600000000001
20
25.136456250000002
30
0
0
VERTEX
8
0
10
12.94645625
20
24.7496
30
0
0
VERTEX
8
0
10
13
20
24.7496
30
0
0
VERTEX
8
0
10
13
20
1
30
0
42
0.41421356237309503
0
VERTEX
8
0
10
13.25
20
0.75
30
0
0
VERTEX
8
0
10
20.5
20
0.75
30
0
0
SEQEND
0
POLYLINE
66
1
8
1_copper
10
0.0
20
0.0
30
0.0
70
1
0
VERTEX
8
0
10
7.733943750000001
20
29.4253375
30
0
42
0.8365505633087341
0
VERTEX
8
0
10
7.779212500000001
20
30.925656250000003
30
0
0
VERTEX
8
0
10
13.049806250000001
20
36.19625
30
0
0
VERTEX
8
0
10
13.156456250000002
20
36.089600000000004
30
0
0
VERTEX
8
0
10
13.703543750000001
20
36.089600000000004
30
0
0
VERTEX
8
0
10
14.0904
20
36.47645625
30
0
0
VERTEX
8
0
10
14.0904
20
37.02354375
30
0
0
VERTEX
8
0
10
13.703543750000001
20
37.4104
30
0
0
VERTEX
8
0
10
13.156456250000002
20
37.4104
30
0
0
VERTEX
8
0
10
12.7696
20
37.02354375
30
0
0
VERTEX
8
0
10
12.7696
20
36.62315625
30
0
0
VERTEX
8
0
10
7.088443750000001
20
30.942
30
0
0
VERTEX
8
0
10
6.060565625000001
20
30.942
30
0
42
0.9520795017710562
0
VERTEX
8
0
10
6.060565625000001
20
29.418000000000003
30
0
0
VERTEX
8
0
10
7.659434375
20
29.418000000000003
30
0
0
SEQEND
0
POLYLINE
66
1
8
1_copper
10
0.0
20
0.0
30
0.0
70
1
0
VERTEX
8
0
10
42.88394375
20
28.685337500000003
30
0
42
0.9063472543261978
0
VERTEX
8
0
10
42.809434375
20
30.202
30
0
0
VERTEX
8
0
10
41.210565625
20
30.202
30
0
42
0.28292804636741437
0
VERTEX
8
0
10
40.551621875
20
29.75
30
0
0
VERTEX
8
0
10
36.103556250000004
20
29.75
30
0
0
VERTEX
8
0
10
32.713059375
20
33.140496875000004
30
0
0
VERTEX
8
0
10
32.69211875
20
33.192846875
30
0
0
VERTEX
8
0
10
32.6746
20
33.228246875
30
0
42
0.8624859359016633
0
VERTEX
8
0
10
32.217396875
20
33.039637500000005
30
0
0
VERTEX
8
0
10
32.22788125
20
33.007153125
30
0
42
0.20575154178878138
0
VERTEX
8
0
10
32.323221875
20
32.823221875
30
0
0
VERTEX
8
0
10
35.823221875
20
29.323221875
30
0
42
0.198912367379658
0
VERTEX
8
0
10
36
20
29.25
30
0
0
VERTEX
8
0
10
40.509346875
20
29.25
30
0
42
0.32860118257242615
0
VERTEX
8
0
10
41.210565625
20
28.678
30
0
0
VERTEX
8
0
10
42.809434375
20
28.678
30
0
0
SEQEND
0
POLYLINE
66
1
8
1_copper
10
0.0
20
0.0
30
0.0
70
1
0
VERTEX
8
0
10
7.7039437500000005
20
15.335337500000001
30
0
42
0.9063472543261978
0
VERTEX
8
0
10
7.629434375000001
20
16.852
30
0
0
VERTEX
8
0
10
6.030565625
20
16.852
30
0
42
0.9520795017710562
0
VERTEX
8
0
10
6.030565625
20
15.328000000000001
30
0
0
VERTEX
8
0
10
7.629434375000001
20
15.328000000000001
30
0
0
SEQEND
0
POLYLINE
66
1
8
1_copper
10
0.0
20
0.0
30
0.0
70
1
0
VERTEX
8
0
10
42.88394375
20
11.1553375
30
0
42
0.9063472543261978
0
VERTEX
8
0
10
42.809434375
20
12.672
30
0
0
VERTEX
8
0
10
41.210565625
20
12.672
30
0
42
0.9520795017710562
0
VERTEX
8
0
10
41.210565625
20
11.148
30
0
0
VERTEX
8
0
10
42.809434375
20
11.148
30
0
0
SEQEND
0
POLYLINE
66
1
8
16_copper
10
0.0
20
0.0
30
0.0
70
1
0
VERTEX
8
0
10
7.7039437500000005
20
15.335337500000001
30
0
42
0.9063472543261978
0
VERTEX
8
0
10
7.629434375000001
20
16.852
30
0
0
VERTEX
8
0
10
6.030565625
20
16.852
30
0
42
0.24305332692732298
0
VERTEX
8
0
10
5.4255031250000005
20
16.5
30
0
0
VERTEX
8
0
10
4.75
20
16.5
30
0
0
VERTEX
8
0
10
4.75
20
28.146443750000003
30
0
0
VERTEX
8
0
10
6.025053125
20
29.421496875000003
30
0
0
VERTEX
8
0
10
6.060565625000001
20
29.418000000000003
30
0
0
VERTEX
8
0
10
7.659434375
20
29.418000000000003
30
0
42
0.7707009687013859
0
VERTEX
8
0
10
7.96450625
20
30.860950000000003
30
0
0
VERTEX
8
0
10
9.176778125
20
32.073221875
30
0
42
0.198912367379658
0
VERTEX
8
0
10
9.25
20
32.25
30
0
0
VERTEX
8
0
10
9.25
20
53.5
30
0
42
0.198912367379658
0
VERTEX
8
0
10
9.176778125
20
53.676778125000006
30
0
0
VERTEX
8
0
10
8.5
20
54.353556250000004
30
0
0
VERTEX
8
0
10
8.5
20
56.89644375
30
0
0
VERTEX
8
0
10
9.35355625
20
57.75
30
0
0
VERTEX
8
0
10
30.5
20
57.75
30
0
0
VERTEX
8
0
10
30.5
20
34.75
30
0
42
0.198912367379658
0
VERTEX
8
0
10
30.573221875
20
34.573221875
30
0
0
VERTEX
8
0
10
32.073221875
20
33.073221875
30
0
42
0.04131137293374289
0
VERTEX
8
0
10
32.104690625
20
33.046565625
30
0
0
VERTEX
8
0
10
32.314690625000004
20
32.896565625
30
0
42
0.9999999999999999
0
VERTEX
8
0
10
32.605309375000004
20
33.303434375
30
0
0
VERTEX
8
0
10
32.412153125
20
33.441403125
30
0
0
VERTEX
8
0
10
31
20
34.853556250000004
30
0
0
VERTEX
8
0
10
31
20
58
30
0
42
0.41421356237309503
0
VERTEX
8
0
10
30.75
20
58.25
30
0
0
VERTEX
8
0
10
9.25
20
58.25
30
0
42
0.198912367379658
0
VERTEX
8
0
10
9.073221875
20
58.176778125000006
30
0
0
VERTEX
8
0
10
8.073221875
20
57.176778125000006
30
0
42
0.198912367379658
0
VERTEX
8
0
10
8
20
57
30
0
0
VERTEX
8
0
10
8
20
54.25
30
0
42
0.198912367379658
0
VERTEX
8
0
10
8.073221875
20
54.073221875
30
0
0
VERTEX
8
0
10
8.75
20
53.39644375
30
0
0
VERTEX
8
0
10
8.75
20
32.353556250000004
30
0
0
VERTEX
8
0
10
7.338443750000001
20
30.942
30
0
0
VERTEX
8
0
10
6.060565625000001
20
30.942
30
0
42
0.6434780051186038
0
VERTEX
8
0
10
5.548409375
20
29.651965625000003
30
0
0
VERTEX
8
0
10
4.323221875
20
28.426778125000002
30
0
42
0.198912367379658
0
VERTEX
8
0
10
4.25
20
28.25
30
0
0
VERTEX
8
0
10
4.25
20
16.25
30
0
42
0.41421356237309503
0
VERTEX
8
0
10
4.5
20
16
30
0
0
VERTEX
8
0
10
5.311175
20
16
30
0
42
0.3659771174531227
0
VERTEX
8
0
10
6.030565625
20
15.328000000000001
30
0
0
VERTEX
8
0
10
7.629434375000001
20
15.328000000000001
30
0
0
SEQEND
0
POLYLINE
66
1
8
16_copper
10
0.0
20
0.0
30
0.0
70
1
0
VERTEX
8
0
10
14.0904
20
36.47645625
30
0
0
VERTEX
8
0
10
14.0904
20
37.02354375
30
0
0
VERTEX
8
0
10
13.703543750000001
20
37.4104
30
0
0
VERTEX
8
0
10
13.156456250000002
20
37.4104
30
0
0
VERTEX
8
0
10
12.7696
20
37.02354375
30
0
0
VERTEX
8
0
10
12.7696
20
36.47645625
30
0
0
VERTEX
8
0
10
13.156456250000002
20
36.089600000000004
30
0
0
VERTEX
8
0
10
13.703543750000001
20
36.089600000000004
30
0
0
SEQEND
0
POLYLINE
66
1
8
16_copper
10
0.0
20
0.0
30
0.0
70
1
0
VERTEX
8
0
10
42.88394375
20
11.1553375
30
0
42
0.3126293355790341
0
VERTEX
8
0
10
43.517103125000006
20
11.75
30
0
0
VERTEX
8
0
10
44.5
20
11.75
30
0
42
0.41421356237309503
0
VERTEX
8
0
10
44.75
20
12
30
0
0
VERTEX
8
0
10
44.75
20
27.5
30
0
42
0.198912367379658
0
VERTEX
8
0
10
44.676778125000006
20
27.676778125000002
30
0
0
VERTEX
8
0
10
43.377228125
20
28.976328125000002
30
0
42
0.6046894355802587
0
VERTEX
8
0
10
42.809434375
20
30.202
30
0
0
VERTEX
8
0
10
41.210565625
20
30.202
30
0
42
0.9520795017710562
0
VERTEX
8
0
10
41.210565625
20
28.678
30
0
0
VERTEX
8
0
10
42.809434375
20
28.678
30
0
42
0.04609136900565861
0
VERTEX
8
0
10
42.948303125
20
28.698140625
30
0
0
VERTEX
8
0
10
44.25
20
27.39644375
30
0
0
VERTEX
8
0
10
44.25
20
12.25
30
0
0
VERTEX
8
0
10
43.454290625
20
12.25
30
0
42
0.27122299237405323
0
VERTEX
8
0
10
42.809434375
20
12.672
30
0
0
VERTEX
8
0
10
41.210565625
20
12.672
30
0
42
0.9520795017710562
0
VERTEX
8
0
10
41.210565625
20
11.148
30
0
0
VERTEX
8
0
10
42.809434375
20
11.148
30
0
0
SEQEND
0
POLYLINE
66
1
8
1_copper
10
0.0
20
0.0
30
0.0
70
1
0
VERTEX
8
0
10
40.25859375
20
30.25189375
30
0
42
0.14139007296259895
0
VERTEX
8
0
10
40.295581250000005
20
30.272315625
30
0
0
VERTEX
8
0
10
40.533131250000004
20
30.509868750000003
30
0
0
VERTEX
8
0
10
40.84633125
20
30.639596875000002
30
0
42
0.668189684777048
0
VERTEX
8
0
10
40.84633125
20
30.780396875
30
0
0
VERTEX
8
0
10
40.533131250000004
20
30.910128125
30
0
0
VERTEX
8
0
10
40.21558125
20
31.22768125
30
0
42
0.198912367379658
0
VERTEX
8
0
10
40.1617
20
31.25
30
0
0
VERTEX
8
0
10
39.3508125
20
31.25
30
0
0
VERTEX
8
0
10
39.07515625
20
31.36418125
30
0
0
VERTEX
8
0
10
38.86418125
20
31.575156250000003
30
0
0
VERTEX
8
0
10
38.75
20
31.8508125
30
0
0
VERTEX
8
0
10
38.75
20
35.149184375000004
30
0
0
VERTEX
8
0
10
38.86418125
20
35.424840625
30
0
0
VERTEX
8
0
10
40.32515625
20
36.885815625
30
0
0
VERTEX
8
0
10
40.6008125
20
36.999996875
30
0
0
VERTEX
8
0
10
46.649181250000005
20
36.999996875
30
0
0
VERTEX
8
0
10
46.8946375
20
36.898321875
30
0
42
0.534518404757901
0
VERTEX
8
0
10
47
20
36.968721875
30
0
0
VERTEX
8
0
10
47
20
59.4238
30
0
42
0.41421356237309503
0
VERTEX
8
0
10
46.9238
20
59.5
30
0
0
VERTEX
8
0
10
0.576196875
20
59.5
30
0
42
0.41421356237309503
0
VERTEX
8
0
10
0.499996875
20
59.4238
30
0
0
VERTEX
8
0
10
0.499996875
20
0.576196875
30
0
42
0.41421356237309503
0
VERTEX
8
0
10
0.576196875
20
0.499996875
30
0
0
VERTEX
8
0
10
46.9238
20
0.499996875
30
0
42
0.41421356237309503
0
VERTEX
8
0
10
47
20
0.576196875
30
0
0
VERTEX
8
0
10
47
20
17.75538125
30
0
42
0.6681786379192989
0
VERTEX
8
0
10
46.869918750000004
20
17.8092625
30
0
0
VERTEX
8
0
10
43.990240625000006
20
14.92958125
30
0
42
0.3033528574063046
0
VERTEX
8
0
10
43.973721875
20
14.8465375
30
0
0
VERTEX
8
0
10
44.033996875
20
14.701025000000001
30
0
0
VERTEX
8
0
10
44.033996875
20
14.19896875
30
0
0
VERTEX
8
0
10
43.84186875
20
13.73513125
30
0
0
VERTEX
8
0
10
43.486865625
20
13.380128125
30
0
0
VERTEX
8
0
10
43.173665625000005
20
13.250396875
30
0
42
0.668189684777048
0
VERTEX
8
0
10
43.173665625000005
20
13.109596875000001
30
0
0
VERTEX
8
0
10
43.486865625
20
12.979868750000001
30
0
0
VERTEX
8
0
10
43.84186875
20
12.624865625
30
0
0
VERTEX
8
0
10
44.033996875
20
12.161028125000001
30
0
0
VERTEX
8
0
10
44.033996875
20
11.658968750000001
30
0
0
VERTEX
8
0
10
43.84186875
20
11.195131250000001
30
0
0
VERTEX
8
0
10
43.486865625
20
10.840128125
30
0
0
VERTEX
8
0
10
43.023028125
20
10.648
30
0
0
VERTEX
8
0
10
40.99696875
20
10.648
30
0
0
VERTEX
8
0
10
40.533131250000004
20
10.840128125
30
0
0
VERTEX
8
0
10
40.178128125
20
11.195131250000001
30
0
0
VERTEX
8
0
10
39.986000000000004
20
11.658968750000001
30
0
0
VERTEX
8
0
10
39.986000000000004
20
12.161028125000001
30
0
0
VERTEX
8
0
10
40.178128125
20
12.624865625
30
0
0
VERTEX
8
0
10
40.533131250000004
20
12.979868750000001
30
0
0
VERTEX
8
0
10
40.84633125
20
13.109596875000001
30
0
42
0.668189684777048
0
VERTEX
8
0
10
40.84633125
20
13.250396875
30
0
0
VERTEX
8
0
10
40.533131250000004
20
13.380128125
30
0
0
VERTEX
8
0
10
40.178128125
20
13.73513125
30
0
0
VERTEX
8
0
10
39.986000000000004
20
14.19896875
30
0
0
VERTEX
8
0
10
39.986000000000004
20
14.701028125
30
0
0
VERTEX
8
0
10
40.178128125
20
15.164865625000001
30
0
0
VERTEX
8
0
10
40.533131250000004
20
15.51986875
30
0
0
VERTEX
8
0
10
40.84633125
20
15.649596875
30
0
42
0.668189684777048
0
VERTEX
8
0
10
40.84633125
20
15.790396875
30
0
0
VERTEX
8
0
10
40.533131250000004
20
15.920128125000002
30
0
0
VERTEX
8
0
10
40.225581250000005
20
16.22768125
30
0
42
0.198912367379658
0
VERTEX
8
0
10
40.1717
20
16.25
30
0
0
VERTEX
8
0
10
38.1008125
20
16.25
30
0
0
VERTEX
8
0
10
37.82515625
20
16.36418125
30
0
0
VERTEX
8
0
10
37.6034625
20
16.585875
30
0
0
VERTEX
8
0
10
33.844078125
20
20.3452625
30
0
42
0.6681786379192989
0
VERTEX
8
0
10
33.713996875
20
20.29138125
30
0
0
VERTEX
8
0
10
33.713996875
20
20.150559375
30
0
0
VERTEX
8
0
10
33.5230875
20
19.6896625
30
0
0
VERTEX
8
0
10
33.170334375
20
19.336909375
30
0
0
VERTEX
8
0
10
32.840762500000004
20
19.200400000000002
30
0
42
0.668189684777048
0
VERTEX
8
0
10
32.840762500000004
20
19.0596
30
0
0
VERTEX
8
0
10
33.170334375
20
18.9230875
30
0
0
VERTEX
8
0
10
33.5230875
20
18.570334375
30
0
0
VERTEX
8
0
10
33.713996875
20
18.109437500000002
30
0
0
VERTEX
8
0
10
33.713996875
20
17.610559375
30
0
0
VERTEX
8
0
10
33.5230875
20
17.1496625
30
0
0
VERTEX
8
0
10
33.170334375
20
16.796909375000002
30
0
0
VERTEX
8
0
10
32.840762500000004
20
16.660396875
30
0
42
0.668189684777048
0
VERTEX
8
0
10
32.840762500000004
20
16.519596875
30
0
0
VERTEX
8
0
10
33.170334375
20
16.383087500000002
30
0
0
VERTEX
8
0
10
33.5230875
20
16.030334375000002
30
0
0
VERTEX
8
0
10
33.713996875
20
15.569437500000001
30
0
0
VERTEX
8
0
10
33.713996875
20
15.070559375
30
0
0
VERTEX
8
0
10
33.5230875
20
14.6096625
30
0
0
VERTEX
8
0
10
33.170334375
20
14.256909375000001
30
0
0
VERTEX
8
0
10
32.840762500000004
20
14.1204
30
0
42
0.668189684777048
0
VERTEX
8
0
10
32.840762500000004
20
13.979600000000001
30
0
0
VERTEX
8
0
10
33.170334375
20
13.843087500000001
30
0
0
VERTEX
8
0
10
33.5230875
20
13.490334375
30
0
0
VERTEX
8
0
10
33.713996875
20
13.0294375
30
0
0
VERTEX
8
0
10
33.713996875
20
12.530559375000001
30
0
0
VERTEX
8
0
10
33.5230875
20
12.0696625
30
0
0
VERTEX
8
0
10
33.170334375
20
11.716909375
30
0
0
VERTEX
8
0
10
32.840762500000004
20
11.580400000000001
30
0
42
0.668189684777048
0
VERTEX
8
0
10
32.840762500000004
20
11.4396
30
0
0
VERTEX
8
0
10
33.170334375
20
11.3030875
30
0
0
VERTEX
8
0
10
33.5230875
20
10.950334375
30
0
0
VERTEX
8
0
10
33.713996875
20
10.489437500000001
30
0
0
VERTEX
8
0
10
33.713996875
20
9.990559375
30
0
0
VERTEX
8
0
10
33.5230875
20
9.5296625
30
0
0
VERTEX
8
0
10
33.170334375
20
9.176909375000001
30
0
0
VERTEX
8
0
10
32.840762500000004
20
9.0404
30
0
42
0.668189684777048
0
VERTEX
8
0
10
32.840762500000004
20
8.899600000000001
30
0
0
VERTEX
8
0
10
33.170334375
20
8.763087500000001
30
0
0
VERTEX
8
0
10
33.5230875
20
8.410334375
30
0
0
VERTEX
8
0
10
33.713996875
20
7.9494375
30
0
0
VERTEX
8
0
10
33.713996875
20
7.450559375
30
0
0
VERTEX
8
0
10
33.5230875
20
6.9896625000000006
30
0
0
VERTEX
8
0
10
33.170334375
20
6.636909375
30
0
0
VERTEX
8
0
10
32.840762500000004
20
6.5004
30
0
42
0.668189684777048
0
VERTEX
8
0
10
32.840762500000004
20
6.3596
30
0
0
VERTEX
8
0
10
33.170334375
20
6.2230875
30
0
0
VERTEX
8
0
10
33.5230875
20
5.8703343750000005
30
0
0
VERTEX
8
0
10
33.713996875
20
5.4094375
30
0
0
VERTEX
8
0
10
33.713996875
20
4.910559375
30
0
0
VERTEX
8
0
10
33.5230875
20
4.4496625000000005
30
0
0
VERTEX
8
0
10
33.170334375
20
4.096909375
30
0
0
VERTEX
8
0
10
32.93418125
20
3.99909375
30
0
42
0.668189684777048
0
VERTEX
8
0
10
32.93418125
20
3.85829375
30
0
0
VERTEX
8
0
10
33.210834375000005
20
3.7437
30
0
0
VERTEX
8
0
10
33.5837
20
3.3708343750000003
30
0
0
VERTEX
8
0
10
33.785496875
20
2.883659375
30
0
0
VERTEX
8
0
10
33.785496875
20
2.3563375
30
0
0
VERTEX
8
0
10
33.5837
20
1.8691625
30
0
0
VERTEX
8
0
10
33.210834375000005
20
1.496296875
30
0
0
VERTEX
8
0
10
32.723659375000004
20
1.2945
30
0
0
VERTEX
8
0
10
32.1963375
20
1.2945
30
0
0
VERTEX
8
0
10
31.7091625
20
1.496296875
30
0
0
VERTEX
8
0
10
31.336296875000002
20
1.8691625
30
0
0
VERTEX
8
0
10
31.134500000000003
20
2.3563375
30
0
0
VERTEX
8
0
10
31.134500000000003
20
2.883659375
30
0
0
VERTEX
8
0
10
31.336296875000002
20
3.3708343750000003
30
0
0
VERTEX
8
0
10
31.7091625
20
3.7437
30
0
0
VERTEX
8
0
10
31.985815625
20
3.85829375
30
0
42
0.668189684777048
0
VERTEX
8
0
10
31.985815625
20
3.99909375
30
0
0
VERTEX
8
0
10
31.749662500000003
20
4.096909375
30
0
0
VERTEX
8
0
10
31.396909375
20
4.4496625000000005
30
0
0
VERTEX
8
0
10
31.206000000000003
20
4.910559375
30
0
0
VERTEX
8
0
10
31.206000000000003
20
5.4094375
30
0
0
VERTEX
8
0
10
31.396909375
20
5.8703343750000005
30
0
0
VERTEX
8
0
10
31.749662500000003
20
6.2230875
30
0
0
VERTEX
8
0
10
32.079234375
20
6.3596
30
0
42
0.668189684777048
0
VERTEX
8
0
10
32.079234375
20
6.5004
30
0
0
VERTEX
8
0
10
31.749662500000003
20
6.636909375
30
0
0
VERTEX
8
0
10
31.396909375
20
6.9896625000000006
30
0
0
VERTEX
8
0
10
31.206000000000003
20
7.450559375
30
0
0
VERTEX
8
0
10
31.206000000000003
20
7.9494375
30
0
0
VERTEX
8
0
10
31.396909375
20
8.410334375
30
0
0
VERTEX
8
0
10
31.749662500000003
20
8.763087500000001
30
0
0
VERTEX
8
0
10
32.079234375
20
8.899600000000001
30
0
42
0.668189684777048
0
VERTEX
8
0
10
32.079234375
20
9.0404
30
0
0
VERTEX
8
0
10
31.749662500000003
20
9.176909375000001
30
0
0
VERTEX
8
0
10
31.396909375
20
9.5296625
30
0
0
VERTEX
8
0
10
31.206000000000003
20
9.990559375
30
0
0
VERTEX
8
0
10
31.206000000000003
20
10.489437500000001
30
0
0
VERTEX
8
0
10
31.396909375
20
10.950334375
30
0
0
VERTEX
8
0
10
31.749662500000003
20
11.3030875
30
0
0
VERTEX
8
0
10
32.079234375
20
11.4396
30
0
42
0.668189684777048
0
VERTEX
8
0
10
32.079234375
20
11.580400000000001
30
0
0
VERTEX
8
0
10
31.749662500000003
20
11.716909375
30
0
0
VERTEX
8
0
10
31.396909375
20
12.0696625
30
0
0
VERTEX
8
0
10
31.206000000000003
20
12.530559375000001
30
0
0
VERTEX
8
0
10
31.206000000000003
20
13.0294375
30
0
0
VERTEX
8
0
10
31.396909375
20
13.490334375
30
0
0
VERTEX
8
0
10
31.749662500000003
20
13.843087500000001
30
0
0
VERTEX
8
0
10
32.079234375
20
13.979600000000001
30
0
42
0.668189684777048
0
VERTEX
8
0
10
32.079234375
20
14.1204
30
0
0
VERTEX
8
0
10
31.749662500000003
20
14.256909375000001
30
0
0
VERTEX
8
0
10
31.396909375
20
14.6096625
30
0
0
VERTEX
8
0
10
31.206000000000003
20
15.070559375
30
0
0
VERTEX
8
0
10
31.206000000000003
20
15.569437500000001
30
0
0
VERTEX
8
0
10
31.396909375
20
16.030334375000002
30
0
0
VERTEX
8
0
10
31.749662500000003
20
16.383087500000002
30
0
0
VERTEX
8
0
10
32.079234375
20
16.519596875
30
0
42
0.668189684777048
0
VERTEX
8
0
10
32.079234375
20
16.660396875
30
0
0
VERTEX
8
0
10
31.749662500000003
20
16.796909375000002
30
0
0
VERTEX
8
0
10
31.396909375
20
17.1496625
30
0
0
VERTEX
8
0
10
31.206000000000003
20
17.610559375
30
0
0
VERTEX
8
0
10
31.206000000000003
20
18.109437500000002
30
0
0
VERTEX
8
0
10
31.396909375
20
18.570334375
30
0
0
VERTEX
8
0
10
31.749662500000003
20
18.9230875
30
0
0
VERTEX
8
0
10
32.079234375
20
19.0596
30
0
42
0.668189684777048
0
VERTEX
8
0
10
32.079234375
20
19.200400000000002
30
0
0
VERTEX
8
0
10
31.749662500000003
20
19.336909375
30
0
0
VERTEX
8
0
10
31.396909375
20
19.6896625
30
0
0
VERTEX
8
0
10
31.206000000000003
20
20.150559375
30
0
0
VERTEX
8
0
10
31.206000000000003
20
20.6494375
30
0
0
VERTEX
8
0
10
31.396909375
20
21.110334375
30
0
0
VERTEX
8
0
10
31.749662500000003
20
21.4630875
30
0
0
VERTEX
8
0
10
32.079234375
20
21.599600000000002
30
0
42
0.668189684777048
0
VERTEX
8
0
10
32.079234375
20
21.7404
30
0
0
VERTEX
8
0
10
31.749662500000003
20
21.876909375
30
0
0
VERTEX
8
0
10
31.396909375
20
22.2296625
30
0
0
VERTEX
8
0
10
31.206000000000003
20
22.690559375
30
0
0
VERTEX
8
0
10
31.206000000000003
20
23.1894375
30
0
0
VERTEX
8
0
10
31.396909375
20
23.650334375
30
0
0
VERTEX
8
0
10
31.749662500000003
20
24.0030875
30
0
0
VERTEX
8
0
10
32.079234375
20
24.139596875000002
30
0
42
0.668189684777048
0
VERTEX
8
0
10
32.079234375
20
24.280396875
30
0
0
VERTEX
8
0
10
31.749662500000003
20
24.416909375
30
0
0
VERTEX
8
0
10
31.396909375
20
24.769662500000003
30
0
0
VERTEX
8
0
10
31.206000000000003
20
25.230559375000002
30
0
0
VERTEX
8
0
10
31.206000000000003
20
25.7294375
30
0
0
VERTEX
8
0
10
31.396909375
20
26.190334375000003
30
0
0
VERTEX
8
0
10
31.749662500000003
20
26.543087500000002
30
0
0
VERTEX
8
0
10
32.079234375
20
26.6796
30
0
42
0.668189684777048
0
VERTEX
8
0
10
32.079234375
20
26.820400000000003
30
0
0
VERTEX
8
0
10
31.749662500000003
20
26.956909375000002
30
0
0
VERTEX
8
0
10
31.396909375
20
27.3096625
30
0
0
VERTEX
8
0
10
31.206000000000003
20
27.770559375
30
0
0
VERTEX
8
0
10
31.206000000000003
20
28.269437500000002
30
0
0
VERTEX
8
0
10
31.396909375
20
28.730334375
30
0
0
VERTEX
8
0
10
31.749662500000003
20
29.0830875
30
0
0
VERTEX
8
0
10
32.079234375
20
29.2196
30
0
42
0.668189684777048
0
VERTEX
8
0
10
32.079234375
20
29.360400000000002
30
0
0
VERTEX
8
0
10
31.749662500000003
20
29.496909375
30
0
0
VERTEX
8
0
10
31.396909375
20
29.8496625
30
0
0
VERTEX
8
0
10
31.206000000000003
20
30.310559375
30
0
0
VERTEX
8
0
10
31.206000000000003
20
30.8094375
30
0
0
VERTEX
8
0
10
31.396909375
20
31.270334375
30
0
0
VERTEX
8
0
10
31.749662500000003
20
31.6230875
30
0
0
VERTEX
8
0
10
32.079234375
20
31.759600000000002
30
0
42
0.668189684777048
0
VERTEX
8
0
10
32.079234375
20
31.9004
30
0
0
VERTEX
8
0
10
31.749662500000003
20
32.036909375
30
0
0
VERTEX
8
0
10
31.396909375
20
32.3896625
30
0
0
VERTEX
8
0
10
31.206000000000003
20
32.850559375
30
0
0
VERTEX
8
0
10
31.206000000000003
20
33.3494375
30
0
0
VERTEX
8
0
10
31.396909375
20
33.810334375000004
30
0
0
VERTEX
8
0
10
31.749662500000003
20
34.1630875
30
0
0
VERTEX
8
0
10
32.079234375
20
34.299600000000005
30
0
42
0.668189684777048
0
VERTEX
8
0
10
32.079234375
20
34.440400000000004
30
0
0
VERTEX
8
0
10
31.749662500000003
20
34.576909375
30
0
0
VERTEX
8
0
10
31.396909375
20
34.9296625
30
0
0
VERTEX
8
0
10
31.206000000000003
20
35.390559375
30
0
0
VERTEX
8
0
10
31.206000000000003
20
35.8894375
30
0
0
VERTEX
8
0
10
31.396909375
20
36.350334375
30
0
0
VERTEX
8
0
10
31.749662500000003
20
36.7030875
30
0
0
VERTEX
8
0
10
32.210559375
20
36.893996875
30
0
0
VERTEX
8
0
10
32.7094375
20
36.893996875
30
0
0
VERTEX
8
0
10
33.170334375
20
36.7030875
30
0
0
VERTEX
8
0
10
33.5230875
20
36.350334375
30
0
0
VERTEX
8
0
10
33.713996875
20
35.8894375
30
0
0
VERTEX
8
0
10
33.713996875
20
35.390559375
30
0
0
VERTEX
8
0
10
33.5230875
20
34.9296625
30
0
0
VERTEX
8
0
10
33.170334375
20
34.576909375
30
0
0
VERTEX
8
0
10
32.840762500000004
20
34.440400000000004
30
0
42
0.668189684777048
0
VERTEX
8
0
10
32.840762500000004
20
34.299600000000005
30
0
0
VERTEX
8
0
10
33.170334375
20
34.1630875
30
0
0
VERTEX
8
0
10
33.5230875
20
33.810334375000004
30
0
0
VERTEX
8
0
10
33.713996875
20
33.3494375
30
0
0
VERTEX
8
0
10
33.713996875
20
32.878221875
30
0
42
0.198912367379658
0
VERTEX
8
0
10
33.736315625
20
32.824340625000005
30
0
0
VERTEX
8
0
10
36.288340625000004
20
30.272315625
30
0
42
0.198912367379658
0
VERTEX
8
0
10
36.342221875
20
30.249996875
30
0
0
VERTEX
8
0
10
40.2417
20
30.249996875
30
0
0
VERTEX
8
0
10
40.250109375
20
30.251209375000002
30
0
0
SEQEND
0
POLYLINE
66
1
8
1_copper
10
0.0
20
0.0
30
0.0
70
1
0
VERTEX
8
0
10
2.701628125
20
55.5
30
0
0
VERTEX
8
0
10
2.150315625
20
55.7283625
30
0
0
VERTEX
8
0
10
1.7283625
20
56.150315625000005
30
0
0
VERTEX
8
0
10
1.5
20
56.701628125000006
30
0
0
VERTEX
8
0
10
1.5
20
57.29836875
30
0
0
VERTEX
8
0
10
1.7283625
20
57.84968125
30
0
0
VERTEX
8
0
10
2.150315625
20
58.271634375000005
30
0
0
VERTEX
8
0
10
2.701628125
20
58.499996875
30
0
0
VERTEX
8
0
10
3.2983687500000003
20
58.499996875
30
0
0
VERTEX
8
0
10
3.84968125
20
58.271634375000005
30
0
0
VERTEX
8
0
10
4.2716343750000005
20
57.84968125
30
0
0
VERTEX
8
0
10
4.499996875
20
57.29836875
30
0
0
VERTEX
8
0
10
4.499996875
20
56.701628125000006
30
0
0
VERTEX
8
0
10
4.2716343750000005
20
56.150315625000005
30
0
0
VERTEX
8
0
10
3.84968125
20
55.7283625
30
0
0
VERTEX
8
0
10
3.2983687500000003
20
55.5
30
0
0
SEQEND
0
POLYLINE
66
1
8
1_copper
10
0.0
20
0.0
30
0.0
70
1
0
VERTEX
8
0
10
44.201628125
20
55.5
30
0
0
VERTEX
8
0
10
43.650315625000005
20
55.7283625
30
0
0
VERTEX
8
0
10
43.2283625
20
56.150315625000005
30
0
0
VERTEX
8
0
10
43
20
56.701628125000006
30
0
0
VERTEX
8
0
10
43
20
57.29836875
30
0
0
VERTEX
8
0
10
43.2283625
20
57.84968125
30
0
0
VERTEX
8
0
10
43.650315625000005
20
58.271634375000005
30
0
0
VERTEX
8
0
10
44.201628125
20
58.499996875
30
0
0
VERTEX
8
0
10
44.79836875
20
58.499996875
30
0
0
VERTEX
8
0
10
45.34968125
20
58.271634375000005
30
0
0
VERTEX
8
0
10
45.771634375000005
20
57.84968125
30
0
0
VERTEX
8
0
10
45.999996875
20
57.29836875
30
0
0
VERTEX
8
0
10
45.999996875
20
56.701628125000006
30
0
0
VERTEX
8
0
10
45.771634375000005
20
56.150315625000005
30
0
0
VERTEX
8
0
10
45.34968125
20
55.7283625
30
0
0
VERTEX
8
0
10
44.79836875
20
55.5
30
0
0
SEQEND
0
POLYLINE
66
1
8
1_copper
10
0.0
20
0.0
30
0.0
70
1
0
VERTEX
8
0
10
35.68896875
20
53.646
30
0
0
VERTEX
8
0
10
35.225131250000004
20
53.838128125000004
30
0
0
VERTEX
8
0
10
34.870128125
20
54.19313125
30
0
0
VERTEX
8
0
10
34.678000000000004
20
54.656968750000004
30
0
0
VERTEX
8
0
10
34.678000000000004
20
56.683028125
30
0
0
VERTEX
8
0
10
34.870128125
20
57.146865625000004
30
0
0
VERTEX
8
0
10
35.225131250000004
20
57.50186875
30
0
0
VERTEX
8
0
10
35.68896875
20
57.693996875
30
0
0
VERTEX
8
0
10
36.191028125
20
57.693996875
30
0
0
VERTEX
8
0
10
36.654865625
20
57.50186875
30
0
0
VERTEX
8
0
10
37.00986875
20
57.146865625000004
30
0
0
VERTEX
8
0
10
37.201996875
20
56.683028125
30
0
0
VERTEX
8
0
10
37.201996875
20
54.656968750000004
30
0
0
VERTEX
8
0
10
37.00986875
20
54.19313125
30
0
0
VERTEX
8
0
10
36.654865625
20
53.838128125000004
30
0
0
VERTEX
8
0
10
36.191028125
20
53.646
30
0
0
SEQEND
0
POLYLINE
66
1
8
1_copper
10
0.0
20
0.0
30
0.0
70
1
0
VERTEX
8
0
10
10.94739375
20
54.794565625000004
30
0
42
0.21535762871826358
0
VERTEX
8
0
10
11.006078125
20
54.816734375
30
0
0
VERTEX
8
0
10
11.11568125
20
54.926340625
30
0
42
0.198912367379658
0
VERTEX
8
0
10
11.138
20
54.980221875000005
30
0
0
VERTEX
8
0
10
11.138
20
56.653028125000006
30
0
0
VERTEX
8
0
10
11.330128125
20
57.116865625
30
0
0
VERTEX
8
0
10
11.685131250000001
20
57.471868750000006
30
0
0
VERTEX
8
0
10
12.14896875
20
57.663996875
30
0
0
VERTEX
8
0
10
12.651028125
20
57.663996875
30
0
0
VERTEX
8
0
10
13.114865625
20
57.471868750000006
30
0
0
VERTEX
8
0
10
13.46986875
20
57.116865625
30
0
0
VERTEX
8
0
10
13.661996875
20
56.653028125000006
30
0
0
VERTEX
8
0
10
13.661996875
20
54.62696875
30
0
0
VERTEX
8
0
10
13.46986875
20
54.16313125
30
0
0
VERTEX
8
0
10
13.114865625
20
53.808128125
30
0
0
VERTEX
8
0
10
12.651028125
20
53.616
30
0
0
VERTEX
8
0
10
12.148971875
20
53.616
30
0
0
VERTEX
8
0
10
12.0388125
20
53.66163125
30
0
42
0.3033528574063046
0
VERTEX
8
0
10
11.95576875
20
53.6451125
30
0
0
VERTEX
8
0
10
11.272315625000001
20
52.961656250000004
30
0
42
0.198912367379658
0
VERTEX
8
0
10
11.249996875
20
52.907775
30
0
0
VERTEX
8
0
10
11.249996875
20
49.067109375
30
0
42
0.6681786379192989
0
VERTEX
8
0
10
11.380078125
20
49.013228125000005
30
0
0
VERTEX
8
0
10
11.711243750000001
20
49.344396875
30
0
0
VERTEX
8
0
10
11.9376
20
49.344396875
30
0
0
VERTEX
8
0
10
11.9376
20
49.0904
30
0
0
VERTEX
8
0
10
11.81645625
20
49.0904
30
0
0
VERTEX
8
0
10
11.4296
20
48.70354375
30
0
0
VERTEX
8
0
10
11.4296
20
48.156456250000005
30
0
0
VERTEX
8
0
10
11.81645625
20
47.769600000000004
30
0
0
VERTEX
8
0
10
11.9376
20
47.769600000000004
30
0
0
VERTEX
8
0
10
11.9376
20
47.5156
30
0
0
VERTEX
8
0
10
11.711243750000001
20
47.5156
30
0
0
VERTEX
8
0
10
11.380078125
20
47.84676875
30
0
42
0.6681786379192989
0
VERTEX
8
0
10
11.249996875
20
47.7928875
30
0
0
VERTEX
8
0
10
11.249996875
20
42.592221875
30
0
42
0.198912367379658
0
VERTEX
8
0
10
11.272315625000001
20
42.538340625000004
30
0
0
VERTEX
8
0
10
15.835918750000001
20
37.974734375000004
30
0
42
0.6681786379192989
0
VERTEX
8
0
10
15.966000000000001
20
38.028615625
30
0
0
VERTEX
8
0
10
15.966000000000001
20
38.4294375
30
0
0
VERTEX
8
0
10
16.156909375
20
38.890334375
30
0
0
VERTEX
8
0
10
16.5096625
20
39.2430875
30
0
0
VERTEX
8
0
10
16.693903125000002
20
39.3194
30
0
42
0.8206851812565762
0
VERTEX
8
0
10
16.66474375
20
39.466
30
0
0
VERTEX
8
0
10
16.258890625
20
39.466
30
0
0
VERTEX
8
0
10
15.966000000000001
20
39.758890625
30
0
0
VERTEX
8
0
10
15.966000000000001
20
41.68110625
30
0
0
VERTEX
8
0
10
16.258890625
20
41.973996875000005
30
0
0
VERTEX
8
0
10
16.477909375
20
41.973996875000005
30
0
42
0.7522435668278856
0
VERTEX
8
0
10
16.51850625
20
42.114684375
30
0
0
VERTEX
8
0
10
16.512909375
20
42.117171875000004
30
0
42
0.12557799932302868
0
VERTEX
8
0
10
16.4691625
20
42.136296875
30
0
0
VERTEX
8
0
10
16.096296875
20
42.5091625
30
0
0
VERTEX
8
0
10
15.8945
20
42.9963375
30
0
0
VERTEX
8
0
10
15.8945
20
43.523659375
30
0
0
VERTEX
8
0
10
16.096296875
20
44.010834375
30
0
0
VERTEX
8
0
10
16.4691625
20
44.383700000000005
30
0
0
VERTEX
8
0
10
16.9563375
20
44.585496875000004
30
0
0
VERTEX
8
0
10
17.483659375000002
20
44.585496875000004
30
0
0
VERTEX
8
0
10
17.970834375000003
20
44.383700000000005
30
0
0
VERTEX
8
0
10
18.343700000000002
20
44.010834375
30
0
0
VERTEX
8
0
10
18.545496875
20
43.523659375
30
0
0
VERTEX
8
0
10
18.545496875
20
42.9963375
30
0
0
VERTEX
8
0
10
18.343700000000002
20
42.5091625
30
0
0
VERTEX
8
0
10
17.970834375000003
20
42.136296875
30
0
42
0.9666081614835619
0
VERTEX
8
0
10
17.949259375
20
41.975084375
30
0
0
VERTEX
8
0
10
17.955381250000002
20
41.974925
30
0
0
VERTEX
8
0
10
17.9620875
20
41.973996875000005
30
0
0
VERTEX
8
0
10
18.18110625
20
41.973996875000005
30
0
0
VERTEX
8
0
10
18.473996875
20
41.68110625
30
0
0
VERTEX
8
0
10
18.473996875
20
39.758890625
30
0
0
VERTEX
8
0
10
18.18110625
20
39.466
30
0
0
VERTEX
8
0
10
17.775253125000003
20
39.466
30
0
42
0.8206851812565762
0
VERTEX
8
0
10
17.74609375
20
39.3194
30
0
0
VERTEX
8
0
10
17.930334375
20
39.2430875
30
0
0
VERTEX
8
0
10
18.2830875
20
38.890334375
30
0
0
VERTEX
8
0
10
18.473996875
20
38.4294375
30
0
0
VERTEX
8
0
10
18.473996875
20
37.930559375
30
0
0
VERTEX
8
0
10
18.2830875
20
37.4696625
30
0
0
VERTEX
8
0
10
17.930334375
20
37.116909375
30
0
0
VERTEX
8
0
10
17.600765625
20
36.9804
30
0
42
0.668189684777048
0
VERTEX
8
0
10
17.600765625
20
36.839600000000004
30
0
0
VERTEX
8
0
10
17.930334375
20
36.7030875
30
0
0
VERTEX
8
0
10
18.2830875
20
36.350334375
30
0
0
VERTEX
8
0
10
18.473996875
20
35.8894375
30
0
0
VERTEX
8
0
10
18.473996875
20
35.390559375
30
0
0
VERTEX
8
0
10
18.2830875
20
34.9296625
30
0
0
VERTEX
8
0
10
17.930334375
20
34.576909375
30
0
0
VERTEX
8
0
10
17.4694375
20
34.386
30
0
0
VERTEX
8
0
10
16.970559375
20
34.386
30
0
0
VERTEX
8
0
10
16.5096625
20
34.576909375
30
0
0
VERTEX
8
0
10
16.156909375
20
34.9296625
30
0
0
VERTEX
8
0
10
15.966000000000001
20
35.390559375
30
0
0
VERTEX
8
0
10
15.966000000000001
20
35.691775
30
0
42
0.198912367379658
0
VERTEX
8
0
10
15.943681250000001
20
35.74565625
30
0
0
VERTEX
8
0
10
14.720478125000001
20
36.9688625
30
0
42
0.6681786379192989
0
VERTEX
8
0
10
14.590396875000001
20
36.914981250000004
30
0
0
VERTEX
8
0
10
14.590396875000001
20
36.269346875000004
30
0
0
VERTEX
8
0
10
13.91065
20
35.589600000000004
30
0
0
VERTEX
8
0
10
13.181821875
20
35.589600000000004
30
0
42
0.198912367379658
0
VERTEX
8
0
10
13.127940625
20
35.56728125
30
0
0
VERTEX
8
0
10
8.627575
20
31.066918750000003
30
0
42
0.41421356237309503
0
VERTEX
8
0
10
8.627575
20
30.959156250000003
30
0
0
VERTEX
8
0
10
8.691868750000001
20
30.894865625
30
0
0
VERTEX
8
0
10
8.883996875000001
20
30.431028125
30
0
0
VERTEX
8
0
10
8.883996875000001
20
29.928968750000003
30
0
0
VERTEX
8
0
10
8.691868750000001
20
29.465131250000002
30
0
0
VERTEX
8
0
10
8.336865625
20
29.110128125000003
30
0
0
VERTEX
8
0
10
8.023665625
20
28.980396875
30
0
42
0.668189684777048
0
VERTEX
8
0
10
8.023665625
20
28.839596875
30
0
0
VERTEX
8
0
10
8.336865625
20
28.709868750000002
30
0
0
VERTEX
8
0
10
8.691868750000001
20
28.354865625000002
30
0
42
0.5035007495243972
0
VERTEX
8
0
10
8.786221875
20
28.249996875
30
0
0
VERTEX
8
0
10
11.149184375
20
28.249996875
30
0
0
VERTEX
8
0
10
11.424840625
20
28.135815625000003
30
0
0
VERTEX
8
0
10
12.967940625
20
26.592715625
30
0
42
0.198912367379658
0
VERTEX
8
0
10
13.021821875
20
26.570396875
30
0
0
VERTEX
8
0
10
13.700650000000001
20
26.570396875
30
0
0
VERTEX
8
0
10
14.380396875
20
25.89065
30
0
0
VERTEX
8
0
10
14.380396875
20
24.929346875
30
0
0
VERTEX
8
0
10
13.700650000000001
20
24.2496
30
0
0
VERTEX
8
0
10
12.739346875
20
24.2496
30
0
0
VERTEX
8
0
10
12.059600000000001
20
24.929346875
30
0
0
VERTEX
8
0
10
12.059600000000001
20
25.348175
30
0
42
0.198912367379658
0
VERTEX
8
0
10
12.037281250000001
20
25.40205625
30
0
0
VERTEX
8
0
10
10.71165625
20
26.72768125
30
0
42
0.198912367379658
0
VERTEX
8
0
10
10.657775
20
26.75
30
0
0
VERTEX
8
0
10
8.548300000000001
20
26.75
30
0
42
0.198912367379658
0
VERTEX
8
0
10
8.494418750000001
20
26.72768125
30
0
0
VERTEX
8
0
10
8.336865625
20
26.570128125
30
0
0
VERTEX
8
0
10
7.873028125
20
26.378
30
0
0
VERTEX
8
0
10
5.84696875
20
26.378
30
0
0
VERTEX
8
0
10
5.38313125
20
26.570128125
30
0
0
VERTEX
8
0
10
5.028128125
20
26.92513125
30
0
0
VERTEX
8
0
10
4.836
20
27.38896875
30
0
0
VERTEX
8
0
10
4.836
20
27.891028125000002
30
0
0
VERTEX
8
0
10
5.028128125
20
28.354865625000002
30
0
0
VERTEX
8
0
10
5.38313125
20
28.709868750000002
30
0
0
VERTEX
8
0
10
5.69633125
20
28.839596875
30
0
42
0.668189684777048
0
VERTEX
8
0
10
5.69633125
20
28.980396875
30
0
0
VERTEX
8
0
10
5.38313125
20
29.110128125000003
30
0
0
VERTEX
8
0
10
5.028128125
20
29.465131250000002
30
0
0
VERTEX
8
0
10
4.836
20
29.928968750000003
30
0
0
VERTEX
8
0
10
4.836
20
30.431028125
30
0
0
VERTEX
8
0
10
5.028128125
20
30.894865625
30
0
0
VERTEX
8
0
10
5.38313125
20
31.24986875
30
0
0
VERTEX
8
0
10
5.84696875
20
31.441996875
30
0
0
VERTEX
8
0
10
6.849775
20
31.441996875
30
0
42
0.198912367379658
0
VERTEX
8
0
10
6.90365625
20
31.464315625
30
0
0
VERTEX
8
0
10
12.24728125
20
36.807940625
30
0
42
0.198912367379658
0
VERTEX
8
0
10
12.2696
20
36.861821875000004
30
0
0
VERTEX
8
0
10
12.2696
20
37.230650000000004
30
0
0
VERTEX
8
0
10
12.949346875
20
37.910396875
30
0
0
VERTEX
8
0
10
13.59498125
20
37.910396875
30
0
42
0.6681786379192989
0
VERTEX
8
0
10
13.6488625
20
38.040478125
30
0
0
VERTEX
8
0
10
10.085875
20
41.6034625
30
0
0
VERTEX
8
0
10
9.86418125
20
41.82515625
30
0
0
VERTEX
8
0
10
9.75
20
42.1008125
30
0
0
VERTEX
8
0
10
9.75
20
53.399184375000004
30
0
0
VERTEX
8
0
10
9.86418125
20
53.674840625
30
0
0
VERTEX
8
0
10
9.990075000000001
20
53.800734375000005
30
0
42
0.198912367379658
0
VERTEX
8
0
10
10.012393750000001
20
53.854615625
30
0
0
VERTEX
8
0
10
10.012393750000001
20
54.131384375
30
0
42
0.3426260879834854
0
VERTEX
8
0
10
10.622
20
54.840565625
30
0
0
VERTEX
8
0
10
10.622
20
55.4876
30
0
0
VERTEX
8
0
10
10.875993750000001
20
55.4876
30
0
0
VERTEX
8
0
10
10.875996875
20
54.870615625
30
0
0
VERTEX
8
0
10
10.87640625
20
54.867787500000006
30
0
0
VERTEX
8
0
10
10.876209375
20
54.864940625
30
0
0
VERTEX
8
0
10
10.877953125000001
20
54.857059375000006
30
0
0
VERTEX
8
0
10
10.879106250000001
20
54.849071875
30
0
0
VERTEX
8
0
10
10.88029375
20
54.846481250000004
30
0
0
VERTEX
8
0
10
10.8809125
20
54.8436875
30
0
0
VERTEX
8
0
10
10.8848125
20
54.836625000000005
30
0
0
VERTEX
8
0
10
10.888178125000001
20
54.829284375
30
0
0
VERTEX
8
0
10
10.890059375
20
54.827125
30
0
0
VERTEX
8
0
10
10.891434375000001
20
54.824634375
30
0
0
VERTEX
8
0
10
10.897159375000001
20
54.818975
30
0
0
VERTEX
8
0
10
10.902475
20
54.812871875000006
30
0
0
VERTEX
8
0
10
10.904884375
20
54.811334375
30
0
0
VERTEX
8
0
10
10.9069125
20
54.80933125
30
0
0
VERTEX
8
0
10
10.91403125
20
54.80550625
30
0
0
VERTEX
8
0
10
10.92083125
20
54.801171875
30
0
0
VERTEX
8
0
10
10.923568750000001
20
54.80038125
30
0
0
VERTEX
8
0
10
10.926087500000001
20
54.799028125
30
0
0
VERTEX
8
0
10
10.9339875
20
54.797371875
30
0
0
VERTEX
8
0
10
10.94174375
20
54.795134375
30
0
0
VERTEX
8
0
10
10.944600000000001
20
54.79515
30
0
0
SEQEND
0
POLYLINE
66
1
8
1_copper
10
0.0
20
0.0
30
0.0
70
1
0
VERTEX
8
0
10
37.464
20
55.82239375
30
0
0
VERTEX
8
0
10
37.464
20
56.511953125000005
30
0
0
VERTEX
8
0
10
37.48901875
20
56.669909375
30
0
0
VERTEX
8
0
10
37.538440625
20
56.822021875000004
30
0
0
VERTEX
8
0
10
37.6110375
20
56.9645
30
0
0
VERTEX
8
0
10
37.705034375000004
20
57.093875000000004
30
0
0
VERTEX
8
0
10
37.818121875
20
57.2069625
30
0
0
VERTEX
8
0
10
37.947496875
20
57.300959375000005
30
0
0
VERTEX
8
0
10
38.089975
20
57.37355625
30
0
0
VERTEX
8
0
10
38.242087500000004
20
57.422978125
30
0
0
VERTEX
8
0
10
38.327600000000004
20
57.436521875000004
30
0
0
VERTEX
8
0
10
38.327600000000004
20
57.178615625000006
30
0
42
0.34262384306321253
0
VERTEX
8
0
10
37.718
20
56.469434375000006
30
0
0
VERTEX
8
0
10
37.718
20
55.82239375
30
0
0
SEQEND
0
POLYLINE
66
1
8
1_copper
10
0.0
20
0.0
30
0.0
70
1
0
VERTEX
8
0
10
39.242000000000004
20
55.82239375
30
0
0
VERTEX
8
0
10
39.242000000000004
20
56.469434375000006
30
0
42
0.3426260879834854
0
VERTEX
8
0
10
38.63239375
20
57.178615625000006
30
0
0
VERTEX
8
0
10
38.63239375
20
57.436521875000004
30
0
0
VERTEX
8
0
10
38.717909375000005
20
57.422978125
30
0
0
VERTEX
8
0
10
38.870021875
20
57.37355625
30
0
0
VERTEX
8
0
10
39.0125
20
57.300959375000005
30
0
0
VERTEX
8
0
10
39.141875
20
57.2069625
30
0
0
VERTEX
8
0
10
39.254962500000005
20
57.093875000000004
30
0
0
VERTEX
8
0
10
39.348959375
20
56.9645
30
0
0
VERTEX
8
0
10
39.42155625
20
56.822021875000004
30
0
0
VERTEX
8
0
10
39.470978125
20
56.669909375
30
0
0
VERTEX
8
0
10
39.495996875
20
56.511953125000005
30
0
0
VERTEX
8
0
10
39.495996875
20
55.82239375
30
0
0
SEQEND
0
POLYLINE
66
1
8
1_copper
10
0.0
20
0.0
30
0.0
70
1
0
VERTEX
8
0
10
8.844000000000001
20
55.79239375
30
0
0
VERTEX
8
0
10
8.844000000000001
20
56.481953125000004
30
0
0
VERTEX
8
0
10
8.86901875
20
56.639909375
30
0
0
VERTEX
8
0
10
8.918440625
20
56.792021875
30
0
0
VERTEX
8
0
10
8.991037500000001
20
56.9345
30
0
0
VERTEX
8
0
10
9.085034375000001
20
57.063875
30
0
0
VERTEX
8
0
10
9.198121875
20
57.1769625
30
0
0
VERTEX
8
0
10
9.327496875
20
57.270959375000004
30
0
0
VERTEX
8
0
10
9.469975
20
57.343556250000006
30
0
0
VERTEX
8
0
10
9.622087500000001
20
57.392978125000006
30
0
0
VERTEX
8
0
10
9.707600000000001
20
57.406521875
30
0
0
VERTEX
8
0
10
9.707600000000001
20
57.148615625000005
30
0
42
0.34262384306321253
0
VERTEX
8
0
10
9.098
20
56.439434375000005
30
0
0
VERTEX
8
0
10
9.098
20
55.79239375
30
0
0
SEQEND
0
POLYLINE
66
1
8
1_copper
10
0.0
20
0.0
30
0.0
70
1
0
VERTEX
8
0
10
10.622
20
55.79239375
30
0
0
VERTEX
8
0
10
10.622
20
56.439434375000005
30
0
42
0.3426260879834854
0
VERTEX
8
0
10
10.012393750000001
20
57.148615625000005
30
0
0
VERTEX
8
0
10
10.012393750000001
20
57.406521875
30
0
0
VERTEX
8
0
10
10.097909375
20
57.392978125000006
30
0
0
VERTEX
8
0
10
10.250021875
20
57.343556250000006
30
0
0
VERTEX
8
0
10
10.3925
20
57.270959375000004
30
0
0
VERTEX
8
0
10
10.521875
20
57.1769625
30
0
0
VERTEX
8
0
10
10.6349625
20
57.063875
30
0
0
VERTEX
8
0
10
10.728959375
20
56.9345
30
0
0
VERTEX
8
0
10
10.80155625
20
56.792021875
30
0
0
VERTEX
8
0
10
10.850978125000001
20
56.639909375
30
0
0
VERTEX
8
0
10
10.875996875
20
56.481953125000004
30
0
0
VERTEX
8
0
10
10.875996875
20
55.79239375
30
0
0
SEQEND
0
POLYLINE
66
1
8
1_copper
10
0.0
20
0.0
30
0.0
70
1
0
VERTEX
8
0
10
38.242087500000004
20
53.917018750000004
30
0
0
VERTEX
8
0
10
38.089975
20
53.966440625000004
30
0
0
VERTEX
8
0
10
37.947496875
20
54.0390375
30
0
0
VERTEX
8
0
10
37.818121875
20
54.133034375
30
0
0
VERTEX
8
0
10
37.705034375000004
20
54.246121875
30
0
0
VERTEX
8
0
10
37.6110375
20
54.375496875
30
0
0
VERTEX
8
0
10
37.538440625
20
54.517975
30
0
0
VERTEX
8
0
10
37.48901875
20
54.6700875
30
0
0
VERTEX
8
0
10
37.464
20
54.82804375
30
0
0
VERTEX
8
0
10
37.464
20
55.5176
30
0
0
VERTEX
8
0
10
37.718
20
55.5176
30
0
0
VERTEX
8
0
10
37.718
20
54.870565625000005
30
0
42
0.34262384306321253
0
VERTEX
8
0
10
38.327600000000004
20
54.161384375000004
30
0
0
VERTEX
8
0
10
38.327600000000004
20
53.903475
30
0
0
SEQEND
0
POLYLINE
66
1
8
1_copper
10
0.0
20
0.0
30
0.0
70
1
0
VERTEX
8
0
10
38.63239375
20
54.161384375000004
30
0
42
0.3426260879834854
0
VERTEX
8
0
10
39.242000000000004
20
54.870565625000005
30
0
0
VERTEX
8
0
10
39.242000000000004
20
55.5176
30
0
0
VERTEX
8
0
10
39.495993750000004
20
55.5176
30
0
0
VERTEX
8
0
10
39.495996875
20
54.82804375
30
0
0
VERTEX
8
0
10
39.470978125
20
54.6700875
30
0
0
VERTEX
8
0
10
39.42155625
20
54.517975
30
0
0
VERTEX
8
0
10
39.348959375
20
54.375496875
30
0
0
VERTEX
8
0
10
39.254962500000005
20
54.246121875
30
0
0
VERTEX
8
0
10
39.141875
20
54.133034375
30
0
0
VERTEX
8
0
10
39.0125
20
54.0390375
30
0
0
VERTEX
8
0
10
38.870021875
20
53.966440625000004
30
0
0
VERTEX
8
0
10
38.717909375000005
20
53.917018750000004
30
0
0
VERTEX
8
0
10
38.63239375
20
53.903475
30
0
0
SEQEND
0
POLYLINE
66
1
8
1_copper
10
0.0
20
0.0
30
0.0
70
1
0
VERTEX
8
0
10
9.622087500000001
20
53.88701875
30
0
0
VERTEX
8
0
10
9.469975
20
53.936440625
30
0
0
VERTEX
8
0
10
9.327496875
20
54.009037500000005
30
0
0
VERTEX
8
0
10
9.198121875
20
54.103034375
30
0
0
VERTEX
8
0
10
9.085034375000001
20
54.216121875000006
30
0
0
VERTEX
8
0
10
8.991037500000001
20
54.345496875
30
0
0
VERTEX
8
0
10
8.918440625
20
54.487975000000006
30
0
0
VERTEX
8
0
10
8.86901875
20
54.6400875
30
0
0
VERTEX
8
0
10
8.844000000000001
20
54.798043750000005
30
0
0
VERTEX
8
0
10
8.844000000000001
20
55.4876
30
0
0
VERTEX
8
0
10
9.098
20
55.4876
30
0
0
VERTEX
8
0
10
9.098
20
54.840565625
30
0
42
0.34262384306321253
0
VERTEX
8
0
10
9.707600000000001
20
54.131384375
30
0
0
VERTEX
8
0
10
9.707600000000001
20
53.873475
30
0
0
SEQEND
0
POLYLINE
66
1
8
1_copper
10
0.0
20
0.0
30
0.0
70
1
0
VERTEX
8
0
10
27.756840625000002
20
50.440000000000005
30
0
0
VERTEX
8
0
10
26.720000000000002
20
51.476840625
30
0
0
VERTEX
8
0
10
26.720000000000002
20
52.94315625
30
0
0
VERTEX
8
0
10
27.756840625000002
20
53.979996875000005
30
0
0
VERTEX
8
0
10
29.223156250000002
20
53.979996875000005
30
0
0
VERTEX
8
0
10
30.259996875000002
20
52.94315625
30
0
0
VERTEX
8
0
10
30.259996875000002
20
51.476840625
30
0
0
VERTEX
8
0
10
29.223156250000002
20
50.440000000000005
30
0
0
SEQEND
0
POLYLINE
66
1
8
1_copper
10
0.0
20
0.0
30
0.0
70
1
0
VERTEX
8
0
10
19.346
20
52.36239375
30
0
0
VERTEX
8
0
10
19.346
20
52.841259375
30
0
0
VERTEX
8
0
10
20.238737500000003
20
53.733996875
30
0
0
VERTEX
8
0
10
20.7176
20
53.733996875
30
0
0
VERTEX
8
0
10
20.7176
20
53.480000000000004
30
0
0
VERTEX
8
0
10
20.34395
20
53.480000000000004
30
0
0
VERTEX
8
0
10
19.6
20
52.736050000000006
30
0
0
VERTEX
8
0
10
19.6
20
52.36239375
30
0
0
SEQEND
0
POLYLINE
66
1
8
1_copper
10
0.0
20
0.0
30
0.0
70
1
0
VERTEX
8
0
10
22.14
20
52.36239375
30
0
0
VERTEX
8
0
10
22.14
20
52.736050000000006
30
0
0
VERTEX
8
0
10
21.396050000000002
20
53.480000000000004
30
0
0
VERTEX
8
0
10
21.022393750000003
20
53.480000000000004
30
0
0
VERTEX
8
0
10
21.022393750000003
20
53.73399375
30
0
0
VERTEX
8
0
10
21.501259375
20
53.733996875
30
0
0
VERTEX
8
0
10
22.393996875000003
20
52.841259375
30
0
0
VERTEX
8
0
10
22.393996875000003
20
52.36239375
30
0
0
SEQEND
0
POLYLINE
66
1
8
1_copper
10
0.0
20
0.0
30
0.0
70
1
0
VERTEX
8
0
10
19.346
20
51.5787375
30
0
0
VERTEX
8
0
10
19.345996875
20
52.0576
30
0
0
VERTEX
8
0
10
19.6
20
52.0576
30
0
0
VERTEX
8
0
10
19.6
20
51.68395
30
0
0
VERTEX
8
0
10
19.840196875
20
51.443753125
30
0
0
VERTEX
8
0
10
19.660590625
20
51.264146875
30
0
0
SEQEND
0
POLYLINE
66
1
8
1_copper
10
0.0
20
0.0
30
0.0
70
1
0
VERTEX
8
0
10
21.022393750000003
20
50.686
30
0
0
VERTEX
8
0
10
21.022393750000003
20
50.940000000000005
30
0
0
VERTEX
8
0
10
21.396050000000002
20
50.940000000000005
30
0
0
VERTEX
8
0
10
22.14
20
51.68395
30
0
0
VERTEX
8
0
10
22.14
20
52.0576
30
0
0
VERTEX
8
0
10
22.393996875000003
20
52.0576
30
0
0
VERTEX
8
0
10
22.393996875000003
20
51.5787375
30
0
0
VERTEX
8
0
10
21.501259375
20
50.686
30
0
0
SEQEND
0
POLYLINE
66
1
8
1_copper
10
0.0
20
0.0
30
0.0
70
1
0
VERTEX
8
0
10
20.238737500000003
20
50.686
30
0
0
VERTEX
8
0
10
20.014146875
20
50.910590625000005
30
0
0
VERTEX
8
0
10
20.193753125
20
51.090196875000004
30
0
0
VERTEX
8
0
10
20.34395
20
50.940000000000005
30
0
0
VERTEX
8
0
10
20.7176
20
50.940000000000005
30
0
0
VERTEX
8
0
10
20.7176
20
50.686
30
0
0
SEQEND
0
POLYLINE
66
1
8
1_copper
10
0.0
20
0.0
30
0.0
70
1
0
VERTEX
8
0
10
3.9893468750000003
20
47.269600000000004
30
0
0
VERTEX
8
0
10
3.3096
20
47.949346875
30
0
0
VERTEX
8
0
10
3.3096
20
48.910650000000004
30
0
0
VERTEX
8
0
10
3.9893468750000003
20
49.590396875
30
0
0
VERTEX
8
0
10
4.95065
20
49.590396875
30
0
0
VERTEX
8
0
10
5.630396875000001
20
48.910650000000004
30
0
0
VERTEX
8
0
10
5.630396875000001
20
47.949346875
30
0
0
VERTEX
8
0
10
4.95065
20
47.269600000000004
30
0
0
SEQEND
0
POLYLINE
66
1
8
1_copper
10
0.0
20
0.0
30
0.0
70
1
0
VERTEX
8
0
10
12.70394375
20
48.75
30
0
0
VERTEX
8
0
10
12.36354375
20
49.0904
30
0
0
VERTEX
8
0
10
12.24239375
20
49.0904
30
0
0
VERTEX
8
0
10
12.24239375
20
49.344396875
30
0
0
VERTEX
8
0
10
12.468753125000001
20
49.344396875
30
0
0
VERTEX
8
0
10
13.004396875000001
20
48.808753125
30
0
0
VERTEX
8
0
10
13.004396875000001
20
48.75
30
0
0
SEQEND
0
POLYLINE
66
1
8
1_copper
10
0.0
20
0.0
30
0.0
70
1
0
VERTEX
8
0
10
12.24239375
20
47.5156
30
0
0
VERTEX
8
0
10
12.24239375
20
47.769600000000004
30
0
0
VERTEX
8
0
10
12.36354375
20
47.769600000000004
30
0
0
VERTEX
8
0
10
12.7504
20
48.156456250000005
30
0
0
VERTEX
8
0
10
12.7504
20
48.25
30
0
0
VERTEX
8
0
10
13.004396875000001
20
48.25
30
0
0
VERTEX
8
0
10
13.004396875000001
20
48.051243750000005
30
0
0
VERTEX
8
0
10
12.468753125000001
20
47.5156
30
0
0
SEQEND
0
POLYLINE
66
1
8
1_copper
10
0.0
20
0.0
30
0.0
70
1
0
VERTEX
8
0
10
12.949346875
20
43.2096
30
0
0
VERTEX
8
0
10
12.2696
20
43.889346875
30
0
0
VERTEX
8
0
10
12.2696
20
44.85065
30
0
0
VERTEX
8
0
10
12.949346875
20
45.530396875
30
0
0
VERTEX
8
0
10
13.438178125
20
45.530396875
30
0
42
0.198912367379658
0
VERTEX
8
0
10
13.492059375
20
45.552715625000005
30
0
0
VERTEX
8
0
10
14.353462500000001
20
46.41411875
30
0
0
VERTEX
8
0
10
14.353471875
20
46.414131250000004
30
0
0
VERTEX
8
0
10
14.575156250000001
20
46.635815625
30
0
0
VERTEX
8
0
10
14.8508125
20
46.749996875
30
0
0
VERTEX
8
0
10
40.011696875
20
46.749996875
30
0
42
0.198912367379658
0
VERTEX
8
0
10
40.065578125
20
46.772315625000005
30
0
0
VERTEX
8
0
10
40.383131250000005
20
47.08986875
30
0
0
VERTEX
8
0
10
40.84696875
20
47.281996875000004
30
0
0
VERTEX
8
0
10
42.873028125000005
20
47.281996875000004
30
0
0
VERTEX
8
0
10
43.336865625
20
47.08986875
30
0
0
VERTEX
8
0
10
43.691868750000005
20
46.734865625000005
30
0
0
VERTEX
8
0
10
43.883996875
20
46.271028125
30
0
0
VERTEX
8
0
10
43.883996875
20
45.76896875
30
0
0
VERTEX
8
0
10
43.691868750000005
20
45.30513125
30
0
0
VERTEX
8
0
10
43.336865625
20
44.950128125
30
0
0
VERTEX
8
0
10
42.873028125000005
20
44.758
30
0
0
VERTEX
8
0
10
40.84696875
20
44.758
30
0
0
VERTEX
8
0
10
40.383131250000005
20
44.950128125
30
0
0
VERTEX
8
0
10
40.105578125
20
45.22768125
30
0
42
0.198912367379658
0
VERTEX
8
0
10
40.051696875000005
20
45.25
30
0
0
VERTEX
8
0
10
15.342221875
20
45.25
30
0
42
0.198912367379658
0
VERTEX
8
0
10
15.288340625
20
45.22768125
30
0
0
VERTEX
8
0
10
14.612715625
20
44.552059375
30
0
42
0.198912367379658
0
VERTEX
8
0
10
14.590396875000001
20
44.498178125
30
0
0
VERTEX
8
0
10
14.590396875000001
20
43.889346875
30
0
0
VERTEX
8
0
10
13.91065
20
43.2096
30
0
0
SEQEND
0
POLYLINE
66
1
8
1_copper
10
0.0
20
0.0
30
0.0
70
1
0
VERTEX
8
0
10
32.210559375
20
39.466
30
0
0
VERTEX
8
0
10
31.749662500000003
20
39.656909375000005
30
0
0
VERTEX
8
0
10
31.396909375
20
40.009662500000005
30
0
0
VERTEX
8
0
10
31.206000000000003
20
40.470559375
30
0
0
VERTEX
8
0
10
31.206000000000003
20
40.969437500000005
30
0
0
VERTEX
8
0
10
31.396909375
20
41.430334375
30
0
0
VERTEX
8
0
10
31.749662500000003
20
41.7830875
30
0
0
VERTEX
8
0
10
31.985815625
20
41.880903125
30
0
42
0.668189684777048
0
VERTEX
8
0
10
31.985815625
20
42.021703125
30
0
0
VERTEX
8
0
10
31.7091625
20
42.136296875
30
0
0
VERTEX
8
0
10
31.336296875000002
20
42.5091625
30
0
0
VERTEX
8
0
10
31.134500000000003
20
42.9963375
30
0
0
VERTEX
8
0
10
31.134500000000003
20
43.523659375
30
0
0
VERTEX
8
0
10
31.336296875000002
20
44.010834375
30
0
0
VERTEX
8
0
10
31.7091625
20
44.383700000000005
30
0
0
VERTEX
8
0
10
32.1963375
20
44.585496875000004
30
0
0
VERTEX
8
0
10
32.723659375000004
20
44.585496875000004
30
0
0
VERTEX
8
0
10
33.210834375000005
20
44.383700000000005
30
0
0
VERTEX
8
0
10
33.5837
20
44.010834375
30
0
0
VERTEX
8
0
10
33.785496875
20
43.523659375
30
0
0
VERTEX
8
0
10
33.785496875
20
42.9963375
30
0
0
VERTEX
8
0
10
33.5837
20
42.5091625
30
0
0
VERTEX
8
0
10
33.210834375000005
20
42.136296875
30
0
0
VERTEX
8
0
10
32.93418125
20
42.021703125
30
0
42
0.668189684777048
0
VERTEX
8
0
10
32.93418125
20
41.880903125
30
0
0
VERTEX
8
0
10
33.170334375
20
41.7830875
30
0
0
VERTEX
8
0
10
33.5230875
20
41.430334375
30
0
0
VERTEX
8
0
10
33.713996875
20
40.969437500000005
30
0
0
VERTEX
8
0
10
33.713996875
20
40.470559375
30
0
0
VERTEX
8
0
10
33.5230875
20
40.009662500000005
30
0
0
VERTEX
8
0
10
33.170334375
20
39.656909375000005
30
0
0
VERTEX
8
0
10
32.7094375
20
39.466
30
0
0
SEQEND
0
POLYLINE
66
1
8
1_copper
10
0.0
20
0.0
30
0.0
70
1
0
VERTEX
8
0
10
23.573271875
20
43.59379375
30
0
42
0.29165120751308987
0
VERTEX
8
0
10
23.640396875
20
43.6407625
30
0
0
VERTEX
8
0
10
23.776909375000002
20
43.970334375
30
0
0
VERTEX
8
0
10
24.129662500000002
20
44.3230875
30
0
0
VERTEX
8
0
10
24.590559375
20
44.513996875000004
30
0
0
VERTEX
8
0
10
25.089437500000003
20
44.513996875000004
30
0
0
VERTEX
8
0
10
25.550334375000002
20
44.3230875
30
0
0
VERTEX
8
0
10
25.9030875
20
43.970334375
30
0
0
VERTEX
8
0
10
25.979400000000002
20
43.786096875000005
30
0
42
0.8206851812565762
0
VERTEX
8
0
10
26.126
20
43.815256250000004
30
0
0
VERTEX
8
0
10
26.126
20
44.221106250000005
30
0
0
VERTEX
8
0
10
26.418890625
20
44.513996875000004
30
0
0
VERTEX
8
0
10
28.341106250000003
20
44.513996875000004
30
0
0
VERTEX
8
0
10
28.633996875
20
44.221106250000005
30
0
0
VERTEX
8
0
10
28.633996875
20
42.298890625
30
0
0
VERTEX
8
0
10
28.341106250000003
20
42.006
30
0
0
VERTEX
8
0
10
27.935256250000002
20
42.006
30
0
42
0.8206851812565762
0
VERTEX
8
0
10
27.906096875000003
20
41.8594
30
0
0
VERTEX
8
0
10
28.090334375
20
41.7830875
30
0
0
VERTEX
8
0
10
28.4430875
20
41.430334375
30
0
0
VERTEX
8
0
10
28.633996875
20
40.969437500000005
30
0
0
VERTEX
8
0
10
28.633996875
20
40.470559375
30
0
0
VERTEX
8
0
10
28.4430875
20
40.009662500000005
30
0
0
VERTEX
8
0
10
28.090334375
20
39.656909375000005
30
0
0
VERTEX
8
0
10
27.6294375
20
39.466
30
0
0
VERTEX
8
0
10
27.130559375
20
39.466
30
0
0
VERTEX
8
0
10
26.6696625
20
39.656909375000005
30
0
0
VERTEX
8
0
10
26.316909375
20
40.009662500000005
30
0
0
VERTEX
8
0
10
26.180400000000002
20
40.339231250000005
30
0
42
0.668189684777048
0
VERTEX
8
0
10
26.0396
20
40.339231250000005
30
0
0
VERTEX
8
0
10
25.9030875
20
40.009662500000005
30
0
0
VERTEX
8
0
10
25.550334375000002
20
39.656909375000005
30
0
0
VERTEX
8
0
10
25.089437500000003
20
39.466
30
0
0
VERTEX
8
0
10
24.590559375
20
39.466
30
0
0
VERTEX
8
0
10
24.129662500000002
20
39.656909375000005
30
0
0
VERTEX
8
0
10
23.776909375000002
20
40.009662500000005
30
0
0
VERTEX
8
0
10
23.640396875
20
40.339234375000004
30
0
42
0.668189684777048
0
VERTEX
8
0
10
23.499596875
20
40.339234375000004
30
0
0
VERTEX
8
0
10
23.363087500000002
20
40.009662500000005
30
0
0
VERTEX
8
0
10
23.010334375
20
39.656909375000005
30
0
0
VERTEX
8
0
10
22.5494375
20
39.466
30
0
0
VERTEX
8
0
10
22.050559375000002
20
39.466
30
0
0
VERTEX
8
0
10
21.5896625
20
39.656909375000005
30
0
0
VERTEX
8
0
10
21.236909375
20
40.009662500000005
30
0
0
VERTEX
8
0
10
21.046
20
40.470559375
30
0
0
VERTEX
8
0
10
21.046
20
40.969437500000005
30
0
0
VERTEX
8
0
10
21.236909375
20
41.430334375
30
0
0
VERTEX
8
0
10
21.5896625
20
41.7830875
30
0
0
VERTEX
8
0
10
21.919234375000002
20
41.9196
30
0
42
0.668189684777048
0
VERTEX
8
0
10
21.919234375000002
20
42.0604
30
0
0
VERTEX
8
0
10
21.5896625
20
42.196909375000004
30
0
0
VERTEX
8
0
10
21.236909375
20
42.549662500000004
30
0
0
VERTEX
8
0
10
21.046
20
43.010559375
30
0
0
VERTEX
8
0
10
21.046
20
43.509437500000004
30
0
0
VERTEX
8
0
10
21.236909375
20
43.970334375
30
0
0
VERTEX
8
0
10
21.5896625
20
44.3230875
30
0
0
VERTEX
8
0
10
22.050559375000002
20
44.513996875000004
30
0
0
VERTEX
8
0
10
22.5494375
20
44.513996875000004
30
0
0
VERTEX
8
0
10
23.010334375
20
44.3230875
30
0
0
VERTEX
8
0
10
23.363087500000002
20
43.970334375
30
0
0
VERTEX
8
0
10
23.499596875
20
43.6407625
30
0
0
VERTEX
8
0
10
23.501053125000002
20
43.638312500000005
30
0
0
VERTEX
8
0
10
23.5019625
20
43.635600000000004
30
0
0
VERTEX
8
0
10
23.506590625
20
43.6289875
30
0
0
VERTEX
8
0
10
23.5107125
20
43.622046875
30
0
0
VERTEX
8
0
10
23.512809375
20
43.6201
30
0
0
VERTEX
8
0
10
23.51444375
20
43.617765625000004
30
0
0
VERTEX
8
0
10
23.520753125000002
20
43.61273125
30
0
0
VERTEX
8
0
10
23.526668750000002
20
43.607240625
30
0
0
VERTEX
8
0
10
23.529221875
20
43.60596875
30
0
0
VERTEX
8
0
10
23.53145625
20
43.6041875
30
0
0
VERTEX
8
0
10
23.53893125
20
43.601140625
30
0
0
VERTEX
8
0
10
23.546156250000003
20
43.597546875
30
0
0
VERTEX
8
0
10
23.548965625
20
43.59705
30
0
0
VERTEX
8
0
10
23.5516125
20
43.595971875000004
30
0
0
VERTEX
8
0
10
23.559640625
20
43.595165625
30
0
0
VERTEX
8
0
10
23.56759375
20
43.593759375000005
30
0
0
VERTEX
8
0
10
23.5704375
20
43.594078125
30
0
0
SEQEND
0
POLYLINE
66
1
8
1_copper
10
0.0
20
0.0
30
0.0
70
1
0
VERTEX
8
0
10
43.368615625000004
20
43.632393750000006
30
0
42
0.3426260879834854
0
VERTEX
8
0
10
42.659434375000004
20
44.242000000000004
30
0
0
VERTEX
8
0
10
42.01239375
20
44.242000000000004
30
0
0
VERTEX
8
0
10
42.01239375
20
44.495993750000004
30
0
0
VERTEX
8
0
10
42.701953125
20
44.495996875
30
0
0
VERTEX
8
0
10
42.859909375
20
44.470978125
30
0
0
VERTEX
8
0
10
43.012021875
20
44.42155625
30
0
0
VERTEX
8
0
10
43.1545
20
44.348959375
30
0
0
VERTEX
8
0
10
43.283875
20
44.254962500000005
30
0
0
VERTEX
8
0
10
43.3969625
20
44.141875
30
0
0
VERTEX
8
0
10
43.490959375
20
44.0125
30
0
0
VERTEX
8
0
10
43.563556250000005
20
43.870021875
30
0
0
VERTEX
8
0
10
43.612978125000005
20
43.717909375000005
30
0
0
VERTEX
8
0
10
43.626521875
20
43.632393750000006
30
0
0
SEQEND
0
POLYLINE
66
1
8
1_copper
10
0.0
20
0.0
30
0.0
70
1
0
VERTEX
8
0
10
40.093475000000005
20
43.632393750000006
30
0
0
VERTEX
8
0
10
40.10701875
20
43.717909375000005
30
0
0
VERTEX
8
0
10
40.156440625
20
43.870021875
30
0
0
VERTEX
8
0
10
40.229037500000004
20
44.0125
30
0
0
VERTEX
8
0
10
40.323034375
20
44.141875
30
0
0
VERTEX
8
0
10
40.436121875000005
20
44.254962500000005
30
0
0
VERTEX
8
0
10
40.565496875
20
44.348959375
30
0
0
VERTEX
8
0
10
40.707975000000005
20
44.42155625
30
0
0
VERTEX
8
0
10
40.8600875
20
44.470978125
30
0
0
VERTEX
8
0
10
41.018043750000004
20
44.495996875
30
0
0
VERTEX
8
0
10
41.7076
20
44.495996875
30
0
0
VERTEX
8
0
10
41.7076
20
44.242000000000004
30
0
0
VERTEX
8
0
10
41.060565625
20
44.242000000000004
30
0
0
VERTEX
8
0
10
40.986056250000004
20
44.2346625
30
0
0
VERTEX
8
0
10
40.912625
20
44.22005625
30
0
0
VERTEX
8
0
10
40.84098125
20
44.198321875000005
30
0
0
VERTEX
8
0
10
40.771809375000004
20
44.169671875
30
0
0
VERTEX
8
0
10
40.70578125
20
44.134378125000005
30
0
0
VERTEX
8
0
10
40.64353125
20
44.09278125
30
0
0
VERTEX
8
0
10
40.58565625
20
44.045284375
30
0
0
VERTEX
8
0
10
40.532715625
20
43.99234375
30
0
0
VERTEX
8
0
10
40.48521875
20
43.93446875
30
0
0
VERTEX
8
0
10
40.443621875000005
20
43.87221875
30
0
0
VERTEX
8
0
10
40.408328125000004
20
43.806190625
30
0
0
VERTEX
8
0
10
40.379678125000005
20
43.737018750000004
30
0
0
VERTEX
8
0
10
40.357943750000004
20
43.665375000000004
30
0
0
VERTEX
8
0
10
40.351384375
20
43.632393750000006
30
0
0
SEQEND
0
POLYLINE
66
1
8
1_copper
10
0.0
20
0.0
30
0.0
70
1
0
VERTEX
8
0
10
42.01239375
20
42.464
30
0
0
VERTEX
8
0
10
42.01239375
20
42.718
30
0
0
VERTEX
8
0
10
42.659434375000004
20
42.718
30
0
42
0.34262384306321253
0
VERTEX
8
0
10
43.368615625000004
20
43.327600000000004
30
0
0
VERTEX
8
0
10
43.626521875
20
43.327600000000004
30
0
0
VERTEX
8
0
10
43.612978125000005
20
43.242087500000004
30
0
0
VERTEX
8
0
10
43.563556250000005
20
43.089975
30
0
0
VERTEX
8
0
10
43.490959375
20
42.947496875
30
0
0
VERTEX
8
0
10
43.3969625
20
42.818121875
30
0
0
VERTEX
8
0
10
43.283875
20
42.705034375000004
30
0
0
VERTEX
8
0
10
43.1545
20
42.6110375
30
0
0
VERTEX
8
0
10
43.012021875
20
42.538440625
30
0
0
VERTEX
8
0
10
42.859909375
20
42.48901875
30
0
0
VERTEX
8
0
10
42.701953125
20
42.464
30
0
0
SEQEND
0
POLYLINE
66
1
8
1_copper
10
0.0
20
0.0
30
0.0
70
1
0
VERTEX
8
0
10
41.018043750000004
20
42.464
30
0
0
VERTEX
8
0
10
40.8600875
20
42.48901875
30
0
0
VERTEX
8
0
10
40.707975000000005
20
42.538440625
30
0
0
VERTEX
8
0
10
40.565496875
20
42.6110375
30
0
0
VERTEX
8
0
10
40.436121875000005
20
42.705034375000004
30
0
0
VERTEX
8
0
10
40.323034375
20
42.818121875
30
0
0
VERTEX
8
0
10
40.229037500000004
20
42.947496875
30
0
0
VERTEX
8
0
10
40.202284375000005
20
43
30
0
0
VERTEX
8
0
10
40.506171875
20
43
30
0
42
0.21321275945063609
0
VERTEX
8
0
10
41.060565625
20
42.718
30
0
0
VERTEX
8
0
10
41.7076
20
42.718
30
0
0
VERTEX
8
0
10
41.7076
20
42.464
30
0
0
SEQEND
0
POLYLINE
66
1
8
1_copper
10
0.0
20
0.0
30
0.0
70
1
0
VERTEX
8
0
10
4.710465625
20
38.50310625
30
0
42
0.22663370954880027
0
VERTEX
8
0
10
4.759321875
20
38.5470375
30
0
0
VERTEX
8
0
10
4.8081281250000005
20
38.664865625000004
30
0
0
VERTEX
8
0
10
5.16313125
20
39.01986875
30
0
0
VERTEX
8
0
10
5.476328125
20
39.1496
30
0
42
0.668189684777048
0
VERTEX
8
0
10
5.476328125
20
39.290400000000005
30
0
0
VERTEX
8
0
10
5.16313125
20
39.420128125000005
30
0
0
VERTEX
8
0
10
4.8081281250000005
20
39.77513125
30
0
0
VERTEX
8
0
10
4.6160000000000005
20
40.238968750000005
30
0
0
VERTEX
8
0
10
4.6160000000000005
20
40.741028125
30
0
0
VERTEX
8
0
10
4.8081281250000005
20
41.204865625000004
30
0
0
VERTEX
8
0
10
5.16313125
20
41.55986875
30
0
0
VERTEX
8
0
10
5.6269687500000005
20
41.751996875
30
0
0
VERTEX
8
0
10
7.6530281250000005
20
41.751996875
30
0
0
VERTEX
8
0
10
8.116865625
20
41.55986875
30
0
0
VERTEX
8
0
10
8.47186875
20
41.204865625000004
30
0
0
VERTEX
8
0
10
8.663996875
20
40.741028125
30
0
0
VERTEX
8
0
10
8.663996875
20
40.238968750000005
30
0
0
VERTEX
8
0
10
8.47186875
20
39.77513125
30
0
0
VERTEX
8
0
10
8.116865625
20
39.420128125000005
30
0
0
VERTEX
8
0
10
7.80366875
20
39.290400000000005
30
0
42
0.668189684777048
0
VERTEX
8
0
10
7.80366875
20
39.1496
30
0
0
VERTEX
8
0
10
8.116865625
20
39.01986875
30
0
0
VERTEX
8
0
10
8.47186875
20
38.664865625000004
30
0
0
VERTEX
8
0
10
8.663996875
20
38.201028125
30
0
0
VERTEX
8
0
10
8.663996875
20
37.69896875
30
0
0
VERTEX
8
0
10
8.47186875
20
37.23513125
30
0
0
VERTEX
8
0
10
8.116865625
20
36.880128125
30
0
0
VERTEX
8
0
10
7.6530281250000005
20
36.688
30
0
0
VERTEX
8
0
10
5.6269687500000005
20
36.688
30
0
0
VERTEX
8
0
10
5.16313125
20
36.880128125
30
0
0
VERTEX
8
0
10
5.065578125
20
36.97768125
30
0
42
0.198912367379658
0
VERTEX
8
0
10
5.011696875
20
37
30
0
0
VERTEX
8
0
10
4.326196875
20
37
30
0
42
0.41421356237309503
0
VERTEX
8
0
10
4.249996875
20
36.9238
30
0
0
VERTEX
8
0
10
4.249996875
20
20.244615625
30
0
42
0.6681786379192989
0
VERTEX
8
0
10
4.380078125
20
20.190734375
30
0
0
VERTEX
8
0
10
5.07515625
20
20.885815625
30
0
0
VERTEX
8
0
10
5.3508125
20
20.999996875
30
0
0
VERTEX
8
0
10
14.157775
20
20.999996875
30
0
42
0.198912367379658
0
VERTEX
8
0
10
14.21165625
20
21.022315625
30
0
0
VERTEX
8
0
10
15.943681250000001
20
22.754340625
30
0
42
0.198912367379658
0
VERTEX
8
0
10
15.966000000000001
20
22.808221875
30
0
0
VERTEX
8
0
10
15.966000000000001
20
23.1894375
30
0
0
VERTEX
8
0
10
16.156909375
20
23.650334375
30
0
0
VERTEX
8
0
10
16.5096625
20
24.0030875
30
0
0
VERTEX
8
0
10
16.839234375
20
24.1396
30
0
42
0.668189684777048
0
VERTEX
8
0
10
16.839234375
20
24.2804
30
0
0
VERTEX
8
0
10
16.5096625
20
24.416909375
30
0
0
VERTEX
8
0
10
16.156909375
20
24.769662500000003
30
0
0
VERTEX
8
0
10
15.966000000000001
20
25.230559375000002
30
0
0
VERTEX
8
0
10
15.966000000000001
20
25.7294375
30
0
0
VERTEX
8
0
10
16.156909375
20
26.190334375000003
30
0
0
VERTEX
8
0
10
16.5096625
20
26.543087500000002
30
0
0
VERTEX
8
0
10
16.839234375
20
26.679596875
30
0
42
0.668189684777048
0
VERTEX
8
0
10
16.839234375
20
26.820396875
30
0
0
VERTEX
8
0
10
16.5096625
20
26.956909375000002
30
0
0
VERTEX
8
0
10
16.156909375
20
27.3096625
30
0
0
VERTEX
8
0
10
15.966000000000001
20
27.770559375
30
0
0
VERTEX
8
0
10
15.966000000000001
20
28.269437500000002
30
0
0
VERTEX
8
0
10
16.156909375
20
28.730334375
30
0
0
VERTEX
8
0
10
16.5096625
20
29.0830875
30
0
0
VERTEX
8
0
10
16.83923125
20
29.2196
30
0
42
0.668189684777048
0
VERTEX
8
0
10
16.83923125
20
29.360400000000002
30
0
0
VERTEX
8
0
10
16.5096625
20
29.496909375
30
0
0
VERTEX
8
0
10
16.156909375
20
29.8496625
30
0
0
VERTEX
8
0
10
15.966000000000001
20
30.310559375
30
0
0
VERTEX
8
0
10
15.966000000000001
20
30.8094375
30
0
0
VERTEX
8
0
10
16.156909375
20
31.270334375
30
0
0
VERTEX
8
0
10
16.5096625
20
31.6230875
30
0
0
VERTEX
8
0
10
16.970559375
20
31.813996875
30
0
0
VERTEX
8
0
10
17.4694375
20
31.813996875
30
0
0
VERTEX
8
0
10
17.930334375
20
31.6230875
30
0
0
VERTEX
8
0
10
18.2830875
20
31.270334375
30
0
0
VERTEX
8
0
10
18.473996875
20
30.8094375
30
0
0
VERTEX
8
0
10
18.473996875
20
30.310559375
30
0
0
VERTEX
8
0
10
18.2830875
20
29.8496625
30
0
0
VERTEX
8
0
10
17.930334375
20
29.496909375
30
0
0
VERTEX
8
0
10
17.600765625
20
29.360400000000002
30
0
42
0.668189684777048
0
VERTEX
8
0
10
17.600765625
20
29.2196
30
0
0
VERTEX
8
0
10
17.930334375
20
29.0830875
30
0
0
VERTEX
8
0
10
18.2830875
20
28.730334375
30
0
0
VERTEX
8
0
10
18.473996875
20
28.269437500000002
30
0
0
VERTEX
8
0
10
18.473996875
20
27.770559375
30
0
0
VERTEX
8
0
10
18.2830875
20
27.3096625
30
0
0
VERTEX
8
0
10
17.930334375
20
26.956909375000002
30
0
0
VERTEX
8
0
10
17.600762500000002
20
26.820396875
30
0
42
0.668189684777048
0
VERTEX
8
0
10
17.600762500000002
20
26.679596875
30
0
0
VERTEX
8
0
10
17.930334375
20
26.543087500000002
30
0
0
VERTEX
8
0
10
18.2830875
20
26.190334375000003
30
0
0
VERTEX
8
0
10
18.473996875
20
25.7294375
30
0
0
VERTEX
8
0
10
18.473996875
20
25.230559375000002
30
0
0
VERTEX
8
0
10
18.2830875
20
24.769662500000003
30
0
0
VERTEX
8
0
10
17.930334375
20
24.416909375
30
0
0
VERTEX
8
0
10
17.600762500000002
20
24.2804
30
0
42
0.668189684777048
0
VERTEX
8
0
10
17.600762500000002
20
24.1396
30
0
0
VERTEX
8
0
10
17.930334375
20
24.0030875
30
0
0
VERTEX
8
0
10
18.2830875
20
23.650334375
30
0
0
VERTEX
8
0
10
18.473996875
20
23.1894375
30
0
0
VERTEX
8
0
10
18.473996875
20
22.690559375
30
0
0
VERTEX
8
0
10
18.2830875
20
22.2296625
30
0
0
VERTEX
8
0
10
17.930334375
20
21.876909375
30
0
0
VERTEX
8
0
10
17.600762500000002
20
21.7404
30
0
42
0.668189684777048
0
VERTEX
8
0
10
17.600762500000002
20
21.599600000000002
30
0
0
VERTEX
8
0
10
17.930334375
20
21.4630875
30
0
0
VERTEX
8
0
10
18.2830875
20
21.110334375
30
0
0
VERTEX
8
0
10
18.473996875
20
20.6494375
30
0
0
VERTEX
8
0
10
18.473996875
20
20.150559375
30
0
0
VERTEX
8
0
10
18.2830875
20
19.6896625
30
0
0
VERTEX
8
0
10
17.930334375
20
19.336909375
30
0
0
VERTEX
8
0
10
17.600762500000002
20
19.200400000000002
30
0
42
0.668189684777048
0
VERTEX
8
0
10
17.600762500000002
20
19.0596
30
0
0
VERTEX
8
0
10
17.930334375
20
18.9230875
30
0
0
VERTEX
8
0
10
18.2830875
20
18.570334375
30
0
0
VERTEX
8
0
10
18.473996875
20
18.109437500000002
30
0
0
VERTEX
8
0
10
18.473996875
20
17.610559375
30
0
0
VERTEX
8
0
10
18.2830875
20
17.1496625
30
0
0
VERTEX
8
0
10
17.930334375
20
16.796909375000002
30
0
0
VERTEX
8
0
10
17.600762500000002
20
16.6604
30
0
42
0.668189684777048
0
VERTEX
8
0
10
17.600762500000002
20
16.5196
30
0
0
VERTEX
8
0
10
17.930334375
20
16.383087500000002
30
0
0
VERTEX
8
0
10
18.2830875
20
16.030334375000002
30
0
0
VERTEX
8
0
10
18.473996875
20
15.569437500000001
30
0
0
VERTEX
8
0
10
18.473996875
20
15.070559375
30
0
0
VERTEX
8
0
10
18.2830875
20
14.6096625
30
0
0
VERTEX
8
0
10
17.930334375
20
14.256909375000001
30
0
0
VERTEX
8
0
10
17.600762500000002
20
14.1204
30
0
42
0.668189684777048
0
VERTEX
8
0
10
17.600762500000002
20
13.979600000000001
30
0
0
VERTEX
8
0
10
17.930334375
20
13.843087500000001
30
0
0
VERTEX
8
0
10
18.2830875
20
13.490334375
30
0
0
VERTEX
8
0
10
18.473996875
20
13.0294375
30
0
0
VERTEX
8
0
10
18.473996875
20
12.530559375000001
30
0
0
VERTEX
8
0
10
18.2830875
20
12.0696625
30
0
0
VERTEX
8
0
10
17.930334375
20
11.716909375
30
0
0
VERTEX
8
0
10
17.600762500000002
20
11.580400000000001
30
0
42
0.668189684777048
0
VERTEX
8
0
10
17.600762500000002
20
11.4396
30
0
0
VERTEX
8
0
10
17.930334375
20
11.3030875
30
0
0
VERTEX
8
0
10
18.2830875
20
10.950334375
30
0
0
VERTEX
8
0
10
18.473996875
20
10.489437500000001
30
0
0
VERTEX
8
0
10
18.473996875
20
9.990559375
30
0
0
VERTEX
8
0
10
18.2830875
20
9.5296625
30
0
0
VERTEX
8
0
10
17.930334375
20
9.176909375000001
30
0
0
VERTEX
8
0
10
17.600762500000002
20
9.0404
30
0
42
0.668189684777048
0
VERTEX
8
0
10
17.600762500000002
20
8.899600000000001
30
0
0
VERTEX
8
0
10
17.930334375
20
8.763087500000001
30
0
0
VERTEX
8
0
10
18.2830875
20
8.410334375
30
0
0
VERTEX
8
0
10
18.473996875
20
7.9494375
30
0
0
VERTEX
8
0
10
18.473996875
20
7.450559375
30
0
0
VERTEX
8
0
10
18.2830875
20
6.9896625000000006
30
0
0
VERTEX
8
0
10
17.930334375
20
6.636909375
30
0
0
VERTEX
8
0
10
17.600762500000002
20
6.5004
30
0
42
0.668189684777048
0
VERTEX
8
0
10
17.600762500000002
20
6.3596
30
0
0
VERTEX
8
0
10
17.930334375
20
6.2230875
30
0
0
VERTEX
8
0
10
18.2830875
20
5.8703343750000005
30
0
0
VERTEX
8
0
10
18.473996875
20
5.4094375
30
0
0
VERTEX
8
0
10
18.473996875
20
4.910559375
30
0
0
VERTEX
8
0
10
18.2830875
20
4.4496625000000005
30
0
0
VERTEX
8
0
10
17.930334375
20
4.096909375
30
0
0
VERTEX
8
0
10
17.69418125
20
3.99909375
30
0
42
0.668189684777048
0
VERTEX
8
0
10
17.69418125
20
3.85829375
30
0
0
VERTEX
8
0
10
17.970834375000003
20
3.7437
30
0
0
VERTEX
8
0
10
18.343700000000002
20
3.3708343750000003
30
0
0
VERTEX
8
0
10
18.545496875
20
2.883659375
30
0
0
VERTEX
8
0
10
18.545496875
20
2.3563375
30
0
0
VERTEX
8
0
10
18.343700000000002
20
1.8691625
30
0
0
VERTEX
8
0
10
17.970834375000003
20
1.496296875
30
0
0
VERTEX
8
0
10
17.483659375000002
20
1.2945
30
0
0
VERTEX
8
0
10
16.9563375
20
1.2945
30
0
0
VERTEX
8
0
10
16.4691625
20
1.496296875
30
0
0
VERTEX
8
0
10
16.096296875
20
1.8691625
30
0
0
VERTEX
8
0
10
15.8945
20
2.3563375
30
0
0
VERTEX
8
0
10
15.8945
20
2.883659375
30
0
0
VERTEX
8
0
10
16.096296875
20
3.3708343750000003
30
0
0
VERTEX
8
0
10
16.4691625
20
3.7437
30
0
0
VERTEX
8
0
10
16.745815625000002
20
3.85829375
30
0
42
0.668189684777048
0
VERTEX
8
0
10
16.745815625000002
20
3.99909375
30
0
0
VERTEX
8
0
10
16.5096625
20
4.096909375
30
0
0
VERTEX
8
0
10
16.156909375
20
4.4496625000000005
30
0
0
VERTEX
8
0
10
15.966000000000001
20
4.910559375
30
0
0
VERTEX
8
0
10
15.966000000000001
20
5.4094375
30
0
0
VERTEX
8
0
10
16.156909375
20
5.8703343750000005
30
0
0
VERTEX
8
0
10
16.5096625
20
6.2230875
30
0
0
VERTEX
8
0
10
16.839234375
20
6.3596
30
0
42
0.668189684777048
0
VERTEX
8
0
10
16.839234375
20
6.5004
30
0
0
VERTEX
8
0
10
16.5096625
20
6.636909375
30
0
0
VERTEX
8
0
10
16.156909375
20
6.9896625000000006
30
0
0
VERTEX
8
0
10
15.966000000000001
20
7.450559375
30
0
0
VERTEX
8
0
10
15.966000000000001
20
7.72138125
30
0
42
0.6681786379192989
0
VERTEX
8
0
10
15.835918750000001
20
7.7752625
30
0
0
VERTEX
8
0
10
14.396534375
20
6.335875000000001
30
0
0
VERTEX
8
0
10
14.174840625
20
6.114181250000001
30
0
0
VERTEX
8
0
10
13.899184375
20
6
30
0
0
VERTEX
8
0
10
4.6008125
20
6
30
0
0
VERTEX
8
0
10
4.32515625
20
6.114181250000001
30
0
0
VERTEX
8
0
10
2.86418125
20
7.57515625
30
0
0
VERTEX
8
0
10
2.75
20
7.8508125
30
0
0
VERTEX
8
0
10
2.75
20
37.899184375000004
30
0
0
VERTEX
8
0
10
2.86418125
20
38.174840625
30
0
0
VERTEX
8
0
10
3.07515625
20
38.385815625
30
0
0
VERTEX
8
0
10
3.3508125
20
38.499996875
30
0
0
VERTEX
8
0
10
4.688921875
20
38.499996875
30
0
0
VERTEX
8
0
10
4.690559375
20
38.500234375000005
30
0
0
VERTEX
8
0
10
4.6921968750000005
20
38.500068750000004
30
0
0
VERTEX
8
0
10
4.701278125
20
38.50178125
30
0
0
SEQEND
0
POLYLINE
66
1
8
1_copper
10
0.0
20
0.0
30
0.0
70
1
0
VERTEX
8
0
10
32.61239375
20
39.176425
30
0
0
VERTEX
8
0
10
32.6960375
20
39.163175
30
0
0
VERTEX
8
0
10
32.84695
20
39.114143750000004
30
0
0
VERTEX
8
0
10
32.955353125
20
39.058909375
30
0
0
VERTEX
8
0
10
32.61239375
20
38.71595
30
0
0
SEQEND
0
POLYLINE
66
1
8
1_copper
10
0.0
20
0.0
30
0.0
70
1
0
VERTEX
8
0
10
31.463571875000003
20
38.33239375
30
0
0
VERTEX
8
0
10
31.476821875000002
20
38.4160375
30
0
0
VERTEX
8
0
10
31.525853125
20
38.56695
30
0
0
VERTEX
8
0
10
31.597875000000002
20
38.708296875
30
0
0
VERTEX
8
0
10
31.691143750000002
20
38.83666875
30
0
0
VERTEX
8
0
10
31.803328125
20
38.948853125
30
0
0
VERTEX
8
0
10
31.931700000000003
20
39.042121875
30
0
0
VERTEX
8
0
10
32.073046875
20
39.114143750000004
30
0
0
VERTEX
8
0
10
32.223959375
20
39.163175
30
0
0
VERTEX
8
0
10
32.3076
20
39.176421875
30
0
0
VERTEX
8
0
10
32.3076
20
38.4088
30
0
0
VERTEX
8
0
10
32.301859375
20
38.402446875
30
0
0
VERTEX
8
0
10
32.299703125
20
38.39920625
30
0
0
VERTEX
8
0
10
32.2975875
20
38.396728125
30
0
0
VERTEX
8
0
10
32.292465625
20
38.388340625000005
30
0
0
VERTEX
8
0
10
32.282940625
20
38.374034375
30
0
0
VERTEX
8
0
10
32.264428125
20
38.341637500000004
30
0
0
VERTEX
8
0
10
32.25364375
20
38.33239375
30
0
0
SEQEND
0
POLYLINE
66
1
8
1_copper
10
0.0
20
0.0
30
0.0
70
1
0
VERTEX
8
0
10
32.93595
20
38.33239375
30
0
0
VERTEX
8
0
10
33.3178
20
38.71424375
30
0
0
VERTEX
8
0
10
33.322121875
20
38.708296875
30
0
0
VERTEX
8
0
10
33.394143750000005
20
38.56695
30
0
0
VERTEX
8
0
10
33.443175000000004
20
38.4160375
30
0
0
VERTEX
8
0
10
33.456425
20
38.33239375
30
0
0
SEQEND
0
POLYLINE
66
1
8
1_copper
10
0.0
20
0.0
30
0.0
70
1
0
VERTEX
8
0
10
32.61239375
20
37.981353125
30
0
42
0.053146380203608255
0
VERTEX
8
0
10
32.6505625
20
38.018178125
30
0
0
VERTEX
8
0
10
32.654096875
20
38.023078125000005
30
0
42
0.005415717833380414
0
VERTEX
8
0
10
32.658171875
20
38.0276
30
0
0
VERTEX
8
0
10
33.456421875000004
20
38.0276
30
0
0
VERTEX
8
0
10
33.443175000000004
20
37.943959375
30
0
0
VERTEX
8
0
10
33.394143750000005
20
37.793046875
30
0
0
VERTEX
8
0
10
33.322121875
20
37.651700000000005
30
0
0
VERTEX
8
0
10
33.228853125
20
37.523328125
30
0
0
VERTEX
8
0
10
33.11666875
20
37.41114375
30
0
0
VERTEX
8
0
10
32.988296875
20
37.317875
30
0
0
VERTEX
8
0
10
32.84695
20
37.245853125000004
30
0
0
VERTEX
8
0
10
32.6960375
20
37.196821875000005
30
0
0
VERTEX
8
0
10
32.61239375
20
37.183571875
30
0
0
SEQEND
0
POLYLINE
66
1
8
1_copper
10
0.0
20
0.0
30
0.0
70
1
0
VERTEX
8
0
10
32.223959375
20
37.196821875000005
30
0
0
VERTEX
8
0
10
32.073046875
20
37.245853125000004
30
0
0
VERTEX
8
0
10
31.931700000000003
20
37.317875
30
0
0
VERTEX
8
0
10
31.803328125
20
37.41114375
30
0
0
VERTEX
8
0
10
31.691143750000002
20
37.523328125
30
0
0
VERTEX
8
0
10
31.597875000000002
20
37.651700000000005
30
0
0
VERTEX
8
0
10
31.547787500000002
20
37.75
30
0
0
VERTEX
8
0
10
32.25
20
37.75
30
0
42
0.058279378857448334
0
VERTEX
8
0
10
32.3076
20
37.757121875
30
0
0
VERTEX
8
0
10
32.3076
20
37.183575000000005
30
0
0
SEQEND
0
POLYLINE
66
1
8
1_copper
10
0.0
20
0.0
30
0.0
70
1
0
VERTEX
8
0
10
17.37239375
20
34.096425
30
0
0
VERTEX
8
0
10
17.4560375
20
34.083175000000004
30
0
0
VERTEX
8
0
10
17.60695
20
34.03414375
30
0
0
VERTEX
8
0
10
17.655731250000002
20
34.0092875
30
0
0
VERTEX
8
0
10
17.37239375
20
33.725950000000005
30
0
0
SEQEND
0
POLYLINE
66
1
8
1_copper
10
0.0
20
0.0
30
0.0
70
1
0
VERTEX
8
0
10
16.223571875
20
33.25239375
30
0
0
VERTEX
8
0
10
16.236821875
20
33.3360375
30
0
0
VERTEX
8
0
10
16.285853125
20
33.48695
30
0
0
VERTEX
8
0
10
16.357875
20
33.628296875000004
30
0
0
VERTEX
8
0
10
16.45114375
20
33.75666875
30
0
0
VERTEX
8
0
10
16.563328125
20
33.868853125
30
0
0
VERTEX
8
0
10
16.6917
20
33.962121875
30
0
0
VERTEX
8
0
10
16.833046875
20
34.03414375
30
0
0
VERTEX
8
0
10
16.983959375
20
34.083175000000004
30
0
0
VERTEX
8
0
10
17.067600000000002
20
34.096421875000004
30
0
0
VERTEX
8
0
10
17.067600000000002
20
33.420187500000004
30
0
42
0.13923495663181615
0
VERTEX
8
0
10
17.00485625
20
33.299028125
30
0
0
VERTEX
8
0
10
16.999971875
20
33.2746
30
0
0
VERTEX
8
0
10
16.951115625
20
33.25239375
30
0
0
SEQEND
0
POLYLINE
66
1
8
1_copper
10
0.0
20
0.0
30
0.0
70
1
0
VERTEX
8
0
10
13.8804
20
33.25
30
0
0
VERTEX
8
0
10
13.8804
20
33.30354375
30
0
0
VERTEX
8
0
10
13.49354375
20
33.690400000000004
30
0
0
VERTEX
8
0
10
13.37239375
20
33.690400000000004
30
0
0
VERTEX
8
0
10
13.37239375
20
33.944396875
30
0
0
VERTEX
8
0
10
13.598753125
20
33.944396875
30
0
0
VERTEX
8
0
10
14.134396875
20
33.408753125000004
30
0
0
VERTEX
8
0
10
14.134396875
20
33.25
30
0
0
SEQEND
0
POLYLINE
66
1
8
1_copper
10
0.0
20
0.0
30
0.0
70
1
0
VERTEX
8
0
10
12.3056
20
33.18239375
30
0
0
VERTEX
8
0
10
12.3056
20
33.408753125000004
30
0
0
VERTEX
8
0
10
12.84124375
20
33.944396875
30
0
0
VERTEX
8
0
10
13.0676
20
33.944396875
30
0
0
VERTEX
8
0
10
13.0676
20
33.690400000000004
30
0
0
VERTEX
8
0
10
12.94645625
20
33.690400000000004
30
0
0
VERTEX
8
0
10
12.559600000000001
20
33.30354375
30
0
0
VERTEX
8
0
10
12.559600000000001
20
33.18239375
30
0
0
SEQEND
0
POLYLINE
66
1
8
1_copper
10
0.0
20
0.0
30
0.0
70
1
0
VERTEX
8
0
10
17.60595
20
33.25239375
30
0
0
VERTEX
8
0
10
18.039928125
20
33.686371875
30
0
0
VERTEX
8
0
10
18.082121875000002
20
33.628296875000004
30
0
0
VERTEX
8
0
10
18.15414375
20
33.48695
30
0
0
VERTEX
8
0
10
18.203175
20
33.3360375
30
0
0
VERTEX
8
0
10
18.216425
20
33.25239375
30
0
0
SEQEND
0
POLYLINE
66
1
8
1_copper
10
0.0
20
0.0
30
0.0
70
1
0
VERTEX
8
0
10
17.37239375
20
32.9027
30
0
42
0.06439715926184758
0
VERTEX
8
0
10
17.418043750000002
20
32.9476
30
0
0
VERTEX
8
0
10
18.216421875
20
32.9476
30
0
0
VERTEX
8
0
10
18.203175
20
32.863959375
30
0
0
VERTEX
8
0
10
18.15414375
20
32.713046875
30
0
0
VERTEX
8
0
10
18.082121875000002
20
32.5717
30
0
0
VERTEX
8
0
10
17.988853125000002
20
32.443328125
30
0
0
VERTEX
8
0
10
17.87666875
20
32.33114375
30
0
0
VERTEX
8
0
10
17.748296875
20
32.237875
30
0
0
VERTEX
8
0
10
17.60695
20
32.165853125
30
0
0
VERTEX
8
0
10
17.4560375
20
32.116821875
30
0
0
VERTEX
8
0
10
17.37239375
20
32.103571875
30
0
0
SEQEND
0
POLYLINE
66
1
8
1_copper
10
0.0
20
0.0
30
0.0
70
1
0
VERTEX
8
0
10
12.84124375
20
32.1156
30
0
0
VERTEX
8
0
10
12.3056
20
32.65124375
30
0
0
VERTEX
8
0
10
12.3056
20
32.8776
30
0
0
VERTEX
8
0
10
12.559600000000001
20
32.8776
30
0
0
VERTEX
8
0
10
12.559600000000001
20
32.75645625
30
0
0
VERTEX
8
0
10
12.94645625
20
32.3696
30
0
0
VERTEX
8
0
10
13.0676
20
32.3696
30
0
0
VERTEX
8
0
10
13.0676
20
32.115596875
30
0
0
SEQEND
0
POLYLINE
66
1
8
1_copper
10
0.0
20
0.0
30
0.0
70
1
0
VERTEX
8
0
10
16.983959375
20
32.116821875
30
0
0
VERTEX
8
0
10
16.833046875
20
32.165853125
30
0
0
VERTEX
8
0
10
16.6917
20
32.237875
30
0
0
VERTEX
8
0
10
16.563328125
20
32.33114375
30
0
0
VERTEX
8
0
10
16.45114375
20
32.443328125
30
0
0
VERTEX
8
0
10
16.357875
20
32.5717
30
0
0
VERTEX
8
0
10
16.285853125
20
32.713046875
30
0
0
VERTEX
8
0
10
16.273846875
20
32.75
30
0
0
VERTEX
8
0
10
17
20
32.75
30
0
42
0.0686389996785811
0
VERTEX
8
0
10
17.067600000000002
20
32.759606250000004
30
0
0
VERTEX
8
0
10
17.067600000000002
20
32.103575
30
0
0
SEQEND
0
POLYLINE
66
1
8
1_copper
10
0.0
20
0.0
30
0.0
70
1
0
VERTEX
8
0
10
13.37239375
20
32.1156
30
0
0
VERTEX
8
0
10
13.37239375
20
32.3696
30
0
0
VERTEX
8
0
10
13.49354375
20
32.3696
30
0
0
VERTEX
8
0
10
13.87394375
20
32.75
30
0
0
VERTEX
8
0
10
14.134396875
20
32.75
30
0
0
VERTEX
8
0
10
14.134396875
20
32.65124375
30
0
0
VERTEX
8
0
10
13.598753125
20
32.1156
30
0
0
SEQEND
0
POLYLINE
66
1
8
1_copper
10
0.0
20
0.0
30
0.0
70
1
0
VERTEX
8
0
10
43.667515625
20
27.440990625
30
0
42
0.4386085260189454
0
VERTEX
8
0
10
43.75
20
27.516931250000003
30
0
0
VERTEX
8
0
10
43.75
20
28.449303125
30
0
42
0.6681786379192989
0
VERTEX
8
0
10
43.619918750000004
20
28.503184375
30
0
0
VERTEX
8
0
10
43.486865625
20
28.370128125
30
0
0
VERTEX
8
0
10
43.023028125
20
28.178
30
0
0
VERTEX
8
0
10
40.99696875
20
28.178
30
0
0
VERTEX
8
0
10
40.533131250000004
20
28.370128125
30
0
0
VERTEX
8
0
10
40.17558125
20
28.72768125
30
0
42
0.198912367379658
0
VERTEX
8
0
10
40.121700000000004
20
28.75
30
0
0
VERTEX
8
0
10
35.8508125
20
28.75
30
0
0
VERTEX
8
0
10
35.57515625
20
28.86418125
30
0
0
VERTEX
8
0
10
35.3534625
20
29.085875
30
0
0
VERTEX
8
0
10
33.844078125
20
30.5952625
30
0
42
0.6681786379192989
0
VERTEX
8
0
10
33.713996875
20
30.54138125
30
0
0
VERTEX
8
0
10
33.713996875
20
30.310559375
30
0
0
VERTEX
8
0
10
33.5230875
20
29.8496625
30
0
0
VERTEX
8
0
10
33.170334375
20
29.496909375
30
0
0
VERTEX
8
0
10
32.840762500000004
20
29.360400000000002
30
0
42
0.668189684777048
0
VERTEX
8
0
10
32.840762500000004
20
29.2196
30
0
0
VERTEX
8
0
10
33.170334375
20
29.0830875
30
0
0
VERTEX
8
0
10
33.5230875
20
28.730334375
30
0
0
VERTEX
8
0
10
33.713996875
20
28.269437500000002
30
0
0
VERTEX
8
0
10
33.713996875
20
27.770559375
30
0
0
VERTEX
8
0
10
33.5230875
20
27.3096625
30
0
0
VERTEX
8
0
10
33.170334375
20
26.956909375000002
30
0
0
VERTEX
8
0
10
32.840762500000004
20
26.820400000000003
30
0
42
0.668189684777048
0
VERTEX
8
0
10
32.840762500000004
20
26.6796
30
0
0
VERTEX
8
0
10
33.170334375
20
26.543087500000002
30
0
0
VERTEX
8
0
10
33.5230875
20
26.190334375000003
30
0
0
VERTEX
8
0
10
33.582440625000004
20
26.047037500000002
30
0
42
0.30335085355011276
0
VERTEX
8
0
10
33.652840625
20
25.999996875
30
0
0
VERTEX
8
0
10
40.5272
20
25.999996875
30
0
42
0.6681786379192989
0
VERTEX
8
0
10
40.581081250000004
20
26.130078125
30
0
0
VERTEX
8
0
10
40.473034375000005
20
26.238121875
30
0
0
VERTEX
8
0
10
40.3790375
20
26.367496875
30
0
0
VERTEX
8
0
10
40.306440625
20
26.509975
30
0
0
VERTEX
8
0
10
40.25701875
20
26.662087500000002
30
0
0
VERTEX
8
0
10
40.243475000000004
20
26.747600000000002
30
0
0
VERTEX
8
0
10
40.501384375
20
26.747600000000002
30
0
42
0.34262384306321253
0
VERTEX
8
0
10
41.210565625
20
26.138
30
0
0
VERTEX
8
0
10
42.809434375
20
26.138
30
0
42
0.9520795017710562
0
VERTEX
8
0
10
42.809434375
20
27.662000000000003
30
0
0
VERTEX
8
0
10
42.16239375
20
27.662000000000003
30
0
0
VERTEX
8
0
10
42.16239375
20
27.915993750000002
30
0
0
VERTEX
8
0
10
42.851953125
20
27.915996875
30
0
0
VERTEX
8
0
10
43.009909375
20
27.890978125
30
0
0
VERTEX
8
0
10
43.162021875
20
27.84155625
30
0
0
VERTEX
8
0
10
43.304500000000004
20
27.768959375
30
0
0
VERTEX
8
0
10
43.433875
20
27.674962500000003
30
0
0
VERTEX
8
0
10
43.5469625
20
27.561875
30
0
0
VERTEX
8
0
10
43.612153125
20
27.47214375
30
0
0
VERTEX
8
0
10
43.618265625
20
27.465859375
30
0
0
VERTEX
8
0
10
43.624078125000004
20
27.459187500000002
30
0
0
VERTEX
8
0
10
43.625862500000004
20
27.45805
30
0
0
VERTEX
8
0
10
43.627331250000005
20
27.456540625000002
30
0
0
VERTEX
8
0
10
43.635015625
20
27.452215625
30
0
0
VERTEX
8
0
10
43.642434375
20
27.4474875
30
0
0
VERTEX
8
0
10
43.644453125000005
20
27.446903125000002
30
0
0
VERTEX
8
0
10
43.646300000000004
20
27.445865625
30
0
0
VERTEX
8
0
10
43.654884375
20
27.44389375
30
0
0
VERTEX
8
0
10
43.663346875
20
27.44145
30
0
0
VERTEX
8
0
10
43.665462500000004
20
27.4414625
30
0
0
SEQEND
0
POLYLINE
66
1
8
1_copper
10
0.0
20
0.0
30
0.0
70
1
0
VERTEX
8
0
10
40.243475000000004
20
27.05239375
30
0
0
VERTEX
8
0
10
40.25701875
20
27.137909375
30
0
0
VERTEX
8
0
10
40.306440625
20
27.290021875
30
0
0
VERTEX
8
0
10
40.3790375
20
27.4325
30
0
0
VERTEX
8
0
10
40.473034375000005
20
27.561875
30
0
0
VERTEX
8
0
10
40.586121875
20
27.674962500000003
30
0
0
VERTEX
8
0
10
40.715496875
20
27.768959375
30
0
0
VERTEX
8
0
10
40.857975
20
27.84155625
30
0
0
VERTEX
8
0
10
41.010087500000004
20
27.890978125
30
0
0
VERTEX
8
0
10
41.16804375
20
27.915996875
30
0
0
VERTEX
8
0
10
41.857600000000005
20
27.915996875
30
0
0
VERTEX
8
0
10
41.857600000000005
20
27.662000000000003
30
0
0
VERTEX
8
0
10
41.210565625
20
27.662000000000003
30
0
0
VERTEX
8
0
10
41.13605625
20
27.6546625
30
0
0
VERTEX
8
0
10
41.062625000000004
20
27.64005625
30
0
0
VERTEX
8
0
10
40.990981250000004
20
27.618321875000003
30
0
0
VERTEX
8
0
10
40.921809375
20
27.589671875
30
0
0
VERTEX
8
0
10
40.85578125
20
27.554378125000003
30
0
0
VERTEX
8
0
10
40.79353125
20
27.51278125
30
0
0
VERTEX
8
0
10
40.735656250000005
20
27.465284375000003
30
0
0
VERTEX
8
0
10
40.682715625
20
27.41234375
30
0
0
VERTEX
8
0
10
40.63521875
20
27.354468750000002
30
0
0
VERTEX
8
0
10
40.593621875000004
20
27.29221875
30
0
0
VERTEX
8
0
10
40.558328125
20
27.226190625
30
0
0
VERTEX
8
0
10
40.529678125000004
20
27.157018750000002
30
0
0
VERTEX
8
0
10
40.50794375
20
27.085375000000003
30
0
0
VERTEX
8
0
10
40.501384375
20
27.05239375
30
0
0
SEQEND
0
POLYLINE
66
1
8
1_copper
10
0.0
20
0.0
30
0.0
70
1
0
VERTEX
8
0
10
8.310321875
20
18.88701875
30
0
42
0.30334709750080463
0
VERTEX
8
0
10
7.629434375000001
20
19.392
30
0
0
VERTEX
8
0
10
6.030565625
20
19.392
30
0
42
0.9520795017710562
0
VERTEX
8
0
10
6.030565625
20
17.868000000000002
30
0
0
VERTEX
8
0
10
6.6776
20
17.868000000000002
30
0
0
VERTEX
8
0
10
6.6776
20
17.614
30
0
0
VERTEX
8
0
10
5.98804375
20
17.614
30
0
0
VERTEX
8
0
10
5.8300875
20
17.63901875
30
0
0
VERTEX
8
0
10
5.677975
20
17.688440625000002
30
0
0
VERTEX
8
0
10
5.535496875000001
20
17.7610375
30
0
0
VERTEX
8
0
10
5.406125
20
17.85503125
30
0
42
0.17580312882654675
0
VERTEX
8
0
10
5.3575625
20
17.896643750000003
30
0
0
VERTEX
8
0
10
5.349809375
20
17.898881250000002
30
0
42
0.5108033244517648
0
VERTEX
8
0
10
5.249996875
20
17.8272
30
0
0
VERTEX
8
0
10
5.249996875
20
17.2311875
30
0
42
0.5345062264334504
0
VERTEX
8
0
10
5.35535625
20
17.1607875
30
0
0
VERTEX
8
0
10
5.81696875
20
17.351996875
30
0
0
VERTEX
8
0
10
7.843028125
20
17.351996875
30
0
0
VERTEX
8
0
10
8.306865625
20
17.15986875
30
0
0
VERTEX
8
0
10
8.66186875
20
16.804865625
30
0
0
VERTEX
8
0
10
8.853996875
20
16.341028125
30
0
0
VERTEX
8
0
10
8.853996875
20
15.838968750000001
30
0
0
VERTEX
8
0
10
8.66186875
20
15.37513125
30
0
0
VERTEX
8
0
10
8.306865625
20
15.020128125000001
30
0
0
VERTEX
8
0
10
7.993665625
20
14.890396875
30
0
42
0.668189684777048
0
VERTEX
8
0
10
7.993665625
20
14.749596875
30
0
0
VERTEX
8
0
10
8.306865625
20
14.61986875
30
0
0
VERTEX
8
0
10
8.66186875
20
14.264865625
30
0
0
VERTEX
8
0
10
8.853996875
20
13.801028125
30
0
0
VERTEX
8
0
10
8.853996875
20
13.348615625
30
0
42
0.6681786379192989
0
VERTEX
8
0
10
8.984078125
20
13.294734375
30
0
0
VERTEX
8
0
10
15.943681250000001
20
20.254340625
30
0
42
0.198912367379658
0
VERTEX
8
0
10
15.966000000000001
20
20.308221875
30
0
0
VERTEX
8
0
10
15.966000000000001
20
20.47138125
30
0
42
0.6681786379192989
0
VERTEX
8
0
10
15.835918750000001
20
20.5252625
30
0
0
VERTEX
8
0
10
15.146534375
20
19.835875
30
0
0
VERTEX
8
0
10
14.924840625
20
19.61418125
30
0
0
VERTEX
8
0
10
14.649184375
20
19.5
30
0
0
VERTEX
8
0
10
8.342796875000001
20
19.5
30
0
42
0.6681786379192989
0
VERTEX
8
0
10
8.288915625
20
19.36991875
30
0
0
VERTEX
8
0
10
8.3669625
20
19.291875
30
0
0
VERTEX
8
0
10
8.460959375
20
19.1625
30
0
0
VERTEX
8
0
10
8.53355625
20
19.020021875
30
0
0
VERTEX
8
0
10
8.582978125
20
18.867909375
30
0
0
VERTEX
8
0
10
8.596521875
20
18.78239375
30
0
0
VERTEX
8
0
10
8.338615625000001
20
18.78239375
30
0
0
VERTEX
8
0
10
8.33205625
20
18.815375
30
0
0
SEQEND
0
POLYLINE
66
1
8
1_copper
10
0.0
20
0.0
30
0.0
70
1
0
VERTEX
8
0
10
6.98239375
20
17.614
30
0
0
VERTEX
8
0
10
6.98239375
20
17.868000000000002
30
0
0
VERTEX
8
0
10
7.629434375000001
20
17.868000000000002
30
0
42
0.34262384306321253
0
VERTEX
8
0
10
8.338615625000001
20
18.477600000000002
30
0
0
VERTEX
8
0
10
8.596521875
20
18.477600000000002
30
0
0
VERTEX
8
0
10
8.582978125
20
18.392087500000002
30
0
0
VERTEX
8
0
10
8.53355625
20
18.239975
30
0
0
VERTEX
8
0
10
8.460959375
20
18.097496875
30
0
0
VERTEX
8
0
10
8.3669625
20
17.968121875
30
0
0
VERTEX
8
0
10
8.253875
20
17.855034375000002
30
0
0
VERTEX
8
0
10
8.124500000000001
20
17.7610375
30
0
0
VERTEX
8
0
10
7.982021875
20
17.688440625000002
30
0
0
VERTEX
8
0
10
7.829909375000001
20
17.63901875
30
0
0
VERTEX
8
0
10
7.671953125
20
17.614
30
0
0
SEQEND
0
POLYLINE
66
1
8
1_copper
10
0.0
20
0.0
30
0.0
70
1
0
VERTEX
8
0
10
40.243475000000004
20
9.52239375
30
0
0
VERTEX
8
0
10
40.25701875
20
9.607909375
30
0
0
VERTEX
8
0
10
40.306440625
20
9.760021875
30
0
0
VERTEX
8
0
10
40.3790375
20
9.9025
30
0
0
VERTEX
8
0
10
40.473034375000005
20
10.031875000000001
30
0
0
VERTEX
8
0
10
40.586121875
20
10.1449625
30
0
0
VERTEX
8
0
10
40.715496875
20
10.238959375
30
0
0
VERTEX
8
0
10
40.857975
20
10.31155625
30
0
0
VERTEX
8
0
10
41.010087500000004
20
10.360978125
30
0
0
VERTEX
8
0
10
41.16804375
20
10.385996875
30
0
0
VERTEX
8
0
10
41.857600000000005
20
10.385996875
30
0
0
VERTEX
8
0
10
41.857600000000005
20
10.132
30
0
0
VERTEX
8
0
10
41.210565625
20
10.132
30
0
0
VERTEX
8
0
10
41.13605625
20
10.124662500000001
30
0
0
VERTEX
8
0
10
41.062625000000004
20
10.110056250000001
30
0
0
VERTEX
8
0
10
40.990981250000004
20
10.088321875
30
0
0
VERTEX
8
0
10
40.921809375
20
10.059671875000001
30
0
0
VERTEX
8
0
10
40.85578125
20
10.024378125
30
0
0
VERTEX
8
0
10
40.79353125
20
9.98278125
30
0
0
VERTEX
8
0
10
40.735656250000005
20
9.935284375
30
0
0
VERTEX
8
0
10
40.682715625
20
9.88234375
30
0
0
VERTEX
8
0
10
40.63521875
20
9.824468750000001
30
0
0
VERTEX
8
0
10
40.593621875000004
20
9.76221875
30
0
0
VERTEX
8
0
10
40.558328125
20
9.696190625
30
0
0
VERTEX
8
0
10
40.529678125000004
20
9.627018750000001
30
0
0
VERTEX
8
0
10
40.50794375
20
9.555375
30
0
0
VERTEX
8
0
10
40.501384375
20
9.52239375
30
0
0
SEQEND
0
POLYLINE
66
1
8
1_copper
10
0.0
20
0.0
30
0.0
70
1
0
VERTEX
8
0
10
43.518615625
20
9.52239375
30
0
42
0.3426260879834854
0
VERTEX
8
0
10
42.809434375
20
10.132
30
0
0
VERTEX
8
0
10
42.16239375
20
10.132
30
0
0
VERTEX
8
0
10
42.16239375
20
10.38599375
30
0
0
VERTEX
8
0
10
42.851953125
20
10.385996875
30
0
0
VERTEX
8
0
10
43.009909375
20
10.360978125
30
0
0
VERTEX
8
0
10
43.162021875
20
10.31155625
30
0
0
VERTEX
8
0
10
43.304500000000004
20
10.238959375
30
0
0
VERTEX
8
0
10
43.433875
20
10.1449625
30
0
0
VERTEX
8
0
10
43.5469625
20
10.031875000000001
30
0
0
VERTEX
8
0
10
43.640959375
20
9.9025
30
0
0
VERTEX
8
0
10
43.71355625
20
9.760021875
30
0
0
VERTEX
8
0
10
43.762978125000004
20
9.607909375
30
0
0
VERTEX
8
0
10
43.776521875
20
9.52239375
30
0
0
SEQEND
0
POLYLINE
66
1
8
1_copper
10
0.0
20
0.0
30
0.0
70
1
0
VERTEX
8
0
10
41.16804375
20
8.354000000000001
30
0
0
VERTEX
8
0
10
41.010087500000004
20
8.37901875
30
0
0
VERTEX
8
0
10
40.857975
20
8.428440625
30
0
0
VERTEX
8
0
10
40.715496875
20
8.5010375
30
0
0
VERTEX
8
0
10
40.586121875
20
8.595034375000001
30
0
0
VERTEX
8
0
10
40.473034375000005
20
8.708121875
30
0
0
VERTEX
8
0
10
40.3790375
20
8.837496875000001
30
0
0
VERTEX
8
0
10
40.306440625
20
8.979975
30
0
0
VERTEX
8
0
10
40.25701875
20
9.1320875
30
0
0
VERTEX
8
0
10
40.243475000000004
20
9.217600000000001
30
0
0
VERTEX
8
0
10
40.501384375
20
9.217600000000001
30
0
42
0.34262384306321253
0
VERTEX
8
0
10
41.210565625
20
8.608
30
0
0
VERTEX
8
0
10
41.857600000000005
20
8.608
30
0
0
VERTEX
8
0
10
41.857600000000005
20
8.354000000000001
30
0
0
SEQEND
0
POLYLINE
66
1
8
1_copper
10
0.0
20
0.0
30
0.0
70
1
0
VERTEX
8
0
10
42.16239375
20
8.354000000000001
30
0
0
VERTEX
8
0
10
42.16239375
20
8.608
30
0
0
VERTEX
8
0
10
42.809434375
20
8.608
30
0
42
0.34262384306321253
0
VERTEX
8
0
10
43.518615625
20
9.217600000000001
30
0
0
VERTEX
8
0
10
43.776521875
20
9.217600000000001
30
0
0
VERTEX
8
0
10
43.762978125000004
20
9.1320875
30
0
0
VERTEX
8
0
10
43.71355625
20
8.979975
30
0
0
VERTEX
8
0
10
43.640959375
20
8.837496875000001
30
0
0
VERTEX
8
0
10
43.5469625
20
8.708121875
30
0
0
VERTEX
8
0
10
43.433875
20
8.595034375000001
30
0
0
VERTEX
8
0
10
43.304500000000004
20
8.5010375
30
0
0
VERTEX
8
0
10
43.162021875
20
8.428440625
30
0
0
VERTEX
8
0
10
43.009909375
20
8.37901875
30
0
0
VERTEX
8
0
10
42.851953125
20
8.354000000000001
30
0
0
SEQEND
0
POLYLINE
66
1
8
1_copper
10
0.0
20
0.0
30
0.0
70
1
0
VERTEX
8
0
10
2.701628125
20
1.5
30
0
0
VERTEX
8
0
10
2.150315625
20
1.7283625
30
0
0
VERTEX
8
0
10
1.7283625
20
2.150315625
30
0
0
VERTEX
8
0
10
1.5
20
2.701628125
30
0
0
VERTEX
8
0
10
1.5
20
3.2983687500000003
30
0
0
VERTEX
8
0
10
1.7283625
20
3.84968125
30
0
0
VERTEX
8
0
10
2.150315625
20
4.2716343750000005
30
0
0
VERTEX
8
0
10
2.701628125
20
4.499996875
30
0
0
VERTEX
8
0
10
3.2983687500000003
20
4.499996875
30
0
0
VERTEX
8
0
10
3.84968125
20
4.2716343750000005
30
0
0
VERTEX
8
0
10
4.2716343750000005
20
3.84968125
30
0
0
VERTEX
8
0
10
4.499996875
20
3.2983687500000003
30
0
0
VERTEX
8
0
10
4.499996875
20
2.701628125
30
0
0
VERTEX
8
0
10
4.2716343750000005
20
2.150315625
30
0
0
VERTEX
8
0
10
3.84968125
20
1.7283625
30
0
0
VERTEX
8
0
10
3.2983687500000003
20
1.5
30
0
0
SEQEND
0
POLYLINE
66
1
8
1_copper
10
0.0
20
0.0
30
0.0
70
1
0
VERTEX
8
0
10
44.201628125
20
1.5
30
0
0
VERTEX
8
0
10
43.650315625000005
20
1.7283625
30
0
0
VERTEX
8
0
10
43.2283625
20
2.150315625
30
0
0
VERTEX
8
0
10
43
20
2.701628125
30
0
0
VERTEX
8
0
10
43
20
3.2983687500000003
30
0
0
VERTEX
8
0
10
43.2283625
20
3.84968125
30
0
0
VERTEX
8
0
10
43.650315625000005
20
4.2716343750000005
30
0
0
VERTEX
8
0
10
44.201628125
20
4.499996875
30
0
0
VERTEX
8
0
10
44.79836875
20
4.499996875
30
0
0
VERTEX
8
0
10
45.34968125
20
4.2716343750000005
30
0
0
VERTEX
8
0
10
45.771634375000005
20
3.84968125
30
0
0
VERTEX
8
0
10
45.999996875
20
3.2983687500000003
30
0
0
VERTEX
8
0
10
45.999996875
20
2.701628125
30
0
0
VERTEX
8
0
10
45.771634375000005
20
2.150315625
30
0
0
VERTEX
8
0
10
45.34968125
20
1.7283625
30
0
0
VERTEX
8
0
10
44.79836875
20
1.5
30
0
0
SEQEND
0
POLYLINE
66
1
8
16_copper
10
0.0
20
0.0
30
0.0
70
1
0
VERTEX
8
0
10
42.73394375
20
42.7253375
30
0
42
0.6285496954991072
0
VERTEX
8
0
10
43.141593750000006
20
44.0380375
30
0
0
VERTEX
8
0
10
44.426778125000006
20
45.323221875
30
0
42
0.198912367379658
0
VERTEX
8
0
10
44.5
20
45.5
30
0
0
VERTEX
8
0
10
44.5
20
49.75
30
0
42
0.198912367379658
0
VERTEX
8
0
10
44.426778125000006
20
49.926778125000006
30
0
0
VERTEX
8
0
10
39.242000000000004
20
55.11155625
30
0
0
VERTEX
8
0
10
39.242000000000004
20
56.469434375000006
30
0
42
0.9520795017710562
0
VERTEX
8
0
10
37.718
20
56.469434375000006
30
0
0
VERTEX
8
0
10
37.718
20
54.870565625000005
30
0
42
0.7402923702672192
0
VERTEX
8
0
10
39.132890625
20
54.513553125
30
0
0
VERTEX
8
0
10
44
20
49.64644375
30
0
0
VERTEX
8
0
10
44
20
45.603556250000004
30
0
0
VERTEX
8
0
10
42.63844375
20
44.242000000000004
30
0
0
VERTEX
8
0
10
41.060565625
20
44.242000000000004
30
0
42
0.9520795017710562
0
VERTEX
8
0
10
41.060565625
20
42.718
30
0
0
VERTEX
8
0
10
42.659434375000004
20
42.718
30
0
0
SEQEND
0
POLYLINE
66
1
8
16_copper
10
0.0
20
0.0
30
0.0
70
1
0
VERTEX
8
0
10
12.94645625
20
32.3696
30
0
0
VERTEX
8
0
10
13.49354375
20
32.3696
30
0
0
VERTEX
8
0
10
13.8804
20
32.75645625
30
0
0
VERTEX
8
0
10
13.8804
20
33.30354375
30
0
0
VERTEX
8
0
10
13.49354375
20
33.690400000000004
30
0
0
VERTEX
8
0
10
12.94645625
20
33.690400000000004
30
0
0
VERTEX
8
0
10
12.559600000000001
20
33.30354375
30
0
0
VERTEX
8
0
10
12.559600000000001
20
32.91315625
30
0
0
VERTEX
8
0
10
12.25
20
32.603556250000004
30
0
0
VERTEX
8
0
10
12.25
20
47.769600000000004
30
0
0
VERTEX
8
0
10
12.36354375
20
47.769600000000004
30
0
0
VERTEX
8
0
10
12.7504
20
48.156456250000005
30
0
0
VERTEX
8
0
10
12.7504
20
48.70354375
30
0
0
VERTEX
8
0
10
12.36354375
20
49.0904
30
0
0
VERTEX
8
0
10
11.81645625
20
49.0904
30
0
0
VERTEX
8
0
10
11.78980625
20
49.06375
30
0
0
VERTEX
8
0
10
10.25
20
50.603556250000004
30
0
0
VERTEX
8
0
10
10.25
20
54.222434375000006
30
0
42
0.25136285018746646
0
VERTEX
8
0
10
10.622
20
54.840565625
30
0
0
VERTEX
8
0
10
10.622
20
56.439434375000005
30
0
42
0.9520795017710562
0
VERTEX
8
0
10
9.098
20
56.439434375000005
30
0
0
VERTEX
8
0
10
9.098
20
54.840565625
30
0
42
0.3585270805167009
0
VERTEX
8
0
10
9.75
20
54.123146875
30
0
0
VERTEX
8
0
10
9.75
20
50.5
30
0
42
0.198912367379658
0
VERTEX
8
0
10
9.823221875
20
50.323221875
30
0
0
VERTEX
8
0
10
11.436250000000001
20
48.71019375
30
0
0
VERTEX
8
0
10
11.4296
20
48.70354375
30
0
0
VERTEX
8
0
10
11.4296
20
48.156456250000005
30
0
0
VERTEX
8
0
10
11.75
20
47.836056250000006
30
0
0
VERTEX
8
0
10
11.75
20
32.25
30
0
42
0.12262877244528134
0
VERTEX
8
0
10
11.779234375
20
32.132790625
30
0
0
VERTEX
8
0
10
10.573221875
20
30.926778125000002
30
0
42
0.198912367379658
0
VERTEX
8
0
10
10.5
20
30.75
30
0
0
VERTEX
8
0
10
10.5
20
22.60355625
30
0
0
VERTEX
8
0
10
7.288443750000001
20
19.392
30
0
0
VERTEX
8
0
10
6.030565625
20
19.392
30
0
42
0.9520795017710562
0
VERTEX
8
0
10
6.030565625
20
17.868000000000002
30
0
0
VERTEX
8
0
10
7.629434375000001
20
17.868000000000002
30
0
42
0.77844926320257
0
VERTEX
8
0
10
7.921471875
20
19.317915625
30
0
0
VERTEX
8
0
10
10.926778125
20
22.323221875
30
0
42
0.198912367379658
0
VERTEX
8
0
10
11
20
22.5
30
0
0
VERTEX
8
0
10
11
20
30.646443750000003
30
0
0
VERTEX
8
0
10
12.83480625
20
32.48125
30
0
0
SEQEND
0
POLYLINE
66
1
8
16_copper
10
0.0
20
0.0
30
0.0
70
1
0
VERTEX
8
0
10
22.14
20
51.68395
30
0
0
VERTEX
8
0
10
22.14
20
52.736050000000006
30
0
0
VERTEX
8
0
10
21.396050000000002
20
53.480000000000004
30
0
0
VERTEX
8
0
10
20.34395
20
53.480000000000004
30
0
0
VERTEX
8
0
10
19.6
20
52.736050000000006
30
0
0
VERTEX
8
0
10
19.6
20
51.68395
30
0
0
VERTEX
8
0
10
20.34395
20
50.940000000000005
30
0
0
VERTEX
8
0
10
21.396050000000002
20
50.940000000000005
30
0
0
SEQEND
0
POLYLINE
66
1
8
16_copper
10
0.0
20
0.0
30
0.0
70
1
0
VERTEX
8
0
10
42.88394375
20
8.6153375
30
0
42
0.9063472543261978
0
VERTEX
8
0
10
42.809434375
20
10.132
30
0
0
VERTEX
8
0
10
41.210565625
20
10.132
30
0
42
0.2553155746910513
0
VERTEX
8
0
10
40.587090625
20
9.75
30
0
0
VERTEX
8
0
10
39.75
20
9.75
30
0
0
VERTEX
8
0
10
39.75
20
24.14644375
30
0
0
VERTEX
8
0
10
41.74155625
20
26.138
30
0
0
VERTEX
8
0
10
42.809434375
20
26.138
30
0
42
0.9520795017710562
0
VERTEX
8
0
10
42.809434375
20
27.662000000000003
30
0
0
VERTEX
8
0
10
41.210565625
20
27.662000000000003
30
0
0
VERTEX
8
0
10
41.193259375000004
20
27.660296875
30
0
0
VERTEX
8
0
10
34.25
20
34.603556250000004
30
0
0
VERTEX
8
0
10
34.25
20
36.5
30
0
42
0.198912367379658
0
VERTEX
8
0
10
34.176778125
20
36.676778125
30
0
0
VERTEX
8
0
10
32.728253125
20
38.125303125
30
0
0
VERTEX
8
0
10
32.704046875
20
38.23423125
30
0
42
0.9999999999999999
0
VERTEX
8
0
10
32.215953125
20
38.12576875
30
0
0
VERTEX
8
0
10
32.255953125000005
20
37.94576875
30
0
42
0.1426394000969085
0
VERTEX
8
0
10
32.323221875
20
37.823221875
30
0
0
VERTEX
8
0
10
33.75
20
36.39644375
30
0
0
VERTEX
8
0
10
33.75
20
34.5
30
0
42
0.198912367379658
0
VERTEX
8
0
10
33.823221875
20
34.323221875
30
0
0
VERTEX
8
0
10
40.708409375
20
27.4380375
30
0
42
0.5801444772930028
0
VERTEX
8
0
10
41.057840625000004
20
26.161396875
30
0
0
VERTEX
8
0
10
39.323221875
20
24.426778125000002
30
0
42
0.198912367379658
0
VERTEX
8
0
10
39.25
20
24.25
30
0
0
VERTEX
8
0
10
39.25
20
9.5
30
0
42
0.41421356237309503
0
VERTEX
8
0
10
39.5
20
9.25
30
0
0
VERTEX
8
0
10
40.494940625000005
20
9.25
30
0
42
0.35477456003164115
0
VERTEX
8
0
10
41.210565625
20
8.608
30
0
0
VERTEX
8
0
10
42.809434375
20
8.608
30
0
0
SEQEND
0
POLYLINE
66
1
8
1_copper
10
0.0
20
0.0
30
0.0
70
1
0
VERTEX
8
0
10
5.1304
20
48.156456250000005
30
0
0
VERTEX
8
0
10
5.1304
20
48.70354375
30
0
0
VERTEX
8
0
10
4.743543750000001
20
49.0904
30
0
0
VERTEX
8
0
10
4.19645625
20
49.0904
30
0
0
VERTEX
8
0
10
3.8096
20
48.70354375
30
0
0
VERTEX
8
0
10
3.8096
20
48.156456250000005
30
0
0
VERTEX
8
0
10
4.19645625
20
47.769600000000004
30
0
0
VERTEX
8
0
10
4.743543750000001
20
47.769600000000004
30
0
0
SEQEND
0
POLYLINE
66
1
8
1_copper
10
0.0
20
0.0
30
0.0
70
1
0
VERTEX
8
0
10
7.51394375
20
39.7353375
30
0
42
0.9063472543261978
0
VERTEX
8
0
10
7.439434375
20
41.252
30
0
0
VERTEX
8
0
10
5.840565625
20
41.252
30
0
42
0.9520795017710562
0
VERTEX
8
0
10
5.840565625
20
39.728
30
0
0
VERTEX
8
0
10
7.439434375
20
39.728
30
0
0
SEQEND
0
POLYLINE
66
1
8
16_copper
10
0.0
20
0.0
30
0.0
70
1
0
VERTEX
8
0
10
7.51394375
20
39.7353375
30
0
42
0.9063472543261978
0
VERTEX
8
0
10
7.439434375
20
41.252
30
0
0
VERTEX
8
0
10
6.75
20
41.252
30
0
0
VERTEX
8
0
10
6.75
20
46.25
30
0
42
0.198912367379658
0
VERTEX
8
0
10
6.676778125
20
46.426778125000006
30
0
0
VERTEX
8
0
10
5.03875
20
48.064806250000004
30
0
0
VERTEX
8
0
10
5.1304
20
48.156456250000005
30
0
0
VERTEX
8
0
10
5.1304
20
48.70354375
30
0
0
VERTEX
8
0
10
4.743543750000001
20
49.0904
30
0
0
VERTEX
8
0
10
4.19645625
20
49.0904
30
0
0
VERTEX
8
0
10
3.8096
20
48.70354375
30
0
0
VERTEX
8
0
10
3.8096
20
48.156456250000005
30
0
0
VERTEX
8
0
10
4.19645625
20
47.769600000000004
30
0
0
VERTEX
8
0
10
4.62684375
20
47.769600000000004
30
0
0
VERTEX
8
0
10
6.25
20
46.14644375
30
0
0
VERTEX
8
0
10
6.25
20
41.252
30
0
0
VERTEX
8
0
10
5.840565625
20
41.252
30
0
42
0.9520795017710562
0
VERTEX
8
0
10
5.840565625
20
39.728
30
0
0
VERTEX
8
0
10
7.439434375
20
39.728
30
0
0
SEQEND
0
POLYLINE
66
1
8
1_copper
10
0.0
20
0.0
30
0.0
70
1
0
VERTEX
8
0
10
13.75200625
20
6.500159375
30
0
42
0.19682628245095668
0
VERTEX
8
0
10
13.926778125
20
6.573221875000001
30
0
0
VERTEX
8
0
10
17.176778125000002
20
9.823221875
30
0
42
0.010862383169077006
0
VERTEX
8
0
10
17.1842875
20
9.83106875
30
0
0
VERTEX
8
0
10
17.404287500000002
20
10.07106875
30
0
42
0.9999999999999999
0
VERTEX
8
0
10
17.035712500000002
20
10.40893125
30
0
0
VERTEX
8
0
10
16.819425000000003
20
10.172981250000001
30
0
0
VERTEX
8
0
10
13.646443750000001
20
7
30
0
0
VERTEX
8
0
10
4.8535562500000005
20
7
30
0
0
VERTEX
8
0
10
3.75
20
8.10355625
30
0
0
VERTEX
8
0
10
3.75
20
37.5
30
0
0
VERTEX
8
0
10
5.26223125
20
37.5
30
0
42
0.2264072445356542
0
VERTEX
8
0
10
5.840565625
20
37.188
30
0
0
VERTEX
8
0
10
7.439434375
20
37.188
30
0
42
0.9520795017710562
0
VERTEX
8
0
10
7.439434375
20
38.712
30
0
0
VERTEX
8
0
10
5.840565625
20
38.712
30
0
42
0.3809994298029133
0
VERTEX
8
0
10
5.1172375
20
38
30
0
0
VERTEX
8
0
10
3.5
20
38
30
0
42
0.41421356237309503
0
VERTEX
8
0
10
3.25
20
37.75
30
0
0
VERTEX
8
0
10
3.25
20
8
30
0
42
0.198912367379658
0
VERTEX
8
0
10
3.323221875
20
7.823221875000001
30
0
0
VERTEX
8
0
10
4.573221875000001
20
6.573221875000001
30
0
42
0.198912367379658
0
VERTEX
8
0
10
4.75
20
6.5
30
0
0
VERTEX
8
0
10
13.75
20
6.5
30
0
0
SEQEND
0
POLYLINE
66
1
8
16_copper
10
0.0
20
0.0
30
0.0
70
1
0
VERTEX
8
0
10
7.51394375
20
37.1953375
30
0
42
0.9063472543261978
0
VERTEX
8
0
10
7.439434375
20
38.712
30
0
0
VERTEX
8
0
10
5.840565625
20
38.712
30
0
42
0.9520795017710562
0
VERTEX
8
0
10
5.840565625
20
37.188
30
0
0
VERTEX
8
0
10
7.439434375
20
37.188
30
0
0
SEQEND
0
POLYLINE
66
1
8
1_copper
10
0.0
20
0.0
30
0.0
70
1
0
VERTEX
8
0
10
36.05194375
20
54.1533375
30
0
42
0.3578057741447831
0
VERTEX
8
0
10
36.702000000000005
20
54.870565625000005
30
0
0
VERTEX
8
0
10
36.702000000000005
20
56.469434375000006
30
0
42
0.9520795017710562
0
VERTEX
8
0
10
35.178000000000004
20
56.469434375000006
30
0
0
VERTEX
8
0
10
35.178000000000004
20
54.870565625000005
30
0
0
VERTEX
8
0
10
35.1853375
20
54.79605625
30
0
0
VERTEX
8
0
10
35.19994375
20
54.722625
30
0
0
VERTEX
8
0
10
35.221678125000004
20
54.65098125
30
0
0
VERTEX
8
0
10
35.250328125
20
54.581809375000006
30
0
0
VERTEX
8
0
10
35.285621875000004
20
54.51578125
30
0
0
VERTEX
8
0
10
35.32721875
20
54.453531250000005
30
0
0
VERTEX
8
0
10
35.374715625
20
54.39565625
30
0
0
VERTEX
8
0
10
35.42765625
20
54.342715625000004
30
0
0
VERTEX
8
0
10
35.48553125
20
54.295218750000004
30
0
0
VERTEX
8
0
10
35.54778125
20
54.253621875
30
0
0
VERTEX
8
0
10
35.613809375
20
54.218328125
30
0
0
VERTEX
8
0
10
35.682981250000005
20
54.189678125
30
0
0
VERTEX
8
0
10
35.754625000000004
20
54.16794375
30
0
0
VERTEX
8
0
10
35.82805625
20
54.1533375
30
0
0
VERTEX
8
0
10
35.902565625
20
54.146
30
0
0
VERTEX
8
0
10
35.977434375
20
54.146
30
0
0
SEQEND
0
POLYLINE
66
1
8
16_copper
10
0.0
20
0.0
30
0.0
70
1
0
VERTEX
8
0
10
32.50735
20
40.474525
30
0
0
VERTEX
8
0
10
32.54541875
20
40.485046875
30
0
42
0.15513344244241176
0
VERTEX
8
0
10
32.676778125
20
40.573221875
30
0
0
VERTEX
8
0
10
35.926778125
20
43.823221875
30
0
42
0.198912367379658
0
VERTEX
8
0
10
36
20
44
30
0
0
VERTEX
8
0
10
36
20
54.148221875000004
30
0
42
0.3772314922384752
0
VERTEX
8
0
10
36.702000000000005
20
54.870565625000005
30
0
0
VERTEX
8
0
10
36.702000000000005
20
56.469434375000006
30
0
42
0.9520795017710562
0
VERTEX
8
0
10
35.178000000000004
20
56.469434375000006
30
0
0
VERTEX
8
0
10
35.178000000000004
20
54.870565625000005
30
0
42
0.23055403246639153
0
VERTEX
8
0
10
35.5
20
54.28555
30
0
0
VERTEX
8
0
10
35.5
20
44.103556250000004
30
0
0
VERTEX
8
0
10
32.335775
20
40.93933125
30
0
42
0.10598851751636919
0
VERTEX
8
0
10
32.255228125
20
40.86341875
30
0
0
VERTEX
8
0
10
32.235196875
20
40.829378125000005
30
0
0
VERTEX
8
0
10
32.220775
20
40.79260625
30
0
0
VERTEX
8
0
10
32.212325
20
40.754025
30
0
0
VERTEX
8
0
10
32.210059375
20
40.714590625
30
0
0
VERTEX
8
0
10
32.214031250000005
20
40.67529375
30
0
0
VERTEX
8
0
10
32.224140625000004
20
40.6371125
30
0
0
VERTEX
8
0
10
32.2401375
20
40.601
30
0
0
VERTEX
8
0
10
32.261625
20
40.56785625
30
0
0
VERTEX
8
0
10
32.2880625
20
40.5385125
30
0
0
VERTEX
8
0
10
32.318790625
20
40.5137
30
0
0
VERTEX
8
0
10
32.353046875000004
20
40.494034375000005
30
0
0
VERTEX
8
0
10
32.38996875
20
40.480009375
30
0
0
VERTEX
8
0
10
32.428640625
20
40.471975
30
0
0
VERTEX
8
0
10
32.468096875
20
40.47013125
30
0
0
SEQEND
0
POLYLINE
66
1
8
1_copper
10
0.0
20
0.0
30
0.0
70
1
0
VERTEX
8
0
10
17.26204375
20
35.393559375
30
0
42
0.7248989960668809
0
VERTEX
8
0
10
17.331803125
20
35.863606250000004
30
0
0
VERTEX
8
0
10
17.148096875
20
35.955459375000004
30
0
0
VERTEX
8
0
10
10.75
20
42.353556250000004
30
0
0
VERTEX
8
0
10
10.75
20
53.14644375
30
0
0
VERTEX
8
0
10
11.903371875000001
20
54.299815625
30
0
42
0.6239491253549393
0
VERTEX
8
0
10
13.162
20
54.840565625
30
0
0
VERTEX
8
0
10
13.162
20
56.439434375000005
30
0
42
0.9520795017710562
0
VERTEX
8
0
10
11.638
20
56.439434375000005
30
0
0
VERTEX
8
0
10
11.638
20
54.840565625
30
0
42
0.029333315698434177
0
VERTEX
8
0
10
11.648184375000001
20
54.751740625000004
30
0
0
VERTEX
8
0
10
10.323221875
20
53.426778125000006
30
0
42
0.198912367379658
0
VERTEX
8
0
10
10.25
20
53.25
30
0
0
VERTEX
8
0
10
10.25
20
42.25
30
0
42
0.198912367379658
0
VERTEX
8
0
10
10.323221875
20
42.073221875
30
0
0
VERTEX
8
0
10
16.823221875
20
35.573221875
30
0
42
0.0806115716705355
0
VERTEX
8
0
10
16.888196875000002
20
35.526393750000004
30
0
0
VERTEX
8
0
10
17.108196875
20
35.416393750000005
30
0
0
VERTEX
8
0
10
17.144809375
20
35.401575
30
0
0
VERTEX
8
0
10
17.1833
20
35.392709375
30
0
0
VERTEX
8
0
10
17.222703125000002
20
35.390015625000004
30
0
0
SEQEND
0
POLYLINE
66
1
8
16_copper
10
0.0
20
0.0
30
0.0
70
1
0
VERTEX
8
0
10
12.51194375
20
54.123337500000005
30
0
42
0.3578057741447831
0
VERTEX
8
0
10
13.162
20
54.840565625
30
0
0
VERTEX
8
0
10
13.162
20
56.439434375000005
30
0
42
0.9520795017710562
0
VERTEX
8
0
10
11.638
20
56.439434375000005
30
0
0
VERTEX
8
0
10
11.638
20
54.840565625
30
0
0
VERTEX
8
0
10
11.6453375
20
54.766056250000005
30
0
0
VERTEX
8
0
10
11.65994375
20
54.692625
30
0
0
VERTEX
8
0
10
11.681678125000001
20
54.62098125
30
0
0
VERTEX
8
0
10
11.710328125
20
54.551809375000005
30
0
0
VERTEX
8
0
10
11.745621875000001
20
54.48578125
30
0
0
VERTEX
8
0
10
11.787218750000001
20
54.42353125
30
0
0
VERTEX
8
0
10
11.834715625000001
20
54.36565625
30
0
0
VERTEX
8
0
10
11.887656250000001
20
54.312715625
30
0
0
VERTEX
8
0
10
11.94553125
20
54.26521875
30
0
0
VERTEX
8
0
10
12.00778125
20
54.223621875
30
0
0
VERTEX
8
0
10
12.073809375
20
54.188328125000005
30
0
0
VERTEX
8
0
10
12.14298125
20
54.159678125
30
0
0
VERTEX
8
0
10
12.214625
20
54.137943750000005
30
0
0
VERTEX
8
0
10
12.28805625
20
54.123337500000005
30
0
0
VERTEX
8
0
10
12.362565625
20
54.116
30
0
0
VERTEX
8
0
10
12.437434375
20
54.116
30
0
0
SEQEND
0
POLYLINE
66
1
8
1_copper
10
0.0
20
0.0
30
0.0
70
1
0
VERTEX
8
0
10
14.0904
20
44.09645625
30
0
0
VERTEX
8
0
10
14.0904
20
44.64354375
30
0
0
VERTEX
8
0
10
14.043750000000001
20
44.69019375
30
0
0
VERTEX
8
0
10
15.10355625
20
45.75
30
0
0
VERTEX
8
0
10
40.385056250000005
20
45.75
30
0
42
0.2983280330391275
0
VERTEX
8
0
10
41.060565625
20
45.258
30
0
0
VERTEX
8
0
10
42.659434375000004
20
45.258
30
0
42
0.9520795017710562
0
VERTEX
8
0
10
42.659434375000004
20
46.782000000000004
30
0
0
VERTEX
8
0
10
41.060565625
20
46.782000000000004
30
0
42
0.3134810094041662
0
VERTEX
8
0
10
40.37148125
20
46.25
30
0
0
VERTEX
8
0
10
15
20
46.25
30
0
42
0.198912367379658
0
VERTEX
8
0
10
14.823221875000002
20
46.176778125000006
30
0
0
VERTEX
8
0
10
13.676843750000002
20
45.0304
30
0
0
VERTEX
8
0
10
13.156456250000002
20
45.0304
30
0
0
VERTEX
8
0
10
12.7696
20
44.64354375
30
0
0
VERTEX
8
0
10
12.7696
20
44.09645625
30
0
0
VERTEX
8
0
10
13.156456250000002
20
43.7096
30
0
0
VERTEX
8
0
10
13.703543750000001
20
43.7096
30
0
0
SEQEND
0
POLYLINE
66
1
8
16_copper
10
0.0
20
0.0
30
0.0
70
1
0
VERTEX
8
0
10
42.73394375
20
45.2653375
30
0
42
0.9063472543261978
0
VERTEX
8
0
10
42.659434375000004
20
46.782000000000004
30
0
0
VERTEX
8
0
10
41.060565625
20
46.782000000000004
30
0
42
0.9520795017710562
0
VERTEX
8
0
10
41.060565625
20
45.258
30
0
0
VERTEX
8
0
10
42.659434375000004
20
45.258
30
0
0
SEQEND
0
POLYLINE
66
1
8
16_copper
10
0.0
20
0.0
30
0.0
70
1
0
VERTEX
8
0
10
17.253659375
20
25.232275
30
0
42
0.19536268338857735
0
VERTEX
8
0
10
17.426778125000002
20
25.323221875
30
0
0
VERTEX
8
0
10
19.176778125000002
20
27.073221875
30
0
42
0.198912367379658
0
VERTEX
8
0
10
19.25
20
27.25
30
0
0
VERTEX
8
0
10
19.25
20
43.75
30
0
42
0.198912367379658
0
VERTEX
8
0
10
19.176778125000002
20
43.926778125000006
30
0
0
VERTEX
8
0
10
17.926778125000002
20
45.176778125000006
30
0
42
0.198912367379658
0
VERTEX
8
0
10
17.75
20
45.25
30
0
0
VERTEX
8
0
10
13.5
20
45.25
30
0
42
0.37891222659289236
0
VERTEX
8
0
10
13.25208125
20
45.0304
30
0
0
VERTEX
8
0
10
13.156456250000002
20
45.0304
30
0
0
VERTEX
8
0
10
12.7696
20
44.64354375
30
0
0
VERTEX
8
0
10
12.7696
20
44.09645625
30
0
0
VERTEX
8
0
10
13.156456250000002
20
43.7096
30
0
0
VERTEX
8
0
10
13.703543750000001
20
43.7096
30
0
0
VERTEX
8
0
10
14.0904
20
44.09645625
30
0
0
VERTEX
8
0
10
14.0904
20
44.64354375
30
0
0
VERTEX
8
0
10
13.98394375
20
44.75
30
0
0
VERTEX
8
0
10
17.64644375
20
44.75
30
0
0
VERTEX
8
0
10
18.75
20
43.64644375
30
0
0
VERTEX
8
0
10
18.75
20
27.35355625
30
0
0
VERTEX
8
0
10
17.09071875
20
25.694275
30
0
42
0.1615446553721526
0
VERTEX
8
0
10
16.985171875000002
20
25.565765625
30
0
0
VERTEX
8
0
10
16.97459375
20
25.527709375
30
0
42
0.4173650688701573
0
VERTEX
8
0
10
17.17493125
20
25.234096875000002
30
0
0
VERTEX
8
0
10
17.214221875
20
25.230065625
30
0
0
SEQEND
0
POLYLINE
66
1
8
1_copper
10
0.0
20
0.0
30
0.0
70
1
0
VERTEX
8
0
10
29.76
20
51.68395
30
0
0
VERTEX
8
0
10
29.76
20
52.736050000000006
30
0
0
VERTEX
8
0
10
29.01605
20
53.480000000000004
30
0
0
VERTEX
8
0
10
27.96395
20
53.480000000000004
30
0
0
VERTEX
8
0
10
27.220000000000002
20
52.736050000000006
30
0
0
VERTEX
8
0
10
27.220000000000002
20
51.68395
30
0
0
VERTEX
8
0
10
27.96395
20
50.940000000000005
30
0
0
VERTEX
8
0
10
29.01605
20
50.940000000000005
30
0
0
SEQEND
0
POLYLINE
66
1
8
16_copper
10
0.0
20
0.0
30
0.0
70
1
0
VERTEX
8
0
10
17.267590625
20
12.534571875000001
30
0
42
0.32135791773504585
0
VERTEX
8
0
10
17.46770625
20
12.746221875
30
0
0
VERTEX
8
0
10
17.486325
20
12.88276875
30
0
0
VERTEX
8
0
10
20.926778125000002
20
16.323221875
30
0
42
0.198912367379658
0
VERTEX
8
0
10
21
20
16.5
30
0
0
VERTEX
8
0
10
21
20
44.39644375
30
0
0
VERTEX
8
0
10
27.753753125000003
20
51.150196875000006
30
0
0
VERTEX
8
0
10
27.96395
20
50.940000000000005
30
0
0
VERTEX
8
0
10
29.01605
20
50.940000000000005
30
0
0
VERTEX
8
0
10
29.76
20
51.68395
30
0
0
VERTEX
8
0
10
29.76
20
52.736050000000006
30
0
0
VERTEX
8
0
10
29.01605
20
53.480000000000004
30
0
0
VERTEX
8
0
10
27.96395
20
53.480000000000004
30
0
0
VERTEX
8
0
10
27.220000000000002
20
52.736050000000006
30
0
0
VERTEX
8
0
10
27.220000000000002
20
51.68395
30
0
0
VERTEX
8
0
10
27.400196875000002
20
51.503753125
30
0
0
VERTEX
8
0
10
20.573221875
20
44.676778125000006
30
0
42
0.198912367379658
0
VERTEX
8
0
10
20.5
20
44.5
30
0
0
VERTEX
8
0
10
20.5
20
16.60355625
30
0
0
VERTEX
8
0
10
17.073221875
20
13.176778125
30
0
42
0.16391235172568694
0
VERTEX
8
0
10
17.00229375
20
13.033778125000001
30
0
0
VERTEX
8
0
10
16.972293750000002
20
12.813778125
30
0
0
VERTEX
8
0
10
16.9700625
20
12.77434375
30
0
0
VERTEX
8
0
10
16.974075
20
12.735050000000001
30
0
0
VERTEX
8
0
10
16.984221875
20
12.696878125000001
30
0
0
VERTEX
8
0
10
17.00025625
20
12.660781250000001
30
0
0
VERTEX
8
0
10
17.021775
20
12.627662500000001
30
0
0
VERTEX
8
0
10
17.04824375
20
12.59834375
30
0
0
VERTEX
8
0
10
17.078996875
20
12.573559375
30
0
0
VERTEX
8
0
10
17.11326875
20
12.553928125
30
0
0
VERTEX
8
0
10
17.150209375
20
12.539940625
30
0
0
VERTEX
8
0
10
17.1888875
20
12.53194375
30
0
0
VERTEX
8
0
10
17.22834375
20
12.530140625000001
30
0
0
SEQEND
0
POLYLINE
66
1
8
1_copper
10
0.0
20
0.0
30
0.0
70
1
0
VERTEX
8
0
10
7.7039437500000005
20
7.7153375
30
0
42
0.9063472543261978
0
VERTEX
8
0
10
7.629434375000001
20
9.232000000000001
30
0
0
VERTEX
8
0
10
6.030565625
20
9.232000000000001
30
0
42
0.2944673037820327
0
VERTEX
8
0
10
5.359196875
20
8.75
30
0
0
VERTEX
8
0
10
4.75
20
8.75
30
0
0
VERTEX
8
0
10
4.75
20
19.14644375
30
0
0
VERTEX
8
0
10
5.6035562500000005
20
20
30
0
0
VERTEX
8
0
10
14.5
20
20
30
0
42
0.198912367379658
0
VERTEX
8
0
10
14.676778125
20
20.073221875
30
0
0
VERTEX
8
0
10
17.170328125
20
22.566771875
30
0
0
VERTEX
8
0
10
17.38340625
20
22.75079375
30
0
42
0.9999999999999999
0
VERTEX
8
0
10
17.05659375
20
23.129206250000003
30
0
0
VERTEX
8
0
10
16.836593750000002
20
22.93920625
30
0
42
0.018261525874695775
0
VERTEX
8
0
10
16.823221875
20
22.926778125000002
30
0
0
VERTEX
8
0
10
14.396443750000001
20
20.5
30
0
0
VERTEX
8
0
10
5.5
20
20.5
30
0
42
0.198912367379658
0
VERTEX
8
0
10
5.323221875000001
20
20.426778125000002
30
0
0
VERTEX
8
0
10
4.323221875
20
19.426778125000002
30
0
42
0.198912367379658
0
VERTEX
8
0
10
4.25
20
19.25
30
0
0
VERTEX
8
0
10
4.25
20
8.5
30
0
42
0.41421356237309503
0
VERTEX
8
0
10
4.5
20
8.25
30
0
0
VERTEX
8
0
10
5.338446875
20
8.25
30
0
42
0.317250390900767
0
VERTEX
8
0
10
6.030565625
20
7.708
30
0
0
VERTEX
8
0
10
7.629434375000001
20
7.708
30
0
0
SEQEND
0
POLYLINE
66
1
8
16_copper
10
0.0
20
0.0
30
0.0
70
1
0
VERTEX
8
0
10
7.7039437500000005
20
7.7153375
30
0
42
0.9063472543261978
0
VERTEX
8
0
10
7.629434375000001
20
9.232000000000001
30
0
0
VERTEX
8
0
10
6.030565625
20
9.232000000000001
30
0
42
0.9520795017710562
0
VERTEX
8
0
10
6.030565625
20
7.708
30
0
0
VERTEX
8
0
10
7.629434375000001
20
7.708
30
0
0
SEQEND
0
POLYLINE
66
1
8
1_copper
10
0.0
20
0.0
30
0.0
70
1
0
VERTEX
8
0
10
7.7039437500000005
20
10.255337500000001
30
0
42
0.45372449959789496
0
VERTEX
8
0
10
8.324346875
20
11.220790625000001
30
0
0
VERTEX
8
0
10
17.1602125
20
20.05665625
30
0
0
VERTEX
8
0
10
17.360834375
20
20.19344375
30
0
42
0.9999999999999999
0
VERTEX
8
0
10
17.079165625
20
20.60655625
30
0
0
VERTEX
8
0
10
16.859165625
20
20.456556250000002
30
0
42
0.0467784238123721
0
VERTEX
8
0
10
16.823221875
20
20.426778125000002
30
0
0
VERTEX
8
0
10
8.0301375
20
11.63369375
30
0
42
0.14176514487543942
0
VERTEX
8
0
10
7.629434375000001
20
11.772
30
0
0
VERTEX
8
0
10
6.030565625
20
11.772
30
0
42
0.9520795017710562
0
VERTEX
8
0
10
6.030565625
20
10.248000000000001
30
0
0
VERTEX
8
0
10
7.629434375000001
20
10.248000000000001
30
0
0
SEQEND
0
POLYLINE
66
1
8
16_copper
10
0.0
20
0.0
30
0.0
70
1
0
VERTEX
8
0
10
7.7039437500000005
20
10.255337500000001
30
0
42
0.9063472543261978
0
VERTEX
8
0
10
7.629434375000001
20
11.772
30
0
0
VERTEX
8
0
10
6.030565625
20
11.772
30
0
42
0.9520795017710562
0
VERTEX
8
0
10
6.030565625
20
10.248000000000001
30
0
0
VERTEX
8
0
10
7.629434375000001
20
10.248000000000001
30
0
0
SEQEND
0
POLYLINE
66
1
8
1_copper
10
0.0
20
0.0
30
0.0
70
1
0
VERTEX
8
0
10
7.7039437500000005
20
12.7953375
30
0
42
0.9063472543261978
0
VERTEX
8
0
10
7.629434375000001
20
14.312000000000001
30
0
0
VERTEX
8
0
10
6.030565625
20
14.312000000000001
30
0
42
0.9520795017710562
0
VERTEX
8
0
10
6.030565625
20
12.788
30
0
0
VERTEX
8
0
10
7.629434375000001
20
12.788
30
0
0
SEQEND
0
POLYLINE
66
1
8
16_copper
10
0.0
20
0.0
30
0.0
70
1
0
VERTEX
8
0
10
7.7039437500000005
20
12.7953375
30
0
42
0.5966557299096833
0
VERTEX
8
0
10
8.16116875
20
14.057612500000001
30
0
0
VERTEX
8
0
10
11.926778125
20
17.823221875
30
0
42
0.198912367379658
0
VERTEX
8
0
10
12
20
18
30
0
0
VERTEX
8
0
10
12
20
27.75
30
0
0
VERTEX
8
0
10
17
20
27.75
30
0
42
0.022669419745970233
0
VERTEX
8
0
10
17.022634375
20
27.751028125
30
0
0
VERTEX
8
0
10
17.242634375
20
27.771028125
30
0
42
0.9999999999999999
0
VERTEX
8
0
10
17.197365625
20
28.268971875000002
30
0
0
VERTEX
8
0
10
16.988675
20
28.25
30
0
0
VERTEX
8
0
10
11.75
20
28.25
30
0
42
0.41421356237309503
0
VERTEX
8
0
10
11.5
20
28
30
0
0
VERTEX
8
0
10
11.5
20
18.10355625
30
0
0
VERTEX
8
0
10
7.701359375
20
14.304915625000001
30
0
0
VERTEX
8
0
10
7.629434375000001
20
14.312000000000001
30
0
0
VERTEX
8
0
10
6.030565625
20
14.312000000000001
30
0
42
0.9520795017710562
0
VERTEX
8
0
10
6.030565625
20
12.788
30
0
0
VERTEX
8
0
10
7.629434375000001
20
12.788
30
0
0
SEQEND
0
POLYLINE
66
1
8
1_copper
10
0.0
20
0.0
30
0.0
70
1
0
VERTEX
8
0
10
42.88394375
20
13.6953375
30
0
42
0.5993768235787655
0
VERTEX
8
0
10
43.337284375
20
14.96234375
30
0
0
VERTEX
8
0
10
43.295328125000005
20
15.0043
30
0
42
0.15189316973511202
0
VERTEX
8
0
10
43.426778125000006
20
15.073221875000002
30
0
0
VERTEX
8
0
10
46.676778125000006
20
18.323221875
30
0
42
0.198912367379658
0
VERTEX
8
0
10
46.75
20
18.5
30
0
0
VERTEX
8
0
10
46.75
20
36.25
30
0
42
0.41421356237309503
0
VERTEX
8
0
10
46.5
20
36.5
30
0
0
VERTEX
8
0
10
40.75
20
36.5
30
0
42
0.198912367379658
0
VERTEX
8
0
10
40.573221875
20
36.426778125
30
0
0
VERTEX
8
0
10
39.323221875
20
35.176778125
30
0
42
0.198912367379658
0
VERTEX
8
0
10
39.25
20
35
30
0
0
VERTEX
8
0
10
39.25
20
32
30
0
42
0.41421356237309503
0
VERTEX
8
0
10
39.5
20
31.75
30
0
0
VERTEX
8
0
10
40.52148125
20
31.75
30
0
42
0.3134810094041662
0
VERTEX
8
0
10
41.210565625
20
31.218
30
0
0
VERTEX
8
0
10
42.809434375
20
31.218
30
0
42
0.21321275945063609
0
VERTEX
8
0
10
43.363828125000005
20
31.5
30
0
0
VERTEX
8
0
10
44.25
20
31.5
30
0
0
VERTEX
8
0
10
44.25
20
26.35355625
30
0
0
VERTEX
8
0
10
43.39644375
20
25.5
30
0
0
VERTEX
8
0
10
32.710275
20
25.5
30
0
42
0.9781419040986541
0
VERTEX
8
0
10
32.210159375
20
25.471115625
30
0
0
VERTEX
8
0
10
32.213696875000004
20
25.437165625000002
30
0
0
VERTEX
8
0
10
32.253696875
20
25.207165625000002
30
0
42
0.364634532349502
0
VERTEX
8
0
10
32.5
20
25
30
0
0
VERTEX
8
0
10
43.5
20
25
30
0
42
0.198912367379658
0
VERTEX
8
0
10
43.676778125000006
20
25.073221875
30
0
0
VERTEX
8
0
10
44.676778125000006
20
26.073221875
30
0
42
0.198912367379658
0
VERTEX
8
0
10
44.75
20
26.25
30
0
0
VERTEX
8
0
10
44.75
20
31.75
30
0
42
0.41421356237309503
0
VERTEX
8
0
10
44.5
20
32
30
0
0
VERTEX
8
0
10
43.534
20
32
30
0
42
0.3923187882412106
0
VERTEX
8
0
10
42.809434375
20
32.742000000000004
30
0
0
VERTEX
8
0
10
41.210565625
20
32.742000000000004
30
0
42
0.2983280330391275
0
VERTEX
8
0
10
40.535056250000004
20
32.25
30
0
0
VERTEX
8
0
10
39.75
20
32.25
30
0
0
VERTEX
8
0
10
39.75
20
34.89644375
30
0
0
VERTEX
8
0
10
40.853556250000004
20
36
30
0
0
VERTEX
8
0
10
46.25
20
36
30
0
0
VERTEX
8
0
10
46.25
20
18.60355625
30
0
0
VERTEX
8
0
10
43.14644375
20
15.5
30
0
0
VERTEX
8
0
10
43
20
15.5
30
0
42
0.198912367379658
0
VERTEX
8
0
10
42.823221875
20
15.426778125
30
0
0
VERTEX
8
0
10
42.60844375
20
15.212000000000002
30
0
0
VERTEX
8
0
10
41.210565625
20
15.212000000000002
30
0
42
0.9520795017710562
0
VERTEX
8
0
10
41.210565625
20
13.688
30
0
0
VERTEX
8
0
10
42.809434375
20
13.688
30
0
0
SEQEND
0
POLYLINE
66
1
8
16_copper
10
0.0
20
0.0
30
0.0
70
1
0
VERTEX
8
0
10
42.88394375
20
31.225337500000002
30
0
42
0.9063472543261978
0
VERTEX
8
0
10
42.809434375
20
32.742000000000004
30
0
0
VERTEX
8
0
10
41.210565625
20
32.742000000000004
30
0
42
0.9520795017710562
0
VERTEX
8
0
10
41.210565625
20
31.218
30
0
0
VERTEX
8
0
10
42.809434375
20
31.218
30
0
0
SEQEND
0
POLYLINE
66
1
8
16_copper
10
0.0
20
0.0
30
0.0
70
1
0
VERTEX
8
0
10
42.88394375
20
13.6953375
30
0
42
0.9063472543261978
0
VERTEX
8
0
10
42.809434375
20
15.212000000000002
30
0
0
VERTEX
8
0
10
41.210565625
20
15.212000000000002
30
0
42
0.9520795017710562
0
VERTEX
8
0
10
41.210565625
20
13.688
30
0
0
VERTEX
8
0
10
42.809434375
20
13.688
30
0
0
SEQEND
0
POLYLINE
66
1
8
1_copper
10
0.0
20
0.0
30
0.0
70
1
0
VERTEX
8
0
10
42.88394375
20
16.2353375
30
0
42
0.6750776704230267
0
VERTEX
8
0
10
43.214400000000005
20
17.61084375
30
0
0
VERTEX
8
0
10
44.353556250000004
20
18.75
30
0
0
VERTEX
8
0
10
45.5
20
18.75
30
0
42
0.41421356237309503
0
VERTEX
8
0
10
45.75
20
19
30
0
0
VERTEX
8
0
10
45.75
20
32.25
30
0
42
0.198912367379658
0
VERTEX
8
0
10
45.676778125000006
20
32.426778125
30
0
0
VERTEX
8
0
10
44.426778125000006
20
33.676778125
30
0
42
0.198912367379658
0
VERTEX
8
0
10
44.25
20
33.75
30
0
0
VERTEX
8
0
10
43.353556250000004
20
33.75
30
0
0
VERTEX
8
0
10
43.20840625
20
33.89515
30
0
42
0.7149823449816496
0
VERTEX
8
0
10
42.809434375
20
35.282000000000004
30
0
0
VERTEX
8
0
10
41.210565625
20
35.282000000000004
30
0
42
0.9520795017710562
0
VERTEX
8
0
10
41.210565625
20
33.758
30
0
0
VERTEX
8
0
10
42.63844375
20
33.758
30
0
0
VERTEX
8
0
10
43.073221875
20
33.323221875
30
0
42
0.198912367379658
0
VERTEX
8
0
10
43.25
20
33.25
30
0
0
VERTEX
8
0
10
44.14644375
20
33.25
30
0
0
VERTEX
8
0
10
45.25
20
32.14644375
30
0
0
VERTEX
8
0
10
45.25
20
19.25
30
0
0
VERTEX
8
0
10
44.25
20
19.25
30
0
42
0.198912367379658
0
VERTEX
8
0
10
44.073221875
20
19.176778125000002
30
0
0
VERTEX
8
0
10
42.648443750000006
20
17.752000000000002
30
0
0
VERTEX
8
0
10
41.210565625
20
17.752000000000002
30
0
42
0.3021939699107127
0
VERTEX
8
0
10
40.5309125
20
17.25
30
0
0
VERTEX
8
0
10
38.353556250000004
20
17.25
30
0
0
VERTEX
8
0
10
32.729328125
20
22.874228125000002
30
0
0
VERTEX
8
0
10
32.704637500000004
20
22.991503125
30
0
42
0.9999999999999999
0
VERTEX
8
0
10
32.215362500000005
20
22.888496875
30
0
0
VERTEX
8
0
10
32.255362500000004
20
22.698496875
30
0
42
0.1454886757814952
0
VERTEX
8
0
10
32.323221875
20
22.573221875
30
0
0
VERTEX
8
0
10
38.073221875
20
16.823221875
30
0
42
0.198912367379658
0
VERTEX
8
0
10
38.25
20
16.75
30
0
0
VERTEX
8
0
10
40.524515625
20
16.75
30
0
42
0.3097209564568767
0
VERTEX
8
0
10
41.210565625
20
16.228
30
0
0
VERTEX
8
0
10
42.809434375
20
16.228
30
0
0
SEQEND
0
POLYLINE
66
1
8
16_copper
10
0.0
20
0.0
30
0.0
70
1
0
VERTEX
8
0
10
42.88394375
20
33.7653375
30
0
42
0.9063472543261978
0
VERTEX
8
0
10
42.809434375
20
35.282000000000004
30
0
0
VERTEX
8
0
10
41.210565625
20
35.282000000000004
30
0
42
0.9520795017710562
0
VERTEX
8
0
10
41.210565625
20
33.758
30
0
0
VERTEX
8
0
10
42.809434375
20
33.758
30
0
0
SEQEND
0
POLYLINE
66
1
8
16_copper
10
0.0
20
0.0
30
0.0
70
1
0
VERTEX
8
0
10
42.88394375
20
16.2353375
30
0
42
0.9063472543261978
0
VERTEX
8
0
10
42.809434375
20
17.752000000000002
30
0
0
VERTEX
8
0
10
41.210565625
20
17.752000000000002
30
0
42
0.9520795017710562
0
VERTEX
8
0
10
41.210565625
20
16.228
30
0
0
VERTEX
8
0
10
42.809434375
20
16.228
30
0
0
SEQEND
0
CIRCLE
8
drills_NPTH
10
3
20
3
30
0
40
1
0
CIRCLE
8
drills_NPTH
10
44.5
20
3
30
0
40
1
0
CIRCLE
8
drills_NPTH
10
44.5
20
57
30
0
40
1
0
CIRCLE
8
drills_NPTH
10
3
20
57
30
0
40
1
0
CIRCLE
8
drills_NPTH
10
17.220000000000002
20
2.62
30
0
40
0.8255
0
CIRCLE
8
drills_NPTH
10
32.46
20
2.62
30
0
40
0.8255
0
CIRCLE
8
drills_NPTH
10
32.46
20
43.260000000000005
30
0
40
0.8255
0
CIRCLE
8
drills_NPTH
10
17.220000000000002
20
43.260000000000005
30
0
40
0.8255
0
CIRCLE
8
drills_PTH
10
35.940000000000005
20
55.67
30
0
40
0.508
0
CIRCLE
8
drills_PTH
10
38.480000000000004
20
55.67
30
0
40
0.508
0
CIRCLE
8
drills_PTH
10
6.86
20
27.64
30
0
40
0.508
0
CIRCLE
8
drills_PTH
10
6.86
20
30.18
30
0
40
0.508
0
CIRCLE
8
drills_PTH
10
6.83
20
8.47
30
0
40
0.508
0
CIRCLE
8
drills_PTH
10
6.83
20
11.01
30
0
40
0.508
0
CIRCLE
8
drills_PTH
10
6.83
20
13.55
30
0
40
0.508
0
CIRCLE
8
drills_PTH
10
6.83
20
16.09
30
0
40
0.508
0
CIRCLE
8
drills_PTH
10
6.83
20
18.630000000000003
30
0
40
0.508
0
CIRCLE
8
drills_PTH
10
6.640000000000001
20
40.49
30
0
40
0.508
0
CIRCLE
8
drills_PTH
10
6.640000000000001
20
37.95
30
0
40
0.508
0
CIRCLE
8
drills_PTH
10
42.010000000000005
20
31.98
30
0
40
0.508
0
CIRCLE
8
drills_PTH
10
42.010000000000005
20
34.52
30
0
40
0.508
0
CIRCLE
8
drills_PTH
10
41.86
20
43.480000000000004
30
0
40
0.508
0
CIRCLE
8
drills_PTH
10
41.86
20
46.02
30
0
40
0.508
0
CIRCLE
8
drills_PTH
10
9.860000000000001
20
55.64
30
0
40
0.508
0
CIRCLE
8
drills_PTH
10
42.010000000000005
20
9.370000000000001
30
0
40
0.508
0
CIRCLE
8
drills_PTH
10
42.010000000000005
20
11.91
30
0
40
0.508
0
CIRCLE
8
drills_PTH
10
42.010000000000005
20
14.450000000000001
30
0
40
0.508
0
CIRCLE
8
drills_PTH
10
42.010000000000005
20
16.990000000000002
30
0
40
0.508
0
CIRCLE
8
drills_PTH
10
12.4
20
55.64
30
0
40
0.508
0
CIRCLE
8
drills_PTH
10
20.87
20
52.21
30
0
40
0.508
0
CIRCLE
8
drills_PTH
10
28.490000000000002
20
52.21
30
0
40
0.508
0
CIRCLE
8
drills_PTH
10
42.010000000000005
20
26.900000000000002
30
0
40
0.508
0
CIRCLE
8
drills_PTH
10
42.010000000000005
20
29.44
30
0
40
0.508
0
CIRCLE
8
drills_PTH
10
17.220000000000002
20
40.72
30
0
40
0.5
0
CIRCLE
8
drills_PTH
10
17.220000000000002
20
38.18
30
0
40
0.5
0
CIRCLE
8
drills_PTH
10
17.220000000000002
20
35.64
30
0
40
0.5
0
CIRCLE
8
drills_PTH
10
17.220000000000002
20
33.1
30
0
40
0.5
0
CIRCLE
8
drills_PTH
10
17.220000000000002
20
30.560000000000002
30
0
40
0.5
0
CIRCLE
8
drills_PTH
10
17.220000000000002
20
28.02
30
0
40
0.5
0
CIRCLE
8
drills_PTH
10
17.220000000000002
20
25.48
30
0
40
0.5
0
CIRCLE
8
drills_PTH
10
17.220000000000002
20
22.94
30
0
40
0.5
0
CIRCLE
8
drills_PTH
10
17.220000000000002
20
20.400000000000002
30
0
40
0.5
0
CIRCLE
8
drills_PTH
10
17.220000000000002
20
17.86
30
0
40
0.5
0
CIRCLE
8
drills_PTH
10
17.220000000000002
20
15.32
30
0
40
0.5
0
CIRCLE
8
drills_PTH
10
17.220000000000002
20
12.780000000000001
30
0
40
0.5
0
CIRCLE
8
drills_PTH
10
32.46
20
40.72
30
0
40
0.5
0
CIRCLE
8
drills_PTH
10
32.46
20
38.18
30
0
40
0.5
0
CIRCLE
8
drills_PTH
10
32.46
20
35.64
30
0
40
0.5
0
CIRCLE
8
drills_PTH
10
32.46
20
33.1
30
0
40
0.5
0
CIRCLE
8
drills_PTH
10
32.46
20
30.560000000000002
30
0
40
0.5
0
CIRCLE
8
drills_PTH
10
32.46
20
28.02
30
0
40
0.5
0
CIRCLE
8
drills_PTH
10
24.84
20
43.260000000000005
30
0
40
0.5
0
CIRCLE
8
drills_PTH
10
24.84
20
40.72
30
0
40
0.5
0
CIRCLE
8
drills_PTH
10
22.3
20
43.260000000000005
30
0
40
0.5
0
CIRCLE
8
drills_PTH
10
22.3
20
40.72
30
0
40
0.5
0
CIRCLE
8
drills_PTH
10
32.46
20
20.400000000000002
30
0
40
0.5
0
CIRCLE
8
drills_PTH
10
32.46
20
15.32
30
0
40
0.5
0
CIRCLE
8
drills_PTH
10
32.46
20
12.780000000000001
30
0
40
0.5
0
CIRCLE
8
drills_PTH
10
32.46
20
17.86
30
0
40
0.5
0
CIRCLE
8
drills_PTH
10
17.220000000000002
20
5.16
30
0
40
0.5
0
CIRCLE
8
drills_PTH
10
32.46
20
22.94
30
0
40
0.5
0
CIRCLE
8
drills_PTH
10
32.46
20
25.48
30
0
40
0.5
0
CIRCLE
8
drills_PTH
10
17.220000000000002
20
10.24
30
0
40
0.5
0
CIRCLE
8
drills_PTH
10
17.220000000000002
20
7.7
30
0
40
0.5
0
CIRCLE
8
drills_PTH
10
27.380000000000003
20
40.72
30
0
40
0.5
0
CIRCLE
8
drills_PTH
10
32.46
20
10.24
30
0
40
0.5
0
CIRCLE
8
drills_PTH
10
32.46
20
7.7
30
0
40
0.5
0
CIRCLE
8
drills_PTH
10
32.46
20
5.16
30
0
40
0.5
0
CIRCLE
8
drills_PTH
10
27.380000000000003
20
43.260000000000005
30
0
40
0.5
0
CIRCLE
8
drills_PTH
10
13.22
20
33.03
30
0
40
0.40640000000000004
0
CIRCLE
8
drills_PTH
10
13.22
20
25.41
30
0
40
0.40640000000000004
0
CIRCLE
8
drills_PTH
10
12.09
20
48.43
30
0
40
0.40640000000000004
0
CIRCLE
8
drills_PTH
10
4.470000000000001
20
48.43
30
0
40
0.40640000000000004
0
CIRCLE
8
drills_PTH
10
13.430000000000001
20
36.75
30
0
40
0.40640000000000004
0
CIRCLE
8
drills_PTH
10
13.430000000000001
20
44.370000000000005
30
0
40
0.40640000000000004
0
ENDSEC
0
EOF