0
SECTION
2
HEADER
9
$ANGDIR
70
1
9
$AUNITS
70
0
9
$PROJECTNAME
1
TOF_B
9
$TDCREATE
40
2459274.93451387
9
$INSUNITS
70
4
0
ENDSEC
0
SECTION
2
ENTITIES
0
POLYLINE
66
1
8
outline
10
0.0
20
0.0
30
0.0
70
1
0
VERTEX
8
0
10
0
20
0
30
0
0
VERTEX
8
0
10
22.53
20
0
30
0
0
VERTEX
8
0
10
22.53
20
24.12
30
0
0
VERTEX
8
0
10
0
20
24.12
30
0
0
VERTEX
8
0
10
0
20
0
30
0
0
SEQEND
0
POLYLINE
66
1
8
holes
10
0.0
20
0.0
30
0.0
70
1
0
VERTEX
8
0
10
3.54
20
2.4963375
30
0
0
VERTEX
8
0
10
3.532390625
20
2.4093500000000003
30
0
0
VERTEX
8
0
10
3.5172250000000003
20
2.323353125
30
0
0
VERTEX
8
0
10
3.494625
20
2.23900625
30
0
0
VERTEX
8
0
10
3.4647593750000003
20
2.1569531250000002
30
0
0
VERTEX
8
0
10
3.42785625
20
2.0778125000000003
30
0
0
VERTEX
8
0
10
3.38419375
20
2.0021875000000002
30
0
0
VERTEX
8
0
10
3.334109375
20
1.930659375
30
0
0
VERTEX
8
0
10
3.2779812500000003
20
1.863765625
30
0
0
VERTEX
8
0
10
3.216234375
20
1.80201875
30
0
0
VERTEX
8
0
10
3.1493406250000002
20
1.7458906250000001
30
0
0
VERTEX
8
0
10
3.0778125000000003
20
1.6958062500000002
30
0
0
VERTEX
8
0
10
3.0021875000000002
20
1.65214375
30
0
0
VERTEX
8
0
10
2.9230468750000003
20
1.615240625
30
0
0
VERTEX
8
0
10
2.84099375
20
1.585375
30
0
0
VERTEX
8
0
10
2.756646875
20
1.562775
30
0
0
VERTEX
8
0
10
2.67065
20
1.5476093750000002
30
0
0
VERTEX
8
0
10
2.5836625
20
1.54
30
0
0
VERTEX
8
0
10
2.4963375
20
1.54
30
0
0
VERTEX
8
0
10
2.4093500000000003
20
1.5476093750000002
30
0
0
VERTEX
8
0
10
2.323353125
20
1.562775
30
0
0
VERTEX
8
0
10
2.23900625
20
1.585375
30
0
0
VERTEX
8
0
10
2.1569531250000002
20
1.615240625
30
0
0
VERTEX
8
0
10
2.0778125000000003
20
1.65214375
30
0
0
VERTEX
8
0
10
2.0021875000000002
20
1.6958062500000002
30
0
0
VERTEX
8
0
10
1.930659375
20
1.7458906250000001
30
0
0
VERTEX
8
0
10
1.863765625
20
1.80201875
30
0
0
VERTEX
8
0
10
1.80201875
20
1.863765625
30
0
0
VERTEX
8
0
10
1.7458906250000001
20
1.930659375
30
0
0
VERTEX
8
0
10
1.6958062500000002
20
2.0021875000000002
30
0
0
VERTEX
8
0
10
1.65214375
20
2.0778125000000003
30
0
0
VERTEX
8
0
10
1.615240625
20
2.1569531250000002
30
0
0
VERTEX
8
0
10
1.585375
20
2.23900625
30
0
0
VERTEX
8
0
10
1.562775
20
2.323353125
30
0
0
VERTEX
8
0
10
1.5476093750000002
20
2.4093500000000003
30
0
0
VERTEX
8
0
10
1.54
20
2.4963375
30
0
0
VERTEX
8
0
10
1.54
20
2.5836625
30
0
0
VERTEX
8
0
10
1.5476093750000002
20
2.67065
30
0
0
VERTEX
8
0
10
1.562775
20
2.756646875
30
0
0
VERTEX
8
0
10
1.585375
20
2.84099375
30
0
0
VERTEX
8
0
10
1.615240625
20
2.9230468750000003
30
0
0
VERTEX
8
0
10
1.65214375
20
3.0021875000000002
30
0
0
VERTEX
8
0
10
1.6958062500000002
20
3.0778125000000003
30
0
0
VERTEX
8
0
10
1.7458906250000001
20
3.1493406250000002
30
0
0
VERTEX
8
0
10
1.80201875
20
3.216234375
30
0
0
VERTEX
8
0
10
1.863765625
20
3.2779812500000003
30
0
0
VERTEX
8
0
10
1.930659375
20
3.334109375
30
0
0
VERTEX
8
0
10
2.0021875000000002
20
3.38419375
30
0
0
VERTEX
8
0
10
2.0778125000000003
20
3.42785625
30
0
0
VERTEX
8
0
10
2.1569531250000002
20
3.4647593750000003
30
0
0
VERTEX
8
0
10
2.23900625
20
3.494625
30
0
0
VERTEX
8
0
10
2.323353125
20
3.5172250000000003
30
0
0
VERTEX
8
0
10
2.4093500000000003
20
3.532390625
30
0
0
VERTEX
8
0
10
2.4963375
20
3.54
30
0
0
VERTEX
8
0
10
2.5836625
20
3.54
30
0
0
VERTEX
8
0
10
2.67065
20
3.532390625
30
0
0
VERTEX
8
0
10
2.756646875
20
3.5172250000000003
30
0
0
VERTEX
8
0
10
2.84099375
20
3.494625
30
0
0
VERTEX
8
0
10
2.9230468750000003
20
3.4647593750000003
30
0
0
VERTEX
8
0
10
3.0021875000000002
20
3.42785625
30
0
0
VERTEX
8
0
10
3.0778125000000003
20
3.38419375
30
0
0
VERTEX
8
0
10
3.1493406250000002
20
3.334109375
30
0
0
VERTEX
8
0
10
3.216234375
20
3.2779812500000003
30
0
0
VERTEX
8
0
10
3.2779812500000003
20
3.216234375
30
0
0
VERTEX
8
0
10
3.334109375
20
3.1493406250000002
30
0
0
VERTEX
8
0
10
3.38419375
20
3.0778125000000003
30
0
0
VERTEX
8
0
10
3.42785625
20
3.0021875000000002
30
0
0
VERTEX
8
0
10
3.4647593750000003
20
2.9230468750000003
30
0
0
VERTEX
8
0
10
3.494625
20
2.84099375
30
0
0
VERTEX
8
0
10
3.5172250000000003
20
2.756646875
30
0
0
VERTEX
8
0
10
3.532390625
20
2.67065
30
0
0
VERTEX
8
0
10
3.54
20
2.5836625
30
0
0
VERTEX
8
0
10
3.54
20
2.4963375
30
0
0
SEQEND
0
POLYLINE
66
1
8
holes
10
0.0
20
0.0
30
0.0
70
1
0
VERTEX
8
0
10
21.32
20
2.4963375
30
0
0
VERTEX
8
0
10
21.312390625000003
20
2.4093500000000003
30
0
0
VERTEX
8
0
10
21.297225
20
2.323353125
30
0
0
VERTEX
8
0
10
21.274625
20
2.23900625
30
0
0
VERTEX
8
0
10
21.244759375
20
2.1569531250000002
30
0
0
VERTEX
8
0
10
21.207856250000003
20
2.0778125000000003
30
0
0
VERTEX
8
0
10
21.164193750000003
20
2.0021875000000002
30
0
0
VERTEX
8
0
10
21.114109375
20
1.930659375
30
0
0
VERTEX
8
0
10
21.05798125
20
1.863765625
30
0
0
VERTEX
8
0
10
20.996234375
20
1.80201875
30
0
0
VERTEX
8
0
10
20.929340625000002
20
1.7458906250000001
30
0
0
VERTEX
8
0
10
20.8578125
20
1.6958062500000002
30
0
0
VERTEX
8
0
10
20.782187500000003
20
1.65214375
30
0
0
VERTEX
8
0
10
20.703046875000002
20
1.615240625
30
0
0
VERTEX
8
0
10
20.62099375
20
1.585375
30
0
0
VERTEX
8
0
10
20.536646875000002
20
1.562775
30
0
0
VERTEX
8
0
10
20.45065
20
1.5476093750000002
30
0
0
VERTEX
8
0
10
20.3636625
20
1.54
30
0
0
VERTEX
8
0
10
20.2763375
20
1.54
30
0
0
VERTEX
8
0
10
20.18935
20
1.5476093750000002
30
0
0
VERTEX
8
0
10
20.103353125
20
1.562775
30
0
0
VERTEX
8
0
10
20.01900625
20
1.585375
30
0
0
VERTEX
8
0
10
19.936953125000002
20
1.615240625
30
0
0
VERTEX
8
0
10
19.8578125
20
1.65214375
30
0
0
VERTEX
8
0
10
19.782187500000003
20
1.6958062500000002
30
0
0
VERTEX
8
0
10
19.710659375000002
20
1.7458906250000001
30
0
0
VERTEX
8
0
10
19.643765625
20
1.80201875
30
0
0
VERTEX
8
0
10
19.58201875
20
1.863765625
30
0
0
VERTEX
8
0
10
19.525890625000002
20
1.930659375
30
0
0
VERTEX
8
0
10
19.47580625
20
2.0021875000000002
30
0
0
VERTEX
8
0
10
19.43214375
20
2.0778125000000003
30
0
0
VERTEX
8
0
10
19.395240625
20
2.1569531250000002
30
0
0
VERTEX
8
0
10
19.365375
20
2.23900625
30
0
0
VERTEX
8
0
10
19.342775
20
2.323353125
30
0
0
VERTEX
8
0
10
19.327609375
20
2.4093500000000003
30
0
0
VERTEX
8
0
10
19.32
20
2.4963375
30
0
0
VERTEX
8
0
10
19.32
20
2.5836625
30
0
0
VERTEX
8
0
10
19.327609375
20
2.67065
30
0
0
VERTEX
8
0
10
19.342775
20
2.756646875
30
0
0
VERTEX
8
0
10
19.365375
20
2.84099375
30
0
0
VERTEX
8
0
10
19.395240625
20
2.9230468750000003
30
0
0
VERTEX
8
0
10
19.43214375
20
3.0021875000000002
30
0
0
VERTEX
8
0
10
19.47580625
20
3.0778125000000003
30
0
0
VERTEX
8
0
10
19.525890625000002
20
3.1493406250000002
30
0
0
VERTEX
8
0
10
19.58201875
20
3.216234375
30
0
0
VERTEX
8
0
10
19.643765625
20
3.2779812500000003
30
0
0
VERTEX
8
0
10
19.710659375000002
20
3.334109375
30
0
0
VERTEX
8
0
10
19.782187500000003
20
3.38419375
30
0
0
VERTEX
8
0
10
19.8578125
20
3.42785625
30
0
0
VERTEX
8
0
10
19.936953125000002
20
3.4647593750000003
30
0
0
VERTEX
8
0
10
20.01900625
20
3.494625
30
0
0
VERTEX
8
0
10
20.103353125
20
3.5172250000000003
30
0
0
VERTEX
8
0
10
20.18935
20
3.532390625
30
0
0
VERTEX
8
0
10
20.2763375
20
3.54
30
0
0
VERTEX
8
0
10
20.3636625
20
3.54
30
0
0
VERTEX
8
0
10
20.45065
20
3.532390625
30
0
0
VERTEX
8
0
10
20.536646875000002
20
3.5172250000000003
30
0
0
VERTEX
8
0
10
20.62099375
20
3.494625
30
0
0
VERTEX
8
0
10
20.703046875000002
20
3.4647593750000003
30
0
0
VERTEX
8
0
10
20.782187500000003
20
3.42785625
30
0
0
VERTEX
8
0
10
20.8578125
20
3.38419375
30
0
0
VERTEX
8
0
10
20.929340625000002
20
3.334109375
30
0
0
VERTEX
8
0
10
20.996234375
20
3.2779812500000003
30
0
0
VERTEX
8
0
10
21.05798125
20
3.216234375
30
0
0
VERTEX
8
0
10
21.114109375
20
3.1493406250000002
30
0
0
VERTEX
8
0
10
21.164193750000003
20
3.0778125000000003
30
0
0
VERTEX
8
0
10
21.207856250000003
20
3.0021875000000002
30
0
0
VERTEX
8
0
10
21.244759375
20
2.9230468750000003
30
0
0
VERTEX
8
0
10
21.274625
20
2.84099375
30
0
0
VERTEX
8
0
10
21.297225
20
2.756646875
30
0
0
VERTEX
8
0
10
21.312390625000003
20
2.67065
30
0
0
VERTEX
8
0
10
21.32
20
2.5836625
30
0
0
VERTEX
8
0
10
21.32
20
2.4963375
30
0
0
SEQEND
0
POLYLINE
66
1
8
holes
10
0.0
20
0.0
30
0.0
70
1
0
VERTEX
8
0
10
21.32
20
21.5463375
30
0
0
VERTEX
8
0
10
21.312390625000003
20
21.45935
30
0
0
VERTEX
8
0
10
21.297225
20
21.373353125
30
0
0
VERTEX
8
0
10
21.274625
20
21.28900625
30
0
0
VERTEX
8
0
10
21.244759375
20
21.206953125000002
30
0
0
VERTEX
8
0
10
21.207856250000003
20
21.1278125
30
0
0
VERTEX
8
0
10
21.164193750000003
20
21.052187500000002
30
0
0
VERTEX
8
0
10
21.114109375
20
20.980659375000002
30
0
0
VERTEX
8
0
10
21.05798125
20
20.913765625
30
0
0
VERTEX
8
0
10
20.996234375
20
20.852018750000003
30
0
0
VERTEX
8
0
10
20.929340625000002
20
20.795890625000002
30
0
0
VERTEX
8
0
10
20.8578125
20
20.74580625
30
0
0
VERTEX
8
0
10
20.782187500000003
20
20.70214375
30
0
0
VERTEX
8
0
10
20.703046875000002
20
20.665240625000003
30
0
0
VERTEX
8
0
10
20.62099375
20
20.635375
30
0
0
VERTEX
8
0
10
20.536646875000002
20
20.612775000000003
30
0
0
VERTEX
8
0
10
20.45065
20
20.597609375
30
0
0
VERTEX
8
0
10
20.3636625
20
20.59
30
0
0
VERTEX
8
0
10
20.2763375
20
20.59
30
0
0
VERTEX
8
0
10
20.18935
20
20.597609375
30
0
0
VERTEX
8
0
10
20.103353125
20
20.612775000000003
30
0
0
VERTEX
8
0
10
20.01900625
20
20.635375
30
0
0
VERTEX
8
0
10
19.936953125000002
20
20.665240625000003
30
0
0
VERTEX
8
0
10
19.8578125
20
20.70214375
30
0
0
VERTEX
8
0
10
19.782187500000003
20
20.74580625
30
0
0
VERTEX
8
0
10
19.710659375000002
20
20.795890625000002
30
0
0
VERTEX
8
0
10
19.643765625
20
20.852018750000003
30
0
0
VERTEX
8
0
10
19.58201875
20
20.913765625
30
0
0
VERTEX
8
0
10
19.525890625000002
20
20.980659375000002
30
0
0
VERTEX
8
0
10
19.47580625
20
21.052187500000002
30
0
0
VERTEX
8
0
10
19.43214375
20
21.1278125
30
0
0
VERTEX
8
0
10
19.395240625
20
21.206953125000002
30
0
0
VERTEX
8
0
10
19.365375
20
21.28900625
30
0
0
VERTEX
8
0
10
19.342775
20
21.373353125
30
0
0
VERTEX
8
0
10
19.327609375
20
21.45935
30
0
0
VERTEX
8
0
10
19.32
20
21.5463375
30
0
0
VERTEX
8
0
10
19.32
20
21.6336625
30
0
0
VERTEX
8
0
10
19.327609375
20
21.720650000000003
30
0
0
VERTEX
8
0
10
19.342775
20
21.806646875000002
30
0
0
VERTEX
8
0
10
19.365375
20
21.89099375
30
0
0
VERTEX
8
0
10
19.395240625
20
21.973046875
30
0
0
VERTEX
8
0
10
19.43214375
20
22.052187500000002
30
0
0
VERTEX
8
0
10
19.47580625
20
22.1278125
30
0
0
VERTEX
8
0
10
19.525890625000002
20
22.199340625
30
0
0
VERTEX
8
0
10
19.58201875
20
22.266234375
30
0
0
VERTEX
8
0
10
19.643765625
20
22.32798125
30
0
0
VERTEX
8
0
10
19.710659375000002
20
22.384109375
30
0
0
VERTEX
8
0
10
19.782187500000003
20
22.434193750000002
30
0
0
VERTEX
8
0
10
19.8578125
20
22.477856250000002
30
0
0
VERTEX
8
0
10
19.936953125000002
20
22.514759375
30
0
0
VERTEX
8
0
10
20.01900625
20
22.544625
30
0
0
VERTEX
8
0
10
20.103353125
20
22.567225
30
0
0
VERTEX
8
0
10
20.18935
20
22.582390625000002
30
0
0
VERTEX
8
0
10
20.2763375
20
22.59
30
0
0
VERTEX
8
0
10
20.3636625
20
22.59
30
0
0
VERTEX
8
0
10
20.45065
20
22.582390625000002
30
0
0
VERTEX
8
0
10
20.536646875000002
20
22.567225
30
0
0
VERTEX
8
0
10
20.62099375
20
22.544625
30
0
0
VERTEX
8
0
10
20.703046875000002
20
22.514759375
30
0
0
VERTEX
8
0
10
20.782187500000003
20
22.477856250000002
30
0
0
VERTEX
8
0
10
20.8578125
20
22.434193750000002
30
0
0
VERTEX
8
0
10
20.929340625000002
20
22.384109375
30
0
0
VERTEX
8
0
10
20.996234375
20
22.32798125
30
0
0
VERTEX
8
0
10
21.05798125
20
22.266234375
30
0
0
VERTEX
8
0
10
21.114109375
20
22.199340625
30
0
0
VERTEX
8
0
10
21.164193750000003
20
22.1278125
30
0
0
VERTEX
8
0
10
21.207856250000003
20
22.052187500000002
30
0
0
VERTEX
8
0
10
21.244759375
20
21.973046875
30
0
0
VERTEX
8
0
10
21.274625
20
21.89099375
30
0
0
VERTEX
8
0
10
21.297225
20
21.806646875000002
30
0
0
VERTEX
8
0
10
21.312390625000003
20
21.720650000000003
30
0
0
VERTEX
8
0
10
21.32
20
21.6336625
30
0
0
VERTEX
8
0
10
21.32
20
21.5463375
30
0
0
SEQEND
0
POLYLINE
66
1
8
holes
10
0.0
20
0.0
30
0.0
70
1
0
VERTEX
8
0
10
3.54
20
21.5463375
30
0
0
VERTEX
8
0
10
3.532390625
20
21.45935
30
0
0
VERTEX
8
0
10
3.5172250000000003
20
21.373353125
30
0
0
VERTEX
8
0
10
3.494625
20
21.28900625
30
0
0
VERTEX
8
0
10
3.4647593750000003
20
21.206953125000002
30
0
0
VERTEX
8
0
10
3.42785625
20
21.1278125
30
0
0
VERTEX
8
0
10
3.38419375
20
21.052187500000002
30
0
0
VERTEX
8
0
10
3.334109375
20
20.980659375000002
30
0
0
VERTEX
8
0
10
3.2779812500000003
20
20.913765625
30
0
0
VERTEX
8
0
10
3.216234375
20
20.852018750000003
30
0
0
VERTEX
8
0
10
3.1493406250000002
20
20.795890625000002
30
0
0
VERTEX
8
0
10
3.0778125000000003
20
20.74580625
30
0
0
VERTEX
8
0
10
3.0021875000000002
20
20.70214375
30
0
0
VERTEX
8
0
10
2.9230468750000003
20
20.665240625000003
30
0
0
VERTEX
8
0
10
2.84099375
20
20.635375
30
0
0
VERTEX
8
0
10
2.756646875
20
20.612775000000003
30
0
0
VERTEX
8
0
10
2.67065
20
20.597609375
30
0
0
VERTEX
8
0
10
2.5836625
20
20.59
30
0
0
VERTEX
8
0
10
2.4963375
20
20.59
30
0
0
VERTEX
8
0
10
2.4093500000000003
20
20.597609375
30
0
0
VERTEX
8
0
10
2.323353125
20
20.612775000000003
30
0
0
VERTEX
8
0
10
2.23900625
20
20.635375
30
0
0
VERTEX
8
0
10
2.1569531250000002
20
20.665240625000003
30
0
0
VERTEX
8
0
10
2.0778125000000003
20
20.70214375
30
0
0
VERTEX
8
0
10
2.0021875000000002
20
20.74580625
30
0
0
VERTEX
8
0
10
1.930659375
20
20.795890625000002
30
0
0
VERTEX
8
0
10
1.863765625
20
20.852018750000003
30
0
0
VERTEX
8
0
10
1.80201875
20
20.913765625
30
0
0
VERTEX
8
0
10
1.7458906250000001
20
20.980659375000002
30
0
0
VERTEX
8
0
10
1.6958062500000002
20
21.052187500000002
30
0
0
VERTEX
8
0
10
1.65214375
20
21.1278125
30
0
0
VERTEX
8
0
10
1.615240625
20
21.206953125000002
30
0
0
VERTEX
8
0
10
1.585375
20
21.28900625
30
0
0
VERTEX
8
0
10
1.562775
20
21.373353125
30
0
0
VERTEX
8
0
10
1.5476093750000002
20
21.45935
30
0
0
VERTEX
8
0
10
1.54
20
21.5463375
30
0
0
VERTEX
8
0
10
1.54
20
21.6336625
30
0
0
VERTEX
8
0
10
1.5476093750000002
20
21.720650000000003
30
0
0
VERTEX
8
0
10
1.562775
20
21.806646875000002
30
0
0
VERTEX
8
0
10
1.585375
20
21.89099375
30
0
0
VERTEX
8
0
10
1.615240625
20
21.973046875
30
0
0
VERTEX
8
0
10
1.65214375
20
22.052187500000002
30
0
0
VERTEX
8
0
10
1.6958062500000002
20
22.1278125
30
0
0
VERTEX
8
0
10
1.7458906250000001
20
22.199340625
30
0
0
VERTEX
8
0
10
1.80201875
20
22.266234375
30
0
0
VERTEX
8
0
10
1.863765625
20
22.32798125
30
0
0
VERTEX
8
0
10
1.930659375
20
22.384109375
30
0
0
VERTEX
8
0
10
2.0021875000000002
20
22.434193750000002
30
0
0
VERTEX
8
0
10
2.0778125000000003
20
22.477856250000002
30
0
0
VERTEX
8
0
10
2.1569531250000002
20
22.514759375
30
0
0
VERTEX
8
0
10
2.23900625
20
22.544625
30
0
0
VERTEX
8
0
10
2.323353125
20
22.567225
30
0
0
VERTEX
8
0
10
2.4093500000000003
20
22.582390625000002
30
0
0
VERTEX
8
0
10
2.4963375
20
22.59
30
0
0
VERTEX
8
0
10
2.5836625
20
22.59
30
0
0
VERTEX
8
0
10
2.67065
20
22.582390625000002
30
0
0
VERTEX
8
0
10
2.756646875
20
22.567225
30
0
0
VERTEX
8
0
10
2.84099375
20
22.544625
30
0
0
VERTEX
8
0
10
2.9230468750000003
20
22.514759375
30
0
0
VERTEX
8
0
10
3.0021875000000002
20
22.477856250000002
30
0
0
VERTEX
8
0
10
3.0778125000000003
20
22.434193750000002
30
0
0
VERTEX
8
0
10
3.1493406250000002
20
22.384109375
30
0
0
VERTEX
8
0
10
3.216234375
20
22.32798125
30
0
0
VERTEX
8
0
10
3.2779812500000003
20
22.266234375
30
0
0
VERTEX
8
0
10
3.334109375
20
22.199340625
30
0
0
VERTEX
8
0
10
3.38419375
20
22.1278125
30
0
0
VERTEX
8
0
10
3.42785625
20
22.052187500000002
30
0
0
VERTEX
8
0
10
3.4647593750000003
20
21.973046875
30
0
0
VERTEX
8
0
10
3.494625
20
21.89099375
30
0
0
VERTEX
8
0
10
3.5172250000000003
20
21.806646875000002
30
0
0
VERTEX
8
0
10
3.532390625
20
21.720650000000003
30
0
0
VERTEX
8
0
10
3.54
20
21.6336625
30
0
0
VERTEX
8
0
10
3.54
20
21.5463375
30
0
0
SEQEND
0
POLYLINE
66
1
8
1_copper
10
0.0
20
0.0
30
0.0
70
1
0
VERTEX
8
0
10
6.4619437500000005
20
4.8333375
30
0
42
0.3578057741447831
0
VERTEX
8
0
10
7.112
20
5.550565625
30
0
0
VERTEX
8
0
10
7.112
20
7.149434375
30
0
42
0.9520795017710562
0
VERTEX
8
0
10
5.588
20
7.149434375
30
0
0
VERTEX
8
0
10
5.588
20
5.550565625
30
0
0
VERTEX
8
0
10
5.5953375
20
5.47605625
30
0
0
VERTEX
8
0
10
5.60994375
20
5.4026250000000005
30
0
0
VERTEX
8
0
10
5.6316781250000005
20
5.330981250000001
30
0
0
VERTEX
8
0
10
5.660328125
20
5.261809375
30
0
0
VERTEX
8
0
10
5.6956218750000005
20
5.1957812500000005
30
0
0
VERTEX
8
0
10
5.73721875
20
5.13353125
30
0
0
VERTEX
8
0
10
5.7847156250000005
20
5.075656250000001
30
0
0
VERTEX
8
0
10
5.83765625
20
5.022715625
30
0
0
VERTEX
8
0
10
5.89553125
20
4.97521875
30
0
0
VERTEX
8
0
10
5.95778125
20
4.933621875
30
0
0
VERTEX
8
0
10
6.023809375
20
4.898328125
30
0
0
VERTEX
8
0
10
6.09298125
20
4.869678125
30
0
0
VERTEX
8
0
10
6.164625
20
4.847943750000001
30
0
0
VERTEX
8
0
10
6.2380562500000005
20
4.8333375
30
0
0
VERTEX
8
0
10
6.312565625
20
4.8260000000000005
30
0
0
VERTEX
8
0
10
6.387434375000001
20
4.8260000000000005
30
0
0
SEQEND
0
POLYLINE
66
1
8
1_copper
10
0.0
20
0.0
30
0.0
70
1
0
VERTEX
8
0
10
11.54194375
20
4.8333375
30
0
42
0.3578057741447831
0
VERTEX
8
0
10
12.192
20
5.550565625
30
0
0
VERTEX
8
0
10
12.192
20
7.149434375
30
0
42
0.9520795017710562
0
VERTEX
8
0
10
10.668000000000001
20
7.149434375
30
0
0
VERTEX
8
0
10
10.668000000000001
20
5.550565625
30
0
0
VERTEX
8
0
10
10.675337500000001
20
5.47605625
30
0
0
VERTEX
8
0
10
10.689943750000001
20
5.4026250000000005
30
0
0
VERTEX
8
0
10
10.711678125
20
5.330981250000001
30
0
0
VERTEX
8
0
10
10.740328125000001
20
5.261809375
30
0
0
VERTEX
8
0
10
10.775621875
20
5.1957812500000005
30
0
0
VERTEX
8
0
10
10.81721875
20
5.13353125
30
0
0
VERTEX
8
0
10
10.864715625
20
5.075656250000001
30
0
0
VERTEX
8
0
10
10.91765625
20
5.022715625
30
0
0
VERTEX
8
0
10
10.975531250000001
20
4.97521875
30
0
0
VERTEX
8
0
10
11.03778125
20
4.933621875
30
0
0
VERTEX
8
0
10
11.103809375
20
4.898328125
30
0
0
VERTEX
8
0
10
11.172981250000001
20
4.869678125
30
0
0
VERTEX
8
0
10
11.244625000000001
20
4.847943750000001
30
0
0
VERTEX
8
0
10
11.31805625
20
4.8333375
30
0
0
VERTEX
8
0
10
11.392565625000001
20
4.8260000000000005
30
0
0
VERTEX
8
0
10
11.467434375
20
4.8260000000000005
30
0
0
SEQEND
0
POLYLINE
66
1
8
1_copper
10
0.0
20
0.0
30
0.0
70
1
0
VERTEX
8
0
10
14.08194375
20
4.8333375
30
0
42
0.3578057741447831
0
VERTEX
8
0
10
14.732000000000001
20
5.550565625
30
0
0
VERTEX
8
0
10
14.732000000000001
20
7.149434375
30
0
42
0.9520795017710562
0
VERTEX
8
0
10
13.208
20
7.149434375
30
0
0
VERTEX
8
0
10
13.208
20
5.550565625
30
0
0
VERTEX
8
0
10
13.2153375
20
5.47605625
30
0
0
VERTEX
8
0
10
13.22994375
20
5.4026250000000005
30
0
0
VERTEX
8
0
10
13.251678125
20
5.330981250000001
30
0
0
VERTEX
8
0
10
13.280328125
20
5.261809375
30
0
0
VERTEX
8
0
10
13.315621875000001
20
5.1957812500000005
30
0
0
VERTEX
8
0
10
13.357218750000001
20
5.13353125
30
0
0
VERTEX
8
0
10
13.404715625000001
20
5.075656250000001
30
0
0
VERTEX
8
0
10
13.457656250000001
20
5.022715625
30
0
0
VERTEX
8
0
10
13.51553125
20
4.97521875
30
0
0
VERTEX
8
0
10
13.577781250000001
20
4.933621875
30
0
0
VERTEX
8
0
10
13.643809375
20
4.898328125
30
0
0
VERTEX
8
0
10
13.71298125
20
4.869678125
30
0
0
VERTEX
8
0
10
13.784625
20
4.847943750000001
30
0
0
VERTEX
8
0
10
13.85805625
20
4.8333375
30
0
0
VERTEX
8
0
10
13.932565625
20
4.8260000000000005
30
0
0
VERTEX
8
0
10
14.007434375
20
4.8260000000000005
30
0
0
SEQEND
0
POLYLINE
66
1
8
16_copper
10
0.0
20
0.0
30
0.0
70
1
0
VERTEX
8
0
10
6.4619437500000005
20
4.8333375
30
0
42
0.3578057741447831
0
VERTEX
8
0
10
7.112
20
5.550565625
30
0
0
VERTEX
8
0
10
7.112
20
7.149434375
30
0
42
0.9520795017710562
0
VERTEX
8
0
10
5.588
20
7.149434375
30
0
0
VERTEX
8
0
10
5.588
20
5.550565625
30
0
0
VERTEX
8
0
10
5.5953375
20
5.47605625
30
0
0
VERTEX
8
0
10
5.60994375
20
5.4026250000000005
30
0
0
VERTEX
8
0
10
5.6316781250000005
20
5.330981250000001
30
0
0
VERTEX
8
0
10
5.660328125
20
5.261809375
30
0
0
VERTEX
8
0
10
5.6956218750000005
20
5.1957812500000005
30
0
0
VERTEX
8
0
10
5.73721875
20
5.13353125
30
0
0
VERTEX
8
0
10
5.7847156250000005
20
5.075656250000001
30
0
0
VERTEX
8
0
10
5.83765625
20
5.022715625
30
0
0
VERTEX
8
0
10
5.89553125
20
4.97521875
30
0
0
VERTEX
8
0
10
5.95778125
20
4.933621875
30
0
0
VERTEX
8
0
10
6.023809375
20
4.898328125
30
0
0
VERTEX
8
0
10
6.09298125
20
4.869678125
30
0
0
VERTEX
8
0
10
6.164625
20
4.847943750000001
30
0
0
VERTEX
8
0
10
6.2380562500000005
20
4.8333375
30
0
0
VERTEX
8
0
10
6.312565625
20
4.8260000000000005
30
0
0
VERTEX
8
0
10
6.387434375000001
20
4.8260000000000005
30
0
0
SEQEND
0
POLYLINE
66
1
8
16_copper
10
0.0
20
0.0
30
0.0
70
1
0
VERTEX
8
0
10
11.54194375
20
4.8333375
30
0
42
0.3578057741447831
0
VERTEX
8
0
10
12.192
20
5.550565625
30
0
0
VERTEX
8
0
10
12.192
20
7.149434375
30
0
42
0.9520795017710562
0
VERTEX
8
0
10
10.668000000000001
20
7.149434375
30
0
0
VERTEX
8
0
10
10.668000000000001
20
5.550565625
30
0
0
VERTEX
8
0
10
10.675337500000001
20
5.47605625
30
0
0
VERTEX
8
0
10
10.689943750000001
20
5.4026250000000005
30
0
0
VERTEX
8
0
10
10.711678125
20
5.330981250000001
30
0
0
VERTEX
8
0
10
10.740328125000001
20
5.261809375
30
0
0
VERTEX
8
0
10
10.775621875
20
5.1957812500000005
30
0
0
VERTEX
8
0
10
10.81721875
20
5.13353125
30
0
0
VERTEX
8
0
10
10.864715625
20
5.075656250000001
30
0
0
VERTEX
8
0
10
10.91765625
20
5.022715625
30
0
0
VERTEX
8
0
10
10.975531250000001
20
4.97521875
30
0
0
VERTEX
8
0
10
11.03778125
20
4.933621875
30
0
0
VERTEX
8
0
10
11.103809375
20
4.898328125
30
0
0
VERTEX
8
0
10
11.172981250000001
20
4.869678125
30
0
0
VERTEX
8
0
10
11.244625000000001
20
4.847943750000001
30
0
0
VERTEX
8
0
10
11.31805625
20
4.8333375
30
0
0
VERTEX
8
0
10
11.392565625000001
20
4.8260000000000005
30
0
0
VERTEX
8
0
10
11.467434375
20
4.8260000000000005
30
0
0
SEQEND
0
POLYLINE
66
1
8
16_copper
10
0.0
20
0.0
30
0.0
70
1
0
VERTEX
8
0
10
14.08194375
20
4.8333375
30
0
42
0.3578057741447831
0
VERTEX
8
0
10
14.732000000000001
20
5.550565625
30
0
0
VERTEX
8
0
10
14.732000000000001
20
7.149434375
30
0
42
0.9520795017710562
0
VERTEX
8
0
10
13.208
20
7.149434375
30
0
0
VERTEX
8
0
10
13.208
20
5.550565625
30
0
0
VERTEX
8
0
10
13.2153375
20
5.47605625
30
0
0
VERTEX
8
0
10
13.22994375
20
5.4026250000000005
30
0
0
VERTEX
8
0
10
13.251678125
20
5.330981250000001
30
0
0
VERTEX
8
0
10
13.280328125
20
5.261809375
30
0
0
VERTEX
8
0
10
13.315621875000001
20
5.1957812500000005
30
0
0
VERTEX
8
0
10
13.357218750000001
20
5.13353125
30
0
0
VERTEX
8
0
10
13.404715625000001
20
5.075656250000001
30
0
0
VERTEX
8
0
10
13.457656250000001
20
5.022715625
30
0
0
VERTEX
8
0
10
13.51553125
20
4.97521875
30
0
0
VERTEX
8
0
10
13.577781250000001
20
4.933621875
30
0
0
VERTEX
8
0
10
13.643809375
20
4.898328125
30
0
0
VERTEX
8
0
10
13.71298125
20
4.869678125
30
0
0
VERTEX
8
0
10
13.784625
20
4.847943750000001
30
0
0
VERTEX
8
0
10
13.85805625
20
4.8333375
30
0
0
VERTEX
8
0
10
13.932565625
20
4.8260000000000005
30
0
0
VERTEX
8
0
10
14.007434375
20
4.8260000000000005
30
0
0
SEQEND
0
POLYLINE
66
1
8
1_copper
10
0.0
20
0.0
30
0.0
70
1
0
VERTEX
8
0
10
9.00194375
20
4.8333375
30
0
42
0.3578057741447831
0
VERTEX
8
0
10
9.652000000000001
20
5.550565625
30
0
0
VERTEX
8
0
10
9.652000000000001
20
7.149434375
30
0
42
0.5629577090293663
0
VERTEX
8
0
10
8.505
20
7.7702375
30
0
0
VERTEX
8
0
10
8.505
20
18.415
30
0
42
0.2713493596095356
0
VERTEX
8
0
10
8.382
20
18.64155625
30
0
0
VERTEX
8
0
10
8.382
20
19.849434375
30
0
42
0.9520795017710562
0
VERTEX
8
0
10
6.8580000000000005
20
19.849434375
30
0
0
VERTEX
8
0
10
6.8580000000000005
20
18.250565625
30
0
42
0.5629577090293663
0
VERTEX
8
0
10
8.005
20
17.629762500000002
30
0
0
VERTEX
8
0
10
8.005
20
6.985
30
0
42
0.2713493596095356
0
VERTEX
8
0
10
8.128
20
6.7584437500000005
30
0
0
VERTEX
8
0
10
8.128
20
5.550565625
30
0
0
VERTEX
8
0
10
8.1353375
20
5.47605625
30
0
0
VERTEX
8
0
10
8.14994375
20
5.4026250000000005
30
0
0
VERTEX
8
0
10
8.171678125
20
5.330981250000001
30
0
0
VERTEX
8
0
10
8.200328125
20
5.261809375
30
0
0
VERTEX
8
0
10
8.235621875
20
5.1957812500000005
30
0
0
VERTEX
8
0
10
8.277218750000001
20
5.13353125
30
0
0
VERTEX
8
0
10
8.324715625
20
5.075656250000001
30
0
0
VERTEX
8
0
10
8.377656250000001
20
5.022715625
30
0
0
VERTEX
8
0
10
8.43553125
20
4.97521875
30
0
0
VERTEX
8
0
10
8.497781250000001
20
4.933621875
30
0
0
VERTEX
8
0
10
8.563809375
20
4.898328125
30
0
0
VERTEX
8
0
10
8.63298125
20
4.869678125
30
0
0
VERTEX
8
0
10
8.704625
20
4.847943750000001
30
0
0
VERTEX
8
0
10
8.77805625
20
4.8333375
30
0
0
VERTEX
8
0
10
8.852565625
20
4.8260000000000005
30
0
0
VERTEX
8
0
10
8.927434375
20
4.8260000000000005
30
0
0
SEQEND
0
POLYLINE
66
1
8
16_copper
10
0.0
20
0.0
30
0.0
70
1
0
VERTEX
8
0
10
7.73194375
20
17.533337500000002
30
0
42
0.3578057741447831
0
VERTEX
8
0
10
8.382
20
18.250565625
30
0
0
VERTEX
8
0
10
8.382
20
19.849434375
30
0
42
0.9520795017710562
0
VERTEX
8
0
10
6.8580000000000005
20
19.849434375
30
0
0
VERTEX
8
0
10
6.8580000000000005
20
18.250565625
30
0
0
VERTEX
8
0
10
6.865337500000001
20
18.176056250000002
30
0
0
VERTEX
8
0
10
6.879943750000001
20
18.102625
30
0
0
VERTEX
8
0
10
6.901678125
20
18.03098125
30
0
0
VERTEX
8
0
10
6.930328125
20
17.961809375
30
0
0
VERTEX
8
0
10
6.965621875
20
17.895781250000002
30
0
0
VERTEX
8
0
10
7.007218750000001
20
17.83353125
30
0
0
VERTEX
8
0
10
7.054715625
20
17.77565625
30
0
0
VERTEX
8
0
10
7.107656250000001
20
17.722715625
30
0
0
VERTEX
8
0
10
7.16553125
20
17.67521875
30
0
0
VERTEX
8
0
10
7.2277812500000005
20
17.633621875
30
0
0
VERTEX
8
0
10
7.293809375
20
17.598328125000002
30
0
0
VERTEX
8
0
10
7.362981250000001
20
17.569678125
30
0
0
VERTEX
8
0
10
7.4346250000000005
20
17.54794375
30
0
0
VERTEX
8
0
10
7.50805625
20
17.533337500000002
30
0
0
VERTEX
8
0
10
7.582565625
20
17.526
30
0
0
VERTEX
8
0
10
7.657434375
20
17.526
30
0
0
SEQEND
0
POLYLINE
66
1
8
16_copper
10
0.0
20
0.0
30
0.0
70
1
0
VERTEX
8
0
10
9.00194375
20
4.8333375
30
0
42
0.3578057741447831
0
VERTEX
8
0
10
9.652000000000001
20
5.550565625
30
0
0
VERTEX
8
0
10
9.652000000000001
20
7.149434375
30
0
42
0.9520795017710562
0
VERTEX
8
0
10
8.128
20
7.149434375
30
0
0
VERTEX
8
0
10
8.128
20
5.550565625
30
0
0
VERTEX
8
0
10
8.1353375
20
5.47605625
30
0
0
VERTEX
8
0
10
8.14994375
20
5.4026250000000005
30
0
0
VERTEX
8
0
10
8.171678125
20
5.330981250000001
30
0
0
VERTEX
8
0
10
8.200328125
20
5.261809375
30
0
0
VERTEX
8
0
10
8.235621875
20
5.1957812500000005
30
0
0
VERTEX
8
0
10
8.277218750000001
20
5.13353125
30
0
0
VERTEX
8
0
10
8.324715625
20
5.075656250000001
30
0
0
VERTEX
8
0
10
8.377656250000001
20
5.022715625
30
0
0
VERTEX
8
0
10
8.43553125
20
4.97521875
30
0
0
VERTEX
8
0
10
8.497781250000001
20
4.933621875
30
0
0
VERTEX
8
0
10
8.563809375
20
4.898328125
30
0
0
VERTEX
8
0
10
8.63298125
20
4.869678125
30
0
0
VERTEX
8
0
10
8.704625
20
4.847943750000001
30
0
0
VERTEX
8
0
10
8.77805625
20
4.8333375
30
0
0
VERTEX
8
0
10
8.852565625
20
4.8260000000000005
30
0
0
VERTEX
8
0
10
8.927434375
20
4.8260000000000005
30
0
0
SEQEND
0
POLYLINE
66
1
8
1_copper
10
0.0
20
0.0
30
0.0
70
1
0
VERTEX
8
0
10
3.92194375
20
4.8333375
30
0
42
0.3578057741447831
0
VERTEX
8
0
10
4.572
20
5.550565625
30
0
0
VERTEX
8
0
10
4.572
20
6.7584437500000005
30
0
42
0.2713493596095356
0
VERTEX
8
0
10
4.695
20
6.985
30
0
0
VERTEX
8
0
10
4.695
20
18.94644375
30
0
0
VERTEX
8
0
10
7.088556250000001
20
21.34
30
0
0
VERTEX
8
0
10
9.91
20
21.34
30
0
0
VERTEX
8
0
10
9.91
20
20.53245
30
0
42
0.3059715170880054
0
VERTEX
8
0
10
9.398
20
19.849434375
30
0
0
VERTEX
8
0
10
9.398
20
18.250565625
30
0
42
0.9520795017710562
0
VERTEX
8
0
10
10.922
20
18.250565625
30
0
0
VERTEX
8
0
10
10.922
20
19.849434375
30
0
42
0.3059715170880054
0
VERTEX
8
0
10
10.41
20
20.53245
30
0
0
VERTEX
8
0
10
10.41
20
21.59
30
0
42
0.41421356237309503
0
VERTEX
8
0
10
10.16
20
21.84
30
0
0
VERTEX
8
0
10
6.985
20
21.84
30
0
42
0.198912367379658
0
VERTEX
8
0
10
6.808221875
20
21.766778125000002
30
0
0
VERTEX
8
0
10
4.268221875
20
19.226778125
30
0
42
0.198912367379658
0
VERTEX
8
0
10
4.195
20
19.05
30
0
0
VERTEX
8
0
10
4.195
20
7.7702375
30
0
42
0.5629577090293663
0
VERTEX
8
0
10
3.048
20
7.149434375
30
0
0
VERTEX
8
0
10
3.048
20
5.550565625
30
0
0
VERTEX
8
0
10
3.0553375000000003
20
5.47605625
30
0
0
VERTEX
8
0
10
3.06994375
20
5.4026250000000005
30
0
0
VERTEX
8
0
10
3.091678125
20
5.330981250000001
30
0
0
VERTEX
8
0
10
3.1203281250000003
20
5.261809375
30
0
0
VERTEX
8
0
10
3.155621875
20
5.1957812500000005
30
0
0
VERTEX
8
0
10
3.19721875
20
5.13353125
30
0
0
VERTEX
8
0
10
3.244715625
20
5.075656250000001
30
0
0
VERTEX
8
0
10
3.29765625
20
5.022715625
30
0
0
VERTEX
8
0
10
3.3555312500000003
20
4.97521875
30
0
0
VERTEX
8
0
10
3.41778125
20
4.933621875
30
0
0
VERTEX
8
0
10
3.4838093750000003
20
4.898328125
30
0
0
VERTEX
8
0
10
3.55298125
20
4.869678125
30
0
0
VERTEX
8
0
10
3.624625
20
4.847943750000001
30
0
0
VERTEX
8
0
10
3.69805625
20
4.8333375
30
0
0
VERTEX
8
0
10
3.7725656250000004
20
4.8260000000000005
30
0
0
VERTEX
8
0
10
3.847434375
20
4.8260000000000005
30
0
0
SEQEND
0
POLYLINE
66
1
8
16_copper
10
0.0
20
0.0
30
0.0
70
1
0
VERTEX
8
0
10
10.27194375
20
17.533337500000002
30
0
42
0.3578057741447831
0
VERTEX
8
0
10
10.922
20
18.250565625
30
0
0
VERTEX
8
0
10
10.922
20
19.849434375
30
0
42
0.9520795017710562
0
VERTEX
8
0
10
9.398
20
19.849434375
30
0
0
VERTEX
8
0
10
9.398
20
18.250565625
30
0
0
VERTEX
8
0
10
9.4053375
20
18.176056250000002
30
0
0
VERTEX
8
0
10
9.41994375
20
18.102625
30
0
0
VERTEX
8
0
10
9.441678125000001
20
18.03098125
30
0
0
VERTEX
8
0
10
9.470328125
20
17.961809375
30
0
0
VERTEX
8
0
10
9.505621875000001
20
17.895781250000002
30
0
0
VERTEX
8
0
10
9.54721875
20
17.83353125
30
0
0
VERTEX
8
0
10
9.594715625000001
20
17.77565625
30
0
0
VERTEX
8
0
10
9.64765625
20
17.722715625
30
0
0
VERTEX
8
0
10
9.70553125
20
17.67521875
30
0
0
VERTEX
8
0
10
9.76778125
20
17.633621875
30
0
0
VERTEX
8
0
10
9.833809375000001
20
17.598328125000002
30
0
0
VERTEX
8
0
10
9.90298125
20
17.569678125
30
0
0
VERTEX
8
0
10
9.974625
20
17.54794375
30
0
0
VERTEX
8
0
10
10.04805625
20
17.533337500000002
30
0
0
VERTEX
8
0
10
10.122565625
20
17.526
30
0
0
VERTEX
8
0
10
10.197434375
20
17.526
30
0
0
SEQEND
0
POLYLINE
66
1
8
16_copper
10
0.0
20
0.0
30
0.0
70
1
0
VERTEX
8
0
10
3.92194375
20
4.8333375
30
0
42
0.3578057741447831
0
VERTEX
8
0
10
4.572
20
5.550565625
30
0
0
VERTEX
8
0
10
4.572
20
7.149434375
30
0
42
0.9520795017710562
0
VERTEX
8
0
10
3.048
20
7.149434375
30
0
0
VERTEX
8
0
10
3.048
20
5.550565625
30
0
0
VERTEX
8
0
10
3.0553375000000003
20
5.47605625
30
0
0
VERTEX
8
0
10
3.06994375
20
5.4026250000000005
30
0
0
VERTEX
8
0
10
3.091678125
20
5.330981250000001
30
0
0
VERTEX
8
0
10
3.1203281250000003
20
5.261809375
30
0
0
VERTEX
8
0
10
3.155621875
20
5.1957812500000005
30
0
0
VERTEX
8
0
10
3.19721875
20
5.13353125
30
0
0
VERTEX
8
0
10
3.244715625
20
5.075656250000001
30
0
0
VERTEX
8
0
10
3.29765625
20
5.022715625
30
0
0
VERTEX
8
0
10
3.3555312500000003
20
4.97521875
30
0
0
VERTEX
8
0
10
3.41778125
20
4.933621875
30
0
0
VERTEX
8
0
10
3.4838093750000003
20
4.898328125
30
0
0
VERTEX
8
0
10
3.55298125
20
4.869678125
30
0
0
VERTEX
8
0
10
3.624625
20
4.847943750000001
30
0
0
VERTEX
8
0
10
3.69805625
20
4.8333375
30
0
0
VERTEX
8
0
10
3.7725656250000004
20
4.8260000000000005
30
0
0
VERTEX
8
0
10
3.847434375
20
4.8260000000000005
30
0
0
SEQEND
0
POLYLINE
66
1
8
1_copper
10
0.0
20
0.0
30
0.0
70
1
0
VERTEX
8
0
10
16.62194375
20
4.8333375
30
0
42
0.3578057741447831
0
VERTEX
8
0
10
17.272000000000002
20
5.550565625
30
0
0
VERTEX
8
0
10
17.272000000000002
20
7.149434375
30
0
42
0.5629577090293663
0
VERTEX
8
0
10
16.125
20
7.7702375
30
0
0
VERTEX
8
0
10
16.125
20
15.24
30
0
42
0.198912367379658
0
VERTEX
8
0
10
16.051778125000002
20
15.416778125
30
0
0
VERTEX
8
0
10
13.422803125000002
20
18.045753125
30
0
42
0.06868191917111846
0
VERTEX
8
0
10
13.462000000000002
20
18.250565625
30
0
0
VERTEX
8
0
10
13.462000000000002
20
19.849434375
30
0
42
0.9520795017710562
0
VERTEX
8
0
10
11.938
20
19.849434375
30
0
0
VERTEX
8
0
10
11.938
20
18.250565625
30
0
42
0.5776575059562279
0
VERTEX
8
0
10
13.113559375000001
20
17.647884375
30
0
0
VERTEX
8
0
10
15.625
20
15.136443750000002
30
0
0
VERTEX
8
0
10
15.625
20
6.985
30
0
42
0.2713493596095356
0
VERTEX
8
0
10
15.748000000000001
20
6.7584437500000005
30
0
0
VERTEX
8
0
10
15.748000000000001
20
5.550565625
30
0
0
VERTEX
8
0
10
15.755337500000001
20
5.47605625
30
0
0
VERTEX
8
0
10
15.769943750000001
20
5.4026250000000005
30
0
0
VERTEX
8
0
10
15.791678125
20
5.330981250000001
30
0
0
VERTEX
8
0
10
15.820328125000001
20
5.261809375
30
0
0
VERTEX
8
0
10
15.855621875
20
5.1957812500000005
30
0
0
VERTEX
8
0
10
15.89721875
20
5.13353125
30
0
0
VERTEX
8
0
10
15.944715625
20
5.075656250000001
30
0
0
VERTEX
8
0
10
15.99765625
20
5.022715625
30
0
0
VERTEX
8
0
10
16.05553125
20
4.97521875
30
0
0
VERTEX
8
0
10
16.11778125
20
4.933621875
30
0
0
VERTEX
8
0
10
16.183809375
20
4.898328125
30
0
0
VERTEX
8
0
10
16.25298125
20
4.869678125
30
0
0
VERTEX
8
0
10
16.324625
20
4.847943750000001
30
0
0
VERTEX
8
0
10
16.39805625
20
4.8333375
30
0
0
VERTEX
8
0
10
16.472565625
20
4.8260000000000005
30
0
0
VERTEX
8
0
10
16.547434375
20
4.8260000000000005
30
0
0
SEQEND
0
POLYLINE
66
1
8
16_copper
10
0.0
20
0.0
30
0.0
70
1
0
VERTEX
8
0
10
12.811943750000001
20
17.533337500000002
30
0
42
0.3578057741447831
0
VERTEX
8
0
10
13.462000000000002
20
18.250565625
30
0
0
VERTEX
8
0
10
13.462000000000002
20
19.849434375
30
0
42
0.9520795017710562
0
VERTEX
8
0
10
11.938
20
19.849434375
30
0
0
VERTEX
8
0
10
11.938
20
18.250565625
30
0
0
VERTEX
8
0
10
11.9453375
20
18.176056250000002
30
0
0
VERTEX
8
0
10
11.95994375
20
18.102625
30
0
0
VERTEX
8
0
10
11.981678125
20
18.03098125
30
0
0
VERTEX
8
0
10
12.010328125000001
20
17.961809375
30
0
0
VERTEX
8
0
10
12.045621875
20
17.895781250000002
30
0
0
VERTEX
8
0
10
12.08721875
20
17.83353125
30
0
0
VERTEX
8
0
10
12.134715625
20
17.77565625
30
0
0
VERTEX
8
0
10
12.18765625
20
17.722715625
30
0
0
VERTEX
8
0
10
12.24553125
20
17.67521875
30
0
0
VERTEX
8
0
10
12.307781250000001
20
17.633621875
30
0
0
VERTEX
8
0
10
12.373809375
20
17.598328125000002
30
0
0
VERTEX
8
0
10
12.44298125
20
17.569678125
30
0
0
VERTEX
8
0
10
12.514625
20
17.54794375
30
0
0
VERTEX
8
0
10
12.588056250000001
20
17.533337500000002
30
0
0
VERTEX
8
0
10
12.662565625000001
20
17.526
30
0
0
VERTEX
8
0
10
12.737434375000001
20
17.526
30
0
0
SEQEND
0
POLYLINE
66
1
8
16_copper
10
0.0
20
0.0
30
0.0
70
1
0
VERTEX
8
0
10
16.62194375
20
4.8333375
30
0
42
0.3578057741447831
0
VERTEX
8
0
10
17.272000000000002
20
5.550565625
30
0
0
VERTEX
8
0
10
17.272000000000002
20
7.149434375
30
0
42
0.9520795017710562
0
VERTEX
8
0
10
15.748000000000001
20
7.149434375
30
0
0
VERTEX
8
0
10
15.748000000000001
20
5.550565625
30
0
0
VERTEX
8
0
10
15.755337500000001
20
5.47605625
30
0
0
VERTEX
8
0
10
15.769943750000001
20
5.4026250000000005
30
0
0
VERTEX
8
0
10
15.791678125
20
5.330981250000001
30
0
0
VERTEX
8
0
10
15.820328125000001
20
5.261809375
30
0
0
VERTEX
8
0
10
15.855621875
20
5.1957812500000005
30
0
0
VERTEX
8
0
10
15.89721875
20
5.13353125
30
0
0
VERTEX
8
0
10
15.944715625
20
5.075656250000001
30
0
0
VERTEX
8
0
10
15.99765625
20
5.022715625
30
0
0
VERTEX
8
0
10
16.05553125
20
4.97521875
30
0
0
VERTEX
8
0
10
16.11778125
20
4.933621875
30
0
0
VERTEX
8
0
10
16.183809375
20
4.898328125
30
0
0
VERTEX
8
0
10
16.25298125
20
4.869678125
30
0
0
VERTEX
8
0
10
16.324625
20
4.847943750000001
30
0
0
VERTEX
8
0
10
16.39805625
20
4.8333375
30
0
0
VERTEX
8
0
10
16.472565625
20
4.8260000000000005
30
0
0
VERTEX
8
0
10
16.547434375
20
4.8260000000000005
30
0
0
SEQEND
0
POLYLINE
66
1
8
1_copper
10
0.0
20
0.0
30
0.0
70
1
0
VERTEX
8
0
10
19.161943750000002
20
4.8333375
30
0
42
0.3578057741447831
0
VERTEX
8
0
10
19.812
20
5.550565625
30
0
0
VERTEX
8
0
10
19.812
20
7.149434375
30
0
42
0.5629577090293663
0
VERTEX
8
0
10
18.665
20
7.7702375
30
0
0
VERTEX
8
0
10
18.665
20
15.875
30
0
42
0.198912367379658
0
VERTEX
8
0
10
18.591778125
20
16.051778125000002
30
0
0
VERTEX
8
0
10
16.002000000000002
20
18.64155625
30
0
0
VERTEX
8
0
10
16.002000000000002
20
19.849434375
30
0
42
0.9520795017710562
0
VERTEX
8
0
10
14.478000000000002
20
19.849434375
30
0
0
VERTEX
8
0
10
14.478000000000002
20
18.250565625
30
0
42
0.7987204587585028
0
VERTEX
8
0
10
15.942840625
20
17.993603125
30
0
0
VERTEX
8
0
10
18.165
20
15.771443750000001
30
0
0
VERTEX
8
0
10
18.165
20
6.985
30
0
42
0.2713493596095356
0
VERTEX
8
0
10
18.288
20
6.7584437500000005
30
0
0
VERTEX
8
0
10
18.288
20
5.550565625
30
0
0
VERTEX
8
0
10
18.295337500000002
20
5.47605625
30
0
0
VERTEX
8
0
10
18.309943750000002
20
5.4026250000000005
30
0
0
VERTEX
8
0
10
18.331678125
20
5.330981250000001
30
0
0
VERTEX
8
0
10
18.360328125000002
20
5.261809375
30
0
0
VERTEX
8
0
10
18.395621875
20
5.1957812500000005
30
0
0
VERTEX
8
0
10
18.43721875
20
5.13353125
30
0
0
VERTEX
8
0
10
18.484715625
20
5.075656250000001
30
0
0
VERTEX
8
0
10
18.53765625
20
5.022715625
30
0
0
VERTEX
8
0
10
18.59553125
20
4.97521875
30
0
0
VERTEX
8
0
10
18.65778125
20
4.933621875
30
0
0
VERTEX
8
0
10
18.723809375000002
20
4.898328125
30
0
0
VERTEX
8
0
10
18.79298125
20
4.869678125
30
0
0
VERTEX
8
0
10
18.864625
20
4.847943750000001
30
0
0
VERTEX
8
0
10
18.938056250000002
20
4.8333375
30
0
0
VERTEX
8
0
10
19.012565625
20
4.8260000000000005
30
0
0
VERTEX
8
0
10
19.087434375
20
4.8260000000000005
30
0
0
SEQEND
0
POLYLINE
66
1
8
16_copper
10
0.0
20
0.0
30
0.0
70
1
0
VERTEX
8
0
10
15.35194375
20
17.533337500000002
30
0
42
0.3578057741447831
0
VERTEX
8
0
10
16.002000000000002
20
18.250565625
30
0
0
VERTEX
8
0
10
16.002000000000002
20
19.849434375
30
0
42
0.9520795017710562
0
VERTEX
8
0
10
14.478000000000002
20
19.849434375
30
0
0
VERTEX
8
0
10
14.478000000000002
20
18.250565625
30
0
0
VERTEX
8
0
10
14.4853375
20
18.176056250000002
30
0
0
VERTEX
8
0
10
14.49994375
20
18.102625
30
0
0
VERTEX
8
0
10
14.521678125000001
20
18.03098125
30
0
0
VERTEX
8
0
10
14.550328125
20
17.961809375
30
0
0
VERTEX
8
0
10
14.585621875000001
20
17.895781250000002
30
0
0
VERTEX
8
0
10
14.62721875
20
17.83353125
30
0
0
VERTEX
8
0
10
14.674715625000001
20
17.77565625
30
0
0
VERTEX
8
0
10
14.72765625
20
17.722715625
30
0
0
VERTEX
8
0
10
14.78553125
20
17.67521875
30
0
0
VERTEX
8
0
10
14.84778125
20
17.633621875
30
0
0
VERTEX
8
0
10
14.913809375000001
20
17.598328125000002
30
0
0
VERTEX
8
0
10
14.98298125
20
17.569678125
30
0
0
VERTEX
8
0
10
15.054625000000001
20
17.54794375
30
0
0
VERTEX
8
0
10
15.12805625
20
17.533337500000002
30
0
0
VERTEX
8
0
10
15.202565625
20
17.526
30
0
0
VERTEX
8
0
10
15.277434375
20
17.526
30
0
0
SEQEND
0
POLYLINE
66
1
8
16_copper
10
0.0
20
0.0
30
0.0
70
1
0
VERTEX
8
0
10
19.161943750000002
20
4.8333375
30
0
42
0.3578057741447831
0
VERTEX
8
0
10
19.812
20
5.550565625
30
0
0
VERTEX
8
0
10
19.812
20
7.149434375
30
0
42
0.9520795017710562
0
VERTEX
8
0
10
18.288
20
7.149434375
30
0
0
VERTEX
8
0
10
18.288
20
5.550565625
30
0
0
VERTEX
8
0
10
18.295337500000002
20
5.47605625
30
0
0
VERTEX
8
0
10
18.309943750000002
20
5.4026250000000005
30
0
0
VERTEX
8
0
10
18.331678125
20
5.330981250000001
30
0
0
VERTEX
8
0
10
18.360328125000002
20
5.261809375
30
0
0
VERTEX
8
0
10
18.395621875
20
5.1957812500000005
30
0
0
VERTEX
8
0
10
18.43721875
20
5.13353125
30
0
0
VERTEX
8
0
10
18.484715625
20
5.075656250000001
30
0
0
VERTEX
8
0
10
18.53765625
20
5.022715625
30
0
0
VERTEX
8
0
10
18.59553125
20
4.97521875
30
0
0
VERTEX
8
0
10
18.65778125
20
4.933621875
30
0
0
VERTEX
8
0
10
18.723809375000002
20
4.898328125
30
0
0
VERTEX
8
0
10
18.79298125
20
4.869678125
30
0
0
VERTEX
8
0
10
18.864625
20
4.847943750000001
30
0
0
VERTEX
8
0
10
18.938056250000002
20
4.8333375
30
0
0
VERTEX
8
0
10
19.012565625
20
4.8260000000000005
30
0
0
VERTEX
8
0
10
19.087434375
20
4.8260000000000005
30
0
0
SEQEND
0
POLYLINE
66
1
8
1_copper
10
0.0
20
0.0
30
0.0
70
1
0
VERTEX
8
0
10
1.095434375
20
3.9756062500000002
30
0
42
0.18778386271516667
0
VERTEX
8
0
10
1.146078125
20
3.997128125
30
0
0
VERTEX
8
0
10
1.398025
20
4.2490781250000005
30
0
0
VERTEX
8
0
10
2.138990625
20
4.555996875
30
0
0
VERTEX
8
0
10
2.873303125
20
4.555996875
30
0
42
0.6681786379192989
0
VERTEX
8
0
10
2.927184375
20
4.686078125
30
0
0
VERTEX
8
0
10
2.740128125
20
4.87313125
30
0
0
VERTEX
8
0
10
2.548
20
5.3369687500000005
30
0
0
VERTEX
8
0
10
2.548
20
7.3630281250000005
30
0
0
VERTEX
8
0
10
2.740128125
20
7.826865625
30
0
0
VERTEX
8
0
10
3.09513125
20
8.18186875
30
0
0
VERTEX
8
0
10
3.55896875
20
8.373996875
30
0
42
0.6257102120954536
0
VERTEX
8
0
10
3.6950000000000003
20
8.450196875
30
0
0
VERTEX
8
0
10
3.6950000000000003
20
19.199184375
30
0
0
VERTEX
8
0
10
3.80918125
20
19.474840625000002
30
0
0
VERTEX
8
0
10
6.56015625
20
22.225815625000003
30
0
0
VERTEX
8
0
10
6.8358125
20
22.339996875
30
0
0
VERTEX
8
0
10
10.309184375000001
20
22.339996875
30
0
0
VERTEX
8
0
10
10.584840625
20
22.225815625000003
30
0
0
VERTEX
8
0
10
10.795815625000001
20
22.014840625
30
0
0
VERTEX
8
0
10
10.909996875000001
20
21.739184375
30
0
0
VERTEX
8
0
10
10.909996875000001
20
20.878296875
30
0
42
0.198912367379658
0
VERTEX
8
0
10
10.932315625000001
20
20.824415625
30
0
0
VERTEX
8
0
10
11.229868750000001
20
20.526865625
30
0
0
VERTEX
8
0
10
11.3596
20
20.213665625
30
0
42
0.668189684777048
0
VERTEX
8
0
10
11.5004
20
20.213665625
30
0
0
VERTEX
8
0
10
11.630128125
20
20.526865625
30
0
0
VERTEX
8
0
10
11.98513125
20
20.881868750000002
30
0
0
VERTEX
8
0
10
12.44896875
20
21.073996875000002
30
0
0
VERTEX
8
0
10
12.951028125
20
21.073996875000002
30
0
0
VERTEX
8
0
10
13.414865625000001
20
20.881868750000002
30
0
0
VERTEX
8
0
10
13.76986875
20
20.526865625
30
0
0
VERTEX
8
0
10
13.899600000000001
20
20.213665625
30
0
42
0.668189684777048
0
VERTEX
8
0
10
14.0404
20
20.213665625
30
0
0
VERTEX
8
0
10
14.170128125000002
20
20.526865625
30
0
0
VERTEX
8
0
10
14.525131250000001
20
20.881868750000002
30
0
0
VERTEX
8
0
10
14.988968750000002
20
21.073996875000002
30
0
0
VERTEX
8
0
10
15.491028125000001
20
21.073996875000002
30
0
0
VERTEX
8
0
10
15.954865625
20
20.881868750000002
30
0
0
VERTEX
8
0
10
16.30986875
20
20.526865625
30
0
0
VERTEX
8
0
10
16.501996875
20
20.063028125000002
30
0
0
VERTEX
8
0
10
16.501996875
20
18.880221875
30
0
42
0.198912367379658
0
VERTEX
8
0
10
16.524315625
20
18.826340625
30
0
0
VERTEX
8
0
10
19.050815625000002
20
16.299840625
30
0
0
VERTEX
8
0
10
19.164996875
20
16.024184375
30
0
0
VERTEX
8
0
10
19.164996875
20
8.450196875
30
0
42
0.41421356237309503
0
VERTEX
8
0
10
19.241196875
20
8.373996875
30
0
0
VERTEX
8
0
10
19.301028125000002
20
8.373996875
30
0
0
VERTEX
8
0
10
19.764865625000002
20
8.18186875
30
0
0
VERTEX
8
0
10
20.119868750000002
20
7.826865625
30
0
0
VERTEX
8
0
10
20.311996875000002
20
7.3630281250000005
30
0
0
VERTEX
8
0
10
20.311996875000002
20
5.3369687500000005
30
0
0
VERTEX
8
0
10
20.119868750000002
20
4.87313125
30
0
0
VERTEX
8
0
10
19.9328125
20
4.686078125
30
0
42
0.6681786379192989
0
VERTEX
8
0
10
19.98669375
20
4.555996875
30
0
0
VERTEX
8
0
10
20.721006250000002
20
4.555996875
30
0
0
VERTEX
8
0
10
21.408640625
20
4.271165625
30
0
42
0.5345062264334504
0
VERTEX
8
0
10
21.514
20
4.341565625
30
0
0
VERTEX
8
0
10
21.514
20
19.788431250000002
30
0
42
0.5345062264334504
0
VERTEX
8
0
10
21.408640625
20
19.85883125
30
0
0
VERTEX
8
0
10
20.721006250000002
20
19.574
30
0
0
VERTEX
8
0
10
19.918990625
20
19.574
30
0
0
VERTEX
8
0
10
19.178025
20
19.88091875
30
0
0
VERTEX
8
0
10
18.61091875
20
20.448025
30
0
0
VERTEX
8
0
10
18.304000000000002
20
21.188990625000002
30
0
0
VERTEX
8
0
10
18.304000000000002
20
21.99100625
30
0
0
VERTEX
8
0
10
18.61091875
20
22.731971875000003
30
0
0
VERTEX
8
0
10
18.852868750000003
20
22.973918750000003
30
0
42
0.6681786379192989
0
VERTEX
8
0
10
18.798987500000003
20
23.104000000000003
30
0
0
VERTEX
8
0
10
4.061009375
20
23.104000000000003
30
0
42
0.6681786379192989
0
VERTEX
8
0
10
4.007128125
20
22.973918750000003
30
0
0
VERTEX
8
0
10
4.2490781250000005
20
22.731971875000003
30
0
0
VERTEX
8
0
10
4.555996875
20
21.99100625
30
0
0
VERTEX
8
0
10
4.555996875
20
21.188990625000002
30
0
0
VERTEX
8
0
10
4.2490781250000005
20
20.448025
30
0
0
VERTEX
8
0
10
3.6819718750000003
20
19.88091875
30
0
0
VERTEX
8
0
10
2.94100625
20
19.574
30
0
0
VERTEX
8
0
10
2.138990625
20
19.574
30
0
0
VERTEX
8
0
10
1.398025
20
19.88091875
30
0
0
VERTEX
8
0
10
1.146078125
20
20.13286875
30
0
42
0.6681786379192989
0
VERTEX
8
0
10
1.0159968750000001
20
20.0789875
30
0
0
VERTEX
8
0
10
1.0159968750000001
20
4.0510093750000005
30
0
0
VERTEX
8
0
10
1.01640625
20
4.048178125000001
30
0
0
VERTEX
8
0
10
1.016209375
20
4.0453375000000005
30
0
0
VERTEX
8
0
10
1.017953125
20
4.0374625
30
0
0
VERTEX
8
0
10
1.01910625
20
4.029465625
30
0
0
VERTEX
8
0
10
1.020296875
20
4.026871875
30
0
0
VERTEX
8
0
10
1.0209125000000001
20
4.024084375
30
0
0
VERTEX
8
0
10
1.0248062500000001
20
4.0170312500000005
30
0
0
VERTEX
8
0
10
1.028178125
20
4.009678125
30
0
0
VERTEX
8
0
10
1.030059375
20
4.00751875
30
0
0
VERTEX
8
0
10
1.0314343750000001
20
4.005028125
30
0
0
VERTEX
8
0
10
1.037159375
20
3.9993687500000004
30
0
0
VERTEX
8
0
10
1.042475
20
3.9932656250000003
30
0
0
VERTEX
8
0
10
1.044884375
20
3.9917281250000003
30
0
0
VERTEX
8
0
10
1.0469125000000001
20
3.9897250000000004
30
0
0
VERTEX
8
0
10
1.05403125
20
3.9859
30
0
0
VERTEX
8
0
10
1.0608312500000001
20
3.981565625
30
0
0
VERTEX
8
0
10
1.06356875
20
3.9807750000000004
30
0
0
VERTEX
8
0
10
1.0660875
20
3.9794218750000003
30
0
0
VERTEX
8
0
10
1.0739875
20
3.977765625
30
0
0
VERTEX
8
0
10
1.08174375
20
3.9755281250000003
30
0
0
VERTEX
8
0
10
1.0846
20
3.9755437500000004
30
0
0
VERTEX
8
0
10
1.0873937500000002
20
3.974959375
30
0
0
SEQEND
0
POLYLINE
66
1
8
1_copper
10
0.0
20
0.0
30
0.0
70
1
0
VERTEX
8
0
10
8.890440625
20
20.16698125
30
0
42
0.3017655050456294
0
VERTEX
8
0
10
8.9604
20
20.213665625
30
0
0
VERTEX
8
0
10
9.090128125
20
20.526865625
30
0
0
VERTEX
8
0
10
9.273184375
20
20.70991875
30
0
42
0.6681786379192989
0
VERTEX
8
0
10
9.219303125
20
20.84
30
0
0
VERTEX
8
0
10
8.56069375
20
20.84
30
0
42
0.6681786379192989
0
VERTEX
8
0
10
8.5068125
20
20.70991875
30
0
0
VERTEX
8
0
10
8.68986875
20
20.526865625
30
0
0
VERTEX
8
0
10
8.819600000000001
20
20.213665625
30
0
0
VERTEX
8
0
10
8.82105625
20
20.211215625
30
0
0
VERTEX
8
0
10
8.821965625
20
20.208503125
30
0
0
VERTEX
8
0
10
8.82659375
20
20.201890625
30
0
0
VERTEX
8
0
10
8.830715625
20
20.194950000000002
30
0
0
VERTEX
8
0
10
8.832812500000001
20
20.193003125
30
0
0
VERTEX
8
0
10
8.834446875000001
20
20.19066875
30
0
0
VERTEX
8
0
10
8.84075625
20
20.185634375
30
0
0
VERTEX
8
0
10
8.846671875
20
20.180143750000003
30
0
0
VERTEX
8
0
10
8.849225
20
20.178875
30
0
0
VERTEX
8
0
10
8.851459375000001
20
20.177090625
30
0
0
VERTEX
8
0
10
8.858946875
20
20.1740375
30
0
0
VERTEX
8
0
10
8.8661625
20
20.170450000000002
30
0
0
VERTEX
8
0
10
8.86896875
20
20.169953125
30
0
0
VERTEX
8
0
10
8.871615625
20
20.168875
30
0
0
VERTEX
8
0
10
8.879646875
20
20.16806875
30
0
0
VERTEX
8
0
10
8.887596875
20
20.1666625
30
0
0
SEQEND
0
POLYLINE
66
1
8
1_copper
10
0.0
20
0.0
30
0.0
70
1
0
VERTEX
8
0
10
5.274409375
20
7.850290625
30
0
42
0.18786951802598695
0
VERTEX
8
0
10
5.325078125
20
7.871812500000001
30
0
0
VERTEX
8
0
10
5.635131250000001
20
8.18186875
30
0
0
VERTEX
8
0
10
6.09896875
20
8.373996875
30
0
0
VERTEX
8
0
10
6.601028125
20
8.373996875
30
0
0
VERTEX
8
0
10
7.064865625
20
8.18186875
30
0
0
VERTEX
8
0
10
7.37491875
20
7.871812500000001
30
0
42
0.6681786379192989
0
VERTEX
8
0
10
7.505000000000001
20
7.925693750000001
30
0
0
VERTEX
8
0
10
7.505000000000001
20
16.9498
30
0
42
0.41421356237309503
0
VERTEX
8
0
10
7.428800000000001
20
17.026
30
0
0
VERTEX
8
0
10
7.3689687500000005
20
17.026
30
0
0
VERTEX
8
0
10
6.90513125
20
17.218128125
30
0
0
VERTEX
8
0
10
6.5501281250000005
20
17.57313125
30
0
0
VERTEX
8
0
10
6.3580000000000005
20
18.03696875
30
0
0
VERTEX
8
0
10
6.3580000000000005
20
19.71838125
30
0
42
0.6681786379192989
0
VERTEX
8
0
10
6.227918750000001
20
19.7722625
30
0
0
VERTEX
8
0
10
5.217315625
20
18.76165625
30
0
42
0.198912367379658
0
VERTEX
8
0
10
5.194996875
20
18.707775
30
0
0
VERTEX
8
0
10
5.194996875
20
7.925693750000001
30
0
0
VERTEX
8
0
10
5.1954062500000004
20
7.922862500000001
30
0
0
VERTEX
8
0
10
5.195209375
20
7.920021875000001
30
0
0
VERTEX
8
0
10
5.196953125
20
7.912146875
30
0
0
VERTEX
8
0
10
5.19810625
20
7.9041500000000005
30
0
0
VERTEX
8
0
10
5.199296875
20
7.9015562500000005
30
0
0
VERTEX
8
0
10
5.1999125
20
7.89876875
30
0
0
VERTEX
8
0
10
5.20380625
20
7.891715625000001
30
0
0
VERTEX
8
0
10
5.207178125
20
7.8843625
30
0
0
VERTEX
8
0
10
5.209059375
20
7.882203125
30
0
0
VERTEX
8
0
10
5.210434375
20
7.8797125
30
0
0
VERTEX
8
0
10
5.216159375
20
7.8740531250000005
30
0
0
VERTEX
8
0
10
5.221475
20
7.86795
30
0
0
VERTEX
8
0
10
5.223884375
20
7.8664125
30
0
0
VERTEX
8
0
10
5.225912500000001
20
7.864409375
30
0
0
VERTEX
8
0
10
5.233031250000001
20
7.860584375
30
0
0
VERTEX
8
0
10
5.23983125
20
7.85625
30
0
0
VERTEX
8
0
10
5.24256875
20
7.855459375000001
30
0
0
VERTEX
8
0
10
5.2450875
20
7.85410625
30
0
0
VERTEX
8
0
10
5.252975
20
7.85245625
30
0
0
VERTEX
8
0
10
5.2607437500000005
20
7.8502125000000005
30
0
0
VERTEX
8
0
10
5.263612500000001
20
7.850228125
30
0
0
VERTEX
8
0
10
5.266393750000001
20
7.849646875
30
0
0
SEQEND
0
POLYLINE
66
1
8
1_copper
10
0.0
20
0.0
30
0.0
70
1
0
VERTEX
8
0
10
12.700437500000001
20
7.466981250000001
30
0
42
0.3017655050456294
0
VERTEX
8
0
10
12.770396875000001
20
7.513665625000001
30
0
0
VERTEX
8
0
10
12.900128125
20
7.826865625
30
0
0
VERTEX
8
0
10
13.25513125
20
8.18186875
30
0
0
VERTEX
8
0
10
13.71896875
20
8.373996875
30
0
0
VERTEX
8
0
10
14.221028125
20
8.373996875
30
0
0
VERTEX
8
0
10
14.684865625
20
8.18186875
30
0
0
VERTEX
8
0
10
14.99491875
20
7.871812500000001
30
0
42
0.6681786379192989
0
VERTEX
8
0
10
15.125
20
7.925693750000001
30
0
0
VERTEX
8
0
10
15.125
20
14.897775000000001
30
0
42
0.198912367379658
0
VERTEX
8
0
10
15.102681250000002
20
14.951656250000001
30
0
0
VERTEX
8
0
10
13.041696875000001
20
17.012643750000002
30
0
42
0.27490918547205423
0
VERTEX
8
0
10
12.951021875
20
17.026
30
0
0
VERTEX
8
0
10
12.44896875
20
17.026
30
0
0
VERTEX
8
0
10
11.98513125
20
17.218128125
30
0
0
VERTEX
8
0
10
11.630128125
20
17.57313125
30
0
0
VERTEX
8
0
10
11.5004
20
17.88633125
30
0
42
0.668189684777048
0
VERTEX
8
0
10
11.3596
20
17.88633125
30
0
0
VERTEX
8
0
10
11.229868750000001
20
17.57313125
30
0
0
VERTEX
8
0
10
10.874865625
20
17.218128125
30
0
0
VERTEX
8
0
10
10.411028125
20
17.026
30
0
0
VERTEX
8
0
10
9.90896875
20
17.026
30
0
0
VERTEX
8
0
10
9.445131250000001
20
17.218128125
30
0
0
VERTEX
8
0
10
9.135078125
20
17.528184375000002
30
0
42
0.6681786379192989
0
VERTEX
8
0
10
9.004996875
20
17.474303125000002
30
0
0
VERTEX
8
0
10
9.004996875
20
8.450196875
30
0
42
0.41421356237309503
0
VERTEX
8
0
10
9.081196875
20
8.373996875
30
0
0
VERTEX
8
0
10
9.141028125
20
8.373996875
30
0
0
VERTEX
8
0
10
9.604865625
20
8.18186875
30
0
0
VERTEX
8
0
10
9.95986875
20
7.826865625
30
0
0
VERTEX
8
0
10
10.089596875
20
7.513665625000001
30
0
42
0.668189684777048
0
VERTEX
8
0
10
10.230396875
20
7.513665625000001
30
0
0
VERTEX
8
0
10
10.360128125000001
20
7.826865625
30
0
0
VERTEX
8
0
10
10.71513125
20
8.18186875
30
0
0
VERTEX
8
0
10
11.178968750000001
20
8.373996875
30
0
0
VERTEX
8
0
10
11.681028125000001
20
8.373996875
30
0
0
VERTEX
8
0
10
12.144865625000001
20
8.18186875
30
0
0
VERTEX
8
0
10
12.499868750000001
20
7.826865625
30
0
0
VERTEX
8
0
10
12.629596875
20
7.513665625000001
30
0
0
VERTEX
8
0
10
12.631053125000001
20
7.511215625
30
0
0
VERTEX
8
0
10
12.6319625
20
7.508503125000001
30
0
0
VERTEX
8
0
10
12.636590625
20
7.501890625000001
30
0
0
VERTEX
8
0
10
12.640712500000001
20
7.49495
30
0
0
VERTEX
8
0
10
12.642809375
20
7.493003125
30
0
0
VERTEX
8
0
10
12.64444375
20
7.49066875
30
0
0
VERTEX
8
0
10
12.650753125000001
20
7.485634375
30
0
0
VERTEX
8
0
10
12.656668750000001
20
7.480143750000001
30
0
0
VERTEX
8
0
10
12.659221875
20
7.478871875
30
0
0
VERTEX
8
0
10
12.66145625
20
7.477090625000001
30
0
0
VERTEX
8
0
10
12.66893125
20
7.474043750000001
30
0
0
VERTEX
8
0
10
12.67615625
20
7.4704500000000005
30
0
0
VERTEX
8
0
10
12.678965625
20
7.469953125
30
0
0
VERTEX
8
0
10
12.6816125
20
7.468875000000001
30
0
0
VERTEX
8
0
10
12.689640625000001
20
7.4680687500000005
30
0
0
VERTEX
8
0
10
12.697593750000001
20
7.4666625
30
0
0
SEQEND
0
POLYLINE
66
1
8
1_copper
10
0.0
20
0.0
30
0.0
70
1
0
VERTEX
8
0
10
17.597250000000003
20
7.850321875000001
30
0
42
0.38187904585056615
0
VERTEX
8
0
10
17.665
20
7.925693750000001
30
0
0
VERTEX
8
0
10
17.665
20
15.532775
30
0
42
0.198912367379658
0
VERTEX
8
0
10
17.642681250000003
20
15.58665625
30
0
0
VERTEX
8
0
10
16.030709375
20
17.198631250000002
30
0
42
0.30334251367423254
0
VERTEX
8
0
10
15.94766875
20
17.21515
30
0
0
VERTEX
8
0
10
15.491028125000001
20
17.026
30
0
0
VERTEX
8
0
10
15.333615625
20
17.026
30
0
42
0.6681786379192989
0
VERTEX
8
0
10
15.279734375
20
16.89591875
30
0
0
VERTEX
8
0
10
16.510815625
20
15.664840625
30
0
0
VERTEX
8
0
10
16.624996875
20
15.389184375000001
30
0
0
VERTEX
8
0
10
16.624996875
20
8.450196875
30
0
42
0.41421356237309503
0
VERTEX
8
0
10
16.701196875
20
8.373996875
30
0
0
VERTEX
8
0
10
16.761028125
20
8.373996875
30
0
0
VERTEX
8
0
10
17.224865625
20
8.18186875
30
0
0
VERTEX
8
0
10
17.53491875
20
7.871812500000001
30
0
0
VERTEX
8
0
10
17.537196875
20
7.870109375
30
0
0
VERTEX
8
0
10
17.539078125
20
7.86795
30
0
0
VERTEX
8
0
10
17.54589375
20
7.86360625
30
0
0
VERTEX
8
0
10
17.55235
20
7.858778125000001
30
0
0
VERTEX
8
0
10
17.555028125
20
7.8577843750000005
30
0
0
VERTEX
8
0
10
17.557434375
20
7.85625
30
0
0
VERTEX
8
0
10
17.5652
20
7.854009375
30
0
0
VERTEX
8
0
10
17.57275625
20
7.8512031250000005
30
0
0
VERTEX
8
0
10
17.57559375
20
7.85100625
30
0
0
VERTEX
8
0
10
17.578346875
20
7.8502125000000005
30
0
0
VERTEX
8
0
10
17.586453125000002
20
7.850259375
30
0
0
VERTEX
8
0
10
17.594471875
20
7.8497062500000006
30
0
0
SEQEND
0
POLYLINE
66
1
8
1_copper
10
0.0
20
0.0
30
0.0
70
1
0
VERTEX
8
0
10
18.81181875
20
1.01640625
30
0
42
0.6547596356862735
0
VERTEX
8
0
10
18.86286875
20
1.146078125
30
0
0
VERTEX
8
0
10
18.61091875
20
1.398025
30
0
0
VERTEX
8
0
10
18.304000000000002
20
2.138990625
30
0
0
VERTEX
8
0
10
18.304000000000002
20
2.94100625
30
0
0
VERTEX
8
0
10
18.61091875
20
3.6819718750000003
30
0
0
VERTEX
8
0
10
19.12486875
20
4.195918750000001
30
0
42
0.6681786379192989
0
VERTEX
8
0
10
19.0709875
20
4.3260000000000005
30
0
0
VERTEX
8
0
10
18.79896875
20
4.3260000000000005
30
0
0
VERTEX
8
0
10
18.33513125
20
4.5181281250000005
30
0
0
VERTEX
8
0
10
17.980128125
20
4.87313125
30
0
0
VERTEX
8
0
10
17.850396875
20
5.18633125
30
0
42
0.668189684777048
0
VERTEX
8
0
10
17.709596875000003
20
5.18633125
30
0
0
VERTEX
8
0
10
17.57986875
20
4.87313125
30
0
0
VERTEX
8
0
10
17.224865625
20
4.5181281250000005
30
0
0
VERTEX
8
0
10
16.761028125
20
4.3260000000000005
30
0
0
VERTEX
8
0
10
16.25896875
20
4.3260000000000005
30
0
0
VERTEX
8
0
10
15.79513125
20
4.5181281250000005
30
0
0
VERTEX
8
0
10
15.440128125000001
20
4.87313125
30
0
0
VERTEX
8
0
10
15.310396875
20
5.18633125
30
0
42
0.668189684777048
0
VERTEX
8
0
10
15.169596875
20
5.18633125
30
0
0
VERTEX
8
0
10
15.03986875
20
4.87313125
30
0
0
VERTEX
8
0
10
14.684865625
20
4.5181281250000005
30
0
0
VERTEX
8
0
10
14.221028125
20
4.3260000000000005
30
0
0
VERTEX
8
0
10
13.71896875
20
4.3260000000000005
30
0
0
VERTEX
8
0
10
13.25513125
20
4.5181281250000005
30
0
0
VERTEX
8
0
10
12.900128125
20
4.87313125
30
0
0
VERTEX
8
0
10
12.770396875000001
20
5.18633125
30
0
42
0.668189684777048
0
VERTEX
8
0
10
12.629596875
20
5.18633125
30
0
0
VERTEX
8
0
10
12.499868750000001
20
4.87313125
30
0
0
VERTEX
8
0
10
12.144865625000001
20
4.5181281250000005
30
0
0
VERTEX
8
0
10
11.681028125000001
20
4.3260000000000005
30
0
0
VERTEX
8
0
10
11.178968750000001
20
4.3260000000000005
30
0
0
VERTEX
8
0
10
10.71513125
20
4.5181281250000005
30
0
0
VERTEX
8
0
10
10.360128125000001
20
4.87313125
30
0
0
VERTEX
8
0
10
10.230396875
20
5.18633125
30
0
42
0.668189684777048
0
VERTEX
8
0
10
10.089596875
20
5.18633125
30
0
0
VERTEX
8
0
10
9.95986875
20
4.87313125
30
0
0
VERTEX
8
0
10
9.604865625
20
4.5181281250000005
30
0
0
VERTEX
8
0
10
9.141028125
20
4.3260000000000005
30
0
0
VERTEX
8
0
10
8.63896875
20
4.3260000000000005
30
0
0
VERTEX
8
0
10
8.17513125
20
4.5181281250000005
30
0
0
VERTEX
8
0
10
7.820128125
20
4.87313125
30
0
0
VERTEX
8
0
10
7.690396875
20
5.18633125
30
0
42
0.668189684777048
0
VERTEX
8
0
10
7.549596875000001
20
5.18633125
30
0
0
VERTEX
8
0
10
7.41986875
20
4.87313125
30
0
0
VERTEX
8
0
10
7.064865625
20
4.5181281250000005
30
0
0
VERTEX
8
0
10
6.601028125
20
4.3260000000000005
30
0
0
VERTEX
8
0
10
6.09896875
20
4.3260000000000005
30
0
0
VERTEX
8
0
10
5.635131250000001
20
4.5181281250000005
30
0
0
VERTEX
8
0
10
5.280128125
20
4.87313125
30
0
0
VERTEX
8
0
10
5.150396875
20
5.18633125
30
0
42
0.668189684777048
0
VERTEX
8
0
10
5.009596875000001
20
5.18633125
30
0
0
VERTEX
8
0
10
4.87986875
20
4.87313125
30
0
0
VERTEX
8
0
10
4.524865625
20
4.5181281250000005
30
0
0
VERTEX
8
0
10
4.061028125
20
4.3260000000000005
30
0
0
VERTEX
8
0
10
3.789009375
20
4.3260000000000005
30
0
42
0.6681786379192989
0
VERTEX
8
0
10
3.735128125
20
4.195918750000001
30
0
0
VERTEX
8
0
10
4.2490781250000005
20
3.6819718750000003
30
0
0
VERTEX
8
0
10
4.555996875
20
2.94100625
30
0
0
VERTEX
8
0
10
4.555996875
20
2.138990625
30
0
0
VERTEX
8
0
10
4.2490781250000005
20
1.398025
30
0
0
VERTEX
8
0
10
3.997128125
20
1.146078125
30
0
42
0.6681786379192989
0
VERTEX
8
0
10
4.0510093750000005
20
1.0159968750000001
30
0
0
VERTEX
8
0
10
18.8089875
20
1.0159968750000001
30
0
0
SEQEND
0
CIRCLE
8
drills_NPTH
10
2.54
20
2.54
30
0
40
1
0
CIRCLE
8
drills_NPTH
10
20.32
20
2.54
30
0
40
1
0
CIRCLE
8
drills_NPTH
10
20.32
20
21.59
30
0
40
1
0
CIRCLE
8
drills_NPTH
10
2.54
20
21.59
30
0
40
1
0
CIRCLE
8
drills_PTH
10
15.24
20
19.05
30
0
40
0.508
0
CIRCLE
8
drills_PTH
10
12.700000000000001
20
19.05
30
0
40
0.508
0
CIRCLE
8
drills_PTH
10
10.16
20
19.05
30
0
40
0.508
0
CIRCLE
8
drills_PTH
10
7.62
20
19.05
30
0
40
0.508
0
CIRCLE
8
drills_PTH
10
3.81
20
6.3500000000000005
30
0
40
0.508
0
CIRCLE
8
drills_PTH
10
6.3500000000000005
20
6.3500000000000005
30
0
40
0.508
0
CIRCLE
8
drills_PTH
10
8.89
20
6.3500000000000005
30
0
40
0.508
0
CIRCLE
8
drills_PTH
10
11.43
20
6.3500000000000005
30
0
40
0.508
0
CIRCLE
8
drills_PTH
10
13.97
20
6.3500000000000005
30
0
40
0.508
0
CIRCLE
8
drills_PTH
10
16.51
20
6.3500000000000005
30
0
40
0.508
0
CIRCLE
8
drills_PTH
10
19.05
20
6.3500000000000005
30
0
40
0.508
0
ENDSEC
0
EOF